<svg width="356" height="315" viewBox="0 0 356 315" fill="none" xmlns="http://www.w3.org/2000/svg">
<g clip-path="url(#clip0)">
<path d="M182.068 315.009C278.128 315.009 356 272.627 356 220.345C356 168.064 278.128 125.681 182.068 125.681C86.0074 125.681 8.13525 168.064 8.13525 220.345C8.13525 272.627 86.0074 315.009 182.068 315.009Z" fill="#F5F5F5"/>
<path d="M270.061 208.949C290.097 208.949 306.339 199.564 306.339 187.987C306.339 176.41 290.097 167.025 270.061 167.025C250.025 167.025 233.783 176.41 233.783 187.987C233.783 199.564 250.025 208.949 270.061 208.949Z" fill="#E0E0E0"/>
<path d="M73.8496 262.106C93.8852 262.106 110.127 252.721 110.127 241.144C110.127 229.567 93.8852 220.182 73.8496 220.182C53.8139 220.182 37.5718 229.567 37.5718 241.144C37.5718 252.721 53.8139 262.106 73.8496 262.106Z" fill="#E0E0E0"/>
<path d="M324.563 180.641L319.324 177.651C319.324 177.651 316.808 163.782 318.691 151.87C321.333 135.12 332.726 129.341 336.861 131.035C340.997 132.729 341.974 137.657 334.499 147.341C330.092 153.02 324.419 165.096 324.563 180.641Z" fill="#E8505B"/>
<g opacity="0.1">
<path opacity="0.1" d="M324.563 180.641L319.324 177.651C319.324 177.651 316.808 163.782 318.691 151.87C321.333 135.12 332.726 129.341 336.861 131.035C340.997 132.729 341.974 137.657 334.499 147.341C330.092 153.02 324.419 165.096 324.563 180.641Z" fill="black"/>
</g>
<path d="M322.075 173.819H322.147C322.196 173.815 322.244 173.801 322.287 173.778C322.33 173.755 322.369 173.723 322.4 173.685C322.431 173.647 322.454 173.604 322.468 173.557C322.482 173.51 322.487 173.46 322.482 173.412C320.772 157.668 327.568 140.673 334.843 133.961C334.913 133.89 334.953 133.794 334.953 133.694C334.953 133.594 334.913 133.498 334.843 133.426C334.771 133.358 334.675 133.32 334.576 133.32C334.477 133.32 334.381 133.358 334.309 133.426C326.898 140.266 319.976 157.532 321.713 173.511C321.726 173.598 321.77 173.676 321.836 173.733C321.903 173.79 321.988 173.82 322.075 173.819Z" fill="white"/>
<path d="M339.096 189.047C339.92 189.527 341.63 188.485 342.282 188.042C343.405 187.283 344.31 186.243 344.906 185.025C345.583 183.647 345.814 182.092 345.566 180.577C345.438 179.776 345.251 178.986 345.005 178.213C344.788 177.443 344.562 176.682 344.345 175.912C344.077 175.17 343.963 174.381 344.01 173.593C344.209 172.026 345.603 170.921 346.869 169.969C348.272 168.928 349.729 167.542 349.72 165.648C349.617 164.181 349.031 162.789 348.055 161.69C347.15 160.539 346.082 159.525 345.268 158.32C344.625 157.478 344.287 156.444 344.309 155.385C344.402 154.745 344.621 154.129 344.951 153.573C345.719 152.4 346.391 151.167 346.96 149.886C347.237 149.241 347.324 148.53 347.212 147.837C347.1 147.144 346.792 146.497 346.326 145.973C345.865 145.627 345.339 145.377 344.779 145.239C344.22 145.1 343.638 145.076 343.069 145.166C341.996 145.294 340.964 145.656 340.046 146.226C337.051 147.902 335.332 151.453 332.156 152.74C330.891 153.123 329.604 153.426 328.301 153.645C327.648 153.767 327.028 154.023 326.481 154.4C325.934 154.776 325.472 155.262 325.124 155.829C323.957 158.157 326.12 161.037 325.305 163.52C324.572 165.712 322.446 166.554 321.251 168.529C320.759 169.404 320.562 170.414 320.69 171.41C320.793 173.086 321.204 174.729 321.903 176.256C322.676 177.781 323.566 179.244 324.563 180.631C324.609 180.695 338.97 188.975 339.096 189.047Z" fill="#E8505B"/>
<path d="M330.59 184.518C330.64 184.517 330.688 184.506 330.734 184.485C330.779 184.465 330.82 184.436 330.853 184.399C330.887 184.363 330.913 184.32 330.93 184.274C330.947 184.227 330.955 184.178 330.952 184.128C330.337 169.281 337.287 152.894 342.408 148.129C342.476 148.058 342.513 147.964 342.513 147.866C342.513 147.768 342.476 147.674 342.408 147.603C342.374 147.567 342.332 147.539 342.286 147.519C342.24 147.5 342.191 147.49 342.141 147.49C342.092 147.49 342.042 147.5 341.996 147.519C341.95 147.539 341.909 147.567 341.874 147.603C336.698 152.459 329.568 169.118 330.192 184.173C330.201 184.271 330.248 184.362 330.322 184.426C330.396 184.49 330.492 184.523 330.59 184.518Z" fill="white"/>
<path d="M332.816 166.971H332.925C336.437 166 340.045 165.417 343.684 165.232C343.734 165.23 343.782 165.219 343.828 165.199C343.873 165.179 343.913 165.15 343.947 165.113C343.981 165.077 344.007 165.034 344.024 164.988C344.041 164.941 344.049 164.892 344.046 164.842C344.045 164.793 344.034 164.744 344.014 164.698C343.993 164.653 343.964 164.613 343.928 164.579C343.892 164.545 343.849 164.519 343.802 164.502C343.756 164.485 343.706 164.477 343.657 164.48C339.95 164.688 336.276 165.295 332.699 166.292C332.605 166.321 332.527 166.386 332.481 166.472C332.436 166.559 332.426 166.66 332.454 166.753C332.486 166.821 332.538 166.878 332.602 166.917C332.667 166.956 332.741 166.975 332.816 166.971Z" fill="white"/>
<path d="M23.0479 197.481L28.2602 194.464C28.2602 194.464 30.794 180.604 28.9118 168.692C26.2694 151.933 14.8766 146.163 10.7412 147.857C6.60576 149.551 5.62846 154.488 13.103 164.163C17.5099 169.87 23.1927 181.963 23.0479 197.481Z" fill="#E8505B"/>
<g opacity="0.1">
<path opacity="0.1" d="M23.0479 197.481L28.2602 194.464C28.2602 194.464 30.794 180.604 28.9118 168.692C26.2694 151.933 14.8766 146.163 10.7412 147.857C6.60576 149.551 5.62846 154.488 13.103 164.163C17.5099 169.87 23.1927 181.963 23.0479 197.481Z" fill="black"/>
</g>
<path d="M25.8441 196.711C25.7401 196.704 25.643 196.656 25.5736 196.578C25.5042 196.5 25.4682 196.398 25.4731 196.294C26.7038 172.968 23.419 159.651 14.4875 151.77C14.4168 151.698 14.3772 151.6 14.3772 151.499C14.3772 151.397 14.4168 151.3 14.4875 151.227C14.5229 151.191 14.5652 151.162 14.6118 151.142C14.6584 151.123 14.7085 151.113 14.759 151.113C14.8096 151.113 14.8596 151.123 14.9062 151.142C14.9529 151.162 14.9951 151.191 15.0305 151.227C24.161 159.28 27.5182 172.787 26.2785 196.376C26.265 196.478 26.2117 196.57 26.1303 196.633C26.049 196.696 25.9461 196.724 25.8441 196.711Z" fill="white"/>
<path d="M24.6317 196.575C24.7402 191.556 21.8264 174.952 12.0082 168.919C2.18993 162.885 -2.57893 170.395 1.40266 174.961C4.31647 178.303 9.74592 180.713 14.8496 187.643C18.3606 192.39 20.3695 199.066 20.3695 199.066L24.6317 196.575Z" fill="#E8505B"/>
<path d="M22.8672 198.532C22.7709 198.532 22.6782 198.496 22.6076 198.43C22.5371 198.364 22.494 198.274 22.4871 198.178C21.537 185.496 14.343 174.155 5.02241 170.558C4.92522 170.521 4.84678 170.447 4.80435 170.351C4.76192 170.256 4.75899 170.148 4.79619 170.051C4.83339 169.954 4.90767 169.875 5.00271 169.833C5.09774 169.79 5.20574 169.787 5.30294 169.824C14.9131 173.539 22.2971 185.17 23.2563 198.115C23.2639 198.217 23.2311 198.318 23.1651 198.396C23.099 198.474 23.0051 198.522 22.9034 198.532H22.8672Z" fill="white"/>
<path d="M220.617 48.9173C221.802 49.9047 223.16 50.4029 224.716 51.9157C225.7 53.0377 226.942 53.9021 228.336 54.434C230.145 55.1406 231.82 54.9323 236.806 54.1351C242.896 53.1568 245.511 52.1331 248.144 49.8865C251.212 47.2686 258.098 39.3512 261.41 36.2441C264.921 32.9557 269.753 34.224 269.753 34.224C268.259 39.0928 266.038 43.7075 263.166 47.9117C260.505 51.7074 255.528 55.3399 253.284 57.206C249.664 60.2045 247.773 61.3912 239.864 61.989C236 62.4115 232.112 62.5598 228.227 62.4329C226.462 62.4329 225.368 62.3695 222.472 62.1249C221.215 62.0472 219.971 61.8315 218.762 61.4818C217.401 61.1651 216.096 60.646 214.889 59.9418C213.312 58.9142 212.04 57.4813 211.206 55.7929C210.744 54.8678 210.509 53.8464 210.518 52.8125C210.528 51.7719 210.91 50.7693 211.595 49.9862C211.725 49.823 211.897 49.6979 212.093 49.6238C212.467 49.5545 212.854 49.6359 213.169 49.8503C215.02 50.9577 216.926 51.9706 218.879 52.885C220.526 53.5191 221.784 53.7456 221.666 53.4104C221.549 53.0752 220.544 52.7672 219.513 51.5986C218.481 50.4301 218.237 48.8267 218.897 48.3284C219.558 47.8302 219.431 47.9389 220.617 48.9173Z" fill="#FFA8A7"/>
<path d="M271.165 34.1968C269.292 33.2888 267.166 33.0491 265.138 33.5174C262.062 34.4233 259.6 36.4162 256.668 39.5596C253.736 42.703 248.786 47.8121 248.786 47.8121C248.786 47.8121 251.221 53.9811 256.695 56.1733L268.17 45.5474L271.165 34.1968Z" fill="#E0E0E0"/>
<path d="M288.023 175.269H281.065V187.19H288.023V175.269Z" fill="#FFA8A7"/>
<path d="M268.767 178.267L261.817 178.512L261.464 165.893L268.767 165.648V178.267Z" fill="#FFA8A7"/>
<path d="M290.991 86.2303C290.991 92.8794 289.815 131.569 289.815 131.569C289.978 133.481 291.815 136.887 291.96 143.781C292.168 153.745 288.34 181.229 288.34 181.229C287.139 181.82 285.822 182.14 284.484 182.167C283.146 182.193 281.818 181.926 280.594 181.383C280.594 181.383 277.436 144.17 276.187 134.278C275.101 125.636 273.255 102.174 273.255 102.174L269.979 130.374C270.786 134.004 271.076 137.731 270.839 141.443C270.513 146.018 269.228 174.363 269.228 174.363C268.016 175.05 266.668 175.461 265.279 175.568C263.89 175.674 262.495 175.473 261.193 174.979C261.193 174.979 256.288 134.568 256.207 130.374C256.116 125.581 258.017 76.7005 258.017 76.7005L290.991 86.2303Z" fill="#37474F"/>
<path d="M286.422 37.2949C287.954 37.9689 289.158 39.2228 289.77 40.7825C290.483 42.7091 290.83 44.7523 290.792 46.8066V60.4581L290.991 86.2303C281.037 91.4934 268.305 91.8467 257.646 84.0562C257.646 84.0562 258.243 50.883 258.243 45.4568C258.243 45.2122 258.243 44.9676 258.243 44.714C258.632 36.9688 266.251 31.6513 273.762 33.5808L280.096 35.2023L286.431 37.2949H286.422Z" fill="#F0F0F0"/>
<path d="M278.115 11.9032C278.116 13.7974 277.557 15.6495 276.507 17.2253C275.457 18.8011 273.964 20.0298 272.216 20.7559C270.469 21.482 268.545 21.6729 266.689 21.3045C264.833 20.936 263.128 20.0248 261.789 18.6861C260.451 17.3473 259.539 15.6412 259.169 13.7836C258.799 11.926 258.988 10.0003 259.712 8.25012C260.436 6.49997 261.662 5.00401 263.235 3.95148C264.808 2.89896 266.657 2.33716 268.55 2.33716C271.085 2.33716 273.516 3.34472 275.31 5.13844C277.103 6.93216 278.112 9.36529 278.115 11.9032Z" fill="#E8505B"/>
<path opacity="0.5" d="M278.115 11.9032C278.116 13.7974 277.557 15.6495 276.507 17.2253C275.457 18.8011 273.964 20.0298 272.216 20.7559C270.469 21.482 268.545 21.6729 266.689 21.3045C264.833 20.936 263.128 20.0248 261.789 18.6861C260.451 17.3473 259.539 15.6412 259.169 13.7836C258.799 11.926 258.988 10.0003 259.712 8.25012C260.436 6.49997 261.662 5.00401 263.235 3.95148C264.808 2.89896 266.657 2.33716 268.55 2.33716C271.085 2.33716 273.516 3.34472 275.31 5.13844C277.103 6.93216 278.112 9.36529 278.115 11.9032Z" fill="black"/>
<path d="M285.046 18.7154C285.046 18.7154 283.499 25.9624 282.874 27.2034C282.459 27.9408 281.775 28.4892 280.965 28.7344L281.074 23.6071L285.046 18.7154Z" fill="#E8505B"/>
<path opacity="0.5" d="M285.046 18.7154C285.046 18.7154 283.499 25.9624 282.874 27.2034C282.459 27.9408 281.775 28.4892 280.965 28.7344L281.074 23.6071L285.046 18.7154Z" fill="black"/>
<path d="M283.137 8.27064C283.679 8.21074 284.227 8.27414 284.741 8.45609C285.255 8.63805 285.721 8.93386 286.105 9.32146C287.381 10.6259 286.666 14.7114 285.082 18.7154L282.16 19.0506L283.137 8.27064Z" fill="#E8505B"/>
<path opacity="0.5" d="M283.137 8.27064C283.679 8.21074 284.227 8.27414 284.741 8.45609C285.255 8.63805 285.721 8.93386 286.105 9.32146C287.381 10.6259 286.666 14.7114 285.082 18.7154L282.16 19.0506L283.137 8.27064Z" fill="black"/>
<path d="M281.291 19.0234C281.87 19.3767 282.702 18.2443 283.426 17.4924C284.15 16.7406 286.503 15.6807 287.679 18.1809C288.856 20.6811 286.648 24.051 284.793 24.6307C281.589 25.6363 281.11 23.5799 281.11 23.5799L280.875 35.4831C276.902 40.5832 265.871 40.1484 270.468 34.8218V31.3342C269.045 31.564 267.6 31.64 266.161 31.5607C263.808 31.1893 262.324 29.3322 261.636 26.7867C260.487 22.6922 260.053 19.3948 261.021 11.3869C262.089 2.57268 272.341 2.47304 277.87 5.9516C283.399 9.43016 281.291 19.0234 281.291 19.0234Z" fill="#FFA8A7"/>
<path d="M281.282 20.038C281.58 20.038 282.702 18.1809 283.426 17.5196C284.44 16.6137 283.137 8.27064 283.137 8.27064C283.401 7.54943 283.449 6.76684 283.275 6.01869C283.102 5.27053 282.714 4.58928 282.159 4.05832C280.775 2.53645 278.467 2.36433 274.522 1.74834C272.45 1.42222 269.31 0.842463 267.283 0.452937C264.812 -6.03497e-07 262.758 -0.452938 261.021 1.02364C260.338 1.61756 259.856 2.40833 259.641 3.28743C259.425 4.16652 259.487 5.09083 259.817 5.93348C259.994 6.31775 260.229 6.67224 260.514 6.9843C260.995 7.54927 261.621 7.97212 262.324 8.20723C262.324 8.20723 263.401 9.16746 267.147 9.62039C270.605 9.88716 274.081 9.82042 277.526 9.4211C278.612 9.27616 278.847 10.327 279.427 13.2077C279.87 15.7351 280.295 20.0198 281.282 20.038Z" fill="#E8505B"/>
<path opacity="0.5" d="M281.282 20.038C281.58 20.038 282.702 18.1809 283.426 17.5196C284.44 16.6137 283.137 8.27064 283.137 8.27064C283.401 7.54943 283.449 6.76684 283.275 6.01869C283.102 5.27053 282.714 4.58928 282.159 4.05832C280.775 2.53645 278.467 2.36433 274.522 1.74834C272.45 1.42222 269.31 0.842463 267.283 0.452937C264.812 -6.03497e-07 262.758 -0.452938 261.021 1.02364C260.338 1.61756 259.856 2.40833 259.641 3.28743C259.425 4.16652 259.487 5.09083 259.817 5.93348C259.994 6.31775 260.229 6.67224 260.514 6.9843C260.995 7.54927 261.621 7.97212 262.324 8.20723C262.324 8.20723 263.401 9.16746 267.147 9.62039C270.605 9.88716 274.081 9.82042 277.526 9.4211C278.612 9.27616 278.847 10.327 279.427 13.2077C279.87 15.7351 280.295 20.0198 281.282 20.038Z" fill="black"/>
<path d="M283.128 8.92287L286.666 7.02053C286.556 6.77506 286.396 6.55514 286.196 6.37466C285.997 6.19418 285.762 6.05705 285.507 5.97194C285.252 5.88682 284.982 5.85555 284.714 5.88012C284.446 5.90468 284.187 5.98454 283.951 6.11466C283.48 6.38702 283.131 6.83073 282.978 7.35367C282.824 7.8766 282.878 8.43857 283.128 8.92287Z" fill="#E8505B"/>
<path opacity="0.5" d="M283.128 8.92287L286.666 7.02053C286.556 6.77506 286.396 6.55514 286.196 6.37466C285.997 6.19418 285.762 6.05705 285.507 5.97194C285.252 5.88682 284.982 5.85555 284.714 5.88012C284.446 5.90468 284.187 5.98454 283.951 6.11466C283.48 6.38702 283.131 6.83073 282.978 7.35367C282.824 7.8766 282.878 8.43857 283.128 8.92287Z" fill="black"/>
<path d="M270.477 31.3342C270.477 31.3342 275.726 30.2743 277.563 29.3051C278.638 28.7352 279.519 27.8587 280.096 26.7867C279.82 27.8605 279.33 28.8678 278.658 29.7489C277.309 31.4701 270.513 32.7293 270.513 32.7293L270.477 31.3342Z" fill="#F28F8F"/>
<path d="M270.73 17.737C270.726 18.0214 270.833 18.2962 271.03 18.5015C271.226 18.7068 271.496 18.826 271.78 18.8331C272.067 18.826 272.339 18.7059 272.537 18.4988C272.735 18.2918 272.844 18.0148 272.839 17.728C272.853 17.5812 272.835 17.4331 272.789 17.2933C272.742 17.1535 272.666 17.0251 272.567 16.9161C272.468 16.8071 272.347 16.7201 272.212 16.6605C272.078 16.601 271.932 16.5702 271.785 16.5702C271.637 16.5702 271.492 16.601 271.357 16.6605C271.222 16.7201 271.101 16.8071 271.002 16.9161C270.903 17.0251 270.828 17.1535 270.781 17.2933C270.734 17.4331 270.717 17.5812 270.73 17.728V17.737Z" fill="#263238"/>
<path d="M271.844 13.7602L274.097 15.0104C274.265 14.7 274.305 14.3357 274.206 13.9964C274.108 13.6572 273.88 13.3705 273.572 13.1986C273.422 13.1181 273.258 13.0688 273.089 13.0535C272.92 13.0383 272.749 13.0575 272.588 13.11C272.426 13.1625 272.277 13.2471 272.149 13.3589C272.021 13.4706 271.917 13.6072 271.844 13.7602Z" fill="#263238"/>
<path d="M270.948 25.0112L268.55 25.9171C268.601 26.0784 268.685 26.2274 268.796 26.3553C268.907 26.4831 269.043 26.587 269.195 26.6607C269.348 26.7344 269.513 26.7764 269.682 26.784C269.851 26.7917 270.02 26.7648 270.179 26.7052C270.504 26.5812 270.767 26.3337 270.911 26.0165C271.055 25.6993 271.068 25.3381 270.948 25.0112Z" fill="#F28F8F"/>
<path d="M261.654 14.6389L263.708 13.0537C263.612 12.9106 263.488 12.7892 263.342 12.697C263.197 12.6049 263.034 12.5441 262.863 12.5185C262.693 12.493 262.519 12.5032 262.353 12.5485C262.187 12.5939 262.032 12.6733 261.899 12.7819C261.63 13.0023 261.454 13.317 261.409 13.662C261.364 14.007 261.451 14.3564 261.654 14.6389Z" fill="#263238"/>
<path d="M262.288 17.4381C262.284 17.5796 262.309 17.7203 262.36 17.852C262.412 17.9838 262.489 18.1039 262.588 18.2052C262.687 18.3065 262.805 18.387 262.935 18.442C263.065 18.4969 263.205 18.5252 263.346 18.5251C263.565 18.5324 263.78 18.474 263.965 18.3577C264.15 18.2413 264.296 18.0722 264.384 17.8721C264.473 17.672 264.499 17.4501 264.46 17.2349C264.421 17.0197 264.319 16.821 264.167 16.6644C264.014 16.5079 263.818 16.4005 263.604 16.3562C263.39 16.3119 263.168 16.3327 262.966 16.4159C262.764 16.4991 262.591 16.6409 262.471 16.8231C262.35 17.0052 262.286 17.2194 262.288 17.4381Z" fill="#263238"/>
<path d="M267.645 16.4416L267.301 22.7737L263.998 21.6414L267.645 16.4416Z" fill="#F28F8F"/>
<path d="M281.065 183.757V182.76C280.404 183.05 278.857 188.956 276.097 191.475C273.898 193.486 270.903 195.796 270.142 198.033C269.382 200.271 274.314 201.657 276.359 201.276C278.748 200.851 282.874 199.175 283.915 197.653C284.956 196.131 285.435 193.803 286.277 192.662C287.118 191.52 289.064 190.243 289.516 188.92C289.77 188.196 289.471 186.61 289.118 185.297C288.765 183.983 288.449 182.706 288.023 182.824V183.585C287.033 184.363 285.807 184.779 284.549 184.762C283.526 184.735 281.056 184.536 281.065 183.757Z" fill="#263238"/>
<path d="M261.745 176.365C261.383 176.365 261.084 176.89 260.288 177.751C259.098 178.954 257.716 179.949 256.198 180.695C253.592 181.999 248.524 184.01 246.244 185.043C244.805 185.695 244.877 187.426 246.352 188.413C247.827 189.4 251.411 190.107 255.7 189.147C258.044 188.621 261.084 186.429 263.012 186.574C264.939 186.719 268.541 186.665 269.961 185.668C271.382 184.672 270.821 182.588 270.414 180.786C269.979 178.82 269.427 175.758 268.776 175.894V176.573C267.943 177.841 263.627 178.385 261.79 177.425L261.745 176.365Z" fill="#263238"/>
<path d="M273.282 102.174C269.684 101.052 266.376 99.1536 263.591 96.6116C263.591 96.6116 265.464 100.117 271.02 103.378L270.278 128L273.282 102.174Z" fill="#263238"/>
<path d="M67.7777 57.3963H68.384C70.3368 57.3951 72.2706 57.7792 74.075 58.5268C75.8793 59.2743 77.5188 60.3706 78.8996 61.7529C80.2805 63.1352 81.3756 64.7764 82.1223 66.5827C82.8691 68.389 83.2528 70.3249 83.2516 72.2798V100.96H52.91V72.2798C52.9088 70.3249 53.2926 68.389 54.0393 66.5827C54.7861 64.7764 55.8812 63.1352 57.262 61.7529C58.6428 60.3706 60.2823 59.2743 62.0867 58.5268C63.891 57.7792 65.8249 57.3951 67.7777 57.3963Z" fill="#263238"/>
<path d="M65.8412 246.398L63.8866 244.668C61.9953 242.938 60.5565 240.012 59.7331 238.019C59.2578 236.87 59.0149 235.638 59.0182 234.395V230.509H52.1952V236.85V237.022C52.521 238.435 55.6519 242.213 57.4346 244.668C58.62 246.317 60.8823 248.418 63.588 248.78C66.1941 249.116 67.5062 248.309 65.8412 246.398Z" fill="#FFA8A7"/>
<path d="M85.541 235.99C85.7305 235.874 85.8963 235.723 86.0297 235.546C86.5545 234.812 86.1383 234.413 85.7492 233.834C85.2819 233.023 84.8911 232.171 84.5818 231.288C84.2651 230.518 83.8489 229.123 83.8489 229.123C83.8489 229.123 83.8489 228.099 83.8489 227.692V223.806H77.0439V230.31C77.3969 231.832 78.7723 233.29 79.6772 234.504C80.374 235.41 82.1748 235.908 83.2969 236.144C83.7752 236.267 84.2722 236.301 84.7628 236.243C85.0354 236.206 85.299 236.12 85.541 235.99Z" fill="#FFA8A7"/>
<path d="M53.5525 130.99C48.2679 142.549 53.7426 183.259 53.7426 183.259C53.5887 185.134 51.4441 188.83 50.6478 197.082C49.7429 206.838 52.1228 231.324 52.1228 231.324C53.1631 231.928 54.3351 232.269 55.5368 232.316C56.7385 232.363 57.9336 232.116 59.0182 231.596C59.0182 231.596 65.5154 194.763 66.7371 185.016C67.8048 176.555 69.8499 157.939 69.8499 157.939L73.922 185.007C73.0839 187.735 72.4785 190.529 72.1122 193.359C71.5602 199.066 77.0802 225.617 77.0802 225.617C77.0802 225.617 79.4329 226.523 83.9032 225.826C83.9032 225.826 85.8578 190.578 86.3645 183.711C87.2694 172.171 85.9211 136.126 83.8036 129.296L53.5525 130.99Z" fill="#37474F"/>
<path d="M69.85 157.939L71.5693 147.205C71.5693 147.205 78.8086 145.701 82.1205 142.603C79.8465 145.271 76.8717 147.248 73.533 148.31L71.6055 156.581L73.2977 181.094L69.85 157.939Z" fill="#263238"/>
<path d="M59.0363 235.799V234.821C59.6878 235.102 61.2171 240.917 63.9318 243.391C66.0855 245.356 69.0265 247.63 69.7775 249.831C70.5286 252.033 65.6783 253.373 63.6694 253.011C61.3257 252.594 57.2717 250.946 56.2492 249.387C55.2266 247.829 54.7561 245.61 53.9235 244.487C53.091 243.363 51.2088 242.113 50.7473 240.818C50.6081 239.596 50.741 238.359 51.1364 237.194C51.4531 235.99 51.797 234.658 52.2133 234.767V235.518C53.1866 236.279 54.39 236.685 55.6248 236.669C56.6202 236.769 59.0453 236.569 59.0363 235.799Z" fill="#263238"/>
<path d="M83.8489 229.123C84.2018 229.123 84.5818 229.667 85.3691 230.518C86.5415 231.697 87.8987 232.676 89.3869 233.417C91.9478 234.694 96.9248 236.669 99.178 237.684C100.581 238.318 100.517 240.021 99.0604 240.99C97.6035 241.959 94.1015 242.657 89.8846 241.715C87.5861 241.198 84.5999 239.079 82.6996 239.187C80.7993 239.296 77.2702 239.278 75.8766 238.281C74.4831 237.285 75.0351 235.265 75.4332 233.498C75.8585 231.56 76.4015 228.552 77.0349 228.688V229.349C77.8584 230.6 82.1024 231.107 83.9032 230.183L83.8489 229.123Z" fill="#263238"/>
<path d="M74.2026 90.5151C75.8594 90.3707 77.5256 90.6528 79.0429 91.3346C80.5602 92.0163 81.8781 93.0751 82.8716 94.4103C85.5863 97.9704 92.8256 112.582 92.8256 112.582C92.8256 112.582 108.607 111.522 109.367 110.607C110.127 109.692 109.693 107.89 109.485 106.83C109.277 105.77 108.933 103.551 108.707 102.916C108.309 101.811 109.946 102.11 110.915 103.143C111.883 104.176 112.308 106.205 112.788 106.558C113.267 106.911 116.932 102.69 118.715 100.652C120.498 98.6136 121.321 97.1914 122.516 98.0338C123.375 98.6408 122.823 99.8456 121.547 101.585C120.955 102.323 120.405 103.094 119.9 103.895C119.747 104.212 120.217 104.456 120.407 104.629C120.751 104.937 121.366 105.444 121.403 105.924C121.398 106.188 121.416 106.451 121.457 106.712C121.62 107.292 122.362 107.564 122.543 108.134C122.688 108.542 122.543 109.04 122.606 109.439C122.66 109.711 122.814 109.964 122.859 110.236C122.879 110.513 122.839 110.791 122.74 111.051C122.642 111.31 122.488 111.546 122.289 111.74C121.041 113.225 119.339 113.796 117.701 114.702C116.344 115.454 114.932 115.78 113.367 116.514C111.801 117.247 92.6174 122.184 89.7489 120.59C86.8803 118.996 75.8676 101.703 75.8676 101.703C71.4878 94.5553 74.2026 90.5151 74.2026 90.5151Z" fill="#FFA8A7"/>
<path d="M62.8821 90.8321C56.1043 91.3032 55.6428 94.5734 53.9325 98.1606C52.6385 100.878 53.0276 104.139 54.0502 106.993L58.3304 120.581C58.3304 120.581 56.1043 125.917 53.5525 130.99C65.4068 137.612 80.202 134.124 83.7674 129.296C83.9212 128.272 83.0073 120.237 82.4372 115.019C84.5275 109.783 85.0795 106.458 84.1927 102.989C82.5639 96.5572 76.2114 90.3067 73.4062 90.5241L62.8821 90.8321Z" fill="#E8505B"/>
<path d="M52.177 63.6649L54.2312 66.9714C54.0203 67.1242 53.78 67.2315 53.5255 67.2866C53.271 67.3416 53.0079 67.3433 52.7527 67.2913C52.4976 67.2394 52.256 67.135 52.0432 66.9848C51.8304 66.8346 51.651 66.6419 51.5165 66.4188C51.2508 65.963 51.1712 65.4221 51.2943 64.909C51.4174 64.3959 51.7336 63.9502 52.177 63.6649Z" fill="#263238"/>
<path d="M78.2656 63.5381C79.8673 64.444 81.8852 68.5204 81.65 76.9813C81.4871 84.1468 79.1615 85.9132 78.0303 86.4296C76.8992 86.9459 74.6098 86.6288 72.4289 86.2574V90.5875C72.4289 90.5875 75.4513 94.1023 75.2613 96.0771C75.0713 98.0519 70.8996 98.5139 68.0763 96.5844C66.2429 95.2666 64.669 93.6203 63.4341 91.7289V81.3023C63.2064 81.5861 62.924 81.8212 62.6037 81.9937C62.2835 82.1661 61.9318 82.2724 61.5698 82.3062C61.2077 82.34 60.8425 82.3007 60.4959 82.1904C60.1493 82.0802 59.8283 81.9014 59.5521 81.6647C57.1088 80.0613 57.0093 76.0935 58.421 74.6713C59.8326 73.2491 62.846 73.6929 63.407 75.6678C66.2814 75.5504 69.0809 74.7158 71.5512 73.24C73.3529 72.2645 74.8997 70.8777 76.0663 69.1921C77.2328 67.5065 77.9863 65.5695 78.2656 63.5381Z" fill="#FFA8A7"/>
<path d="M72.8543 75.1876C72.8641 75.3081 72.8498 75.4293 72.8121 75.5442C72.7745 75.659 72.7142 75.7651 72.635 75.8563C72.5557 75.9475 72.459 76.0218 72.3506 76.075C72.2422 76.1282 72.1242 76.1591 72.0037 76.166C71.8259 76.1761 71.6492 76.1335 71.4955 76.0435C71.3419 75.9535 71.2181 75.8202 71.1398 75.6602C71.0615 75.5002 71.032 75.3206 71.0552 75.1439C71.0783 74.9672 71.1529 74.8013 71.2698 74.6668C71.3867 74.5324 71.5406 74.4355 71.7122 74.3882C71.8838 74.3409 72.0656 74.3453 72.2347 74.4009C72.4038 74.4565 72.5528 74.5608 72.663 74.7007C72.7732 74.8407 72.8398 75.01 72.8543 75.1876Z" fill="#263238"/>
<path d="M73.8949 81.257L75.9853 81.9183C75.949 82.0591 75.8845 82.1909 75.7956 82.3059C75.7067 82.4208 75.5953 82.5164 75.4682 82.5867C75.3412 82.6571 75.2011 82.7008 75.0567 82.7152C74.9122 82.7295 74.7663 82.7142 74.6279 82.6702C74.3459 82.5766 74.1115 82.3766 73.9746 82.1127C73.8377 81.8487 73.8091 81.5417 73.8949 81.257Z" fill="#F28F8F"/>
<path d="M80.2383 72.4066L78.4285 71.1474C78.5035 71.0234 78.6035 70.9163 78.7219 70.8328C78.8404 70.7494 78.9748 70.6913 79.1167 70.6624C79.2587 70.6335 79.4051 70.6343 79.5467 70.6647C79.6883 70.6952 79.8221 70.7547 79.9397 70.8394C80.1803 71.0128 80.3455 71.2719 80.401 71.5634C80.4566 71.855 80.3983 72.1568 80.2383 72.4066Z" fill="#263238"/>
<path d="M79.813 74.5263C79.813 74.7055 79.7599 74.8807 79.6605 75.0296C79.561 75.1786 79.4197 75.2947 79.2544 75.3633C79.089 75.4318 78.9071 75.4498 78.7315 75.4148C78.556 75.3799 78.3948 75.2936 78.2682 75.1669C78.1417 75.0402 78.0555 74.8788 78.0206 74.7031C77.9856 74.5274 78.0036 74.3452 78.0721 74.1797C78.1405 74.0142 78.2565 73.8727 78.4053 73.7731C78.5542 73.6736 78.7291 73.6205 78.9081 73.6205C79.1481 73.6205 79.3782 73.7159 79.5479 73.8858C79.7176 74.0557 79.813 74.2861 79.813 74.5263Z" fill="#263238"/>
<path d="M75.4152 74.01L75.5599 79.4362L78.4195 78.5484L75.4152 74.01Z" fill="#F28F8F"/>
<path d="M72.3928 86.2574C70.0943 85.9585 65.3526 84.5997 64.6196 82.7245C64.9097 83.6871 65.4915 84.5355 66.2847 85.1523C67.6963 86.3299 72.3928 87.6978 72.3928 87.6978V86.2574Z" fill="#F28F8F"/>
<path opacity="0.1" d="M65.9135 132.258C62.683 131.497 59.4073 127.964 60.8913 124.513C61.3107 123.544 62.0353 122.739 62.9545 122.221C63.2889 122.023 63.678 121.938 64.0642 121.979C64.4504 122.02 64.8132 122.184 65.0991 122.447C63.5698 121.433 60.8822 116.477 60.5203 114.666L58.7105 108.569C58.5414 107.173 58.6647 105.757 59.0724 104.411L54.2945 98.9035L53.3896 99.5104C52.6476 101.902 53.1996 104.601 54.023 106.993L58.3033 120.581C58.3033 120.581 56.1043 125.917 53.5525 130.99C57.4115 133.063 61.6694 134.286 66.0399 134.575C70.4103 134.864 74.7919 134.213 78.8899 132.665C74.5777 133.353 70.1742 133.215 65.9135 132.258Z" fill="black"/>
<path d="M121.891 267.713L106.508 258.809C104.906 257.857 104.01 255.475 104.019 252.413L103.956 184.735L119.448 193.712L119.385 261.599C119.385 264.588 120.353 266.726 121.891 267.713Z" fill="#E8505B"/>
<path opacity="0.2" d="M121.891 267.713L106.508 258.809C104.906 257.857 104.01 255.475 104.019 252.413L103.956 184.735L119.448 193.712L119.385 261.599C119.385 264.588 120.353 266.726 121.891 267.713Z" fill="black"/>
<path d="M122 267.777L121.891 267.713C120.344 266.726 119.385 264.588 119.385 261.599L119.448 193.712L103.92 184.735L117.349 176.89L117.466 176.827H117.512L119.421 175.722L121.575 174.227C121.605 174.214 121.633 174.196 121.656 174.173L121.746 174.109C121.864 174.037 121.955 173.946 122.063 173.874L122.181 173.792L122.552 173.502L122.914 173.221L123.212 172.968L123.33 172.877L123.439 172.778C123.638 172.624 123.837 172.451 124.018 172.288L124.316 172.017L124.434 171.908C124.796 171.564 125.158 171.201 125.493 170.839L125.62 170.721L126.018 170.277L126.199 170.051C126.258 169.992 126.312 169.928 126.362 169.861L126.407 169.797V169.734L126.488 169.634L126.904 169.118L127.23 168.638L127.312 168.529V168.484C127.456 168.278 127.592 168.07 127.719 167.859C127.846 167.668 127.945 167.487 128.054 167.297V167.225C128.135 167.062 128.226 166.908 128.316 166.735C128.407 166.563 128.407 166.572 128.443 166.491C128.479 166.409 128.66 166.074 128.75 165.857C128.814 165.721 128.877 165.594 128.931 165.458C128.986 165.322 129.049 165.195 129.103 165.06C129.158 164.924 129.203 164.833 129.239 164.715L129.375 164.371L129.646 163.538C129.71 163.302 129.791 163.067 129.854 162.822V162.722C129.927 162.469 129.99 162.197 130.045 161.943V161.862L130.18 161.228C130.244 160.929 130.307 160.594 130.343 160.267V160.113C130.347 160.038 130.347 159.962 130.343 159.887C130.348 159.86 130.348 159.832 130.343 159.805C130.343 159.733 130.343 159.661 130.343 159.579C130.343 159.199 130.416 158.827 130.443 158.465V158.293V157.867C130.443 157.305 130.461 156.735 130.497 156.155V156.082C130.497 155.919 130.497 155.774 130.497 155.602V155.176C130.497 154.995 130.497 154.796 130.497 154.615V154.461C130.497 154.415 130.497 154.361 130.497 154.316V153.999C130.497 153.709 130.497 153.428 130.434 153.165L130.352 152.459C130.215 151.409 130.001 150.37 129.71 149.352C129.529 148.727 129.339 148.156 129.158 147.621C128.721 146.399 128.417 145.132 128.253 143.844C128.253 143.59 128.189 143.319 128.171 143.038C128.153 142.757 128.171 142.44 128.117 142.132V142.05C128.113 141.975 128.113 141.899 128.117 141.824C128.1 141.661 128.1 141.497 128.117 141.335C128.117 137.711 130.298 133.562 132.995 132.004C133.261 131.846 133.547 131.725 133.845 131.642C134.041 131.591 134.241 131.56 134.442 131.551C134.632 131.528 134.823 131.528 135.012 131.551C135.109 131.558 135.203 131.58 135.293 131.615C135.561 131.693 135.819 131.802 136.062 131.941L151.572 140.909L151.835 141.081C152.346 141.555 152.741 142.141 152.989 142.793C153.237 143.445 153.332 144.146 153.264 144.84C153.264 145.125 153.249 145.409 153.219 145.692V145.792C153.106 148.038 152.745 150.265 152.142 152.432C152.007 152.984 151.88 153.537 151.744 154.126C151.699 154.325 151.654 154.515 151.618 154.714C151.482 155.312 151.355 155.919 151.256 156.581L151.147 157.233L162.078 151.064L177.616 160.041V177.896C177.616 182.914 177.235 186.257 176.457 188.132C175.914 189.418 175.082 190.225 173.163 191.339C171.653 192.269 169.923 192.782 168.15 192.825C167.589 192.825 167.064 192.924 166.53 192.997L165.897 193.096C165.698 193.142 165.499 193.178 165.291 193.241C164.901 193.329 164.517 193.441 164.141 193.576L163.825 193.685C163.241 193.903 162.67 194.154 162.114 194.437C162.042 194.468 161.973 194.504 161.906 194.546H161.852H161.762C161.553 194.645 161.309 194.754 161.056 194.899C158.749 196.332 156.792 198.263 155.328 200.552C154.549 201.702 153.865 202.914 153.283 204.175C152.729 205.375 152.254 206.609 151.862 207.871L152.722 206.965C153.531 206.053 154.392 205.188 155.301 204.375C156.064 203.722 156.884 203.139 157.753 202.635C158.993 201.92 159.997 201.349 160.73 201.802L176.113 210.996C176.177 211.034 176.234 211.079 176.285 211.132C176.331 211.168 176.371 211.211 176.403 211.259C176.433 211.278 176.455 211.307 176.466 211.341C176.513 211.39 176.552 211.444 176.584 211.504C176.587 211.519 176.587 211.534 176.584 211.549C176.632 211.621 176.674 211.697 176.711 211.775C177.245 213.331 177.506 214.968 177.48 216.613C177.48 216.894 177.48 217.184 177.48 217.519C177.48 218.307 177.48 219.176 177.48 220.155V238.064L127.049 267.405C126.226 267.912 125.297 268.222 124.335 268.311C124.033 268.338 123.731 268.338 123.43 268.311C123.328 268.304 123.227 268.283 123.131 268.248C122.731 268.154 122.348 267.995 122 267.777Z" fill="#E8505B"/>
<path opacity="0.1" d="M160.947 201.883L176.33 211.078C175.597 210.616 174.593 211.196 173.344 211.92C172.476 212.416 171.661 212.999 170.91 213.66C169.994 214.465 169.129 215.327 168.322 216.241C166.542 218.316 164.494 220.144 162.232 221.677C161.924 221.894 161.562 222.13 161.237 222.32C155.59 225.581 151.002 222.112 151.002 214.575C151.035 212.336 151.394 210.114 152.07 207.98C152.359 207.672 152.631 207.373 152.911 207.074C153.724 206.164 154.588 205.302 155.499 204.492C156.252 203.832 157.067 203.246 157.934 202.744C159.21 202.01 160.214 201.43 160.947 201.883Z" fill="black"/>
<path opacity="0.1" d="M151.355 157.233L162.295 151.055L177.842 160.041L164.476 167.768L160.449 169.87H160.404C160.31 169.917 160.213 169.96 160.115 169.997L159.97 170.051L159.3 170.323L158.92 170.449L158.821 170.495C158.612 170.558 158.404 170.64 158.196 170.694C158.053 170.741 157.908 170.78 157.762 170.812C157.536 170.875 157.327 170.911 157.11 170.957H157.047H156.757C156.495 170.957 156.223 171.011 155.97 171.02C155.913 171.025 155.855 171.025 155.798 171.02C155.494 171.018 155.191 170.988 154.893 170.93H154.739C154.509 170.872 154.285 170.793 154.07 170.694L153.88 170.603C153.683 170.495 153.496 170.37 153.319 170.232L153.192 170.123C152.99 169.932 152.805 169.723 152.64 169.498L152.568 169.408C152.151 168.763 151.845 168.052 151.663 167.306V167.17C151.563 166.772 151.491 166.382 151.418 165.956V165.748C151.342 165.262 151.291 164.772 151.265 164.28C151.265 163.61 151.201 163.03 151.201 162.469C151.119 160.722 151.171 158.972 151.355 157.233Z" fill="black"/>
<path opacity="0.1" d="M119.448 193.712L103.92 184.735L117.349 176.89L117.457 176.818H117.512L119.421 175.713L121.584 174.227L121.656 174.164L121.746 174.1C121.864 174.028 121.955 173.937 122.063 173.865L122.172 173.774L122.552 173.493L122.914 173.212L123.212 172.959L123.33 172.868L123.439 172.769C123.638 172.615 123.837 172.442 124.018 172.279L124.316 172.008L124.434 171.899C124.796 171.555 125.158 171.192 125.493 170.83L125.62 170.712L126.018 170.268L126.199 170.042L126.352 169.843L126.407 169.788L126.461 169.725L126.533 169.625C126.678 169.462 126.823 169.281 126.95 169.109C127.076 168.937 127.167 168.783 127.285 168.629L127.357 168.52V168.475C127.502 168.269 127.637 168.061 127.764 167.85C127.891 167.659 127.99 167.478 128.099 167.288V167.215L128.37 166.726C128.421 166.648 128.466 166.566 128.506 166.482C128.597 166.264 128.714 166.056 128.805 165.848C128.868 165.712 128.931 165.585 128.986 165.449C129.04 165.313 129.103 165.195 129.167 165.05C129.23 164.906 129.257 164.824 129.293 164.706L129.429 164.362C129.529 164.081 129.619 163.818 129.701 163.529C129.764 163.293 129.845 163.058 129.909 162.813V162.713C129.972 162.46 130.045 162.188 130.099 161.934V161.853C130.099 161.635 130.18 161.436 130.225 161.219C130.289 160.92 130.352 160.584 130.388 160.258V160.095C130.41 160.024 130.425 159.952 130.434 159.878C130.438 159.851 130.438 159.823 130.434 159.796V159.57C130.434 159.18 130.515 158.818 130.533 158.456V158.284C130.533 158.139 130.533 158.012 130.533 157.858C130.533 157.296 130.551 156.725 130.587 156.146V156.073C130.587 155.91 130.587 155.765 130.587 155.593V155.167C130.587 154.986 130.587 154.778 130.587 154.597C130.578 154.549 130.578 154.5 130.587 154.452C130.587 154.406 130.587 154.352 130.587 154.307V153.999C130.587 153.709 130.587 153.428 130.524 153.165V153.093C130.524 152.848 130.524 152.622 130.452 152.395C130.315 151.345 130.1 150.307 129.809 149.288C129.637 148.654 129.438 148.083 129.257 147.558C128.82 146.335 128.517 145.069 128.352 143.781C128.352 143.527 128.289 143.255 128.271 142.974C128.253 142.693 128.271 142.385 128.271 142.068V141.978C128.266 141.902 128.266 141.827 128.271 141.751C128.254 141.589 128.254 141.425 128.271 141.262C128.271 137.639 130.452 133.49 133.148 131.932C133.415 131.774 133.701 131.652 133.999 131.569C134.194 131.518 134.395 131.488 134.596 131.479C134.785 131.451 134.977 131.451 135.166 131.479C135.262 131.486 135.357 131.507 135.447 131.542C135.715 131.62 135.973 131.73 136.216 131.868L151.726 140.836C151.397 140.649 151.028 140.54 150.649 140.519C150.373 140.505 150.097 140.527 149.826 140.583C149.375 140.691 148.942 140.865 148.541 141.099C148.07 141.384 147.63 141.718 147.229 142.096C146.141 143.172 145.277 144.452 144.686 145.864C144.55 146.172 144.433 146.48 144.324 146.77C144.17 147.223 144.043 147.676 143.935 148.138C143.769 148.881 143.681 149.64 143.672 150.402C143.672 150.611 143.672 150.846 143.672 151.109V151.281C143.705 152.545 143.884 153.8 144.206 155.022L144.369 155.611C144.496 156.01 144.623 156.381 144.74 156.78C144.921 157.314 145.12 157.876 145.292 158.51C145.356 158.718 145.41 158.936 145.464 159.162C145.518 159.389 145.582 159.615 145.636 159.86C145.809 160.67 145.936 161.49 146.016 162.315C146.016 162.451 146.016 162.577 146.016 162.722C146.016 162.867 146.016 163.003 146.016 163.148V163.366C146.021 163.462 146.021 163.559 146.016 163.655C146.016 163.755 146.016 163.837 146.016 163.936C146.016 164.036 146.016 164.136 146.016 164.226V164.652C146.016 164.806 146.016 164.96 146.016 165.132V165.195C146.016 165.485 146.016 165.784 146.016 166.101C146.016 166.418 146.016 166.672 146.016 166.953C146.016 167.098 146.016 167.243 146.016 167.379V167.551C146.016 167.913 145.962 168.284 145.917 168.665C145.917 168.846 145.871 169.018 145.844 169.199V169.353C145.79 169.67 145.745 169.997 145.681 170.314C145.618 170.631 145.591 170.748 145.546 170.948V171.029C145.518 171.179 145.482 171.327 145.437 171.473C145.437 171.627 145.356 171.772 145.319 171.908C145.283 172.044 145.319 172.026 145.274 172.089C145.229 172.153 145.166 172.442 145.12 172.624C145.03 172.904 144.939 173.185 144.84 173.457C144.74 173.729 144.668 173.919 144.577 174.145C144.487 174.372 144.351 174.68 144.233 174.943L143.917 175.595C143.853 175.713 143.79 175.839 143.718 175.957C143.645 176.075 143.591 176.211 143.528 176.329L143.482 176.41C143.428 176.501 143.374 176.591 143.31 176.682L143.256 176.772C143.227 176.837 143.19 176.897 143.148 176.954C143.012 177.162 142.885 177.379 142.74 177.588L142.659 177.696C142.61 177.781 142.552 177.86 142.487 177.932C142.433 178.004 142.387 178.095 142.324 178.168L142.179 178.358C142.099 178.475 142.011 178.587 141.917 178.693L141.835 178.793L141.745 178.91L141.573 179.128L141.519 179.182C141.481 179.235 141.439 179.283 141.392 179.327C141.331 179.407 141.264 179.482 141.193 179.554L141.003 179.78L140.876 179.898C140.541 180.269 140.179 180.622 139.808 180.967L139.7 181.075L139.401 181.347C139.22 181.519 139.021 181.682 138.822 181.845L138.704 181.927L138.65 181.99L138.596 182.036C138.492 182.115 138.392 182.199 138.297 182.289L137.555 182.851L137.447 182.932L137.13 183.168L136.958 183.295L134.831 184.88L132.931 185.976H132.859L132.741 186.049L119.448 193.712Z" fill="black"/>
<path d="M178.774 193.776L162.223 184.21C162.332 184.047 162.458 183.884 162.585 183.702L162.766 183.449C163.028 183.059 163.273 182.652 163.499 182.262L163.571 182.135C163.816 181.7 164.051 181.229 164.268 180.749C164.313 180.632 164.368 180.514 164.422 180.387V180.314C164.54 180.025 164.684 179.689 164.811 179.318C164.874 179.155 164.929 178.992 164.992 178.82V178.711C165.089 178.427 165.179 178.146 165.264 177.869C165.336 177.642 165.399 177.407 165.454 177.171C165.508 176.936 165.58 176.646 165.653 176.383C165.725 176.12 165.761 175.876 165.806 175.622C165.852 175.368 165.906 175.133 165.942 174.888V174.78C165.987 174.544 166.024 174.29 166.069 174.046C166.114 173.801 166.069 173.756 166.132 173.611V173.457C166.295 172.207 166.404 170.911 166.485 169.489V169.335L166.576 165.512V147.277L183.072 156.943V175.124L182.982 178.956V179.101C182.909 180.523 182.801 181.818 182.638 183.068V183.231C182.638 183.376 182.593 183.521 182.574 183.666C182.556 183.811 182.502 184.155 182.457 184.391V184.5C182.457 184.753 182.375 184.989 182.33 185.233C182.285 185.478 182.222 185.75 182.158 186.003C182.095 186.257 182.041 186.529 181.977 186.782C181.914 187.036 181.85 187.263 181.778 187.48C181.706 187.697 181.606 188.051 181.516 188.322V188.44C181.461 188.603 181.398 188.775 181.335 188.938C181.208 189.301 181.063 189.645 180.946 189.935V190.007L180.81 190.361C180.584 190.841 180.348 191.266 180.104 191.756L180.032 191.882C179.805 192.272 179.561 192.671 179.299 193.069C179.24 193.155 179.177 193.236 179.109 193.314V193.368C178.973 193.522 178.873 193.649 178.774 193.776Z" fill="#E8505B"/>
<path d="M166.648 225.391L166.693 210.39L166.467 210.625C167.146 209.891 167.77 209.221 168.467 208.551L168.575 208.433L168.784 208.243L168.874 208.152C170.187 206.892 171.642 205.788 173.209 204.864L173.381 204.773L173.498 204.71C173.869 204.492 174.24 204.311 174.611 204.13L174.928 203.985H175.037C175.281 203.885 175.543 203.768 175.815 203.686C175.944 203.63 176.077 203.585 176.213 203.55H176.276C176.493 203.496 176.72 203.432 176.919 203.396C177.071 203.361 177.225 203.334 177.38 203.315C177.579 203.315 177.76 203.315 177.95 203.315H178.385C178.556 203.333 178.725 203.363 178.891 203.405H178.964C179.071 203.427 179.176 203.454 179.281 203.487C179.442 203.541 179.597 203.614 179.742 203.704C179.912 203.782 180.073 203.88 180.222 203.994C180.404 204.119 180.574 204.262 180.728 204.42C180.816 204.511 180.898 204.607 180.973 204.71L181.036 204.791V204.846C181.118 204.945 181.19 205.045 181.271 205.163C181.353 205.28 181.443 205.471 181.534 205.625C181.624 205.779 181.679 205.914 181.742 206.059C181.805 206.204 181.896 206.431 181.968 206.63C182.027 206.778 182.079 206.929 182.122 207.083C182.194 207.3 182.258 207.527 182.321 207.762C182.384 207.998 182.375 208.016 182.412 208.143V208.206C182.475 208.469 182.529 208.732 182.574 209.004C182.58 209.082 182.58 209.161 182.574 209.239V209.33C182.768 210.584 182.895 211.848 182.954 213.116V213.18L183.036 216.649V235.084L166.648 225.391Z" fill="#E8505B"/>
<path d="M157.898 215.272L141.609 205.86C140.523 205.289 139.899 203.777 139.899 201.775C139.967 199.402 140.711 197.098 142.044 195.135C142.152 194.99 142.243 194.845 142.36 194.7L142.107 195.062L158.658 204.628L158.54 204.8C157.198 206.759 156.453 209.066 156.395 211.44C156.395 213.279 156.975 214.62 157.898 215.272Z" fill="#E8505B"/>
<path d="M178.774 193.776L162.223 184.21C162.332 184.047 162.458 183.884 162.585 183.702L162.766 183.449C163.028 183.059 163.273 182.652 163.499 182.262L163.571 182.135C163.816 181.7 164.051 181.229 164.268 180.749C164.313 180.632 164.368 180.514 164.422 180.387V180.314C164.54 180.025 164.684 179.689 164.811 179.318C164.874 179.155 164.929 178.992 164.992 178.82V178.711C165.089 178.427 165.179 178.146 165.264 177.869C165.336 177.642 165.399 177.407 165.454 177.171C165.508 176.936 165.58 176.646 165.653 176.383C165.725 176.12 165.761 175.876 165.806 175.622C165.852 175.368 165.906 175.133 165.942 174.888V174.78C165.987 174.544 166.024 174.29 166.069 174.046C166.114 173.801 166.069 173.756 166.132 173.611V173.457C166.295 172.207 166.404 170.911 166.485 169.489V169.335L166.576 165.512V147.277L183.072 156.943V175.124L182.982 178.956V179.101C182.909 180.523 182.801 181.818 182.638 183.068V183.231C182.638 183.376 182.593 183.521 182.574 183.666C182.556 183.811 182.502 184.155 182.457 184.391V184.5C182.457 184.753 182.375 184.989 182.33 185.233C182.285 185.478 182.222 185.75 182.158 186.003C182.095 186.257 182.041 186.529 181.977 186.782C181.914 187.036 181.85 187.263 181.778 187.48C181.706 187.697 181.606 188.051 181.516 188.322V188.44C181.461 188.603 181.398 188.775 181.335 188.938C181.208 189.301 181.063 189.645 180.946 189.935V190.007L180.81 190.361C180.584 190.841 180.348 191.266 180.104 191.756L180.032 191.882C179.805 192.272 179.561 192.671 179.299 193.069C179.24 193.155 179.177 193.236 179.109 193.314V193.368C178.973 193.522 178.873 193.649 178.774 193.776Z" fill="#263238"/>
<path d="M166.648 225.391L166.693 210.39L166.467 210.625C167.146 209.891 167.77 209.221 168.467 208.551L168.575 208.433L168.784 208.243L168.874 208.152C170.187 206.892 171.642 205.788 173.209 204.864L173.381 204.773L173.498 204.71C173.869 204.492 174.24 204.311 174.611 204.13L174.928 203.985H175.037C175.281 203.885 175.543 203.768 175.815 203.686C175.944 203.63 176.077 203.585 176.213 203.55H176.276C176.493 203.496 176.72 203.432 176.919 203.396C177.071 203.361 177.225 203.334 177.38 203.315C177.579 203.315 177.76 203.315 177.95 203.315H178.385C178.556 203.333 178.725 203.363 178.891 203.405H178.964C179.071 203.427 179.176 203.454 179.281 203.487C179.442 203.541 179.597 203.614 179.742 203.704C179.912 203.782 180.073 203.88 180.222 203.994C180.404 204.119 180.574 204.262 180.728 204.42C180.816 204.511 180.898 204.607 180.973 204.71L181.036 204.791V204.846C181.118 204.945 181.19 205.045 181.271 205.163C181.353 205.28 181.443 205.471 181.534 205.625C181.624 205.779 181.679 205.914 181.742 206.059C181.805 206.204 181.896 206.431 181.968 206.63C182.027 206.778 182.079 206.929 182.122 207.083C182.194 207.3 182.258 207.527 182.321 207.762C182.384 207.998 182.375 208.016 182.412 208.143V208.206C182.475 208.469 182.529 208.732 182.574 209.004C182.58 209.082 182.58 209.161 182.574 209.239V209.33C182.768 210.584 182.895 211.848 182.954 213.116V213.18L183.036 216.649V235.084L166.648 225.391Z" fill="#263238"/>
<path d="M157.898 215.272L141.609 205.86C140.523 205.289 139.899 203.777 139.899 201.775C139.967 199.402 140.711 197.098 142.044 195.135C142.152 194.99 142.243 194.845 142.36 194.7L142.107 195.062L158.658 204.628L158.54 204.8C157.198 206.759 156.453 209.066 156.395 211.44C156.395 213.279 156.975 214.62 157.898 215.272Z" fill="#263238"/>
<path d="M158.006 215.327L157.898 215.272C156.993 214.62 156.395 213.279 156.404 211.44C156.463 209.066 157.208 206.759 158.549 204.8L158.667 204.628L142.116 195.062L142.369 194.7C142.577 194.428 142.786 194.165 143.012 193.921C143.238 193.676 143.238 193.676 143.356 193.567C143.469 193.443 143.59 193.325 143.718 193.214C144.042 192.929 144.393 192.677 144.767 192.462C144.902 192.377 145.045 192.304 145.193 192.245L145.374 192.163H145.419C146.108 191.801 146.837 191.518 147.591 191.321L147.853 191.257C148.536 191.115 149.229 191.024 149.925 190.986C152.374 190.897 154.757 190.169 156.839 188.875L157.382 188.54C157.544 188.449 157.701 188.349 157.852 188.241L158.205 188.005H158.25C158.441 187.879 158.631 187.743 158.821 187.589C159.011 187.435 159.192 187.308 159.373 187.163C159.401 187.13 159.435 187.103 159.472 187.081L159.554 187.009L159.617 186.945L159.843 186.746C159.924 186.69 160 186.626 160.069 186.556L160.495 186.166C160.556 186.096 160.623 186.029 160.694 185.967L160.775 185.877C160.893 185.759 161.01 185.641 161.119 185.514C161.228 185.387 161.391 185.215 161.526 185.052L161.59 184.998C161.657 184.901 161.733 184.81 161.816 184.726L162.142 184.309L178.701 193.875C178.801 193.749 178.9 193.622 179 193.477V193.422C179.068 193.345 179.132 193.263 179.19 193.178C179.452 192.779 179.697 192.381 179.923 191.991L179.995 191.864C180.24 191.42 180.475 190.958 180.701 190.469L180.837 190.116V190.044C180.955 189.754 181.099 189.409 181.226 189.047C181.289 188.884 181.353 188.712 181.407 188.549V188.431C181.498 188.159 181.588 187.879 181.669 187.589C181.751 187.299 181.805 187.136 181.869 186.891C181.932 186.647 181.995 186.366 182.05 186.112C182.104 185.858 182.167 185.605 182.221 185.342C182.276 185.079 182.312 184.862 182.348 184.608V184.5C182.393 184.264 182.421 184.019 182.466 183.775C182.511 183.53 182.466 183.485 182.529 183.34V183.177C182.692 181.936 182.801 180.632 182.873 179.209V179.064L182.964 175.233V156.952L166.467 147.286L173.236 143.373L176.729 141.362L179.851 139.55C180.267 139.305 180.674 139.088 181.063 138.871L181.968 138.4C183 137.833 184.089 137.378 185.217 137.041L185.561 136.959C185.913 136.878 186.276 136.851 186.637 136.878C186.837 136.878 186.945 137.059 187.099 137.15L203.623 146.688C203.942 146.896 204.166 147.222 204.247 147.594C204.247 147.73 204.319 147.884 204.347 148.047C204.374 148.21 204.401 148.4 204.419 148.6V148.917C204.419 149.134 204.419 149.361 204.419 149.623C204.419 149.886 204.419 150.149 204.419 150.448C204.419 151.191 204.419 151.852 204.328 152.495C204.328 152.658 204.328 152.812 204.283 152.975C204.238 153.138 204.283 153.274 204.229 153.428C204.175 153.582 204.229 153.727 204.166 153.881C204.102 154.035 204.12 154.18 204.102 154.325L203.939 155.185C203.885 155.466 203.822 155.756 203.758 156.037C203.753 156.058 203.753 156.08 203.758 156.1C205.101 153.103 205.821 149.864 205.876 146.58C205.899 146.145 205.899 145.71 205.876 145.275C205.798 142.779 205.325 140.312 204.473 137.965C203.723 136.025 203.357 133.957 203.396 131.877C203.396 128.036 203.396 125.917 211.541 121.215L224.852 113.597L241.611 123.199V190.977C241.611 196.62 238.172 203.197 233.937 205.643L183.163 234.984V216.504L183.081 213.035V212.971C183.021 211.703 182.894 210.439 182.701 209.185V209.094C182.706 209.016 182.706 208.937 182.701 208.859C182.656 208.587 182.602 208.324 182.538 208.061V207.998C182.538 207.871 182.475 207.735 182.448 207.618C182.421 207.5 182.321 207.156 182.249 206.938C182.206 206.785 182.154 206.633 182.095 206.485C182.022 206.286 181.95 206.087 181.869 205.914C181.787 205.742 181.733 205.634 181.66 205.48C181.588 205.326 181.489 205.163 181.398 205.018C181.308 204.873 181.244 204.8 181.163 204.701V204.646L181.099 204.565C181.025 204.463 180.943 204.366 180.855 204.275C180.7 204.117 180.531 203.974 180.348 203.849C180.2 203.735 180.039 203.637 179.869 203.559C179.724 203.469 179.569 203.396 179.407 203.342C179.303 203.309 179.197 203.282 179.091 203.26H179.018C178.852 203.218 178.682 203.188 178.511 203.17H178.077C177.887 203.17 177.706 203.17 177.507 203.17C177.352 203.189 177.198 203.216 177.045 203.251C176.846 203.251 176.62 203.351 176.403 203.405H176.34C176.203 203.44 176.07 203.485 175.941 203.541C175.67 203.623 175.408 203.74 175.163 203.84H175.055L174.738 203.985C174.367 204.166 173.996 204.347 173.625 204.565L173.507 204.628L173.335 204.719C171.768 205.643 170.314 206.747 169.001 208.007L168.91 208.098L168.702 208.288L168.594 208.406C167.897 209.076 167.272 209.746 166.594 210.48C165.226 212.094 163.643 213.512 161.888 214.692C161.68 214.828 161.499 214.964 161.336 215.055C160.876 215.333 160.365 215.517 159.834 215.598C159.665 215.611 159.496 215.611 159.327 215.598C159.166 215.594 159.006 215.576 158.848 215.544C158.558 215.515 158.274 215.442 158.006 215.327Z" fill="#37474F"/>
<path d="M183.199 156.943L166.702 147.277L173.471 143.364L176.964 141.353L180.086 139.541C180.502 139.296 180.909 139.079 181.298 138.862L182.203 138.391C183.235 137.824 184.324 137.369 185.452 137.032L185.796 136.95C186.149 136.869 186.512 136.842 186.873 136.869C187.072 136.869 187.18 137.05 187.334 137.14L203.813 146.67C203.757 146.634 203.696 146.607 203.632 146.589C203.547 146.558 203.459 146.54 203.369 146.534C203.111 146.494 202.849 146.494 202.591 146.534C202.373 146.564 202.158 146.612 201.948 146.679C200.065 147.297 198.264 148.139 196.582 149.189L193.46 151L189.967 153.02L183.199 156.943Z" fill="black"/>
<path d="M204.509 175.414C202.989 173.847 202.157 171.238 202.157 168.067C202.157 167.641 202.157 167.161 202.22 166.708C202.216 166.687 202.216 166.666 202.22 166.645C202.22 165.902 202.292 165.141 202.383 164.344C202.383 164.099 202.428 163.882 202.464 163.646C202.519 163.166 202.591 162.686 202.672 162.242C202.754 161.798 202.808 161.418 202.881 161.019C202.935 160.811 202.971 160.603 203.007 160.412C203.188 159.507 203.387 158.682 203.614 157.758C203.758 157.178 203.894 156.608 204.021 156.055C205.351 153.076 206.068 149.86 206.129 146.598C206.129 146.145 206.129 145.692 206.075 145.302C205.995 142.803 205.519 140.332 204.663 137.983C203.926 136.04 203.567 133.974 203.604 131.895C203.604 128.055 203.604 125.944 211.749 121.233L225.06 113.606L241.611 123.199L228.245 130.926C220.101 135.637 220.101 137.756 220.101 141.588C220.063 143.667 220.425 145.734 221.169 147.676C222.025 150.025 222.499 152.496 222.571 154.995C222.571 155.385 222.626 155.847 222.571 156.291C222.571 163.818 217.993 172.596 212.346 175.858C209.36 177.552 206.482 177.434 204.509 175.414Z" fill="black"/>
<path d="M158.667 204.628L142.116 195.062L142.369 194.7C142.577 194.428 142.786 194.165 143.012 193.921C143.238 193.676 143.238 193.676 143.356 193.567C143.469 193.443 143.59 193.325 143.718 193.214C144.042 192.929 144.393 192.677 144.767 192.462C144.902 192.377 145.045 192.304 145.193 192.245L145.383 192.172H145.428C146.117 191.81 146.846 191.527 147.6 191.33L147.862 191.266C148.545 191.124 149.238 191.033 149.934 190.995C152.383 190.906 154.766 190.178 156.848 188.884L157.391 188.549C157.553 188.458 157.71 188.358 157.861 188.25L158.205 188.014H158.25C158.441 187.888 158.631 187.752 158.821 187.598L159.382 187.172C159.405 187.138 159.436 187.11 159.472 187.09L159.554 187.018L159.626 186.964L159.843 186.755C159.924 186.699 160 186.635 160.069 186.565L160.495 186.175C160.556 186.105 160.623 186.038 160.694 185.976C160.717 185.942 160.748 185.914 160.784 185.895L161.119 185.523C161.258 185.378 161.394 185.224 161.526 185.061L161.59 185.007C161.657 184.91 161.733 184.819 161.816 184.735L162.142 184.318L178.701 193.894L178.638 193.966C178.529 194.12 178.412 194.274 178.294 194.419C178.177 194.564 178.149 194.591 178.077 194.673L178.014 194.736C177.769 195.026 177.516 195.298 177.263 195.551L177.1 195.714C177.061 195.755 177.025 195.797 176.991 195.841L176.566 196.231L176.113 196.62L176.05 196.684L175.851 196.829C175.496 197.133 175.125 197.417 174.738 197.68C174.714 197.705 174.686 197.726 174.656 197.743C174.225 198.072 173.775 198.374 173.308 198.649L172.729 198.966L172.159 199.256C170.895 199.918 169.532 200.367 168.123 200.588L167.408 200.688H167.055L166.395 200.742C165.408 200.776 164.431 200.944 163.49 201.24C163.206 201.331 162.905 201.449 162.585 201.593L161.906 201.92L161.716 202.001C161.567 202.059 161.425 202.132 161.291 202.219C160.899 202.421 160.524 202.654 160.169 202.916C160.048 203.018 159.933 203.127 159.825 203.242C159.704 203.351 159.592 203.469 159.49 203.595C159.343 203.739 159.207 203.893 159.083 204.057C159.002 204.157 158.911 204.266 158.839 204.375C158.766 204.483 158.73 204.547 158.667 204.628Z" fill="black"/>
<path d="M209.233 168.919L192.646 159.334C192.574 159.334 192.492 159.253 192.42 159.199C191.515 158.501 191.062 157.043 191.062 155.321C191.047 155.038 191.047 154.753 191.062 154.47V154.37C191.181 152.124 191.542 149.898 192.139 147.73C192.411 146.616 192.682 145.429 192.936 144.107L196.555 142.023L196.7 141.951L196.781 141.905L199.614 140.383H199.668L199.741 140.338C200.618 139.899 201.526 139.521 202.455 139.206H202.564L202.926 139.088L203.378 138.979H203.46L203.994 138.853L204.464 138.798C204.645 138.789 204.826 138.789 205.007 138.798H205.414C205.599 138.808 205.784 138.829 205.966 138.862H206.039L206.301 138.907C206.517 138.965 206.729 139.037 206.935 139.124L207.116 139.206C207.675 139.499 208.153 139.925 208.509 140.447L208.6 140.583C208.764 140.837 208.909 141.104 209.034 141.38C209.062 141.436 209.086 141.493 209.106 141.552V141.606C209.215 141.887 209.323 142.195 209.423 142.512L209.486 142.757C209.577 143.11 209.658 143.5 209.722 143.916V144.098C209.875 145.205 209.945 146.322 209.93 147.44C209.895 150.829 209.426 154.199 208.536 157.468C207.939 159.636 207.578 161.863 207.459 164.108V164.208C207.459 164.57 207.459 164.824 207.459 165.05C207.395 165.745 207.489 166.446 207.735 167.099C207.981 167.752 208.373 168.34 208.88 168.819L209.233 168.919Z" fill="#E8505B"/>
<path d="M183.19 149.786L166.702 140.121V122.293C166.651 119.669 166.818 117.045 167.2 114.448C167.779 111.269 168.648 110.299 171.154 108.859C172.666 107.931 174.395 107.415 176.168 107.364C176.756 107.364 177.308 107.265 177.869 107.183L178.312 107.111L179.1 106.939C179.425 106.848 179.76 106.757 180.122 106.631L180.556 106.477C181.122 106.264 181.675 106.019 182.212 105.743H182.285C182.623 105.61 182.95 105.45 183.262 105.263C186.321 103.451 189.198 100.018 191.153 95.7329C191.28 95.4611 191.388 95.1803 191.506 94.8995C191.37 95.0444 191.234 95.1803 191.09 95.3162C191.623 94.7908 192.13 94.2291 192.664 93.6584C194.451 91.5905 196.498 89.7635 198.754 88.2232C199.075 87.987 199.41 87.7722 199.759 87.58C205.396 84.3098 209.984 87.7884 209.984 95.3071C209.914 98.786 209.115 102.212 207.64 105.362C205.686 109.647 202.808 113.117 199.75 114.892C199.436 115.076 199.109 115.236 198.772 115.372C198.772 115.372 198.772 115.372 198.709 115.372C198.168 115.65 197.612 115.898 197.044 116.115L196.61 116.269C196.248 116.396 195.913 116.486 195.587 116.568C195.261 116.65 195.062 116.695 194.809 116.74L194.356 116.813C193.804 116.894 193.243 116.958 192.655 117.003C190.882 117.044 189.152 117.557 187.642 118.488C185.135 119.938 184.267 120.898 183.696 124.078C183.302 126.673 183.129 129.298 183.181 131.923V143.699L183.19 149.786Z" fill="#E8505B"/>
<path d="M184.701 98.7404L168.123 89.1925C167.155 88.5946 166.711 86.1306 166.711 79.9525L166.639 62.2065L183.19 71.7725V89.6182C183.19 95.8597 183.705 98.224 184.701 98.7766V98.7404Z" fill="#E8505B"/>
<path opacity="0.2" d="M209.233 168.919L192.646 159.334C192.574 159.334 192.492 159.253 192.42 159.199C191.515 158.501 191.062 157.043 191.062 155.321C191.047 155.038 191.047 154.753 191.062 154.47V154.37C191.181 152.124 191.542 149.898 192.139 147.73C192.411 146.616 192.682 145.429 192.936 144.107L196.555 142.023L196.7 141.951L196.781 141.905L199.614 140.383H199.668L199.741 140.338C200.618 139.899 201.526 139.521 202.455 139.206H202.564L202.926 139.088L203.378 138.979H203.46L203.994 138.853L204.464 138.798C204.645 138.789 204.826 138.789 205.007 138.798H205.414C205.599 138.808 205.784 138.829 205.966 138.862H206.039L206.301 138.907C206.517 138.965 206.729 139.037 206.935 139.124L207.116 139.206C207.675 139.499 208.153 139.925 208.509 140.447L208.6 140.583C208.764 140.837 208.909 141.104 209.034 141.38C209.062 141.436 209.086 141.493 209.106 141.552V141.606C209.215 141.887 209.323 142.195 209.423 142.512L209.486 142.757C209.577 143.11 209.658 143.5 209.722 143.916V144.098C209.875 145.205 209.945 146.322 209.93 147.44C209.895 150.829 209.426 154.199 208.536 157.468C207.939 159.636 207.578 161.863 207.459 164.108V164.208C207.459 164.57 207.459 164.824 207.459 165.05C207.395 165.745 207.489 166.446 207.735 167.099C207.981 167.752 208.373 168.34 208.88 168.819L209.233 168.919Z" fill="black"/>
<path opacity="0.2" d="M183.19 149.786L166.702 140.121V122.293C166.651 119.669 166.818 117.045 167.2 114.448C167.779 111.269 168.648 110.299 171.154 108.859C172.666 107.931 174.395 107.415 176.168 107.364C176.756 107.364 177.308 107.265 177.869 107.183L178.312 107.111L179.1 106.939C179.425 106.848 179.76 106.757 180.122 106.631L180.556 106.477C181.122 106.264 181.675 106.019 182.212 105.743H182.285C182.623 105.61 182.95 105.45 183.262 105.263C186.321 103.451 189.198 100.018 191.153 95.7329C191.28 95.4611 191.388 95.1803 191.506 94.8995C191.37 95.0444 191.234 95.1803 191.09 95.3162C191.623 94.7908 192.13 94.2291 192.664 93.6584C194.451 91.5905 196.498 89.7635 198.754 88.2232C199.075 87.987 199.41 87.7722 199.759 87.58C205.396 84.3098 209.984 87.7884 209.984 95.3071C209.914 98.786 209.115 102.212 207.64 105.362C205.686 109.647 202.808 113.117 199.75 114.892C199.436 115.076 199.109 115.236 198.772 115.372C198.772 115.372 198.772 115.372 198.709 115.372C198.168 115.65 197.612 115.898 197.044 116.115L196.61 116.269C196.248 116.396 195.913 116.486 195.587 116.568C195.261 116.65 195.062 116.695 194.809 116.74L194.356 116.813C193.804 116.894 193.243 116.958 192.655 117.003C190.882 117.044 189.152 117.557 187.642 118.488C185.135 119.938 184.267 120.898 183.696 124.078C183.302 126.673 183.129 129.298 183.181 131.923V143.699L183.19 149.786Z" fill="black"/>
<path opacity="0.2" d="M184.701 98.7404L168.123 89.1925C167.155 88.5946 166.711 86.1306 166.711 79.9525L166.639 62.2065L183.19 71.7725V89.6182C183.19 95.8597 183.705 98.224 184.701 98.7766V98.7404Z" fill="black"/>
<path d="M209.378 169L209.251 168.928L208.989 168.755C208.481 168.277 208.09 167.688 207.844 167.036C207.597 166.383 207.503 165.682 207.568 164.987C207.568 164.761 207.568 164.507 207.568 164.145V164.045C207.686 161.799 208.047 159.573 208.645 157.405C209.535 154.135 210.003 150.765 210.038 147.377C210.053 146.259 209.984 145.142 209.83 144.034V143.853C209.767 143.436 209.685 143.047 209.595 142.693L209.532 142.449C209.432 142.114 209.323 141.806 209.215 141.543V141.489C209.195 141.43 209.17 141.372 209.142 141.317C209.018 141.04 208.873 140.774 208.708 140.519L208.618 140.383C208.262 139.862 207.783 139.435 207.224 139.142L207.043 139.061C206.837 138.974 206.626 138.901 206.41 138.843L206.147 138.798H206.075C205.892 138.766 205.708 138.745 205.523 138.735H205.116C204.935 138.725 204.754 138.725 204.573 138.735L204.102 138.789L203.568 138.916H203.487L203.034 139.025L202.672 139.142H202.564C201.634 139.457 200.727 139.836 199.849 140.275L199.777 140.32H199.722L196.89 141.842L196.809 141.887L196.664 141.96L193.044 144.043L183.262 149.687V143.59V131.814C183.191 129.237 183.337 126.658 183.696 124.105C184.267 120.925 185.135 119.965 187.642 118.516C189.152 117.584 190.882 117.071 192.655 117.03C193.243 117.03 193.804 116.921 194.356 116.84L194.809 116.767C195.062 116.767 195.315 116.668 195.587 116.595C195.858 116.523 196.248 116.423 196.609 116.296L197.044 116.142C197.612 115.925 198.168 115.677 198.709 115.399C198.709 115.399 198.763 115.399 198.772 115.399C199.109 115.263 199.436 115.103 199.75 114.919C202.808 113.108 205.686 109.674 207.64 105.39C209.115 102.239 209.914 98.8132 209.984 95.3343C209.984 87.8155 205.396 84.337 199.759 87.6072C199.41 87.7994 199.075 88.0142 198.754 88.2504C196.498 89.7906 194.451 91.6177 192.664 93.6856C192.13 94.2563 191.623 94.818 191.09 95.3434C190.263 96.1717 189.353 96.9124 188.375 97.5537C188.261 97.6327 188.143 97.7053 188.022 97.7711C187.891 97.8599 187.755 97.9416 187.615 98.0157C187.153 98.2784 186.71 98.5321 186.339 98.7132L185.959 98.8672C185.842 98.9149 185.721 98.9483 185.597 98.9669C185.488 98.9974 185.375 99.0157 185.262 99.0212C185.057 99.0239 184.854 98.974 184.674 98.8763C183.678 98.3237 183.163 95.9594 183.163 89.7179V71.7725L166.639 62.2064L217.486 32.7564C217.676 32.6568 217.848 32.5572 218.029 32.4756C218.21 32.3941 218.373 32.3126 218.544 32.2492L219.051 32.0861C219.214 32.0351 219.38 31.9958 219.549 31.9683C219.758 31.9263 219.97 31.9021 220.182 31.8959C221.032 31.8613 221.873 32.089 222.589 32.5481L238.878 41.9783C239.383 42.2538 239.824 42.6335 240.172 43.0925C240.295 43.2476 240.406 43.411 240.507 43.5817C240.583 43.695 240.653 43.813 240.715 43.9349C240.832 44.1795 240.95 44.4332 241.059 44.714C241.167 44.9948 241.158 45.0039 241.194 45.1488C241.484 46.1462 241.624 47.1811 241.611 48.2197V115.997L228.236 123.724L227.992 123.878L227.838 123.969L225.205 125.609C224.146 126.305 223.128 127.061 222.155 127.873L222.092 127.937L221.938 128.064L221.241 128.689L221.187 128.752C221.087 128.834 220.988 128.933 220.888 129.024C220.789 129.114 220.481 129.431 220.282 129.649C220.083 129.866 220.019 129.921 219.902 130.057C219.706 130.26 219.521 130.475 219.35 130.7L218.979 131.162C218.798 131.391 218.626 131.618 218.463 131.841L218.192 132.249L218.128 132.366L218.047 132.475C217.92 132.665 217.784 132.874 217.658 133.082L217.404 133.535L217.35 133.662C217.106 134.106 216.87 134.568 216.662 135.021L216.617 135.138C216.527 135.338 216.436 135.537 216.355 135.736C216.273 135.945 216.201 136.144 216.137 136.352L216.074 136.515C215.993 136.751 215.911 136.996 215.839 137.231C215.766 137.467 215.694 137.738 215.622 138.001C215.549 138.264 215.486 138.526 215.423 138.789C215.359 139.052 215.314 139.315 215.269 139.568C215.223 139.822 215.169 140.13 215.133 140.42V140.474C215.133 140.71 215.052 140.945 215.024 141.19C214.997 141.434 214.97 141.797 214.943 142.096V142.286C214.943 142.458 214.943 142.639 214.898 142.82C214.898 143.201 214.898 143.617 214.898 144.161V144.243C214.898 144.333 214.898 144.433 214.898 144.532C214.838 147.401 215.314 150.255 216.3 152.948C216.956 154.707 217.32 156.561 217.377 158.438V158.519C217.377 158.773 217.377 159.026 217.377 159.235C217.377 162.858 215.187 166.998 212.5 168.556C212.009 168.857 211.46 169.052 210.889 169.127H210.545H210.482C210.41 169.136 210.337 169.136 210.265 169.127C210.202 169.14 210.137 169.14 210.075 169.127H209.921L209.731 169.073L209.595 169.018C209.522 169.035 209.446 169.029 209.378 169Z" fill="#E8505B"/>
<path opacity="0.3" d="M183.19 71.7725L166.639 62.2065L217.486 32.7564C217.676 32.6568 217.848 32.5572 218.029 32.4756C218.21 32.3941 218.373 32.3126 218.544 32.2492L219.051 32.0861C219.214 32.0351 219.38 31.9958 219.549 31.9683C219.758 31.9263 219.97 31.9021 220.182 31.8959C221.032 31.8613 221.873 32.089 222.589 32.5481L238.733 41.8786C238.593 41.8096 238.448 41.752 238.299 41.7065H238.19C238.051 41.6607 237.909 41.6244 237.765 41.5978H237.611C237.515 41.5884 237.418 41.5884 237.321 41.5978H236.941C236.806 41.5843 236.669 41.5843 236.534 41.5978H236.226C236.018 41.6299 235.812 41.6783 235.611 41.7427L235.294 41.8424C235.088 41.9105 234.886 41.9892 234.688 42.0779L233.973 42.4493L183.19 71.7725Z" fill="white"/>
<path d="M157.165 163.139L140.668 153.464C140.026 153.084 139.817 152.015 139.817 149.705C139.821 147.807 140.049 145.915 140.496 144.07C139.998 145.218 139.578 146.399 139.238 147.603C140.822 141.878 144.414 136.434 148.595 134.015C151.31 132.43 153.898 132.376 155.834 133.834C157.771 135.292 158.83 138.11 158.83 141.76C158.83 142.114 158.83 142.458 158.784 142.766V142.938C158.784 143.02 158.784 143.11 158.784 143.192C158.784 143.98 158.694 144.75 158.612 145.565C158.612 145.692 158.612 145.828 158.567 145.955V146.072C158.495 146.625 158.422 147.168 158.341 147.694C158.278 148.02 158.223 148.337 158.16 148.645C158.097 148.953 158.033 149.279 157.979 149.551C157.798 150.357 157.608 151.182 157.409 152.033C156.738 154.41 156.379 156.865 156.341 159.334C156.314 161.699 156.549 162.768 157.165 163.139Z" fill="#E8505B"/>
<path d="M119.376 186.674L102.834 177.108L102.897 109.221C102.955 106.527 103.601 103.877 104.788 101.458L121.321 111.015C120.106 113.475 119.445 116.171 119.385 118.914L119.376 186.674Z" fill="#E8505B"/>
<path d="M157.165 163.139L140.668 153.464C140.026 153.084 139.818 152.015 139.818 149.705C139.821 147.807 140.049 145.915 140.496 144.07C142.36 139.74 145.292 135.918 148.595 134.024C151.31 132.439 153.898 132.385 155.834 133.843C157.771 135.302 158.83 138.119 158.83 141.769C158.83 142.123 158.83 142.467 158.784 142.775V142.947C158.784 143.029 158.784 143.119 158.784 143.201C158.784 143.989 158.694 144.759 158.612 145.574C158.612 145.701 158.612 145.837 158.567 145.964V146.081C158.495 146.634 158.422 147.178 158.341 147.703C158.278 148.029 158.223 148.346 158.16 148.654C158.097 148.962 158.033 149.288 157.979 149.56C157.798 150.366 157.608 151.191 157.409 152.042C156.738 154.419 156.379 156.874 156.341 159.343C156.314 161.699 156.549 162.768 157.165 163.139Z" fill="#263238"/>
<path d="M119.376 186.674L102.834 177.108L102.897 109.221C102.955 106.527 103.601 103.877 104.788 101.458L121.321 111.015C120.106 113.475 119.445 116.171 119.385 118.914L119.376 186.674Z" fill="#263238"/>
<path d="M119.376 186.674V118.878C119.436 116.135 120.097 113.438 121.312 110.979L104.788 101.458C104.788 101.358 104.87 101.268 104.915 101.177C104.984 101.022 105.063 100.87 105.15 100.724C105.259 100.516 105.368 100.308 105.485 100.108C105.603 99.909 105.766 99.6191 105.92 99.3836L106.01 99.2296L106.073 99.139C106.209 98.9125 106.363 98.6861 106.517 98.4777L106.662 98.2784C106.743 98.1606 106.834 98.0429 106.924 97.9342L107.196 97.5899L107.277 97.4903C107.422 97.3091 107.567 97.137 107.72 96.9649L107.91 96.7747C107.948 96.7199 107.994 96.6711 108.046 96.6297L108.128 96.5391L108.29 96.3851L108.589 96.0228L108.671 95.9503C108.761 95.8778 108.833 95.7963 108.915 95.7238L108.996 95.6604L109.204 95.4974C109.286 95.4249 109.367 95.3705 109.44 95.3162L109.675 95.126C109.768 95.0544 109.865 94.9879 109.965 94.9267C110.135 94.8004 110.313 94.6854 110.498 94.5824L161.228 65.3408L177.778 74.9068V89.7813C177.861 89.7043 177.94 89.6226 178.014 89.5367C179.349 87.9711 180.893 86.5965 182.602 85.4512L182.665 85.4059L183.154 85.0707C183.618 84.7499 184.165 84.5684 184.729 84.5475C185.293 84.5267 185.852 84.6673 186.339 84.953L202.835 94.4918C202.925 94.5376 203.01 94.5922 203.089 94.6549L203.224 94.7636C203.797 95.3018 204.189 96.0043 204.346 96.7747C204.392 96.9739 204.428 97.1823 204.455 97.3907C204.503 97.7358 204.527 98.0839 204.527 98.4324C204.49 100.332 204 102.196 203.098 103.868C202.333 105.459 201.143 106.808 199.659 107.763C199.487 107.863 199.306 107.953 199.044 108.08C197.649 108.821 196.098 109.222 194.519 109.249C192.072 109.347 189.693 110.08 187.615 111.377C186.694 111.908 185.82 112.514 185 113.189L184.909 113.262C184.537 113.566 184.18 113.89 183.841 114.231L183.787 114.285C183.027 115.038 182.342 115.863 181.742 116.749C181.488 117.13 181.235 117.528 180.991 117.972L180.873 118.18V118.244C180.674 118.606 180.484 118.987 180.312 119.358V119.412C180.276 119.491 180.24 119.582 180.204 119.684C180.023 120.083 179.86 120.49 179.706 120.916L179.633 121.125C179.452 121.623 179.29 122.13 179.154 122.619C179.154 122.683 179.154 122.746 179.154 122.782C179.036 123.208 178.928 123.688 178.828 124.105L178.747 124.503V124.612C178.683 124.938 178.62 125.273 178.566 125.618C178.566 125.817 178.493 126.025 178.466 126.225C178.439 126.424 178.376 126.85 178.339 127.131V127.294C178.339 127.448 178.294 127.611 178.285 127.783C178.285 128.109 178.222 128.453 178.186 128.788V128.969C178.186 129.087 178.186 129.214 178.186 129.341V129.45L178.005 134.93V152.848L173.308 155.566L168.901 158.111L164.63 160.575C161.662 162.297 159.599 163.175 158.296 163.293H157.997C157.757 163.291 157.522 163.232 157.309 163.121C156.658 162.75 156.459 161.681 156.459 159.353C156.496 156.883 156.855 154.428 157.527 152.051C157.726 151.2 157.916 150.375 158.097 149.569C158.151 149.261 158.223 148.953 158.278 148.663C158.332 148.373 158.395 148.038 158.459 147.712C158.54 147.187 158.612 146.643 158.685 146.091V145.973C158.685 145.846 158.685 145.71 158.73 145.583C158.811 144.768 158.875 143.998 158.902 143.21C158.902 143.128 158.902 143.038 158.902 142.956V142.784C158.902 142.476 158.947 142.132 158.947 141.779C158.947 138.155 157.888 135.32 155.952 133.852C154.015 132.385 151.427 132.448 148.713 134.033C145.41 135.936 142.469 139.74 140.614 144.079C140.229 144.937 139.896 145.817 139.618 146.716C139.519 147.014 139.428 147.313 139.356 147.621C139.284 147.929 139.166 148.328 139.084 148.681C139.061 148.742 139.046 148.806 139.039 148.872C138.958 149.216 138.885 149.569 138.831 149.913C138.693 150.65 138.599 151.394 138.551 152.142C138.532 152.365 138.532 152.589 138.551 152.812C138.551 153.072 138.551 153.334 138.551 153.6C138.551 154.062 138.551 154.506 138.605 154.914C138.679 157.407 139.152 159.872 140.007 162.215C140.483 163.479 140.802 164.796 140.958 166.138V166.292V166.409C140.953 166.464 140.953 166.518 140.958 166.572C141.003 167.143 141.03 167.714 141.03 168.303C141.03 172.143 141.03 174.254 132.886 178.965L119.376 186.674Z" fill="#37474F"/>
<path d="M186.456 84.9167L202.953 94.4466C202.446 94.1991 201.882 94.093 201.32 94.1392C200.758 94.1854 200.218 94.3823 199.759 94.7093C199.614 94.7908 199.442 94.9086 199.261 95.0354L199.198 95.0897C197.491 96.2374 195.947 97.6118 194.61 99.1752C192.633 101.483 190.303 103.462 187.705 105.036L187.379 105.208C187.336 105.226 187.293 105.247 187.253 105.272L187.162 105.326L186.438 105.698L186.004 105.888L185.859 105.942L185.769 105.987C185.588 106.06 185.398 106.141 185.226 106.196C185.066 106.255 184.903 106.307 184.737 106.35H184.665L184.113 106.477C183.937 106.517 183.759 106.544 183.579 106.558H183.072C182.909 106.567 182.746 106.567 182.583 106.558C182.43 106.558 182.276 106.504 182.131 106.486C181.984 106.453 181.838 106.411 181.697 106.359C181.56 106.308 181.427 106.247 181.298 106.178H181.226C181.118 106.114 181 106.06 180.9 105.987C180.795 105.913 180.695 105.831 180.602 105.743L180.538 105.688L180.475 105.634L180.213 105.39C180.113 105.272 180.023 105.154 179.932 105.027L179.887 104.955C179.715 104.704 179.558 104.444 179.416 104.176L179.371 104.076C179.305 103.956 179.247 103.832 179.199 103.705C179.136 103.569 179.081 103.415 179.018 103.252V103.152V103.052L178.873 102.627C178.81 102.436 178.765 102.21 178.71 101.992C178.656 101.775 178.611 101.621 178.575 101.431C178.539 101.241 178.484 100.96 178.448 100.715C178.412 100.471 178.385 100.308 178.348 100.099C178.312 99.8909 178.285 99.5829 178.249 99.3111C178.213 99.0393 178.249 98.8853 178.186 98.6679C178.122 98.4505 178.131 98.0972 178.113 97.7621C178.113 97.599 178.113 97.4178 178.113 97.2366V97.0102C178.113 96.7294 178.113 96.4485 178.068 96.1043V95.9865L178.014 92.8703V89.7904L178.24 89.5458C179.571 87.9798 181.112 86.605 182.819 85.4603H182.882C183.042 85.3393 183.208 85.2274 183.38 85.1251C183.824 84.8115 184.346 84.6263 184.889 84.5895C185.432 84.5528 185.974 84.666 186.456 84.9167Z" fill="black"/>
<path d="M121.33 110.988L104.779 101.458L104.915 101.177C104.984 101.022 105.063 100.87 105.15 100.724C105.259 100.516 105.368 100.308 105.485 100.108C105.603 99.909 105.766 99.6191 105.92 99.3836C105.92 99.302 106.019 99.2205 106.073 99.139C106.209 98.9125 106.363 98.686 106.517 98.4777L106.662 98.2784C106.743 98.1606 106.834 98.0429 106.924 97.9342C107.015 97.8255 107.159 97.6262 107.277 97.4903C107.395 97.3544 107.567 97.137 107.72 96.9649L107.91 96.7747C107.948 96.7199 107.994 96.6711 108.046 96.6297C108.123 96.5437 108.205 96.4621 108.29 96.3851L108.589 96.0228L108.671 95.9503C108.773 95.8465 108.881 95.7496 108.996 95.6604L109.204 95.4974C109.353 95.3637 109.51 95.2397 109.675 95.126C109.768 95.0544 109.865 94.9879 109.965 94.9267C110.135 94.8004 110.313 94.6854 110.498 94.5824L161.173 65.3317L177.724 74.8978L155.536 87.7521L127.04 104.23C126.822 104.351 126.61 104.484 126.407 104.629C126.217 104.764 126.018 104.9 125.837 105.054C125.734 105.129 125.637 105.21 125.547 105.299C125.349 105.452 125.162 105.619 124.986 105.797C124.769 105.996 124.552 106.223 124.344 106.44C123.881 106.952 123.449 107.49 123.05 108.053C122.887 108.279 122.733 108.497 122.588 108.723C122.119 109.449 121.699 110.206 121.33 110.988Z" fill="#455A64"/>
<path d="M96.9429 127.728C97.7551 127.777 98.5569 127.526 99.1961 127.022C100.915 125.69 102.2 125.799 104.037 125.002C105.485 124.377 106.073 123.598 106.363 123.86C106.666 124.194 106.833 124.628 106.833 125.079C106.833 125.529 106.666 125.964 106.363 126.297C105.804 126.942 105.159 127.506 104.445 127.973C106.155 127.869 107.843 127.524 109.458 126.949C113.331 125.627 115.195 126.197 113.421 131.107C112.317 134.187 109.521 135.936 101.911 135.745C99.0932 135.569 96.2907 135.203 93.5223 134.649C85.9664 133.164 70.7277 130.917 68.0763 127.339C60.5746 117.229 53.6973 108.877 52.7472 101.322C51.9508 94.981 55.86 91.4481 59.4525 91.4481C61.5067 93.6041 62.7464 96.1677 64.6286 102.219C64.6286 102.219 74.4016 119.73 75.3789 121.007C77.8222 122.348 95.3412 127.511 96.9429 127.728Z" fill="#FFA8A7"/>
<path d="M237.991 62.8949C239.294 63.7011 240.706 64.0091 242.461 65.2864C243.587 66.261 244.936 66.9425 246.389 67.2703C248.262 67.7323 263.012 62.7409 265.754 60.6302C271.301 56.3454 276.106 48.2741 278.784 45.2303C280.983 42.703 283.481 38.8892 286.195 38.8892C290.72 40.248 289.661 46.9243 285.915 52.9484C281.78 59.1536 276.448 64.4694 270.233 68.5838C266.993 70.7126 252.089 74.5626 247.14 74.9249C245.637 75.0246 244.524 75.3598 241.656 75.7674C240.48 76.0064 239.276 76.0705 238.081 75.9576C236.613 75.7281 235.184 75.292 233.837 74.6622C232.13 73.8547 230.671 72.6033 229.612 71.0387C229.032 70.1811 228.658 69.2017 228.517 68.1762C228.383 67.1434 228.62 66.0969 229.186 65.223C229.294 65.0443 229.447 64.8973 229.63 64.7973C229.99 64.6767 230.383 64.7027 230.725 64.8697C232.715 65.6997 234.747 66.4224 236.815 67.0348C238.534 67.4333 239.81 67.4786 239.647 67.1706C239.484 66.8626 238.443 66.6905 237.267 65.685C236.091 64.6795 235.611 63.1123 236.199 62.5235C236.787 61.9347 236.688 62.0887 237.991 62.8949Z" fill="#FFA8A7"/>
<path d="M286.485 37.2949C289.797 38.9255 291.145 41.3985 289.67 46.9062C288.349 51.8614 283.282 60.3041 279.291 64.4349C279.291 64.4349 272.468 61.2009 268.83 56.9886C272.45 51.4809 274.16 48.2469 277.536 43.5817C280.911 38.9164 284.467 36.7332 286.485 37.2949Z" fill="#E0E0E0"/>
</g>
<defs>
<clipPath id="clip0">
<rect width="356" height="315" fill="white"/>
</clipPath>
</defs>
</svg>
