<svg width="356" height="381" viewBox="0 0 356 381" fill="none" xmlns="http://www.w3.org/2000/svg">
<path d="M269.989 47.9374H324.136C324.136 47.9374 319.345 39.2087 305.413 40.4758C292.096 41.69 291.419 36.1906 284.651 35.5131C277.882 34.8355 272.239 40.027 269.989 47.9374Z" fill="#E0E0E0"/>
<path d="M128.433 191.239C128.433 191.239 123.009 194.178 130.911 205.52C138.814 216.862 143.947 222.309 143.947 222.309C143.947 222.309 145.441 224.948 143.121 225.758C140.8 226.567 135.438 226.418 134.779 229.48C134.12 232.542 136.686 235.208 141.477 237.1C146.268 238.992 156.631 243.514 157.572 243.928C158.512 244.342 159.514 245.529 158.02 246.313C156.526 247.096 144.896 249.947 146.593 255.384C148.289 260.822 162.503 263.893 164.05 264.263C165.597 264.632 166.037 265.204 166.028 266.022C166.019 266.841 162.02 267.448 158.75 268.389C155.48 269.331 151.849 271.029 153.08 274.074C154.311 277.118 163.259 282.679 182.966 281.905L192.099 280.946L195.985 272.578C203.21 254.161 200.916 243.884 198.437 241.711C195.958 239.537 193.163 242.423 191.212 245.23C189.26 248.037 187.37 251.601 186.588 251.337C185.806 251.073 185.41 250.457 185.577 248.882C185.744 247.307 187.528 232.841 182.94 229.454C178.352 226.066 171.838 236.123 170.634 237.285C169.43 238.446 168.612 237.074 168.533 236.079C168.454 235.085 167.592 223.761 167.382 218.622C167.171 213.483 165.624 210.175 162.398 209.779C159.172 209.383 157.642 214.495 156.148 216.44C154.653 218.384 152.632 216.088 152.632 216.088C152.632 216.088 149.186 209.436 141.081 198.243C132.977 187.051 128.336 191.31 128.336 191.31" fill="#EBEBEB"/>
<path d="M192.89 283.022C186.975 274.769 176.699 259.942 167.812 247.245C158.925 234.548 150.874 223.083 145.037 214.812C142.092 210.685 139.719 207.341 138.066 205.018L136.168 202.379L135.684 201.684L135.526 201.437L135.711 201.666L136.221 202.344L138.154 204.983C139.833 207.271 142.242 210.606 145.186 214.724C151.111 222.977 159.189 234.434 168.041 247.122C176.892 259.81 187.177 274.663 193.057 282.934" fill="#E0E0E0"/>
<path d="M142.268 229.937C142.49 229.946 142.711 229.975 142.927 230.025L144.685 230.386C146.18 230.712 148.201 231.213 150.478 231.812L156.227 233.352L157.985 233.809C158.203 233.849 158.415 233.914 158.618 234.003C158.396 233.994 158.175 233.964 157.959 233.915C157.545 233.844 156.939 233.712 156.2 233.545C154.715 233.211 152.684 232.665 150.425 232.084L144.668 230.589L142.91 230.14C142.69 230.092 142.476 230.024 142.268 229.937Z" fill="#E0E0E0"/>
<path d="M159.154 233.334C159.075 233.334 159.928 229.049 161.044 223.796C162.16 218.543 163.136 214.31 163.215 214.328C163.294 214.346 162.45 218.613 161.325 223.857C160.2 229.102 159.233 233.351 159.154 233.334Z" fill="#E0E0E0"/>
<path d="M171.917 253.413C171.992 253.2 172.093 252.996 172.216 252.806C172.445 252.366 172.735 251.821 173.095 251.178C173.833 249.806 174.853 247.914 175.873 245.776C176.892 243.638 177.789 241.684 178.404 240.25C178.703 239.581 178.949 239.018 179.143 238.561C179.223 238.348 179.326 238.144 179.45 237.953C179.408 238.177 179.34 238.396 179.248 238.605C179.108 239.018 178.879 239.608 178.598 240.364C178.018 241.816 177.174 243.796 176.128 245.934C175.082 248.072 174.053 249.964 173.271 251.31C172.875 251.988 172.55 252.525 172.313 252.894C172.202 253.083 172.07 253.257 171.917 253.413Z" fill="#E0E0E0"/>
<path d="M155.972 253.73C156.176 253.677 156.385 253.65 156.596 253.651L158.293 253.554C159.734 253.484 161.721 253.405 163.909 253.334C166.098 253.264 168.085 253.22 169.526 253.202H171.223C171.433 253.182 171.645 253.182 171.856 253.202C171.652 253.256 171.442 253.282 171.232 253.281L169.526 253.378C168.094 253.449 166.107 253.528 163.918 253.598C161.729 253.669 159.743 253.713 158.301 253.73H156.596C156.388 253.75 156.18 253.75 155.972 253.73Z" fill="#E0E0E0"/>
<path d="M164.991 272.903C165.255 272.854 165.522 272.825 165.791 272.815L167.97 272.683C169.808 272.578 172.366 272.463 175.161 272.349C177.956 272.235 180.514 272.147 182.351 272.094L184.531 272.05C184.8 272.027 185.071 272.027 185.34 272.05C185.076 272.098 184.808 272.127 184.54 272.138L182.36 272.27C180.523 272.375 177.965 272.49 175.17 272.604C172.374 272.719 169.816 272.807 167.979 272.859L165.791 272.903C165.524 272.926 165.257 272.926 164.991 272.903Z" fill="#E0E0E0"/>
<path d="M184.847 271.953C184.941 271.682 185.059 271.42 185.199 271.17C185.463 270.633 185.806 269.92 186.228 269.076C187.107 267.316 188.293 264.852 189.533 262.107C190.772 259.362 191.836 256.827 192.592 255.024C192.961 254.144 193.26 253.422 193.471 252.868C193.571 252.598 193.691 252.336 193.831 252.085C193.772 252.365 193.686 252.639 193.576 252.903C193.391 253.431 193.119 254.179 192.767 255.103C192.055 256.951 191.009 259.502 189.77 262.221C188.531 264.94 187.309 267.413 186.386 269.164C185.929 270.044 185.551 270.748 185.278 271.223C185.16 271.48 185.016 271.725 184.847 271.953Z" fill="#E0E0E0"/>
<path d="M261.436 150.288C251.635 139.281 252.575 123.398 256.285 109.812C256.9 107.542 257.225 105.07 258.79 103.319C260.355 101.568 263.185 100.793 265.031 102.245C266.543 103.451 266.789 105.598 267.378 107.463C268.132 109.944 269.57 112.161 271.527 113.86C272.801 114.96 274.489 115.849 276.115 115.4C278.348 114.775 279.227 112.109 279.754 109.821L282.682 97.0802C283.087 94.7726 283.859 92.5448 284.967 90.4809C286.189 88.4835 288.228 86.8469 290.531 86.7589C292.834 86.6709 295.216 88.5187 295.146 90.8856C295.011 91.8491 294.809 92.8018 294.539 93.7365C294.415 94.2051 294.433 94.7 294.589 95.1589C294.745 95.6177 295.034 96.0198 295.418 96.3147C296.297 96.7986 297.326 96.3675 298.161 95.8659C301.053 94.1061 303.347 91.5368 305.527 88.9498C307.707 86.3629 309.878 83.6704 312.559 81.6818C315.24 79.6932 318.712 78.391 322 78.9805C325.287 79.57 328.294 82.4033 328.364 85.7998C328.434 89.1962 325.788 92.0207 323.134 94.1325C319.207 97.2725 314.846 99.8245 310.186 101.708C309.305 101.954 308.526 102.475 307.962 103.196C307.083 104.595 308.191 106.442 309.571 107.296C311.126 108.264 313.008 108.519 314.739 109.153C316.471 109.786 318.194 111.018 318.466 112.857C318.853 115.409 316.33 117.38 314.071 118.524C309.484 120.821 304.536 122.309 299.444 122.923C297.608 122.989 295.8 123.392 294.109 124.111C292.483 124.991 291.182 126.821 291.621 128.616C292.061 130.411 294.03 131.423 295.858 131.52C297.686 131.617 299.48 131.027 301.299 130.789C304.701 130.349 308.683 131.529 310.045 134.705C310.438 135.779 310.575 136.929 310.447 138.065C310.319 139.202 309.929 140.292 309.307 141.252C308.051 143.16 306.425 144.797 304.525 146.065C298.165 150.844 290.651 153.847 282.752 154.767C274.902 155.568 268.028 154.653 261.445 150.315" fill="#F5F5F5"/>
<path d="M263.422 151.608C265.18 146.329 263.343 148.968 267.009 142.527C271.049 135.597 275.484 128.904 280.291 122.483L284.044 117.406C285.283 115.743 286.505 114.098 287.806 112.558C290.301 109.609 292.957 106.801 295.761 104.146C298.398 101.594 301.035 99.2624 303.514 97.1066C305.993 94.9508 308.322 92.9887 310.546 91.2904C314.02 88.5936 317.703 86.178 321.56 84.0664C322.923 83.3185 323.995 82.7729 324.734 82.4122L325.569 82.0074C325.661 81.9562 325.758 81.9149 325.859 81.8842C325.771 81.9422 325.68 81.9951 325.586 82.0426L324.769 82.4826C324.048 82.8697 323.011 83.4417 321.639 84.2424C317.822 86.3892 314.169 88.8187 310.713 91.5104C308.525 93.2174 306.204 95.1884 303.743 97.353C301.281 99.5176 298.688 101.849 296.034 104.392C293.248 107.046 290.607 109.848 288.123 112.787C286.839 114.318 285.626 115.954 284.387 117.626L280.634 122.694C275.836 129.104 271.402 135.779 267.352 142.686C263.677 149.083 265.523 146.381 263.713 151.661" fill="#E0E0E0"/>
<path d="M287.929 112.567C287.889 112.228 287.889 111.885 287.929 111.546C287.929 110.886 288.035 109.944 288.149 108.765C288.36 106.425 288.764 103.204 289.23 99.6495C289.696 96.0947 290.048 92.8655 290.232 90.5337C290.32 89.3634 290.391 88.4131 290.426 87.7532C290.429 87.4133 290.464 87.0745 290.531 86.7413C290.589 87.0783 290.609 87.4205 290.593 87.762C290.593 88.4219 290.593 89.3722 290.531 90.5513C290.434 92.9007 290.118 96.1387 289.652 99.7023C289.186 103.266 288.773 106.381 288.448 108.801C288.307 109.9 288.193 110.824 288.096 111.564C288.077 111.903 288.021 112.239 287.929 112.567Z" fill="#E0E0E0"/>
<path d="M318.457 114.036C318.056 114.022 317.656 113.975 317.262 113.895C316.488 113.79 315.381 113.622 314.01 113.455C311.267 113.112 307.452 112.769 303.233 112.575C299.014 112.382 295.181 112.373 292.412 112.452C291.032 112.452 289.907 112.531 289.134 112.558C288.733 112.6 288.33 112.6 287.929 112.558C288.322 112.465 288.722 112.406 289.125 112.382C289.898 112.303 291.015 112.197 292.403 112.135C295.181 111.977 299.022 111.942 303.259 112.135C306.873 112.286 310.476 112.627 314.054 113.156C315.425 113.35 316.532 113.57 317.288 113.728C317.688 113.788 318.08 113.892 318.457 114.036Z" fill="#E0E0E0"/>
<path d="M267.492 142.07C267.438 141.94 267.399 141.804 267.378 141.665C267.308 141.348 267.229 140.961 267.132 140.495C266.921 139.465 266.648 137.978 266.341 136.139C265.725 132.452 265.031 127.34 264.345 121.665C263.66 115.989 263.009 110.886 262.473 107.19C262.201 105.431 261.981 103.917 261.823 102.791C261.752 102.316 261.7 101.911 261.647 101.594C261.624 101.457 261.624 101.317 261.647 101.181C261.701 101.31 261.74 101.446 261.761 101.585C261.831 101.902 261.911 102.289 262.007 102.756C262.227 103.785 262.491 105.272 262.798 107.155C263.414 110.842 264.108 115.954 264.794 121.63C265.479 127.305 266.13 132.408 266.666 136.104C266.938 137.864 267.158 139.377 267.316 140.504C267.387 140.979 267.448 141.384 267.492 141.7C267.511 141.823 267.511 141.947 267.492 142.07Z" fill="#E0E0E0"/>
<path d="M309.316 138.753C309.176 138.794 309.031 138.818 308.885 138.823L307.672 138.929L303.189 139.289C299.409 139.597 294.188 140.081 288.422 140.627C282.655 141.172 277.425 141.612 273.637 141.841C271.738 141.956 270.208 142.035 269.145 142.061H267.923C267.78 142.084 267.635 142.084 267.492 142.061C267.63 142.027 267.772 142.006 267.914 142L269.136 141.885L273.61 141.524C277.399 141.216 282.62 140.732 288.386 140.187C294.153 139.641 299.383 139.21 303.171 138.981C305.07 138.858 306.6 138.788 307.663 138.753H308.885C309.028 138.729 309.173 138.729 309.316 138.753Z" fill="#E0E0E0"/>
<path d="M341.751 222.661C341.712 222.79 341.665 222.916 341.611 223.039L341.162 224.139C340.74 225.124 340.151 226.523 339.404 228.283L333.058 242.987V243.074H332.961L312.972 246.374L306.283 247.465L305.984 247.518L306.054 247.219C307.681 240.796 309.184 234.9 310.45 229.858L310.546 230.052L298.82 224.772L295.594 223.294L294.715 222.898L294.434 222.749C294.537 222.772 294.638 222.808 294.733 222.854L295.612 223.206L298.882 224.596L310.661 229.709L310.792 229.761V229.902L306.468 247.28L306.239 247.034L312.928 245.934L332.882 242.679L332.75 242.784C335.387 236.766 337.646 231.715 339.228 228.151C340.011 226.391 340.635 225.019 341.074 224.042L341.575 222.969C341.622 222.859 341.681 222.756 341.751 222.661Z" fill="#E0E0E0"/>
<path d="M308.621 245.125L308.076 246.559L308.955 247.826L307.417 247.747L306.485 248.97L306.081 247.492L304.639 246.981L305.923 246.137L305.958 244.606L307.153 245.565L308.621 245.125Z" fill="#E0E0E0"/>
<path d="M294.926 221.833L294.654 222.546L295.093 223.171L294.329 223.136L293.863 223.743L293.66 223.004L292.94 222.757L293.581 222.335L293.599 221.57L294.197 222.045L294.926 221.833Z" fill="#E0E0E0"/>
<path d="M333.612 242.089L333.339 242.802L333.779 243.426L333.014 243.391L332.548 243.998L332.355 243.259L331.634 243.004L332.267 242.591L332.284 241.825L332.882 242.3L333.612 242.089Z" fill="#E0E0E0"/>
<path d="M311.293 229.225L311.021 229.937L311.452 230.571L310.687 230.536L310.23 231.143L310.028 230.404L309.307 230.149L309.949 229.726L309.966 228.961L310.555 229.445L311.293 229.225Z" fill="#E0E0E0"/>
<path d="M342.674 221.939L342.411 222.661L342.841 223.285L342.076 223.25L341.611 223.857L341.417 223.118L340.696 222.863L341.329 222.449L341.347 221.684L341.945 222.159L342.674 221.939Z" fill="#E0E0E0"/>
<path d="M0 188.89H43.1156C43.1156 188.89 39.3006 181.947 28.1723 182.959C17.5715 183.927 17.0353 179.545 11.6381 179C6.24099 178.454 1.75802 182.598 0 188.89Z" fill="#E0E0E0"/>
<path d="M101.596 112.003H144.721C144.721 112.003 140.906 105.061 129.777 106.073C119.176 107.041 118.64 102.659 113.252 102.113C107.864 101.568 103.398 105.712 101.596 112.003Z" fill="#F5F5F5"/>
<path d="M320.585 142.017H356C356 142.017 352.871 136.315 343.755 137.142C335.044 137.934 334.596 134.335 330.175 133.896C325.753 133.456 322.061 136.852 320.585 142.017Z" fill="#F5F5F5"/>
<path d="M249.85 212.058C251.608 198.771 242.273 187.807 230.609 181.261C218.944 174.714 205.416 172.462 192.539 168.81C180.391 165.352 168.304 160.31 159.312 151.441C150.32 142.571 144.914 129.232 148.149 117.01C148.957 113.948 150.408 110.851 153.045 109.091C155.682 107.331 159.699 107.331 161.659 109.856C165.843 115.136 157.695 124.674 162.793 129.1C163.962 130.121 165.58 130.49 166.793 131.458C170.019 134.036 168.973 139.043 169.43 143.152C170.309 151.274 177.93 156.905 185.401 160.196C195.404 164.596 206.251 166.672 216.861 169.285C227.471 171.899 238.212 175.102 247.002 181.534C255.793 187.966 263.519 198.032 263.458 208.978C263.458 212.031 263.053 215.789 261.137 218.173C259.221 220.558 256.742 221.05 254.017 219.748C251.292 218.446 249.314 216.431 249.833 212.014" fill="#E8505B"/>
<g opacity="0.8">
<path opacity="0.8" d="M249.85 212.058C251.608 198.771 242.273 187.807 230.609 181.261C218.944 174.714 205.416 172.462 192.539 168.81C180.391 165.352 168.304 160.31 159.312 151.441C150.32 142.571 144.914 129.232 148.149 117.01C148.957 113.948 150.408 110.851 153.045 109.091C155.682 107.331 159.699 107.331 161.659 109.856C165.843 115.136 157.695 124.674 162.793 129.1C163.962 130.121 165.58 130.49 166.793 131.458C170.019 134.036 168.973 139.043 169.43 143.152C170.309 151.274 177.93 156.905 185.401 160.196C195.404 164.596 206.251 166.672 216.861 169.285C227.471 171.899 238.212 175.102 247.002 181.534C255.793 187.966 263.519 198.032 263.458 208.978C263.458 212.031 263.053 215.789 261.137 218.173C259.221 220.558 256.742 221.05 254.017 219.748C251.292 218.446 249.314 216.431 249.833 212.014" fill="white"/>
</g>
<path d="M193.427 106.381C193.005 101.462 196.67 97.177 200.837 94.8804C205.003 92.5839 209.776 91.6424 214.066 89.601C224.728 84.5415 231.514 72.6276 232.015 60.4144C232.516 48.2013 227.225 35.9882 218.944 26.9779C215.587 23.3351 211.446 19.5163 211.402 14.5448C211.35 9.39739 216.378 5.27942 221.397 5.36741C226.416 5.4554 231.066 8.79905 234.055 13.0402C237.043 17.2814 238.731 22.3144 240.348 27.2683C239.197 25.2005 241.561 22.6312 243.864 22.8688C246.167 23.1063 247.952 24.9981 249.358 26.8988C255.433 35.1796 258.34 45.3667 257.551 55.6101C256.727 65.6751 252.175 75.0685 244.787 81.9458C236.657 89.3546 225.906 92.839 215.49 96.1299L193.726 103.002" fill="#E8505B"/>
<g opacity="0.8">
<path opacity="0.8" d="M193.427 106.381C193.005 101.462 196.67 97.177 200.837 94.8804C205.003 92.5839 209.776 91.6424 214.066 89.601C224.728 84.5415 231.514 72.6276 232.015 60.4144C232.516 48.2013 227.225 35.9882 218.944 26.9779C215.587 23.3351 211.446 19.5163 211.402 14.5448C211.35 9.39739 216.378 5.27942 221.397 5.36741C226.416 5.4554 231.066 8.79905 234.055 13.0402C237.043 17.2814 238.731 22.3144 240.348 27.2683C239.197 25.2005 241.561 22.6312 243.864 22.8688C246.167 23.1063 247.952 24.9981 249.358 26.8988C255.433 35.1796 258.34 45.3667 257.551 55.6101C256.727 65.6751 252.175 75.0685 244.787 81.9458C236.657 89.3546 225.906 92.839 215.49 96.1299L193.726 103.002" fill="white"/>
</g>
<path d="M187.37 2.9565C186.307 3.45151 185.462 4.31962 184.996 5.3964C184.529 6.47317 184.473 7.68384 184.839 8.79908C185.286 9.88665 186.117 10.7717 187.174 11.286C188.23 11.8003 189.439 11.9079 190.57 11.5884C191.677 11.1898 192.598 10.3969 193.157 9.36122C193.717 8.32558 193.875 7.11986 193.602 5.97458C193.25 4.8481 192.494 3.89172 191.48 3.28917C190.466 2.68661 189.265 2.48039 188.109 2.71012" fill="#E8505B"/>
<g opacity="0.8">
<path opacity="0.8" d="M187.37 2.9565C186.307 3.45151 185.462 4.31962 184.996 5.3964C184.529 6.47317 184.473 7.68384 184.839 8.79908C185.286 9.88665 186.117 10.7717 187.174 11.286C188.23 11.8003 189.439 11.9079 190.57 11.5884C191.677 11.1898 192.598 10.3969 193.157 9.36122C193.717 8.32558 193.875 7.11986 193.602 5.97458C193.25 4.8481 192.494 3.89172 191.48 3.28917C190.466 2.68661 189.265 2.48039 188.109 2.71012" fill="white"/>
</g>
<path d="M214.198 320.638C211.561 315.104 213.855 308.205 218.109 303.771C222.364 299.336 228.156 296.802 233.773 294.32C246.176 288.856 259.265 282.345 265.611 270.334C267.738 266.286 268.951 261.834 270.147 257.417C272.459 248.873 274.63 239.168 269.971 231.644C268.635 229.48 266.622 227.553 264.117 227.104C261.269 226.594 258.333 228.169 256.575 230.474C254.923 232.876 253.931 235.671 253.701 238.578C253.006 244.042 253.577 249.612 253.006 255.094C252.435 260.576 250.431 266.322 245.904 269.472C240.419 273.299 232.587 272.446 227.251 276.511C222.953 279.775 221.309 285.442 217.942 289.71C215.112 293.229 211.156 295.693 207.526 298.429C203.896 301.166 200.415 304.448 199.158 308.848C198.515 311.136 198.543 313.561 199.24 315.834C199.937 318.106 201.273 320.13 203.088 321.663C204.903 323.196 207.121 324.173 209.476 324.478C211.831 324.783 214.224 324.403 216.369 323.384" fill="#E8505B"/>
<g opacity="0.8">
<path opacity="0.8" d="M214.198 320.638C211.561 315.104 213.855 308.205 218.109 303.771C222.364 299.336 228.156 296.802 233.773 294.32C246.176 288.856 259.265 282.345 265.611 270.334C267.738 266.286 268.951 261.834 270.147 257.417C272.459 248.873 274.63 239.168 269.971 231.644C268.635 229.48 266.622 227.553 264.117 227.104C261.269 226.594 258.333 228.169 256.575 230.474C254.923 232.876 253.931 235.671 253.701 238.578C253.006 244.042 253.577 249.612 253.006 255.094C252.435 260.576 250.431 266.322 245.904 269.472C240.419 273.299 232.587 272.446 227.251 276.511C222.953 279.775 221.309 285.442 217.942 289.71C215.112 293.229 211.156 295.693 207.526 298.429C203.896 301.166 200.415 304.448 199.158 308.848C198.515 311.136 198.543 313.561 199.24 315.834C199.937 318.106 201.273 320.13 203.088 321.663C204.903 323.196 207.121 324.173 209.476 324.478C211.831 324.783 214.224 324.403 216.369 323.384" fill="white"/>
</g>
<path d="M131.738 41.1533C129.564 39.5115 127.804 37.3831 126.6 34.9383C125.396 32.4936 124.78 29.8005 124.802 27.0748C124.872 24.3418 125.58 21.6632 126.869 19.2535C128.159 16.8438 129.995 14.7701 132.23 13.1986C134.761 11.4388 137.768 10.3917 140.018 8.29753C142.022 6.43212 143.323 3.89799 145.564 2.28776C146.979 1.33559 148.652 0.843999 150.356 0.880224C152.06 0.91645 153.712 1.47872 155.084 2.49014C156.418 3.54981 157.393 4.99498 157.878 6.62914C158.362 8.26331 158.332 10.0072 157.791 11.6236C156.754 14.5185 154.161 16.6303 153.08 19.5427C151.911 22.64 152.658 26.1069 152.201 29.3801C151.93 31.3974 151.208 33.3277 150.091 35.0284C148.974 36.729 147.489 38.1564 145.746 39.2048C144.003 40.2533 142.047 40.8961 140.022 41.0857C137.998 41.2752 135.956 41.0066 134.049 40.2998" fill="#E8505B"/>
<g opacity="0.8">
<path opacity="0.8" d="M131.738 41.1533C129.564 39.5115 127.804 37.3831 126.6 34.9383C125.396 32.4936 124.78 29.8005 124.802 27.0748C124.872 24.3418 125.58 21.6632 126.869 19.2535C128.159 16.8438 129.995 14.7701 132.23 13.1986C134.761 11.4388 137.768 10.3917 140.018 8.29753C142.022 6.43212 143.323 3.89799 145.564 2.28776C146.979 1.33559 148.652 0.843999 150.356 0.880224C152.06 0.91645 153.712 1.47872 155.084 2.49014C156.418 3.54981 157.393 4.99498 157.878 6.62914C158.362 8.26331 158.332 10.0072 157.791 11.6236C156.754 14.5185 154.161 16.6303 153.08 19.5427C151.911 22.64 152.658 26.1069 152.201 29.3801C151.93 31.3974 151.208 33.3277 150.091 35.0284C148.974 36.729 147.489 38.1564 145.746 39.2048C144.003 40.2533 142.047 40.8961 140.022 41.0857C137.998 41.2752 135.956 41.0066 134.049 40.2998" fill="white"/>
</g>
<path d="M132.054 23.476H142.18V44.0658C142.18 45.3283 141.679 46.5391 140.787 47.4318C139.896 48.3246 138.686 48.8261 137.425 48.8261H136.818C135.557 48.8261 134.347 48.3246 133.456 47.4318C132.564 46.5391 132.063 45.3283 132.063 44.0658V23.476H132.054Z" fill="#E8505B"/>
<path d="M132.054 23.4759L137.108 14.1841L142.171 23.4759H132.054Z" fill="#FFBE9D"/>
<path d="M135.104 17.8709C135.104 17.8709 136.642 20.1763 139.112 17.8709L137.126 14.1841L135.104 17.8709Z" fill="#E8505B"/>
<path d="M142.312 43.3531C140.606 43.5512 138.887 43.6188 137.17 43.5554C135.45 43.619 133.728 43.5514 132.019 43.3531C133.727 43.1437 135.45 43.0731 137.17 43.1419C138.887 43.0732 140.607 43.1438 142.312 43.3531Z" fill="#263238"/>
<path d="M142.207 41.7956C140.536 41.9992 138.851 42.0669 137.17 41.998C135.485 42.0667 133.798 41.999 132.124 41.7956C133.798 41.5922 135.485 41.5245 137.17 41.5932C138.851 41.5243 140.536 41.592 142.207 41.7956Z" fill="#263238"/>
<path d="M135.025 23.6255C135.131 23.6255 135.227 27.6731 135.227 32.6621C135.227 37.6512 135.131 41.69 135.025 41.69C134.92 41.69 134.814 37.6512 134.814 32.6621C134.814 27.6731 134.911 23.6255 135.025 23.6255Z" fill="#FAFAFA"/>
<path d="M139.112 23.6255C139.227 23.6255 139.323 27.6731 139.323 32.6621C139.323 37.6512 139.227 41.69 139.112 41.69C138.998 41.69 138.884 37.6512 138.884 32.6621C138.884 27.6731 139.007 23.6255 139.112 23.6255Z" fill="#FAFAFA"/>
<path d="M219.99 308.997L265.98 310.959L267.088 313.643L236.947 362.619L182.544 361.026L219.99 308.997Z" fill="#263238"/>
<path d="M180.479 356.257L235.215 359.381L263.8 314.972L243.733 316.6L192.917 334.514L180.479 356.257Z" fill="#E0E0E0"/>
<path d="M172.787 352.957L223.049 353.758C220.966 347.317 225.889 338.254 232.648 335.201C237.122 333.177 245.552 330.564 249.903 328.329C258.166 324.088 265.629 316.054 264.978 309.156L244.365 308.496L217.995 307.475C215.789 314.021 211.077 318.307 203.931 320.885C197.523 323.19 190.227 323.19 183.968 325.812C173.904 330.027 169.069 343.701 172.814 352.957" fill="#EBEBEB"/>
<path d="M172.787 352.957C172.787 352.957 172.787 352.852 172.664 352.632L172.322 351.664C172.137 351.133 171.993 350.589 171.891 350.036C171.723 349.282 171.606 348.518 171.539 347.748C171.379 345.607 171.515 343.455 171.944 341.351C172.525 338.514 173.618 335.807 175.17 333.362C175.605 332.656 176.087 331.98 176.611 331.338C176.884 331.012 177.139 330.66 177.437 330.344L178.316 329.402C178.633 329.087 178.971 328.793 179.327 328.522C179.679 328.241 180.022 327.933 180.4 327.642C181.179 327.094 181.999 326.606 182.852 326.182C186.368 324.422 190.491 323.683 194.824 322.9C196.995 322.504 199.219 322.081 201.478 321.465C203.782 320.845 206.006 319.959 208.106 318.826C209.193 318.237 210.228 317.557 211.2 316.793C212.202 316.026 213.121 315.156 213.943 314.197C215.648 312.221 216.947 309.928 217.767 307.449L217.81 307.317H217.995L239.97 308.152C247.583 308.452 255.459 308.663 263.537 308.927L265.005 308.98H265.189V309.164C265.299 310.742 265.075 312.326 264.53 313.81C264.268 314.545 263.959 315.262 263.607 315.957C263.241 316.638 262.839 317.299 262.403 317.937C260.669 320.433 258.571 322.654 256.179 324.528C253.868 326.37 251.345 327.93 248.664 329.173C246.027 330.361 243.328 331.338 240.7 332.315C238.072 333.291 235.47 334.207 233 335.28C231.789 335.819 230.651 336.511 229.616 337.339C229.088 337.717 228.64 338.219 228.148 338.632C227.655 339.046 227.269 339.556 226.864 340.075C225.255 342.018 224.058 344.27 223.348 346.692C222.619 348.976 222.577 351.424 223.225 353.732L223.287 353.952H223.058L186.5 353.3L176.365 353.089L173.728 353.028C173.121 353.028 172.849 352.984 172.849 352.984H173.728H176.365L186.509 353.098L223.067 353.608L222.9 353.82C222.228 351.45 222.264 348.936 223.005 346.587C223.729 344.119 224.943 341.824 226.574 339.838C226.97 339.31 227.453 338.852 227.893 338.36C228.376 337.879 228.887 337.427 229.422 337.005C230.481 336.154 231.645 335.444 232.886 334.893C235.373 333.802 237.975 332.878 240.594 331.901C243.214 330.924 245.869 329.948 248.506 328.769C251.156 327.536 253.649 325.991 255.933 324.167C258.298 322.32 260.372 320.128 262.086 317.664C262.526 317.048 262.886 316.38 263.264 315.72C263.602 315.044 263.895 314.348 264.143 313.634C264.672 312.204 264.89 310.677 264.785 309.156L264.978 309.34L263.51 309.296C255.441 309.024 247.556 308.812 239.944 308.513L217.969 307.633L218.153 307.501C217.319 310.026 215.996 312.361 214.259 314.373C213.415 315.344 212.475 316.229 211.455 317.013C210.466 317.786 209.413 318.475 208.308 319.072C206.185 320.225 203.934 321.125 201.602 321.756C199.342 322.372 197.092 322.785 194.921 323.172C190.579 323.947 186.447 324.668 183.01 326.393C182.168 326.803 181.36 327.28 180.593 327.818C180.224 328.091 179.881 328.39 179.53 328.698C179.172 328.964 178.837 329.258 178.527 329.578L177.648 330.502C177.35 330.819 177.095 331.162 176.831 331.479C176.298 332.114 175.807 332.784 175.363 333.485C173.809 335.905 172.71 338.589 172.119 341.404C171.676 343.491 171.523 345.628 171.662 347.757C171.719 348.523 171.824 349.284 171.979 350.036C172.076 350.587 172.208 351.13 172.374 351.664C172.515 352.086 172.62 352.412 172.691 352.641C172.761 352.843 172.787 352.957 172.787 352.957Z" fill="#263238"/>
<path d="M232.103 308.293C232.103 308.293 232.174 307.968 232.217 307.413C232.279 306.601 232.144 305.786 231.822 305.038C231.375 303.921 230.529 303.012 229.449 302.486C228.788 302.179 228.073 302.007 227.345 301.982C226.618 301.956 225.892 302.077 225.212 302.336C224.533 302.602 223.914 302.999 223.389 303.505C222.864 304.011 222.444 304.615 222.153 305.284C221.65 306.384 221.482 307.608 221.669 308.804C221.805 309.609 222.104 310.379 222.548 311.065C222.856 311.558 223.093 311.786 223.067 311.813C223.041 311.839 222.777 311.637 222.417 311.162C221.911 310.479 221.566 309.691 221.406 308.856C221.159 307.605 221.306 306.307 221.828 305.143C222.131 304.422 222.577 303.77 223.137 303.224C223.697 302.679 224.361 302.251 225.089 301.967C225.82 301.69 226.6 301.564 227.381 301.598C228.162 301.631 228.928 301.822 229.633 302.16C230.779 302.743 231.664 303.735 232.112 304.941C232.423 305.738 232.52 306.602 232.393 307.449C232.365 307.674 232.308 307.896 232.226 308.108C232.156 308.223 232.121 308.293 232.103 308.293Z" fill="#263238"/>
<path d="M239.97 308.293C239.97 308.293 240.032 307.968 240.085 307.413C240.142 306.601 240.006 305.787 239.689 305.038C239.239 303.921 238.39 303.011 237.307 302.486C236.647 302.179 235.931 302.007 235.204 301.982C234.476 301.956 233.751 302.077 233.07 302.336C231.701 302.875 230.602 303.935 230.011 305.284C229.508 306.384 229.34 307.608 229.528 308.804C229.664 309.609 229.963 310.379 230.407 311.065C230.723 311.558 230.952 311.786 230.925 311.813C230.899 311.839 230.635 311.637 230.275 311.162C229.77 310.479 229.424 309.691 229.264 308.856C229.024 307.604 229.171 306.309 229.686 305.143C229.99 304.422 230.435 303.77 230.995 303.224C231.555 302.679 232.219 302.251 232.947 301.967C233.678 301.69 234.458 301.564 235.239 301.598C236.02 301.631 236.786 301.822 237.492 302.16C238.637 302.743 239.522 303.735 239.97 304.941C240.279 305.738 240.379 306.602 240.26 307.449C240.223 307.673 240.167 307.893 240.093 308.108C240.06 308.175 240.019 308.237 239.97 308.293Z" fill="#263238"/>
<path d="M245.965 308.698C245.965 308.698 246.018 308.372 246.027 307.818C246.047 307.003 245.866 306.196 245.499 305.469C244.988 304.381 244.092 303.522 242.985 303.058C242.309 302.789 241.586 302.659 240.858 302.674C240.131 302.689 239.413 302.85 238.749 303.146C237.412 303.761 236.372 304.881 235.857 306.261C235.422 307.381 235.324 308.605 235.575 309.78C235.75 310.576 236.085 311.327 236.56 311.989C236.903 312.464 237.149 312.675 237.122 312.702C236.85 312.551 236.616 312.34 236.437 312.086C235.891 311.434 235.5 310.667 235.294 309.842C234.979 308.609 235.052 307.309 235.505 306.12C235.767 305.382 236.174 304.704 236.703 304.127C237.231 303.55 237.87 303.084 238.582 302.759C239.297 302.44 240.069 302.27 240.852 302.26C241.635 302.249 242.411 302.398 243.135 302.697C244.315 303.213 245.257 304.156 245.772 305.337C246.131 306.111 246.28 306.967 246.203 307.818C246.181 308.045 246.137 308.269 246.071 308.487C246.009 308.628 245.983 308.707 245.965 308.698Z" fill="#263238"/>
<path d="M252.382 309.068C252.382 309.068 252.382 308.742 252.382 308.188C252.354 307.372 252.131 306.576 251.732 305.865C251.156 304.813 250.219 304.006 249.094 303.595C248.404 303.36 247.674 303.268 246.947 303.322C246.22 303.376 245.512 303.577 244.864 303.911C244.216 304.245 243.642 304.706 243.175 305.267C242.709 305.828 242.361 306.477 242.15 307.176C241.774 308.314 241.74 309.538 242.054 310.695C242.27 311.481 242.644 312.215 243.152 312.851C243.513 313.3 243.776 313.502 243.75 313.538C243.478 313.391 243.236 313.194 243.038 312.957C242.456 312.335 242.023 311.589 241.772 310.775C241.393 309.56 241.393 308.258 241.772 307.044C241.989 306.29 242.357 305.589 242.854 304.984C243.352 304.378 243.968 303.881 244.665 303.523C245.362 303.165 246.124 302.954 246.906 302.903C247.687 302.852 248.471 302.961 249.209 303.225C250.412 303.676 251.401 304.565 251.978 305.715C252.37 306.472 252.56 307.318 252.531 308.17C252.523 308.399 252.491 308.626 252.435 308.848C252.426 308.997 252.4 309.068 252.382 309.068Z" fill="#263238"/>
<path d="M258.808 308.918C258.808 308.918 258.808 308.584 258.808 308.038C258.751 307.225 258.508 306.436 258.096 305.733C257.492 304.695 256.528 303.915 255.388 303.542C254.692 303.328 253.96 303.256 253.235 303.33C252.51 303.404 251.808 303.622 251.169 303.973C250.531 304.326 249.969 304.803 249.516 305.375C249.063 305.948 248.729 306.605 248.532 307.308C248.182 308.455 248.182 309.68 248.532 310.827C248.767 311.61 249.162 312.335 249.692 312.957C250.07 313.397 250.325 313.599 250.308 313.625C250.029 313.489 249.78 313.298 249.578 313.062C248.98 312.459 248.526 311.728 248.251 310.924C247.843 309.715 247.812 308.411 248.163 307.185C248.366 306.43 248.717 305.723 249.197 305.106C249.678 304.49 250.276 303.976 250.958 303.595C251.644 303.22 252.399 302.988 253.177 302.914C253.955 302.84 254.741 302.925 255.485 303.163C256.702 303.579 257.716 304.441 258.324 305.574C258.745 306.317 258.961 307.158 258.948 308.012C258.946 308.242 258.923 308.472 258.878 308.698C258.852 308.848 258.825 308.918 258.808 308.918Z" fill="#263238"/>
<path d="M264.231 309.64C264.216 309.346 264.216 309.053 264.231 308.76C264.214 307.946 264 307.149 263.607 306.437C263.046 305.366 262.105 304.544 260.97 304.131C260.281 303.89 259.55 303.791 258.822 303.838C258.094 303.886 257.382 304.079 256.73 304.408C256.078 304.736 255.499 305.193 255.027 305.75C254.555 306.307 254.199 306.953 253.982 307.651C253.589 308.784 253.54 310.009 253.841 311.171C254.047 311.96 254.415 312.697 254.922 313.335C255.274 313.793 255.529 314.004 255.503 314.03C255.23 313.884 254.991 313.684 254.799 313.441C254.227 312.813 253.803 312.064 253.56 311.25C253.203 310.026 253.224 308.722 253.621 307.51C253.854 306.764 254.234 306.072 254.739 305.475C255.243 304.878 255.861 304.389 256.557 304.034C257.258 303.687 258.023 303.486 258.804 303.444C259.586 303.401 260.367 303.518 261.102 303.788C262.298 304.255 263.276 305.153 263.844 306.305C264.232 307.065 264.411 307.916 264.363 308.768C264.355 308.997 264.322 309.224 264.266 309.446C264.263 309.512 264.251 309.577 264.231 309.64Z" fill="#263238"/>
<path d="M287.912 140.785C285.639 140.716 283.365 140.819 281.108 141.093C274.248 141.971 267.945 145.331 263.387 150.538C258.83 155.745 256.332 162.441 256.364 169.365C256.338 173.917 256.929 178.452 258.122 182.845C262.078 196.923 263.299 209.304 262.842 215.34L276.098 222.476C276.098 222.476 282.251 213.677 288.167 209.84C294.082 206.004 313.834 195.859 321.648 185.388C326.685 178.648 327.652 164.798 315.645 152.69C308.266 145.311 298.339 141.049 287.912 140.785Z" fill="#E8505B"/>
<path d="M256.575 230.659L268.556 237.144L260.759 247.052L252.769 243.418L256.575 230.659Z" fill="#455A64"/>
<path d="M257.155 231.064C257.05 231.064 258.236 227.465 259.792 223.145C261.348 218.824 262.728 215.296 262.834 215.331C262.939 215.366 261.752 218.93 260.196 223.25C258.641 227.571 257.261 231.099 257.155 231.064Z" fill="#263238"/>
<path d="M267.8 236.695C267.703 236.642 269.558 233.281 271.993 229.19C274.428 225.098 276.432 221.833 276.528 221.895C276.625 221.957 274.77 225.309 272.344 229.401C269.918 233.492 267.897 236.695 267.8 236.695Z" fill="#263238"/>
<g opacity="0.4">
<path opacity="0.4" d="M291.911 141.12C291.375 141.12 284.782 148.872 281.864 154.098C272.054 171.696 271.615 188.793 268.899 208.749C268.503 211.6 267.088 217.742 267.141 217.601C269.169 218.881 271.284 220.019 273.47 221.006C273.47 221.006 278.076 215.454 279.904 212.656C287.217 201.464 295.164 192.735 301.431 180.927C307.698 169.118 313.737 158.63 307.927 146.61C307.9 146.575 297.862 140.785 291.911 141.12Z" fill="black"/>
</g>
<path d="M321.718 187.121C321.646 187.002 321.587 186.875 321.543 186.743C321.437 186.496 321.305 186.109 321.086 185.634C319.494 182.103 316.926 179.101 313.684 176.985C311.181 175.319 308.325 174.258 305.342 173.887H305.263L305.211 173.826C303.612 171.618 301.821 169.557 299.857 167.666C297.721 165.591 295.252 163.89 292.553 162.633C289.843 161.42 286.885 160.868 283.921 161.023C281.217 161.129 278.598 162.002 276.37 163.54L276.247 163.628L276.142 163.531C273.878 161.543 271.063 160.291 268.072 159.941C265.747 159.683 263.393 159.985 261.207 160.821C259.791 161.361 258.463 162.112 257.269 163.047C256.856 163.364 256.54 163.628 256.346 163.812C256.246 163.912 256.137 164.004 256.021 164.085C256.102 163.972 256.197 163.868 256.302 163.777C256.579 163.484 256.872 163.208 257.181 162.95C258.367 161.975 259.695 161.189 261.119 160.618C263.329 159.731 265.722 159.396 268.09 159.642C271.154 159.974 274.043 161.236 276.37 163.258H276.142C278.422 161.658 281.112 160.742 283.895 160.618C286.915 160.48 289.926 161.053 292.685 162.29C295.424 163.573 297.932 165.304 300.104 167.411C302.074 169.322 303.871 171.404 305.474 173.632L305.342 173.562C308.379 173.949 311.282 175.046 313.816 176.765C315.79 178.075 317.516 179.725 318.914 181.639C319.821 182.869 320.574 184.204 321.156 185.617C321.367 186.109 321.472 186.496 321.56 186.76C321.621 186.877 321.674 186.998 321.718 187.121Z" fill="#263238"/>
<path d="M297.106 204.649C296.905 203.625 296.517 202.647 295.963 201.763C295.31 200.764 294.439 199.928 293.414 199.317C292.103 198.496 290.558 198.131 289.019 198.278H288.852V198.12C288.556 196.259 287.811 194.498 286.681 192.99C285.428 191.282 283.723 189.959 281.759 189.171C280.197 188.554 278.52 188.279 276.843 188.365C275.166 188.452 273.527 188.898 272.037 189.673L271.914 189.743L271.817 189.638C270.588 188.333 268.974 187.457 267.211 187.139C265.842 186.87 264.429 186.915 263.08 187.271C261.897 187.603 260.788 188.155 259.81 188.899C259.81 188.899 259.862 188.828 259.985 188.723C260.16 188.555 260.345 188.399 260.539 188.256C261.293 187.716 262.134 187.311 263.027 187.06C264.403 186.656 265.854 186.581 267.264 186.84C269.106 187.143 270.8 188.039 272.089 189.391L271.861 189.347C273.327 188.572 274.937 188.108 276.59 187.983C278.403 187.853 280.222 188.127 281.917 188.784C283.946 189.608 285.705 190.983 286.998 192.753C288.151 194.307 288.908 196.119 289.204 198.032L289.01 197.882C290.618 197.748 292.226 198.15 293.581 199.026C294.627 199.675 295.509 200.557 296.157 201.604C296.573 202.272 296.871 203.008 297.036 203.778C297.078 203.981 297.108 204.187 297.124 204.394C297.137 204.479 297.131 204.566 297.106 204.649Z" fill="#263238"/>
<path d="M266.235 240.268C265.996 240.036 265.688 239.886 265.358 239.84C265.028 239.794 264.692 239.855 264.398 240.012C264.054 240.124 263.696 240.19 263.334 240.206C263.113 240.203 262.895 240.156 262.693 240.067C262.49 239.977 262.308 239.848 262.157 239.687C261.515 239.027 261.278 238.068 260.68 237.408C260.543 237.251 260.372 237.128 260.18 237.047C259.988 236.966 259.78 236.93 259.572 236.942C259.15 236.985 258.732 237.068 258.324 237.188C257.915 237.303 257.486 237.327 257.067 237.258C256.706 237.173 256.371 237.001 256.091 236.757C255.682 236.415 255.403 235.943 255.3 235.419C255.242 235.236 255.242 235.039 255.3 234.856C255.3 234.856 255.3 235.059 255.432 235.384C255.587 235.837 255.871 236.235 256.25 236.528C256.507 236.729 256.808 236.864 257.129 236.924C257.498 236.969 257.873 236.933 258.227 236.818C258.656 236.68 259.098 236.586 259.546 236.537C259.811 236.522 260.076 236.567 260.321 236.669C260.566 236.771 260.785 236.927 260.961 237.126C261.664 237.918 261.84 238.886 262.42 239.423C262.644 239.681 262.959 239.842 263.299 239.872C263.632 239.866 263.963 239.819 264.284 239.731C264.791 239.574 265.338 239.608 265.822 239.828C266.2 240.03 266.253 240.259 266.235 240.268Z" fill="#263238"/>
<path d="M267.615 238.341C265.609 237.5 263.657 236.537 261.77 235.454C259.819 234.491 257.931 233.403 256.118 232.199C258.124 233.042 260.076 234.009 261.963 235.094C263.913 236.057 265.801 237.141 267.615 238.341Z" fill="#263238"/>
<path d="M265.233 241.367C265.233 241.367 265.066 241.447 264.776 241.579C264.627 241.649 264.46 241.746 264.231 241.834C263.968 241.933 263.685 241.972 263.405 241.948C262.684 241.907 261.995 241.639 261.436 241.183C261.102 240.904 260.843 240.548 260.68 240.144C260.547 239.757 260.351 239.394 260.1 239.071C259.804 238.82 259.458 238.635 259.085 238.527C258.713 238.419 258.321 238.392 257.937 238.446C257.236 238.528 256.526 238.459 255.854 238.244C255.389 238.072 255.011 237.724 254.799 237.276C254.667 236.959 254.711 236.757 254.729 236.757C254.747 236.757 254.782 236.942 254.94 237.206C255.18 237.57 255.536 237.843 255.951 237.98C256.596 238.134 257.264 238.164 257.92 238.068C258.362 238 258.813 238.029 259.243 238.154C259.673 238.278 260.07 238.495 260.407 238.789C260.686 239.15 260.903 239.554 261.049 239.986C261.19 240.324 261.407 240.625 261.682 240.866C262.18 241.287 262.792 241.55 263.44 241.623C263.88 241.662 264.323 241.583 264.723 241.394C265.04 241.341 265.224 241.341 265.233 241.367Z" fill="#263238"/>
<path d="M174.809 164.367L195.519 161.287L185.612 147.209L180.338 147.525C178.586 147.628 176.897 148.217 175.459 149.225C174.022 150.234 172.893 151.622 172.198 153.236C171.442 154.983 171.233 156.92 171.601 158.788L174.809 164.367Z" fill="#E8505B"/>
<path opacity="0.4" d="M174.809 164.367L195.519 161.287L185.612 147.209L180.338 147.525C178.586 147.628 176.897 148.217 175.459 149.225C174.022 150.234 172.893 151.622 172.198 153.236C171.442 154.983 171.233 156.92 171.601 158.788L174.809 164.367Z" fill="black"/>
<path d="M263.774 187.332C263.985 187.931 264.213 188.635 264.451 189.47C264.65 190.195 264.727 190.947 264.679 191.697C264.65 192.626 264.494 193.547 264.213 194.433C263.871 195.225 264.662 196.017 265.33 195.621C265.998 195.225 266.991 193.087 266.93 190.342C266.868 187.596 269.681 190.896 270.727 192.101C271.773 193.307 275.184 196.809 275.808 196.783C276.687 196.73 276.827 195.744 275.755 194.583C274.683 193.421 271.711 189.717 272.362 189.198C273.012 188.679 278.251 194.794 278.251 194.794C278.251 194.794 279.13 196.281 279.939 195.674C281.337 194.636 275.28 188.547 274.665 187.975C274.252 187.587 274.946 186.989 275.359 187.438C275.773 187.887 280.449 193.659 281.882 192.612C282.98 191.802 276.95 187.552 276.608 185.819C276.265 184.085 280.862 189.506 281.882 188.696C282.268 188.397 282.506 188.115 279.447 185.379C277.961 184.05 272.309 180.099 272.309 180.099L255.309 131.379L242.185 138.902L263.774 187.332Z" fill="#FFBE9D"/>
<path d="M162.617 95.1972L143.578 72.5044C143.339 71.723 143.027 70.9658 142.646 70.243C142.212 69.3341 141.588 68.5291 140.816 67.8824C140.044 67.2357 139.142 66.7625 138.172 66.4946C136.968 66.2306 135.588 66.3626 134.656 65.6147C134.234 65.2539 133.953 64.7348 133.513 64.4268C133.074 64.1188 132.327 64.0309 132.045 64.506C131.972 64.6874 131.941 64.8831 131.955 65.0783C131.968 65.2735 132.026 65.463 132.124 65.6323C132.827 67.2945 133.944 68.7486 135.368 69.8558C133.61 70.3926 131.043 71.2109 131.043 71.2109C131.043 71.2109 127.026 66.8114 124.969 66.8642C122.912 66.9169 126.63 70.7621 126.63 70.7621C126.63 70.7621 123.343 67.7177 122.323 68.5712C121.304 69.4247 123.941 71.6949 123.941 71.6949C123.167 71.1648 122.241 70.9022 121.304 70.9469C120.372 71.0965 119.546 72.1964 120.073 72.9971C120.305 73.2907 120.607 73.5208 120.952 73.6658L126.015 76.4903C126.824 77.0274 127.749 77.3651 128.714 77.4758C131.28 77.555 133.232 75.9624 135.799 76.0328C135.799 76.0328 150.118 106.214 151.568 107.771C153.018 109.328 184.487 111.449 184.487 111.449L202.7 95.7427L162.617 95.1972Z" fill="#FFBE9D"/>
<path d="M219.63 259.617L239.03 268.073L228.64 292.288C226.39 291.153 227.128 276.625 227.128 276.625L214.479 271.724L219.63 259.617Z" fill="#E8505B"/>
<g opacity="0.6">
<path opacity="0.6" d="M229.29 268.689C229.462 268.486 229.702 268.353 229.965 268.318C230.228 268.282 230.495 268.345 230.714 268.495C230.92 268.66 231.057 268.896 231.096 269.158C231.135 269.419 231.074 269.685 230.925 269.903C230.745 270.117 230.494 270.259 230.217 270.301C229.94 270.343 229.658 270.283 229.422 270.132C229.223 269.939 229.107 269.676 229.097 269.399C229.087 269.121 229.185 268.851 229.37 268.645" fill="white"/>
</g>
<path opacity="0.6" d="M239.03 268.073L237.043 267.298L227.822 290.801C227.822 290.801 227.822 292.077 228.64 292.288L239.03 268.073Z" fill="white"/>
<path d="M226.838 276.968C226.952 277.012 227.26 276.449 227.893 276.027C228.526 275.605 229.15 275.517 229.15 275.385C229.15 275.253 228.394 275.138 227.638 275.657C226.882 276.177 226.715 276.951 226.838 276.968Z" fill="#263238"/>
<path d="M226.785 279.96C226.891 280.039 227.313 279.608 227.981 279.423C228.649 279.239 229.229 279.344 229.282 279.23C229.334 279.115 228.684 278.746 227.858 278.992C227.031 279.239 226.688 279.907 226.785 279.96Z" fill="#263238"/>
<path d="M229.211 282.705C229.282 282.609 228.763 282.195 227.989 282.222C227.216 282.248 226.715 282.688 226.794 282.776C226.873 282.864 227.365 282.679 227.998 282.661C228.631 282.644 229.15 282.82 229.211 282.705Z" fill="#263238"/>
<path d="M224.078 275.525C224.21 275.525 224.271 274.91 224.605 274.267C224.939 273.625 225.37 273.185 225.3 273.079C225.229 272.974 224.588 273.299 224.21 274.065C223.832 274.83 223.955 275.552 224.078 275.525Z" fill="#263238"/>
<path d="M221.458 273.722C221.73 273.368 221.906 272.949 221.968 272.507C222.077 272.034 222.13 271.55 222.126 271.064C222.12 270.77 222.097 270.476 222.056 270.184C222.037 270.017 221.992 269.854 221.924 269.7C221.873 269.587 221.786 269.493 221.677 269.434C221.567 269.375 221.441 269.354 221.318 269.375C221.211 269.399 221.111 269.447 221.025 269.515C220.94 269.584 220.872 269.671 220.825 269.771C220.761 269.926 220.717 270.089 220.694 270.255C220.643 270.545 220.622 270.84 220.632 271.135C220.638 271.621 220.724 272.102 220.887 272.56C221.16 273.352 221.52 273.73 221.564 273.704C221.608 273.678 221.37 273.229 221.186 272.472C221.08 272.035 221.033 271.585 221.045 271.135C221.046 270.869 221.073 270.604 221.124 270.343C221.168 270.061 221.265 269.841 221.406 269.824C221.546 269.806 221.476 269.824 221.529 269.903C221.576 270.018 221.606 270.14 221.617 270.264C221.665 270.528 221.697 270.796 221.713 271.064C221.733 271.52 221.716 271.976 221.661 272.428C221.558 272.853 221.49 273.286 221.458 273.722Z" fill="#263238"/>
<path d="M221.687 273.651C221.687 273.651 221.406 273.203 220.658 272.833C220.219 272.618 219.746 272.481 219.261 272.428C218.968 272.401 218.674 272.401 218.382 272.428C218.195 272.427 218.01 272.473 217.846 272.562C217.681 272.651 217.542 272.781 217.441 272.939C217.398 273.047 217.385 273.165 217.405 273.28C217.425 273.396 217.478 273.503 217.556 273.59C217.671 273.714 217.805 273.821 217.951 273.906C218.204 274.066 218.479 274.184 218.769 274.258C219.25 274.381 219.755 274.381 220.236 274.258C221.072 274.056 221.423 273.625 221.388 273.598C221.353 273.572 220.94 273.845 220.184 273.95C219.748 274.013 219.303 273.977 218.883 273.845C218.636 273.773 218.402 273.663 218.188 273.519C217.951 273.37 217.784 273.185 217.846 273.106C217.918 273.024 218.007 272.958 218.108 272.914C218.208 272.87 218.316 272.849 218.426 272.851C218.689 272.824 218.954 272.824 219.217 272.851C219.664 272.883 220.105 272.978 220.527 273.132C221.256 273.379 221.643 273.695 221.687 273.651Z" fill="#263238"/>
<path d="M204.696 292.877L212.721 309.727L215.235 324.871C215.277 325.129 215.372 325.376 215.514 325.596C215.656 325.816 215.841 326.005 216.059 326.15C216.277 326.295 216.522 326.394 216.779 326.44C217.037 326.487 217.301 326.479 217.556 326.419C217.853 326.351 218.13 326.212 218.361 326.012C218.592 325.813 218.771 325.56 218.883 325.275C220.36 321.624 225.722 308.152 225.036 306.947C224.28 305.566 217.749 288.636 217.749 288.636L204.696 292.877Z" fill="#E8505B"/>
<path opacity="0.6" d="M217.547 326.393L224.535 305.777L224.86 306.498C225.143 307.12 225.193 307.823 225.001 308.478C224.5 310.238 222.988 315.042 218.927 325.196C218.809 325.488 218.622 325.746 218.381 325.949C218.14 326.151 217.854 326.292 217.547 326.358V326.393Z" fill="white"/>
<g opacity="0.6">
<path opacity="0.6" d="M218.593 301.861C218.45 302.107 218.405 302.398 218.465 302.676C218.525 302.955 218.686 303.2 218.918 303.366C219.16 303.515 219.45 303.565 219.728 303.506C220.007 303.447 220.251 303.284 220.412 303.049C220.559 302.786 220.603 302.478 220.537 302.184C220.47 301.89 220.297 301.631 220.052 301.456C219.784 301.329 219.477 301.31 219.195 301.403C218.914 301.497 218.679 301.695 218.54 301.958" fill="white"/>
</g>
<path d="M218.092 317.215C217.447 316.862 216.739 316.641 216.008 316.564C215.277 316.598 214.559 316.768 213.89 317.066C213.89 317.066 214.013 316.802 214.382 316.564C214.881 316.275 215.45 316.132 216.026 316.151C216.601 316.17 217.16 316.353 217.635 316.679C217.995 316.943 218.136 317.18 218.092 317.215Z" fill="#263238"/>
<path d="M217.907 320.031C217.299 319.982 216.689 319.965 216.079 319.978C215.481 320.118 214.894 320.297 214.321 320.515C214.233 320.445 214.892 319.723 216.017 319.574C216.346 319.495 216.689 319.495 217.017 319.575C217.346 319.654 217.651 319.811 217.907 320.031Z" fill="#263238"/>
<path d="M219.041 313.247C218.106 313.085 217.16 312.994 216.211 312.974C215.272 313.083 214.343 313.265 213.433 313.52C214.207 312.877 215.188 312.537 216.193 312.561C217.194 312.442 218.204 312.685 219.041 313.247Z" fill="#263238"/>
<path d="M217.028 307.968C217.028 308.091 215.912 308.126 214.672 308.628C213.433 309.129 212.589 309.859 212.51 309.771C212.98 309.042 213.694 308.503 214.523 308.249C215.3 307.866 216.186 307.766 217.028 307.968Z" fill="#263238"/>
<path d="M214.795 302.961C213.948 303.056 213.117 303.266 212.325 303.586C211.591 304.016 210.919 304.546 210.33 305.161C210.286 305.161 210.374 304.844 210.664 304.439C211.051 303.918 211.557 303.499 212.141 303.216C212.725 302.927 213.37 302.779 214.022 302.785C214.479 302.803 214.804 302.917 214.795 302.961Z" fill="#263238"/>
<path d="M211.93 302.618C211.93 302.618 211.763 302.415 211.613 301.984C211.41 301.367 211.326 300.715 211.367 300.066C211.36 299.59 211.512 299.126 211.798 298.746C211.904 298.624 212.047 298.538 212.205 298.502C212.363 298.465 212.528 298.48 212.677 298.544C212.954 298.675 213.173 298.904 213.292 299.186C213.51 299.776 213.516 300.424 213.309 301.018C213.102 301.612 212.696 302.115 212.158 302.442C211.617 302.761 210.991 302.91 210.364 302.867C209.736 302.825 209.136 302.594 208.642 302.204C208.52 302.109 208.419 301.988 208.348 301.849C208.276 301.711 208.236 301.559 208.229 301.404C208.236 301.245 208.293 301.092 208.393 300.969C208.492 300.845 208.629 300.757 208.783 300.717C209.242 300.62 209.718 300.648 210.163 300.796C210.793 300.953 211.389 301.224 211.921 301.597C212.299 301.852 212.466 302.046 212.449 302.063C211.718 301.623 210.927 301.291 210.102 301.078C209.709 300.967 209.296 300.952 208.897 301.034C208.812 301.055 208.736 301.103 208.68 301.172C208.625 301.24 208.593 301.324 208.59 301.412C208.604 301.514 208.639 301.611 208.692 301.699C208.745 301.786 208.815 301.863 208.897 301.923C209.331 302.237 209.846 302.419 210.38 302.449C210.915 302.479 211.447 302.354 211.912 302.09C212.365 301.813 212.71 301.391 212.892 300.892C213.074 300.394 213.082 299.848 212.914 299.345C212.838 299.144 212.691 298.978 212.501 298.878C212.422 298.841 212.333 298.83 212.248 298.848C212.162 298.865 212.085 298.91 212.027 298.975C211.794 299.302 211.663 299.691 211.649 300.092C211.593 300.944 211.689 301.799 211.93 302.618Z" fill="#263238"/>
<path d="M231.725 261.667L209.75 246.849L217.028 175.286L196.187 163.108L177.139 158.709C177.139 158.709 169.183 175.278 165.641 185.889C158.117 208.45 152.834 216.536 154.038 232.885C154.425 238.068 173.517 251.011 185.577 258.209C185.71 259.648 185.924 261.079 186.219 262.494C190.333 281.139 202.92 305.935 202.92 305.935L222.039 297.039L215.885 275.921L222.311 279.67L231.725 261.667ZM184.443 215.525L187.01 204.086C186.465 211.38 185.973 218.983 185.621 226.286C184.366 222.847 183.962 219.154 184.443 215.525Z" fill="#263238"/>
<path d="M202.894 305.917C202.837 305.821 202.787 305.721 202.744 305.618L202.349 304.738C202.006 303.92 201.47 302.75 200.872 301.219C199.606 298.174 197.787 293.775 195.598 288.311C193.409 282.846 190.834 276.335 188.223 268.997C187.572 267.166 186.931 265.275 186.333 263.321C186.027 262.332 185.771 261.327 185.568 260.312C185.516 260.048 185.454 259.793 185.41 259.538L185.322 258.754C185.261 258.235 185.208 257.707 185.146 257.179C184.927 255.076 184.742 252.921 184.601 250.738C184.531 249.647 184.47 248.547 184.426 247.439C184.382 246.33 184.338 245.204 184.426 244.078C184.751 235.085 185.507 226.567 186.131 218.807C186.755 211.046 187.361 204.077 187.889 198.208C188.416 192.339 188.689 187.588 188.882 184.305C188.979 182.66 189.04 181.384 189.076 180.522C189.076 180.1 189.119 179.774 189.128 179.536C189.119 179.425 189.119 179.313 189.128 179.202C189.138 179.313 189.138 179.425 189.128 179.536C189.128 179.783 189.128 180.108 189.128 180.522C189.128 181.402 189.128 182.669 189.014 184.314C188.873 187.605 188.583 192.357 188.135 198.226L186.5 218.833C185.902 226.594 185.164 235.12 184.839 244.086C184.777 245.204 184.839 246.313 184.839 247.421C184.839 248.53 184.935 249.621 185.006 250.712C185.146 252.894 185.325 255.035 185.542 257.135C185.603 257.663 185.665 258.182 185.718 258.71L185.806 259.485C185.85 259.74 185.911 259.986 185.955 260.241C186.157 261.242 186.41 262.232 186.711 263.207C187.3 265.151 187.933 267.043 188.575 268.873C191.168 276.203 193.726 282.723 195.87 288.231C198.015 293.74 199.799 298.104 201.021 301.184L202.428 304.703L202.788 305.583C202.835 305.69 202.87 305.803 202.894 305.917Z" fill="#455A64"/>
<path d="M188.197 176.791C188.197 176.791 188.003 176.677 187.696 176.386C187.299 175.947 186.983 175.44 186.764 174.89C186.11 173.071 185.792 171.148 185.823 169.215C185.798 167.299 185.889 165.383 186.096 163.478C186.131 162.686 186.243 161.899 186.43 161.129C186.482 161.92 186.467 162.715 186.386 163.504C186.315 164.965 186.192 167.024 186.236 169.206C186.211 171.095 186.478 172.977 187.027 174.785C187.22 175.316 187.484 175.819 187.81 176.281C187.963 176.431 188.093 176.603 188.197 176.791Z" fill="#455A64"/>
<path d="M179.969 159.765C180.157 160.413 180.21 161.093 180.127 161.762C180.022 163.404 179.479 164.987 178.554 166.347C177.625 167.701 176.354 168.785 174.871 169.488C174.279 169.82 173.622 170.018 172.946 170.069C172.946 170.007 173.675 169.813 174.704 169.233C176.102 168.496 177.299 167.427 178.189 166.12C179.08 164.813 179.636 163.308 179.811 161.736C179.987 160.53 179.899 159.765 179.969 159.765Z" fill="#455A64"/>
<path d="M214.145 201.367C214.157 201.44 214.157 201.514 214.145 201.587C214.145 201.754 214.145 201.956 214.092 202.22C214.031 202.81 213.952 203.628 213.846 204.667C213.609 206.813 213.275 209.876 212.87 213.642C211.991 221.244 210.822 231.697 209.521 243.242C209.058 248.68 209.422 254.156 210.603 259.485C211.124 261.805 211.787 264.092 212.589 266.33L214.655 272.217C215.894 275.798 216.896 278.711 217.608 280.752C217.942 281.738 218.206 282.512 218.391 283.084L218.584 283.691C218.614 283.758 218.631 283.829 218.637 283.902C218.598 283.839 218.568 283.771 218.549 283.7L218.312 283.11L217.432 280.805L214.356 272.314C213.705 270.554 213.002 268.557 212.246 266.445C211.417 264.201 210.736 261.906 210.207 259.573C208.998 254.207 208.618 248.687 209.082 243.206C210.374 231.627 211.649 221.209 212.598 213.606C213.064 209.849 213.477 206.796 213.705 204.649C213.837 203.611 213.943 202.801 214.022 202.212C214.022 201.956 214.092 201.745 214.119 201.578C214.12 201.507 214.129 201.436 214.145 201.367Z" fill="#455A64"/>
<path d="M177.121 158.551L180.496 149.927L188.197 161.419L177.93 158.85" fill="#FFBE9D"/>
<path d="M257.691 132.611L248.55 112.109C247.46 108.809 245.411 108.299 243.697 106.381L220.799 93.4638C204.098 86.6181 195.035 109.557 195.035 109.557L179.872 144.182C162.046 150.095 174.669 163.804 174.669 163.804C174.669 163.804 169.816 155.365 174.589 152.365C179.582 149.18 185.138 157.574 190.412 165.563C196.723 174.926 217.116 181.05 217.116 181.05C219.498 178.524 218.83 169.708 220.702 164.983C221.291 163.478 235.426 130.71 235.426 130.71L240.902 143.997C240.902 143.997 247.934 135.752 251.336 134.441C253.399 133.653 255.525 133.041 257.691 132.611Z" fill="#E8505B"/>
<path d="M217.116 147.182C216.906 147.372 216.672 147.535 216.422 147.666C215.758 148.057 215.061 148.387 214.338 148.652C211.94 149.556 209.349 149.826 206.815 149.435C204.282 149.043 201.893 148.003 199.879 146.417C199.271 145.945 198.706 145.421 198.191 144.85C197.988 144.653 197.813 144.428 197.672 144.182C197.734 144.129 198.499 145.062 200.054 146.188C202.066 147.673 204.408 148.649 206.879 149.03C209.35 149.412 211.876 149.188 214.242 148.379C216.079 147.772 217.116 147.112 217.116 147.182Z" fill="#263238"/>
<path d="M179.195 114.67L193.321 115.998L215.921 92.0911L202.63 91.6336L178.958 93.9741C180.209 100.809 180.289 107.808 179.195 114.67Z" fill="#E8505B"/>
<path d="M198.815 102.069C198.78 102.224 198.72 102.373 198.639 102.509C198.499 102.826 198.305 103.231 198.077 103.723L196.02 108.229C194.262 112.012 191.932 117.292 189.41 123.187C186.887 129.082 184.584 134.344 182.843 138.145C181.964 140.046 181.261 141.577 180.751 142.624L180.154 143.83C180.091 143.976 180.011 144.115 179.916 144.243C179.955 144.089 180.008 143.939 180.074 143.794C180.215 143.478 180.391 143.064 180.602 142.563L182.58 138.022C184.25 134.142 186.526 128.862 189.032 123.064C191.537 117.265 193.937 111.942 195.765 108.185C196.644 106.302 197.426 104.788 197.98 103.785L198.613 102.597C198.658 102.413 198.726 102.236 198.815 102.069Z" fill="#263238"/>
<path d="M241.931 109.021C241.931 109.091 241.052 109.548 239.9 110.569C239.202 111.163 238.563 111.823 237.993 112.54C237.31 113.424 236.721 114.377 236.235 115.382C235.758 116.398 235.384 117.46 235.118 118.55C234.906 119.445 234.783 120.359 234.749 121.278C234.687 122.844 234.872 123.821 234.793 123.829C234.701 123.617 234.645 123.391 234.626 123.161C234.564 122.895 234.526 122.624 234.512 122.351C234.474 121.992 234.457 121.63 234.459 121.269C234.454 120.328 234.551 119.39 234.749 118.471C235.229 116.205 236.255 114.09 237.738 112.311C238.336 111.586 239.011 110.928 239.751 110.349C240.032 110.125 240.325 109.917 240.63 109.724C240.852 109.567 241.087 109.429 241.333 109.311C241.517 109.187 241.719 109.089 241.931 109.021Z" fill="#263238"/>
<path d="M245.877 76.1824L232.622 100.978C231.58 102.929 229.838 104.413 227.747 105.13C225.656 105.846 223.371 105.743 221.353 104.841C220.261 104.352 219.281 103.645 218.474 102.761C217.667 101.878 217.049 100.839 216.659 99.7072C216.269 98.5755 216.116 97.3757 216.208 96.1822C216.3 94.9887 216.636 93.8269 217.195 92.7686C218.443 90.4017 219.481 88.4659 219.481 88.4659C219.481 88.4659 213.723 84.7351 216.413 78.4965C218.821 72.9355 227.647 57.2468 229.519 53.9295L240.691 58.9538C242.176 59.7291 243.491 60.7939 244.559 62.0855C245.627 63.377 246.426 64.8694 246.909 66.4746C247.392 68.0799 247.55 69.7657 247.373 71.4328C247.196 73.1 246.687 74.7148 245.877 76.1824Z" fill="#FFBE9D"/>
<path d="M219.516 88.3779C222.351 89.7095 225.517 90.1688 228.613 89.6978C228.613 89.6978 224.711 93.2966 218.777 89.9793L219.516 88.3779Z" fill="#EB996E"/>
<path d="M223.77 68.5536C223.664 68.7815 223.652 69.0419 223.735 69.2789C223.819 69.5159 223.993 69.7104 224.218 69.8207C224.327 69.8804 224.447 69.9178 224.57 69.9306C224.694 69.9434 224.818 69.9315 224.937 69.8954C225.056 69.8593 225.166 69.7999 225.262 69.7206C225.357 69.6413 225.436 69.5437 225.493 69.4335C225.597 69.203 225.607 68.9412 225.522 68.7033C225.436 68.4654 225.262 68.2698 225.036 68.1576C224.929 68.0917 224.809 68.0495 224.684 68.0339C224.56 68.0183 224.433 68.0296 224.313 68.0671C224.193 68.1046 224.082 68.1675 223.989 68.2514C223.895 68.3353 223.821 68.4384 223.77 68.5536Z" fill="#263238"/>
<path d="M223.823 67.7529C223.876 67.9113 224.772 67.7529 225.722 68.1488C226.671 68.5448 227.154 69.3631 227.313 69.2927C227.471 69.2223 227.365 69.0112 227.163 68.6504C226.878 68.1792 226.454 67.8075 225.95 67.5857C225.456 67.3661 224.906 67.3076 224.377 67.4185C223.981 67.5153 223.788 67.6825 223.823 67.7529Z" fill="#263238"/>
<path d="M232.675 72.9355C232.568 73.1647 232.555 73.4264 232.639 73.6648C232.723 73.9033 232.896 74.0994 233.123 74.2114C233.231 74.2706 233.351 74.3074 233.474 74.3195C233.597 74.3316 233.721 74.3188 233.84 74.2818C233.958 74.2449 234.067 74.1846 234.161 74.1045C234.256 74.0243 234.333 73.926 234.389 73.8154C234.495 73.5863 234.508 73.3245 234.424 73.0861C234.34 72.8477 234.167 72.6515 233.94 72.5396C233.832 72.4803 233.712 72.4436 233.589 72.4315C233.466 72.4194 233.342 72.4322 233.224 72.4691C233.106 72.5061 232.996 72.5664 232.902 72.6465C232.807 72.7266 232.73 72.8249 232.675 72.9355Z" fill="#263238"/>
<path d="M233.096 72.1524C233.149 72.3196 234.046 72.1524 234.995 72.5484C235.944 72.9443 236.428 73.7715 236.586 73.7011C236.744 73.6307 236.639 73.4107 236.437 73.0499C236.152 72.5802 235.728 72.211 235.224 71.994C234.732 71.7679 234.18 71.7062 233.65 71.8181C233.255 71.8885 233.061 72.0556 233.096 72.1524Z" fill="#263238"/>
<path d="M226.478 77.643C226.052 77.2568 225.576 76.9311 225.062 76.6751C224.825 76.5343 224.623 76.3848 224.658 76.2C224.693 76.0152 224.895 75.7864 225.141 75.5577C225.634 75.0649 226.144 74.5546 226.689 74.0266C228.055 72.7531 229.319 71.3732 230.468 69.8998C228.999 71.0559 227.626 72.3301 226.363 73.7098L224.843 75.2673C224.558 75.4838 224.361 75.7964 224.289 76.1472C224.286 76.2487 224.306 76.3494 224.347 76.4422C224.388 76.5351 224.449 76.6176 224.526 76.6839C224.647 76.7763 224.776 76.8559 224.913 76.9215C225.402 77.2275 225.928 77.4699 226.478 77.643Z" fill="#263238"/>
<path d="M228.991 79.5612C228.833 79.4821 228.376 80.5115 227.163 80.8459C225.95 81.1803 224.904 80.5819 224.825 80.7227C224.746 80.8635 224.983 81.0307 225.44 81.2507C226.042 81.5337 226.724 81.593 227.365 81.4178C227.977 81.2517 228.5 80.8541 228.824 80.3092C229.062 79.8868 229.062 79.5788 228.991 79.5612Z" fill="#263238"/>
<path d="M234.512 68.2808C234.512 68.5888 235.496 68.888 236.551 69.5215C237.606 70.155 238.379 70.8678 238.625 70.7006C238.872 70.5334 238.696 70.3046 238.441 69.8911C238.096 69.3695 237.632 68.938 237.087 68.6328C236.553 68.3126 235.951 68.1227 235.329 68.0785C234.828 68.0345 234.529 68.1401 234.512 68.2808Z" fill="#263238"/>
<path d="M225.405 65.1571C225.475 65.4475 226.231 65.5179 227.023 65.8611C227.814 66.2042 228.411 66.6618 228.666 66.5034C228.781 66.4242 228.772 66.1602 228.578 65.8259C228.299 65.4022 227.897 65.0738 227.427 64.8844C226.958 64.6841 226.439 64.6349 225.941 64.7436C225.563 64.8404 225.379 65.0251 225.405 65.1571Z" fill="#263238"/>
<path d="M241.728 79.8956C241.851 79.8956 246.545 80.5467 244.515 84.7175C242.484 88.8883 238.713 85.9934 238.766 85.8702C238.819 85.747 241.728 79.8956 241.728 79.8956Z" fill="#FFBE9D"/>
<path d="M240.797 84.9111C240.797 84.9111 240.841 84.9991 240.937 85.1135C241.004 85.1921 241.086 85.2567 241.178 85.3035C241.27 85.3503 241.371 85.3784 241.473 85.3862C241.825 85.3463 242.161 85.2137 242.445 85.002C242.729 84.7902 242.952 84.5068 243.091 84.1808C243.273 83.8256 243.378 83.4357 243.399 83.0369C243.421 82.8879 243.407 82.7356 243.358 82.5931C243.309 82.4506 243.227 82.3221 243.117 82.2186C243.043 82.157 242.95 82.1234 242.854 82.1234C242.757 82.1234 242.664 82.157 242.59 82.2186C242.484 82.3066 242.467 82.4033 242.44 82.3946C242.414 82.3858 242.388 82.2802 242.502 82.1306C242.576 82.0388 242.678 81.9738 242.792 81.9458C242.95 81.915 243.114 81.9466 243.249 82.0338C243.404 82.1513 243.526 82.3072 243.603 82.4861C243.68 82.665 243.71 82.8608 243.689 83.0545C243.694 83.5016 243.588 83.943 243.381 84.3391C243.221 84.7218 242.951 85.0483 242.605 85.277C242.259 85.5057 241.853 85.6264 241.438 85.6238C241.312 85.6007 241.192 85.5501 241.087 85.4756C240.982 85.4011 240.895 85.3045 240.832 85.1927C240.753 85.0167 240.779 84.9111 240.797 84.9111Z" fill="#EB996E"/>
<path d="M244.128 80.8107C243.738 80.6021 243.299 80.5041 242.857 80.5274C242.416 80.5506 241.989 80.6942 241.623 80.9427C241.078 81.4266 240.744 82.0865 240.164 82.5617C239.914 82.8273 239.584 83.0025 239.224 83.0598C238.865 83.1171 238.497 83.0533 238.177 82.8785C237.99 82.7101 237.85 82.4956 237.772 82.2563C237.693 82.017 237.678 81.7613 237.729 81.5146C237.836 81.0221 238.039 80.5555 238.327 80.142C239.461 78.2766 240.753 76.4991 241.728 74.5369C242.782 72.6076 243.24 70.4092 243.047 68.2192C242.936 67.1288 242.535 66.0883 241.883 65.2073C241.232 64.3262 240.356 63.6371 239.346 63.2125C237.984 62.7286 236.472 62.8782 235.083 62.4734C234.258 62.2287 233.5 61.7987 232.866 61.2162C232.233 60.6337 231.74 59.9141 231.426 59.1122C231.347 58.9098 230.881 58.1795 230.881 58.1795C230.881 58.1795 231.418 57.2292 231.91 57.0708C235.575 55.8301 240.55 57.2468 243.592 59.6489C245.133 60.8629 246.393 62.397 247.286 64.1453C248.178 65.8937 248.681 67.8149 248.76 69.7766C248.76 73.6482 246.361 77.9246 244.093 80.8107" fill="#263238"/>
<path d="M244.172 80.3884C245.332 78.4174 247.213 76.9919 248.646 75.2057C250.079 73.4195 251.072 70.9117 250.044 68.8704C249.701 68.1664 249.165 67.5769 248.848 66.8554C248.617 66.1042 248.481 65.3266 248.444 64.5412C248.259 63.336 247.803 62.1884 247.112 61.1843C246.421 60.1801 245.512 59.3454 244.453 58.7426C242.985 57.9243 241.298 57.5899 239.812 56.8068C237.456 55.5662 235.733 53.2872 233.263 52.2929C232.865 52.1003 232.431 51.9938 231.989 51.9801C231.546 51.9665 231.106 52.0461 230.697 52.2137C230.501 52.3089 230.328 52.4442 230.188 52.6108C230.049 52.7775 229.945 52.9718 229.886 53.181C229.826 53.3902 229.811 53.6096 229.842 53.825C229.872 54.0404 229.948 54.2469 230.064 54.4311C230.014 54.2421 229.923 54.0664 229.798 53.9161C229.673 53.7658 229.517 53.6446 229.34 53.5609C229.164 53.4771 228.971 53.4329 228.776 53.4312C228.58 53.4295 228.387 53.4705 228.209 53.5512C227.86 53.7423 227.575 54.0319 227.389 54.3838C227.203 54.7358 227.125 55.1347 227.163 55.531C227.256 56.324 227.559 57.0776 228.042 57.7131C229.562 59.8946 231.814 61.4562 234.389 62.1127L240.076 61.6727L244.735 65.1308L248.18 70.6214L241.931 78.7605L244.172 80.3884Z" fill="#263238"/>
<path d="M208.598 47.9462C208.365 44.3552 207.173 40.8928 205.146 37.9205C203.12 34.9483 200.333 32.5753 197.077 31.0494C193.821 29.5235 190.216 28.9007 186.638 29.2459C183.06 29.5912 179.639 30.8919 176.735 33.0122C173.83 35.1325 171.548 37.9946 170.125 41.2995C168.703 44.6045 168.194 48.2311 168.65 51.8006C169.106 55.3701 170.511 58.7515 172.719 61.5916C174.926 64.4318 177.855 66.6264 181.2 67.9465C181.349 70.3222 181.525 73.0059 181.525 73.0059L199.105 71.8709C199.105 71.8709 199.026 69.02 198.903 66.4858C202.063 64.5842 204.64 61.8484 206.35 58.5782C208.06 55.308 208.838 51.6296 208.598 47.9462Z" fill="#E8505B"/>
<path d="M192.732 72.1964C192.726 72.1144 192.726 72.032 192.732 71.95C192.732 71.774 192.732 71.5277 192.732 71.2197C192.732 70.5774 192.82 69.6359 192.917 68.4216C193.014 67.2073 193.163 65.7203 193.435 64.0221C193.733 62.0809 194.222 60.174 194.895 58.3291C195.285 57.2498 195.77 56.2074 196.345 55.2142C196.663 54.6761 197.106 54.2231 197.637 53.8943C197.927 53.7319 198.252 53.6423 198.584 53.6331C198.917 53.6239 199.246 53.6954 199.545 53.8415C199.862 53.991 200.109 54.2596 200.23 54.5895C200.366 54.9222 200.366 55.295 200.23 55.6277C199.939 56.2712 199.419 56.7826 198.771 57.062C198.088 57.3376 197.356 57.4734 196.619 57.4614C195.882 57.4494 195.155 57.2898 194.481 56.9922C193.807 56.6945 193.199 56.2647 192.693 55.7281C192.188 55.1915 191.794 54.559 191.537 53.8679C191.233 53.1398 191.142 52.3405 191.273 51.5626C191.343 51.1443 191.557 50.7638 191.878 50.4872C192.2 50.2107 192.607 50.0557 193.031 50.0491C193.247 50.0612 193.457 50.1261 193.643 50.2381C193.828 50.35 193.983 50.5057 194.095 50.6915C194.322 51.059 194.407 51.4975 194.332 51.9233C194.142 52.7375 193.695 53.4688 193.057 54.0087C192.451 54.5905 191.729 55.0383 190.939 55.3232C190.148 55.6082 189.307 55.7239 188.469 55.6629C187.629 55.5839 186.822 55.3025 186.114 54.8428C185.407 54.3831 184.822 53.7588 184.408 53.0232C184.197 52.6612 184.062 52.2597 184.012 51.8435C183.962 51.4272 183.998 51.0052 184.118 50.6035C184.182 50.3998 184.289 50.2124 184.433 50.0542C184.576 49.896 184.752 49.7708 184.948 49.6872C185.145 49.6036 185.357 49.5635 185.57 49.5698C185.783 49.5761 185.993 49.6285 186.184 49.7236C186.553 49.9042 186.86 50.1925 187.063 50.5507C187.263 50.9008 187.394 51.2861 187.449 51.6858C187.552 52.46 187.498 53.2469 187.291 53.9999C186.891 55.4662 185.948 56.7248 184.654 57.5195C183.435 58.2941 181.979 58.6062 180.549 58.3995C179.847 58.3251 179.19 58.015 178.686 57.5195C178.433 57.2736 178.271 56.9484 178.228 56.5979C178.185 56.2474 178.262 55.8927 178.448 55.5925C178.665 55.3172 178.98 55.1373 179.327 55.091C179.655 55.0467 179.988 55.0892 180.294 55.2142C180.86 55.498 181.322 55.9539 181.613 56.5164C182.184 57.5723 182.659 58.6018 183.133 59.5873C184.997 63.5205 186.342 66.785 187.256 69.0375C187.713 70.1726 188.047 71.0525 188.276 71.6773C188.39 71.9676 188.469 72.1964 188.531 72.3636C188.592 72.5308 188.61 72.6012 188.61 72.6012L188.504 72.3724C188.443 72.214 188.355 71.9852 188.232 71.6949C187.986 71.0965 187.625 70.2254 187.168 69.0551C186.228 66.8114 184.856 63.5645 182.975 59.6401C182.501 58.6634 182.008 57.6251 181.446 56.5956C181.181 56.069 180.752 55.6428 180.224 55.3814C179.957 55.2537 179.657 55.2155 179.367 55.2726C179.077 55.3297 178.814 55.4789 178.615 55.6981C178.463 55.9598 178.403 56.2649 178.445 56.5647C178.486 56.8645 178.627 57.1418 178.844 57.3524C179.329 57.7971 179.947 58.0692 180.602 58.1267C181.976 58.3292 183.376 58.0394 184.557 57.3084C185.791 56.5276 186.683 55.3076 187.054 53.8943C187.253 53.173 187.304 52.4186 187.203 51.677C187.173 51.3107 187.052 50.9577 186.851 50.6503C186.65 50.3429 186.375 50.0908 186.052 49.9171C185.889 49.8433 185.712 49.8051 185.533 49.8051C185.354 49.8051 185.177 49.8433 185.015 49.9171C184.849 49.9948 184.702 50.1062 184.583 50.2441C184.463 50.382 184.374 50.5433 184.32 50.7179C184.213 51.0885 184.183 51.4772 184.231 51.86C184.28 52.2428 184.406 52.6117 184.601 52.944C184.996 53.6432 185.554 54.2365 186.228 54.6732C186.901 55.1098 187.67 55.3769 188.469 55.4518C189.272 55.5098 190.079 55.3979 190.836 55.1236C191.593 54.8492 192.284 54.4184 192.864 53.8591C193.465 53.3549 193.892 52.6748 194.086 51.9145C194.141 51.547 194.069 51.1717 193.884 50.8498C193.794 50.6948 193.666 50.5652 193.512 50.4729C193.358 50.3806 193.184 50.3286 193.005 50.3219C192.642 50.321 192.293 50.4596 192.029 50.7091C191.764 50.9587 191.583 51.2846 191.51 51.6418C191.397 52.3759 191.485 53.1273 191.765 53.8151C192.022 54.4923 192.412 55.1104 192.914 55.6321C193.416 56.1539 194.018 56.5684 194.684 56.8508C195.965 57.3764 197.402 57.3764 198.683 56.8508C199.284 56.5973 199.769 56.1303 200.046 55.5398C200.164 55.2598 200.171 54.9451 200.065 54.6602C199.958 54.3754 199.747 54.1422 199.474 54.0087C199.205 53.8802 198.909 53.8179 198.611 53.8271C198.313 53.8363 198.021 53.9167 197.76 54.0615C197.254 54.3685 196.834 54.7982 196.538 55.311C195.979 56.2865 195.512 57.3115 195.141 58.3731C194.46 60.2052 193.962 62.1004 193.655 64.0309C193.365 65.7379 193.207 67.2161 193.093 68.4304C192.978 69.6447 192.917 70.5774 192.864 71.2197C192.864 71.5365 192.82 71.774 192.803 71.95L192.732 72.1964Z" fill="#263238"/>
<path d="M197.945 75.2145L182.835 76.1824C182.535 76.2017 182.24 76.1014 182.014 75.9035C181.789 75.7056 181.651 75.4262 181.63 75.1265C181.621 74.9748 181.642 74.8228 181.691 74.6792C181.741 74.5357 181.819 74.4035 181.921 74.2905C182.022 74.1774 182.145 74.0857 182.282 74.0208C182.42 73.9559 182.569 73.9189 182.72 73.9122L197.778 72.9443C197.927 72.9348 198.076 72.9548 198.217 73.0032C198.359 73.0516 198.489 73.1274 198.601 73.2263C198.713 73.3252 198.804 73.4453 198.869 73.5796C198.935 73.7139 198.973 73.8599 198.982 74.009C199.001 74.3059 198.904 74.5986 198.71 74.8241C198.516 75.0496 198.241 75.1898 197.945 75.2145Z" fill="#263238"/>
<path d="M198.006 76.2L182.931 77.1767C182.631 77.1971 182.351 77.3351 182.152 77.5607C181.953 77.7864 181.851 78.0816 181.868 78.3822C181.888 78.6819 182.026 78.9613 182.252 79.1592C182.478 79.3571 182.772 79.4574 183.072 79.4381L184.733 79.3325L187.194 83.3801C187.334 83.6059 187.531 83.7898 187.767 83.9122C188.002 84.0346 188.266 84.0909 188.531 84.0752L193.919 83.7232C194.188 83.7062 194.447 83.615 194.667 83.4597C194.887 83.3044 195.061 83.091 195.167 82.8433L197.031 78.5406L198.156 78.4702C198.456 78.4503 198.737 78.3117 198.936 78.0848C199.134 77.8579 199.235 77.5613 199.215 77.2603C199.195 76.9593 199.057 76.6784 198.83 76.4796C198.603 76.2807 198.307 76.1802 198.006 76.2Z" fill="#263238"/>
<g opacity="0.2">
<path opacity="0.2" d="M174.862 37.2993C175.975 36.1206 177.273 35.131 178.703 34.3692C179.652 33.8508 180.675 33.4799 181.736 33.2693C182.492 33.1462 182.922 33.1902 182.975 33.3485C183.081 33.7005 181.595 34.3428 179.644 35.8387C177.116 37.7432 175.151 40.2973 173.957 43.2299C172.855 46.201 172.582 49.4159 173.165 52.5305C173.605 54.9591 174.264 56.4285 173.948 56.6221C173.807 56.7013 173.447 56.4461 172.981 55.839C172.338 54.9718 171.834 54.0101 171.486 52.9881C170.933 51.4606 170.636 49.8522 170.607 48.2278C170.565 46.2181 170.911 44.2192 171.627 42.3412" fill="white"/>
</g>
<g opacity="0.2">
<path opacity="0.2" d="M187.845 33.9028C186.579 33.9732 185.436 33.6917 185.261 33.0229C185.181 32.6886 185.392 32.319 185.832 32.011C186.394 31.654 187.039 31.4508 187.704 31.4215C188.365 31.37 189.027 31.4976 189.621 31.7911C190.095 32.0374 190.35 32.3806 190.315 32.7238" fill="white"/>
</g>
<path d="M194.903 83.2217C194.547 83.1597 194.194 83.0745 193.849 82.9665C192.146 82.6019 190.372 82.7709 188.768 83.4504C188.153 83.7056 187.801 83.9256 187.775 83.8904C188.032 83.6429 188.329 83.4406 188.654 83.2921C189.455 82.8979 190.322 82.6534 191.212 82.5705C192.097 82.4889 192.99 82.5664 193.849 82.7993C194.224 82.8702 194.583 83.0137 194.903 83.2217Z" fill="#455A64"/>
<path d="M197.066 78.5846C197.066 78.655 194.35 78.8837 190.983 79.1037C187.616 79.3237 184.891 79.4469 184.891 79.3765C184.891 79.3061 187.608 79.0773 190.965 78.8573C194.323 78.6374 197.057 78.523 197.066 78.5846Z" fill="#455A64"/>
<path d="M196.24 80.4411C195.756 80.5682 195.261 80.6507 194.763 80.6875C193.884 80.8019 192.574 80.9427 191.176 81.0483C189.779 81.1539 188.495 81.2243 187.572 81.2507C187.076 81.2989 186.575 81.2989 186.078 81.2507C186.568 81.1582 187.065 81.1053 187.564 81.0923L191.15 80.8107L194.745 80.5203C195.24 80.4543 195.74 80.4278 196.24 80.4411Z" fill="#455A64"/>
<path d="M87.6463 181.411L90.925 186.69C90.925 186.69 104.893 173.826 118.755 177.46C118.755 177.433 106.299 166.866 87.6463 181.411Z" fill="#E8505B"/>
<path d="M118.755 177.433C118.755 177.433 129.004 166.285 144.044 168.828L148.14 169.444L146.795 167.077C146.795 167.077 120.68 158.111 118.755 177.433Z" fill="#E8505B"/>
<path d="M97.1045 139.853C97.1045 139.853 76.5707 136.333 63.0955 143.61L84.4819 183.901C84.4819 183.901 101.992 167.006 118.763 177.407L97.1045 139.853Z" fill="#F5F5F5"/>
<path d="M97.1045 139.853C97.1045 139.853 97.1045 139.897 97.2188 140.011C97.333 140.125 97.3946 140.31 97.5264 140.521L98.7043 142.527L103.161 150.156L118.904 177.345C118.924 177.379 118.932 177.419 118.927 177.458C118.921 177.498 118.903 177.534 118.875 177.561C118.846 177.589 118.809 177.606 118.77 177.61C118.731 177.614 118.691 177.604 118.658 177.583C116.233 176.09 113.549 175.066 110.747 174.565C109.294 174.327 107.823 174.224 106.352 174.257C104.82 174.318 103.297 174.509 101.798 174.829C95.4674 176.387 89.6263 179.505 84.8071 183.901L84.6313 184.059C84.5921 184.096 84.5402 184.117 84.4863 184.117C84.4323 184.117 84.3804 184.096 84.3412 184.059V184.015L62.9461 143.689C62.9351 143.67 62.9279 143.649 62.925 143.627C62.9222 143.605 62.9236 143.583 62.9294 143.562C62.9351 143.54 62.9449 143.521 62.9584 143.503C62.9718 143.486 62.9885 143.471 63.0076 143.46C67.3 141.323 71.9312 139.951 76.6938 139.404C80.3291 138.953 83.9945 138.794 87.6551 138.929C90.6877 139.025 93.0522 139.272 94.6872 139.465C95.4871 139.562 96.1024 139.659 96.5155 139.729L96.9814 139.809L97.1309 139.853H96.9726L96.5068 139.8C96.0936 139.747 95.4783 139.668 94.6784 139.589C93.0698 139.421 90.7053 139.21 87.6463 139.14C83.9983 139.036 80.3478 139.222 76.729 139.694C72.0061 140.26 67.417 141.641 63.1658 143.777L63.2361 143.548L84.6577 183.848L84.3324 183.795L84.517 183.619C87.0192 181.396 89.768 179.468 92.7094 177.873C95.531 176.316 98.5584 175.167 101.702 174.459C103.221 174.137 104.765 173.942 106.317 173.879C107.829 173.849 109.342 173.958 110.835 174.204C113.671 174.723 116.384 175.771 118.834 177.293L118.588 177.539C112.171 166.338 106.791 156.949 103.011 150.332C101.13 147.033 99.6536 144.428 98.6164 142.633C98.1153 141.753 97.7374 141.067 97.4649 140.583L97.1748 140.055C97.1479 139.989 97.1244 139.921 97.1045 139.853Z" fill="#263238"/>
<path d="M129.391 131.573C129.391 131.573 113.858 121.665 97.3682 139.853L119.018 177.433C119.018 177.433 123.413 162.176 149.274 167.482L129.391 131.573Z" fill="#F5F5F5"/>
<path d="M129.391 131.581C129.391 131.581 129.435 131.625 129.496 131.731C129.558 131.837 129.663 132.013 129.777 132.224C130.032 132.672 130.401 133.306 130.867 134.133L134.964 141.419C138.48 147.728 143.464 156.694 149.432 167.394C149.454 167.436 149.46 167.485 149.447 167.531C149.433 167.577 149.403 167.616 149.362 167.64C149.322 167.653 149.279 167.653 149.239 167.64L145.389 167.006C144.731 166.897 144.068 166.824 143.402 166.787L141.372 166.628C140.685 166.566 139.995 166.549 139.306 166.575H137.214C136.511 166.575 135.807 166.725 135.104 166.787C134.388 166.842 133.677 166.951 132.977 167.112L130.85 167.587L128.775 168.318C128.081 168.555 127.439 168.942 126.762 169.25C126.425 169.407 126.101 169.593 125.795 169.805L124.846 170.412C124.222 170.834 123.659 171.344 123.088 171.82C122.534 172.342 122.014 172.901 121.532 173.491C120.536 174.661 119.756 175.999 119.229 177.442C119.211 177.492 119.175 177.533 119.127 177.556C119.079 177.579 119.024 177.582 118.974 177.565C118.928 177.549 118.888 177.518 118.86 177.477L117.981 175.955L97.2363 139.879C97.2155 139.849 97.2044 139.814 97.2044 139.778C97.2044 139.742 97.2155 139.706 97.2363 139.677C100.506 135.975 104.496 132.981 108.962 130.877C112.423 129.29 116.22 128.574 120.02 128.792C122.434 128.943 124.809 129.481 127.052 130.385C127.826 130.701 128.397 130.992 128.81 131.194L129.232 131.449C129.329 131.511 129.373 131.537 129.364 131.546L129.215 131.467L128.784 131.247C128.397 131.053 127.817 130.781 127.026 130.482C124.139 129.378 121.06 128.867 117.972 128.979C114.884 129.091 111.85 129.823 109.05 131.133C104.633 133.25 100.692 136.244 97.4649 139.932V139.729L118.262 175.806C118.561 176.325 118.86 176.844 119.141 177.319L118.763 177.363C119.308 175.866 120.115 174.477 121.145 173.263C121.66 172.668 122.212 172.106 122.798 171.582C123.396 171.098 123.976 170.57 124.609 170.148L125.584 169.523C125.898 169.3 126.23 169.106 126.578 168.942C127.272 168.626 127.931 168.23 128.635 167.992L130.753 167.253L132.907 166.769C133.615 166.605 134.335 166.496 135.06 166.443C135.781 166.373 136.493 166.25 137.205 166.232H139.315C140.009 166.201 140.706 166.219 141.398 166.285L143.446 166.452C144.118 166.488 144.787 166.565 145.45 166.681L149.318 167.323L149.124 167.587C143.226 156.87 138.286 147.886 134.805 141.577L130.797 134.23C130.34 133.35 129.997 132.734 129.751 132.277L129.487 131.775C129.417 131.643 129.391 131.581 129.391 131.581Z" fill="#263238"/>
<path d="M68.8794 124.225L92.0414 168.872C92.0414 168.872 110.87 168.054 118.834 177.231L97.3682 139.853C97.3682 139.853 84.7807 124.225 68.8794 124.225Z" fill="#F5F5F5"/>
<path d="M68.8794 124.225H69.4683L71.2264 124.305C71.4197 124.305 71.6395 124.305 71.8505 124.305L72.5273 124.419L74.0744 124.674C74.6691 124.776 75.2564 124.917 75.8324 125.096C76.4565 125.29 77.1421 125.413 77.819 125.686C83.3567 127.534 90.7844 132.004 97.4561 139.694L118.957 177.064C118.982 177.111 118.988 177.165 118.973 177.216C118.958 177.267 118.924 177.311 118.878 177.337C118.842 177.364 118.799 177.378 118.755 177.378C118.71 177.378 118.667 177.364 118.632 177.337L117.752 176.457C116.027 174.801 114.017 173.471 111.819 172.532C109.689 171.585 107.469 170.857 105.191 170.359C100.864 169.397 96.4375 168.96 92.0062 169.057C91.9702 169.056 91.9349 169.046 91.9039 169.028C91.873 169.009 91.8477 168.983 91.8304 168.951C85.0796 155.849 79.3133 144.648 75.2171 136.711C73.2041 132.778 71.5955 129.672 70.4968 127.49L69.2486 125.052L68.9321 124.428C68.8618 124.287 68.8354 124.217 68.8354 124.217L68.9585 124.445L69.3013 125.079L70.6462 127.587L75.4896 136.808C79.6033 144.727 85.4136 155.805 92.1908 168.81L92.0062 168.714C96.466 168.607 100.922 169.038 105.279 169.998C107.584 170.499 109.832 171.236 111.986 172.198C114.229 173.153 116.278 174.51 118.034 176.202L118.966 177.125L118.632 177.363L97.2276 139.905C94.2494 136.428 90.8441 133.341 87.0925 130.719C84.2244 128.692 81.0962 127.061 77.7926 125.871C77.1157 125.589 76.4389 125.457 75.8236 125.264C75.2479 125.076 74.6607 124.926 74.0656 124.815L72.5273 124.542L71.8593 124.419L71.2527 124.366L68.8794 124.225Z" fill="#263238"/>
<path d="M141.187 250.853L141.679 251.68C142.238 252.606 143.049 253.354 144.017 253.836L144.896 254.267L144.07 254.76C143.14 255.318 142.392 256.134 141.917 257.109L141.486 257.989L140.985 257.162C140.431 256.232 139.618 255.483 138.647 255.006L137.768 254.575L138.594 254.082C139.519 253.519 140.266 252.704 140.747 251.733L141.187 250.853Z" fill="#E8505B"/>
<path d="M95.5223 80.7931L96.0145 81.6202C96.5711 82.5485 97.3828 83.2969 98.3527 83.776L99.2317 84.2071L98.4054 84.6999C97.4758 85.2582 96.7278 86.0742 96.2518 87.0492L95.8211 87.9291L95.3201 87.102C94.7632 86.174 93.9516 85.4257 92.9819 84.9463L92.1029 84.5151L92.9292 84.0224C93.8547 83.459 94.6015 82.6444 95.0828 81.673L95.5223 80.7931Z" fill="#E8505B"/>
<path d="M306.846 110.129L307.347 110.956C307.905 111.885 308.716 112.636 309.685 113.121L310.564 113.543L309.738 114.045C308.808 114.602 308.057 115.414 307.575 116.385L307.153 117.265L306.652 116.438C306.096 115.507 305.284 114.756 304.314 114.274L303.435 113.851L304.261 113.35C305.187 112.79 305.933 111.978 306.415 111.009L306.846 110.129Z" fill="#E8505B"/>
<path d="M281.89 261.535L282.391 262.362C282.951 263.288 283.762 264.036 284.73 264.518L285.609 264.949L284.782 265.442C283.852 266.002 283.102 266.817 282.62 267.791L282.198 268.671L281.697 267.844C281.143 266.914 280.331 266.165 279.359 265.688L278.48 265.257L279.306 264.755C280.236 264.198 280.986 263.386 281.468 262.415L281.89 261.535Z" fill="#E8505B"/>
<path d="M286.646 293.344L286.883 293.44C287.16 293.56 287.467 293.591 287.762 293.528L288.008 293.476L287.92 293.713C287.802 293.99 287.771 294.298 287.833 294.593L287.885 294.848L287.648 294.751C287.369 294.64 287.063 294.612 286.769 294.672H286.514L286.611 294.435C286.722 294.155 286.75 293.849 286.69 293.555L286.646 293.344Z" fill="#E8505B"/>
<path d="M301.018 78.215L301.255 78.3118C301.518 78.4239 301.809 78.4546 302.09 78.3997L302.38 78.3118L302.284 78.5493C302.172 78.8286 302.144 79.1345 302.204 79.4292L302.248 79.6844L302.011 79.5876C301.733 79.4705 301.426 79.4428 301.132 79.5084H300.886L300.983 79.2709C301.094 78.9916 301.122 78.6857 301.062 78.3909L301.018 78.215Z" fill="#E8505B"/>
<path d="M104.805 58.5754L105.042 58.6722C105.321 58.784 105.627 58.8115 105.921 58.7514H106.176L106.079 58.989C105.965 59.2674 105.934 59.5733 105.991 59.8689L106.044 60.1241L105.807 60.0273C105.53 59.9083 105.223 59.8776 104.928 59.9393L104.673 59.9921L104.769 59.7545C104.885 59.4763 104.913 59.1691 104.849 58.8746L104.805 58.5754Z" fill="#E8505B"/>
<path d="M129.021 226.083L129.259 226.18C129.538 226.292 129.843 226.32 130.138 226.259L130.393 226.215L130.296 226.453C130.177 226.73 130.146 227.038 130.208 227.333L130.261 227.588L130.024 227.491C129.746 227.372 129.44 227.342 129.144 227.403L128.89 227.456L128.986 227.219C129.098 226.939 129.125 226.633 129.065 226.339L129.021 226.083Z" fill="#E8505B"/>
<path d="M337.848 325.645L337.62 325.883L336.934 326.56L334.297 329.156L324.417 338.694L324.461 338.588C324.927 348.936 325.569 362.997 326.281 378.633V378.985L325.99 378.791L322.422 376.407L299.822 361.255H299.778V361.202C296.403 351.118 293.555 342.618 291.551 336.617C290.566 333.626 289.793 331.268 289.239 329.631L288.641 327.783L288.501 327.308C288.501 327.194 288.448 327.141 288.457 327.141C288.481 327.192 288.501 327.245 288.518 327.299L288.694 327.766L289.344 329.605C289.898 331.224 290.707 333.582 291.735 336.547C293.766 342.539 296.658 351.03 300.077 361.096L300.016 361.017L322.598 376.108L326.166 378.492L325.885 378.651C325.217 363.015 324.61 348.954 324.171 338.606V338.544L334.183 329.085L336.89 326.534L337.593 325.883C337.674 325.799 337.759 325.719 337.848 325.645Z" fill="#E8505B"/>
<path d="M327.327 373.926L327.256 376.257L329.129 377.648L326.896 378.299L326.158 380.516L324.848 378.58L322.51 378.571L323.942 376.724L323.23 374.497L325.428 375.289L327.327 373.926Z" fill="#E8505B"/>
<path d="M300.095 358.087L300.139 359.592L301.413 360.419L299.989 360.92L299.603 362.39L298.68 361.193L297.168 361.272L298.02 360.023L297.475 358.615L298.926 359.038L300.095 358.087Z" fill="#E8505B"/>
<path d="M288.369 324.343L289.503 325.803L291.357 325.698L290.32 327.229L290.988 328.962L289.213 328.443L287.78 329.622L287.718 327.766L286.154 326.771L287.894 326.138L288.369 324.343Z" fill="#E8505B"/>
<path d="M336.706 322.873L337.848 324.343L339.694 324.228L338.657 325.768L339.334 327.493L337.55 326.982L336.117 328.162L336.055 326.305L334.499 325.302L336.24 324.677L336.706 322.873Z" fill="#E8505B"/>
<path d="M324.022 337.013L324.742 337.946L325.929 337.876L325.261 338.861L325.692 339.961L324.558 339.636L323.644 340.383L323.6 339.204L322.606 338.562L323.714 338.157L324.022 337.013Z" fill="#E8505B"/>
<path d="M97.8517 239.854C106.925 239.854 114.28 232.491 114.28 223.409C114.28 214.326 106.925 206.963 97.8517 206.963C88.7783 206.963 81.4229 214.326 81.4229 223.409C81.4229 232.491 88.7783 239.854 97.8517 239.854Z" fill="#E8505B"/>
<g opacity="0.3">
<path opacity="0.3" d="M95.7244 228.538C95.7244 229.069 95.5672 229.588 95.2726 230.029C94.978 230.471 94.5593 230.815 94.0694 231.018C93.5795 231.221 93.0405 231.274 92.5204 231.171C92.0004 231.067 91.5226 230.811 91.1477 230.436C90.7728 230.061 90.5174 229.583 90.414 229.062C90.3105 228.541 90.3636 228.002 90.5665 227.511C90.7695 227.021 91.1131 226.602 91.554 226.307C91.9949 226.012 92.5132 225.855 93.0434 225.855C93.7538 225.857 94.4344 226.14 94.9366 226.643C95.4389 227.146 95.7221 227.827 95.7244 228.538Z" fill="white"/>
</g>
<g opacity="0.3">
<path opacity="0.3" d="M91.9183 220.795C91.9183 221.103 91.8271 221.404 91.6561 221.66C91.4851 221.917 91.2422 222.116 90.9579 222.234C90.6736 222.352 90.3607 222.383 90.0589 222.323C89.7571 222.263 89.4799 222.114 89.2623 221.896C89.0447 221.679 88.8965 221.401 88.8365 221.099C88.7765 220.797 88.8073 220.484 88.925 220.199C89.0428 219.915 89.2422 219.671 89.4981 219.5C89.7539 219.329 90.0547 219.238 90.3625 219.238C90.7744 219.24 91.1688 219.405 91.4601 219.697C91.7513 219.988 91.916 220.383 91.9183 220.795Z" fill="white"/>
</g>
<path d="M81.9152 227.403C81.9943 227.694 67.851 241.262 71.4989 244.122C75.1468 246.981 90.468 239.59 103.539 229.031C116.61 218.472 128.529 205.643 125.268 202.247C122.007 198.85 105.675 208.908 105.675 208.908L107.626 210.148C107.626 210.148 117.498 203.813 120.618 206.268C123.739 208.723 114.843 218.34 102.282 227.527C89.7208 236.713 77.5816 243.145 75.6918 240.628C73.8019 238.112 82.7239 229.726 82.7239 229.726L81.9152 227.403Z" fill="#E8505B"/>
<g opacity="0.3">
<path opacity="0.3" d="M81.9152 227.403C81.9943 227.694 67.851 241.262 71.4989 244.122C75.1468 246.981 90.468 239.59 103.539 229.031C116.61 218.472 128.529 205.643 125.268 202.247C122.007 198.85 105.675 208.908 105.675 208.908L107.626 210.148C107.626 210.148 117.498 203.813 120.618 206.268C123.739 208.723 114.843 218.34 102.282 227.527C89.7208 236.713 77.5816 243.145 75.6918 240.628C73.8019 238.112 82.7239 229.726 82.7239 229.726L81.9152 227.403Z" fill="black"/>
</g>
<g opacity="0.3">
<path opacity="0.3" d="M88.7802 211.82C88.9121 211.979 87.7958 212.929 86.5388 214.829C84.8668 217.266 83.9441 220.139 83.8848 223.095C83.8254 226.05 84.6319 228.958 86.2047 231.46C87.3914 233.404 88.4638 234.39 88.3232 234.548C88.1825 234.707 86.9167 233.897 85.4576 231.961C84.6272 230.814 83.9697 229.551 83.5062 228.213C82.2966 224.886 82.3718 221.227 83.7171 217.953C84.2393 216.631 84.9595 215.397 85.8531 214.293C87.3738 212.419 88.7275 211.706 88.7802 211.82Z" fill="white"/>
</g>
<path d="M265.321 69.0639C265.386 66.3836 266.243 63.7828 267.785 61.5901C269.326 59.3975 271.482 57.7114 273.981 56.7451C276.479 55.7788 279.207 55.5755 281.821 56.1611C284.435 56.7466 286.816 58.0947 288.665 60.0348C290.513 61.975 291.746 64.4202 292.206 67.0613C292.667 69.7025 292.335 72.421 291.253 74.8734C290.17 77.3258 288.386 79.4018 286.125 80.8392C283.864 82.2766 281.228 83.0107 278.55 82.9489C276.77 82.9078 275.016 82.5159 273.388 81.7957C271.76 81.0754 270.289 80.041 269.06 78.7514C267.832 77.4618 266.869 75.9425 266.227 74.2802C265.586 72.618 265.278 70.8454 265.321 69.0639Z" fill="#E8505B"/>
<g opacity="0.4">
<path opacity="0.4" d="M283.279 64.2332C283.29 63.7949 283.43 63.3695 283.682 63.0108C283.934 62.6522 284.287 62.3764 284.695 62.2183C285.104 62.0603 285.55 62.027 285.978 62.1228C286.405 62.2186 286.795 62.4391 287.097 62.7565C287.399 63.0739 287.601 63.4738 287.676 63.9058C287.751 64.3378 287.697 64.7824 287.52 65.1834C287.343 65.5845 287.051 65.9239 286.681 66.1589C286.311 66.3938 285.88 66.5137 285.442 66.5034C285.151 66.4965 284.864 66.4324 284.598 66.3146C284.332 66.1968 284.091 66.0276 283.891 65.8168C283.69 65.606 283.532 65.3576 283.428 65.0859C283.323 64.8142 283.272 64.5244 283.279 64.2332Z" fill="black"/>
</g>
<g opacity="0.4">
<path opacity="0.4" d="M287.701 69.3543C287.706 69.0982 287.787 68.8495 287.934 68.6396C288.081 68.4297 288.286 68.2682 288.525 68.1754C288.763 68.0827 289.024 68.063 289.274 68.1188C289.524 68.1745 289.751 68.3033 289.928 68.4887C290.104 68.6741 290.222 68.9078 290.266 69.1602C290.309 69.4126 290.277 69.6723 290.173 69.9064C290.07 70.1405 289.899 70.3385 289.682 70.4751C289.466 70.6118 289.214 70.6811 288.958 70.6742C288.617 70.665 288.293 70.521 288.057 70.2737C287.822 70.0264 287.694 69.6959 287.701 69.3543Z" fill="black"/>
</g>
<g opacity="0.4">
<path opacity="0.4" d="M285.978 73.3051C286.105 73.3097 286.224 73.3639 286.312 73.4561C286.399 73.5482 286.446 73.671 286.444 73.7979C286.442 73.8603 286.427 73.9216 286.401 73.9784C286.375 74.0352 286.338 74.0863 286.292 74.1288C286.247 74.1713 286.193 74.2043 286.135 74.2261C286.076 74.2478 286.014 74.2578 285.952 74.2554C285.827 74.2508 285.71 74.1975 285.624 74.107C285.539 74.0165 285.492 73.896 285.494 73.7715C285.496 73.7091 285.509 73.6475 285.534 73.5903C285.559 73.5331 285.595 73.4813 285.64 73.438C285.685 73.3947 285.738 73.3607 285.796 73.3379C285.854 73.3151 285.916 73.3039 285.978 73.3051Z" fill="black"/>
</g>
</svg>
