<svg xmlns="http://www.w3.org/2000/svg" viewBox="0 0 45.47 45">
  <defs>
    <style>
      .cls-1 {
        fill: #367976;
      }

      .cls-2 {
        fill: #fff;
      }
    </style>
  </defs>
  <g id="Group_5" data-name="Group 5" transform="translate(-1549.53 -5435)">
    <rect id="Op_component_6" data-name="Op component 6" class="cls-1" width="45.47" height="45" rx="22.5" transform="translate(1549.53 5435)"/>
    <path id="instagram" class="cls-2" d="M1567.2,5469.121a8.871,8.871,0,0,1-2.895-.548,5.868,5.868,0,0,1-2.111-1.36,5.792,5.792,0,0,1-1.377-2.092,8.631,8.631,0,0,1-.555-2.863c-.058-1.258-.071-1.661-.071-4.866s.014-3.607.071-4.866a8.626,8.626,0,0,1,.555-2.863,5.778,5.778,0,0,1,1.377-2.09,5.86,5.86,0,0,1,2.111-1.362,8.868,8.868,0,0,1,2.895-.549c1.272-.056,1.679-.07,4.918-.07s3.644.014,4.917.07a8.86,8.86,0,0,1,2.895.549,5.854,5.854,0,0,1,2.112,1.362,5.772,5.772,0,0,1,1.375,2.09,8.552,8.552,0,0,1,.555,2.863c.059,1.259.071,1.661.071,4.866s-.012,3.607-.071,4.866a8.557,8.557,0,0,1-.555,2.863,5.786,5.786,0,0,1-1.375,2.092,5.863,5.863,0,0,1-2.112,1.36,8.863,8.863,0,0,1-2.895.548c-1.272.058-1.677.071-4.917.071S1568.475,5469.179,1567.2,5469.121Zm.1-21.334a6.649,6.649,0,0,0-2.214.406,3.715,3.715,0,0,0-1.371.883,3.634,3.634,0,0,0-.892,1.357,6.475,6.475,0,0,0-.412,2.191c-.056,1.245-.069,1.617-.069,4.768s.012,3.525.069,4.769a6.465,6.465,0,0,0,.412,2.19,3.623,3.623,0,0,0,.892,1.357,3.69,3.69,0,0,0,1.371.883,6.637,6.637,0,0,0,2.214.406c1.257.058,1.635.069,4.819.069s3.562-.011,4.819-.069a6.636,6.636,0,0,0,2.214-.406,3.929,3.929,0,0,0,2.263-2.24,6.438,6.438,0,0,0,.41-2.19c.058-1.244.07-1.617.07-4.769s-.012-3.523-.07-4.768a6.447,6.447,0,0,0-.41-2.191,3.669,3.669,0,0,0-.892-1.357,3.714,3.714,0,0,0-1.371-.883,6.649,6.649,0,0,0-2.214-.406c-1.257-.056-1.635-.068-4.819-.068S1568.559,5447.73,1567.3,5447.787Zm-1.305,9.605a6.125,6.125,0,1,1,6.125,6.06A6.091,6.091,0,0,1,1566,5457.392Zm2.15,0a3.975,3.975,0,1,0,3.975-3.934A3.954,3.954,0,0,0,1568.146,5457.392Zm8.924-6.3a1.42,1.42,0,1,1,1.419,1.429A1.425,1.425,0,0,1,1577.07,5451.091Z"/>
  </g>
</svg>
