<svg width="321" height="308" viewBox="0 0 321 308" fill="none" xmlns="http://www.w3.org/2000/svg">
<g clip-path="url(#clip0)">
<path d="M158.44 307.36C245.944 307.36 316.88 265.96 316.88 214.89C316.88 163.82 245.944 122.42 158.44 122.42C70.936 122.42 0 163.82 0 214.89C0 265.96 70.936 307.36 158.44 307.36Z" fill="#F0F0F0"/>
<path d="M93.5 276.51C123.732 276.51 148.24 262.362 148.24 244.91C148.24 227.458 123.732 213.31 93.5 213.31C63.2679 213.31 38.76 227.458 38.76 244.91C38.76 262.362 63.2679 276.51 93.5 276.51Z" fill="#E0E0E0"/>
<path d="M226.11 274.88C256.342 274.88 280.85 260.732 280.85 243.28C280.85 225.828 256.342 211.68 226.11 211.68C195.878 211.68 171.37 225.828 171.37 243.28C171.37 260.732 195.878 274.88 226.11 274.88Z" fill="#E0E0E0"/>
<path d="M35.24 205.47L41.9 201.66C41.9 201.66 45.09 184.05 42.7 168.91C39.34 147.63 24.85 140.29 19.59 142.4C14.33 144.51 13.09 150.82 22.59 163.12C28.2 170.38 35.42 185.72 35.24 205.47Z" fill="#E8505B"/>
<g opacity="0.15">
<path opacity="0.15" d="M35.24 205.47L41.9 201.66C41.9 201.66 45.09 184.05 42.7 168.91C39.34 147.63 24.85 140.29 19.59 142.4C14.33 144.51 13.09 150.82 22.59 163.12C28.2 170.38 35.42 185.72 35.24 205.47Z" fill="black"/>
</g>
<path d="M37.65 197H37.58C37.5184 196.993 37.4589 196.973 37.4051 196.942C37.3513 196.911 37.3043 196.87 37.267 196.82C37.2296 196.771 37.2026 196.714 37.1877 196.654C37.1728 196.594 37.1701 196.531 37.18 196.47C39.93 176.54 31.92 154.71 22.92 145.91C22.8756 145.866 22.8403 145.814 22.8162 145.757C22.7921 145.699 22.7797 145.637 22.7797 145.575C22.7797 145.513 22.7921 145.451 22.8162 145.393C22.8403 145.336 22.8756 145.284 22.92 145.24C22.9637 145.196 23.0159 145.16 23.0734 145.136C23.1309 145.112 23.1926 145.1 23.255 145.1C23.3174 145.1 23.3791 145.112 23.4366 145.136C23.4941 145.16 23.5463 145.196 23.59 145.24C32.76 154.24 40.92 176.39 38.13 196.61C38.1088 196.721 38.049 196.821 37.9612 196.893C37.8734 196.964 37.7631 197.002 37.65 197Z" fill="white"/>
<path d="M16.75 216.15C15.7 216.75 13.53 215.43 12.7 214.87C11.2665 213.893 10.1121 212.559 9.35003 211C8.49398 209.245 8.20396 207.267 8.52003 205.34C8.68677 204.325 8.92401 203.322 9.23003 202.34L10.07 199.42C10.4217 198.461 10.5681 197.439 10.5 196.42C10.24 194.42 8.50003 193.03 6.86003 191.82C5.08003 190.49 3.23003 188.73 3.24003 186.33C3.37226 184.476 4.11414 182.718 5.35003 181.33C6.50003 179.88 7.87003 178.59 8.90003 177.06C9.71756 175.988 10.1444 174.668 10.11 173.32C10.003 172.499 9.7272 171.709 9.30003 171C8.32217 169.513 7.46925 167.948 6.75003 166.32C6.16003 164.64 6.24003 162.55 7.56003 161.32C8.14665 160.886 8.81439 160.574 9.52376 160.402C10.2331 160.23 10.9697 160.202 11.69 160.32C13.0553 160.489 14.3682 160.949 15.54 161.67C19.35 163.79 21.54 168.31 25.54 169.94C27.1467 170.442 28.7832 170.843 30.44 171.14C31.2632 171.297 32.0445 171.624 32.7334 172.101C33.4223 172.579 34.0037 173.195 34.44 173.91C35.93 176.91 33.17 180.53 34.21 183.69C35.14 186.47 37.85 187.54 39.37 190.05C39.9872 191.161 40.2359 192.439 40.08 193.7C39.9487 195.834 39.4267 197.925 38.54 199.87C37.5509 201.804 36.4212 203.662 35.16 205.43C35.17 205.53 16.91 216.05 16.75 216.15Z" fill="#E8505B"/>
<path d="M27.57 210.38C27.5074 210.379 27.4457 210.365 27.3885 210.34C27.3313 210.314 27.2797 210.277 27.2369 210.232C27.194 210.186 27.1607 210.132 27.1389 210.074C27.1171 210.015 27.1073 209.953 27.11 209.89C27.9 191.03 19.01 170.21 12.55 164.16C12.5047 164.117 12.4682 164.066 12.4427 164.009C12.4172 163.953 12.4031 163.891 12.4012 163.829C12.3994 163.767 12.4098 163.705 12.4319 163.647C12.454 163.589 12.4873 163.535 12.53 163.49C12.5727 163.445 12.6238 163.408 12.6806 163.383C12.7374 163.357 12.7986 163.343 12.8608 163.341C12.923 163.339 12.985 163.35 13.0432 163.372C13.1014 163.394 13.1547 163.427 13.2 163.47C19.79 169.64 28.86 190.8 28.06 209.93C28.0574 209.992 28.0427 210.052 28.0167 210.108C27.9906 210.165 27.9538 210.215 27.9083 210.257C27.8628 210.298 27.8095 210.331 27.7514 210.352C27.6934 210.373 27.6317 210.383 27.57 210.38Z" fill="white"/>
<path d="M24.74 188.1C24.6938 188.11 24.6461 188.11 24.6 188.1C20.1305 186.87 15.5399 186.132 10.91 185.9C10.7853 185.89 10.6693 185.832 10.5856 185.739C10.502 185.646 10.457 185.525 10.46 185.4C10.4597 185.337 10.4726 185.275 10.4976 185.218C10.5227 185.161 10.5595 185.109 10.6056 185.067C10.6517 185.024 10.7062 184.992 10.7655 184.972C10.8248 184.952 10.8876 184.944 10.95 184.95C15.6614 185.184 20.3327 185.935 24.88 187.19C25.0003 187.229 25.1003 187.314 25.1583 187.426C25.2164 187.539 25.2278 187.669 25.19 187.79C25.1566 187.882 25.0953 187.962 25.0147 188.017C24.934 188.073 24.8379 188.102 24.74 188.1Z" fill="white"/>
<path d="M290 210.58L280.38 205.49C279.978 196.706 280.118 187.906 280.8 179.14C282.41 162.76 294.58 143.75 307.2 148.38C319.82 153.01 301.41 169.68 297.32 183.57C293.23 197.46 290 210.58 290 210.58Z" fill="#E8505B"/>
<path opacity="0.3" d="M290 210.58L280.38 205.49C279.978 196.706 280.118 187.906 280.8 179.14C282.41 162.76 294.58 143.75 307.2 148.38C319.82 153.01 301.41 169.68 297.32 183.57C293.23 197.46 290 210.58 290 210.58Z" fill="black"/>
<path d="M285.34 208.87C285.396 208.87 285.452 208.859 285.504 208.836C285.556 208.814 285.602 208.781 285.641 208.74C285.679 208.698 285.709 208.649 285.728 208.596C285.746 208.543 285.754 208.486 285.75 208.43C284.52 172.05 302.63 153.75 302.81 153.57C302.85 153.531 302.882 153.485 302.904 153.434C302.926 153.383 302.938 153.328 302.939 153.272C302.94 153.216 302.93 153.161 302.91 153.109C302.889 153.057 302.859 153.01 302.82 152.97C302.781 152.93 302.735 152.898 302.684 152.876C302.633 152.854 302.578 152.842 302.522 152.841C302.466 152.84 302.411 152.85 302.359 152.87C302.307 152.891 302.26 152.921 302.22 152.96C302.03 153.15 283.66 171.71 284.9 208.46C284.905 208.572 284.954 208.678 285.036 208.755C285.119 208.831 285.228 208.873 285.34 208.87Z" fill="white"/>
<path d="M295 213.49L290 210.6C289.225 202.38 290.284 194.091 293.1 186.33C297.73 173.75 309.71 166.9 315.22 168.77C321.94 171.06 321.98 177.5 319.53 181.77C316.63 186.72 298.61 199.35 295 213.49Z" fill="#E8505B"/>
<path opacity="0.1" d="M295 213.49L290 210.6C289.225 202.38 290.284 194.091 293.1 186.33C297.73 173.75 309.71 166.9 315.22 168.77C321.94 171.06 321.98 177.5 319.53 181.77C316.63 186.72 298.61 199.35 295 213.49Z" fill="black"/>
<path d="M292.34 212.39C292.396 212.391 292.452 212.381 292.505 212.36C292.557 212.339 292.604 212.307 292.644 212.267C292.683 212.226 292.714 212.178 292.734 212.125C292.754 212.073 292.763 212.016 292.76 211.96C292.67 188.96 314.27 173.41 314.48 173.25C314.527 173.219 314.567 173.179 314.597 173.132C314.628 173.085 314.649 173.032 314.658 172.977C314.667 172.921 314.665 172.865 314.652 172.81C314.638 172.756 314.614 172.705 314.58 172.66C314.548 172.614 314.507 172.576 314.46 172.546C314.413 172.516 314.361 172.496 314.306 172.487C314.251 172.477 314.195 172.479 314.141 172.492C314.086 172.504 314.035 172.527 313.99 172.56C313.77 172.72 291.81 188.56 291.91 211.96C291.91 212.074 291.955 212.183 292.036 212.264C292.117 212.345 292.226 212.39 292.34 212.39Z" fill="white"/>
<path d="M182 72.2999C182.178 72.0393 182.282 71.736 182.304 71.4213C182.325 71.1066 182.261 70.7919 182.12 70.5099C181.937 70.2457 181.686 70.0351 181.394 69.8997C181.103 69.7644 180.78 69.7092 180.46 69.7399C179.819 69.8 179.194 69.9691 178.61 70.2399C175.03 71.6319 171.322 72.6702 167.54 73.3399C166.712 73.5574 165.835 73.4904 165.05 73.1499C164.922 73.0693 164.815 72.9608 164.735 72.8327C164.655 72.7045 164.606 72.56 164.59 72.4099C164.623 71.4688 164.855 70.5453 165.27 69.6999C165.723 68.4136 165.786 67.0218 165.45 65.6999C165.25 64.9099 164.39 63.3999 163.45 64.6499C162.146 66.5378 160.637 68.2751 158.95 69.8299C155.95 72.7099 156.26 74.8299 153.34 77.6299C152.73 78.2099 149.34 79.4199 145.23 81.8299L149.42 93.6799C152.214 91.6945 155.141 89.9036 158.18 88.3199C159.71 87.5699 162.96 87.3199 164.5 86.9599C166.04 86.5999 167.83 86.1799 169.5 85.8299C171.998 85.2996 174.429 84.4947 176.75 83.4299C177.889 83.0047 178.896 82.2874 179.67 81.3499C180.151 80.6117 180.472 79.7803 180.61 78.9099C180.78 78.1499 181.19 77.5099 181.37 76.7499C181.52 76.2182 181.533 75.6574 181.409 75.1191C181.285 74.5808 181.027 74.0824 180.66 73.6699C181.19 73.3028 181.645 72.8378 182 72.2999Z" fill="#FFA8A7"/>
<path d="M106.33 52.1C110.01 52.1 113.73 52.45 116.67 54.05C119.61 55.65 120.44 56.4 125.39 66.68C130.34 76.96 134.54 85.8 134.54 85.8L149.72 79.1C150.12 82.65 153.52 89.01 155.45 90.33C155.45 90.33 147.25 95.66 141.23 99.4C136.73 102.2 133 104.4 130.6 103.98C128.2 103.56 126.37 102.53 121.73 95.45C117.485 89.0292 113.586 82.3864 110.05 75.55C110.05 75.55 104.9 61.88 106.33 52.1Z" fill="#455A64"/>
<path d="M134.54 85.7999C131.99 87.1699 129.29 88.9999 127.86 92.5099C127.86 92.5099 127.76 87.5999 133.65 83.9199L134.54 85.7999Z" fill="#37474F"/>
<path d="M100.4 29.9999L79.8899 28.4399C75.8899 31.4399 68.5399 37.7599 68.5499 39.5099V40.7299C68.5442 40.7798 68.5442 40.8301 68.5499 40.8799C69.2799 42.2599 71.8899 43.1099 75.9699 43.1799C80.7999 43.2599 88.3099 42.8199 90.2799 41.1799C93.2799 38.6299 100.36 31.1799 100.36 31.1799L99.3599 31.0999C99.9999 30.3699 100.4 29.9999 100.4 29.9999Z" fill="#E8505B"/>
<path opacity="0.2" d="M100.4 29.9999L79.8899 28.4399C75.8899 31.4399 68.5399 37.7599 68.5499 39.5099V40.7299C68.5442 40.7798 68.5442 40.8301 68.5499 40.8799C69.2799 42.2599 71.8899 43.1099 75.9699 43.1799C80.7999 43.2599 88.3099 42.8199 90.2799 41.1799C93.2799 38.6299 100.36 31.1799 100.36 31.1799L99.3599 31.0999C99.9999 30.3699 100.4 29.9999 100.4 29.9999Z" fill="black"/>
<path d="M79.89 29.59C75.74 32.73 67.89 39.5 68.59 40.88C69.29 42.26 71.93 43.11 76.01 43.18C80.84 43.26 88.35 42.82 90.32 41.18C93.32 38.63 100.4 31.18 100.4 31.18L79.89 29.59Z" fill="#E8505B"/>
<path opacity="0.4" d="M79.89 29.59C75.74 32.73 67.89 39.5 68.59 40.88C69.29 42.26 71.93 43.11 76.01 43.18C80.84 43.26 88.35 42.82 90.32 41.18C93.32 38.63 100.4 31.18 100.4 31.18L79.89 29.59Z" fill="black"/>
<path d="M79.8899 29.5899C79.8199 30.1899 81.8899 31.4299 81.8899 31.4299L81.3099 27.8199L79.8899 29.5899Z" fill="#E8505B"/>
<path opacity="0.3" d="M79.8899 29.5899C79.8199 30.1899 81.8899 31.4299 81.8899 31.4299L81.3099 27.8199L79.8899 29.5899Z" fill="black"/>
<path d="M76.52 256.7C76.24 257.81 75.65 260.96 69.79 260.96C63.93 260.96 60.56 258.56 59.41 255.58C58.26 252.6 58.92 250.39 59.03 247.8C59.14 245.21 57.2 243.54 56.78 242.14C56.15 240.07 57.87 237.23 57.87 237.23L76.52 256.7Z" fill="#263238"/>
<path d="M131.48 240.52C131.635 240.983 131.691 241.473 131.645 241.959C131.598 242.445 131.45 242.915 131.21 243.34C129.949 244.415 128.482 245.222 126.898 245.711C125.314 246.199 123.648 246.359 122 246.18C118.437 245.828 115.009 244.631 112 242.69C109.701 241.271 107.016 240.603 104.32 240.78C101.53 240.78 99.46 240.25 99.22 239.52C98.81 238.25 98.78 237.43 99.39 237.45L131.48 240.52Z" fill="#263238"/>
<path d="M59.83 233C59.83 238.34 70.06 239.32 69.83 235L73.4 222.51L61.84 221.28L59.83 233Z" fill="#FFA8A7"/>
<path d="M76.4699 254C75.8034 252.784 75.0655 251.609 74.2599 250.48C71.4152 245.617 70.0625 240.025 70.3699 234.4C70.3699 234.09 70.4299 233.48 70.1499 233.25C69.8699 233.02 69.5199 233.25 69.1499 233.34C68.5479 233.506 67.9241 233.58 67.2999 233.56C65.6915 233.392 64.0973 233.108 62.5299 232.71C62.1299 232.71 61.8399 233.92 61.6899 235.25C61.0199 234.69 60.9099 233.75 60.3299 233.13C60.0199 232.79 59.8699 232.76 59.9399 232.29C59.9899 231.98 60.0399 231.71 60.0899 231.4C59.5899 231.18 58.8699 233.13 58.2299 234.6C57.4899 236.3 56.5899 238.22 57.0499 240.11C57.3539 241.152 57.7697 242.158 58.2899 243.11C59.1763 244.767 59.653 246.611 59.6799 248.49C59.6799 249.31 59.4699 250.12 59.4699 250.94C59.4746 252.318 59.8747 253.666 60.6227 254.824C61.3708 255.981 62.4353 256.9 63.6899 257.47C67.0499 259.05 72.3399 259.6 75.7699 257.58C76.9999 256.9 76.8499 255 76.4699 254Z" fill="#E8505B"/>
<path opacity="0.4" d="M76.4699 254C75.8034 252.784 75.0655 251.609 74.2599 250.48C71.4152 245.617 70.0625 240.025 70.3699 234.4C70.3699 234.09 70.4299 233.48 70.1499 233.25C69.8699 233.02 69.5199 233.25 69.1499 233.34C68.5479 233.506 67.9241 233.58 67.2999 233.56C65.6915 233.392 64.0973 233.108 62.5299 232.71C62.1299 232.71 61.8399 233.92 61.6899 235.25C61.0199 234.69 60.9099 233.75 60.3299 233.13C60.0199 232.79 59.8699 232.76 59.9399 232.29C59.9899 231.98 60.0399 231.71 60.0899 231.4C59.5899 231.18 58.8699 233.13 58.2299 234.6C57.4899 236.3 56.5899 238.22 57.0499 240.11C57.3539 241.152 57.7697 242.158 58.2899 243.11C59.1763 244.767 59.653 246.611 59.6799 248.49C59.6799 249.31 59.4699 250.12 59.4699 250.94C59.4746 252.318 59.8747 253.666 60.6227 254.824C61.3708 255.981 62.4353 256.9 63.6899 257.47C67.0499 259.05 72.3399 259.6 75.7699 257.58C76.9999 256.9 76.8499 255 76.4699 254Z" fill="black"/>
<path d="M101.44 228.61C104.33 230.68 107 230.94 110.44 229.23L112.12 211H99.6L101.44 228.61Z" fill="#FFA8A7"/>
<path d="M73.9999 111.81C71.6899 133.01 68.6199 175.11 68.6199 175.11C66.0973 180.339 64.4681 185.953 63.7999 191.72C62.1199 204.35 60.1599 228.37 60.1599 228.37C60.1599 228.37 66.0699 232.21 71.8099 230.37C71.8099 230.37 84.9499 192.44 87.5799 180.01C89.8999 169.14 93.9999 146.86 93.9999 146.86L98.9999 177.19C97.684 182.011 97.1406 187.009 97.3899 192C97.6299 197.84 99.9299 220.17 99.9299 220.17C101.83 221.97 109.15 222.17 111.59 220.66C111.59 220.66 115.1 183.48 115.59 177.34C116.26 169.27 117.51 111.34 117.51 111.34L73.9999 111.81Z" fill="#263238"/>
<path d="M94 146.86L96.83 133.86C100.738 132.89 104.42 131.168 107.67 128.79C107.67 128.79 106 132.91 99 136.1L96.11 148.31L98.6 175.11L94 146.86Z" fill="black"/>
<path d="M129 236.88C124.651 235.359 120.491 233.346 116.6 230.88C115.907 230.406 115.239 229.895 114.6 229.35C113.38 228.12 112.6 225.46 112.11 225.15C111.94 225.05 111.69 225.15 111.34 225.39C111.202 225.211 111.002 225.09 110.78 225.05L110.71 225.79C109.724 226.431 108.606 226.841 107.44 226.99C104.5 227.36 104.38 226.77 104.29 227.73C104.261 228.083 104.261 228.437 104.29 228.79C102.72 228.59 101.48 228.14 101.39 227.55L101.13 225.67C99.5699 225.59 99.5699 228.37 99.1299 231.5C98.8099 234.04 98.2799 235.89 99.0399 237.72C101.46 239.72 105.58 239.03 107.95 239.33C111.3 239.75 112.95 242.16 117.64 243.59C125.21 245.9 129.81 242.74 131.16 241.39C132.11 239.74 131.61 237.85 129 236.88Z" fill="#E8505B"/>
<path opacity="0.4" d="M129 236.88C124.651 235.359 120.491 233.346 116.6 230.88C115.907 230.406 115.239 229.895 114.6 229.35C113.38 228.12 112.6 225.46 112.11 225.15C111.94 225.05 111.69 225.15 111.34 225.39C111.202 225.211 111.002 225.09 110.78 225.05L110.71 225.79C109.724 226.431 108.606 226.841 107.44 226.99C104.5 227.36 104.38 226.77 104.29 227.73C104.261 228.083 104.261 228.437 104.29 228.79C102.72 228.59 101.48 228.14 101.39 227.55L101.13 225.67C99.5699 225.59 99.5699 228.37 99.1299 231.5C98.8099 234.04 98.2799 235.89 99.0399 237.72C101.46 239.72 105.58 239.03 107.95 239.33C111.3 239.75 112.95 242.16 117.64 243.59C125.21 245.9 129.81 242.74 131.16 241.39C132.11 239.74 131.61 237.85 129 236.88Z" fill="black"/>
<path d="M89.3999 51.69C84.6737 51.9606 79.9643 52.4712 75.2899 53.22C70.7599 53.84 71.1699 57.35 71.1699 65.12C71.1699 76.54 74.8899 96.32 74.8899 96.32L73.2999 115.79C78.6099 121.47 104.07 123.96 117.64 115.63C117.64 115.63 118.01 76.89 117.64 70.36C117 58.86 109.53 52.26 105.29 51.93C100.007 51.4402 94.6948 51.36 89.3999 51.69Z" fill="#37474F"/>
<path d="M85.28 17.61C85.28 17.61 82.07 18.06 80.9 20.47C79.9 22.57 80.25 27.64 81.61 33.17C82.379 36.7439 83.5324 40.2242 85.05 43.55C85.5789 44.507 86.4564 45.2233 87.5 45.55L87.34 39L87.1 34.43C87.1 34.43 90.04 30.43 90.36 27.14C90.77 22.91 89.88 21.14 89.88 21.14L85.28 17.61Z" fill="#263238"/>
<path d="M90.45 24C90.4539 25.609 90.7751 27.2016 91.3951 28.6864C92.0151 30.1712 92.9218 31.5192 94.0633 32.6533C95.2048 33.7873 96.5587 34.6852 98.0475 35.2955C99.5364 35.9058 101.131 36.2166 102.74 36.21C109.5 36.21 114.57 30.64 114.55 23.88C114.587 22.2956 114.307 20.7198 113.726 19.2453C113.146 17.7709 112.275 16.4275 111.167 15.2944C110.06 14.1612 108.736 13.2613 107.275 12.6474C105.814 12.0335 104.245 11.7182 102.66 11.72C99.4128 11.7306 96.3027 13.03 94.0132 15.3326C91.7236 17.6353 90.442 20.7528 90.45 24Z" fill="#263238"/>
<path d="M87.28 33.66C86.17 34.66 85.28 32.14 84.35 31.18C83.42 30.22 80.4 28.9 78.91 32.08C77.42 35.26 80.29 39.71 82.55 40.76C85.86 42.29 87.34 38.96 87.34 38.96L87.69 52.75C91.18 59.03 96.13 60.17 99.41 59.81C102.69 59.45 103.41 56.04 101.02 53.29V48.79C102.845 49.0751 104.696 49.1657 106.54 49.06C109.54 48.58 111.12 46.31 112.03 43.06C113.48 37.82 114.03 29.06 112.03 18.85C108.65 16.24 96.97 16.67 89.89 21.15C90.4 30.17 88.38 32.7 87.28 33.66Z" fill="#FFA8A7"/>
<path d="M110.75 14.39C109.345 12.9057 107.641 11.7366 105.75 10.96C104.242 10.3398 102.63 10.0139 101 10C98.8599 10 96.7399 9.68 94.5999 9.75C90.8999 9.87 86.4199 11.38 84.7499 14.98C83.9799 16.63 83.8499 18.37 85.3699 19.51C86.721 20.4153 88.2658 20.9907 89.8799 21.19C92.6299 21.67 95.3499 22.28 98.1199 22.64C101.076 23.1404 104.098 23.0997 107.04 22.52C108.418 22.2015 109.729 21.6394 110.91 20.86C111.517 20.4606 112.077 19.9944 112.58 19.47C112.78 19.26 113.3 18.85 113.36 18.58C113.42 18.31 113.07 17.76 112.93 17.49C112.351 16.3605 111.617 15.3172 110.75 14.39Z" fill="#263238"/>
<path d="M101 48.79C101 48.79 94.2799 47.46 91.9299 46.22C90.5372 45.505 89.3962 44.3815 88.6599 43C89.0149 44.372 89.6442 45.6579 90.5099 46.78C92.2399 49 101 50.58 101 50.58V48.79Z" fill="#F28F8F"/>
<path d="M99.78 31.43C99.784 31.6099 99.7525 31.7888 99.6873 31.9566C99.6221 32.1243 99.5245 32.2776 99.4 32.4076C99.2756 32.5376 99.1268 32.6418 98.962 32.7143C98.7973 32.7868 98.6199 32.8261 98.44 32.83C98.0748 32.8221 97.7274 32.6708 97.4729 32.4088C97.2184 32.1468 97.0773 31.7952 97.08 31.43C97.08 31.0719 97.2222 30.7285 97.4754 30.4754C97.7286 30.2222 98.072 30.08 98.43 30.08C98.788 30.08 99.1314 30.2222 99.3846 30.4754C99.6378 30.7285 99.78 31.0719 99.78 31.43Z" fill="#263238"/>
<path d="M98.4399 26.74L95.4399 28.09C95.2709 27.6773 95.2658 27.2157 95.4256 26.7994C95.5854 26.3831 95.8982 26.0435 96.2999 25.85C96.4986 25.7653 96.7121 25.7212 96.9281 25.7202C97.144 25.7193 97.3579 25.7615 97.5573 25.8444C97.7567 25.9273 97.9375 26.0493 98.089 26.2031C98.2406 26.3569 98.3599 26.5394 98.4399 26.74Z" fill="#263238"/>
<path d="M99.9099 40.6L104.21 42.2C104.118 42.4883 103.968 42.7551 103.771 42.9843C103.573 43.2136 103.331 43.4005 103.059 43.5341C102.787 43.6676 102.492 43.7449 102.189 43.7614C101.887 43.7778 101.585 43.7332 101.3 43.63C100.721 43.4034 100.252 42.9609 99.993 42.3957C99.7337 41.8305 99.7039 41.1867 99.9099 40.6Z" fill="#C76668"/>
<path d="M101.3 43.63C101.68 43.7739 102.093 43.8052 102.49 43.72C102.469 43.1824 102.241 42.6736 101.853 42.3007C101.465 41.9278 100.948 41.7196 100.41 41.72C100.213 41.7183 100.017 41.7487 99.83 41.81C99.8908 42.2168 100.059 42.5999 100.318 42.9199C100.576 43.2399 100.915 43.485 101.3 43.63Z" fill="#F28F8F"/>
<path d="M111 27.54L107.89 26.39C107.955 26.1847 108.061 25.9949 108.202 25.8321C108.343 25.6694 108.515 25.5371 108.709 25.4434C108.903 25.3498 109.114 25.2968 109.329 25.2876C109.544 25.2784 109.759 25.3132 109.96 25.39C110.372 25.5519 110.708 25.8632 110.901 26.2616C111.093 26.6601 111.129 27.1165 111 27.54Z" fill="#263238"/>
<path d="M110.86 31C110.852 31.2651 110.766 31.5221 110.613 31.7388C110.46 31.9555 110.247 32.1223 109.999 32.2183C109.752 32.3144 109.482 32.3355 109.223 32.279C108.964 32.2225 108.727 32.0908 108.542 31.9005C108.357 31.7102 108.233 31.4697 108.184 31.209C108.135 30.9483 108.164 30.6789 108.267 30.4345C108.37 30.1902 108.543 29.9817 108.764 29.835C108.985 29.6884 109.245 29.6101 109.51 29.61C109.69 29.6126 109.867 29.6506 110.033 29.7219C110.198 29.7932 110.347 29.8963 110.473 30.0253C110.598 30.1544 110.697 30.3069 110.763 30.4742C110.83 30.6414 110.863 30.8201 110.86 31Z" fill="#263238"/>
<path d="M103.65 29.59L104.31 38.52L108.53 37.07L103.65 29.59Z" fill="#F28F8F"/>
<path d="M79 24.6C79.0411 26.3332 79.3341 28.0512 79.87 29.7C80.2137 29.1611 80.6387 28.6787 81.13 28.27C83.8704 25.9808 86.9956 24.1964 90.36 23C98.11 20 107.15 19.54 114.36 22.09C114.229 20.6041 113.892 19.1435 113.36 17.75C110.72 10.88 105.36 7.27999 96.89 8.15999C87 9.18999 78.74 14.73 79 24.6Z" fill="#E8505B"/>
<path d="M97.2799 18.53C99.5999 17.75 105.51 17.29 107.28 17.83C108.081 17.1716 108.781 16.4002 109.36 15.54C110.17 14.26 109.89 12.64 109.13 12.31C108.37 11.98 108.32 12.98 105.38 14.44C105.776 13.491 105.863 12.4415 105.63 11.44C105.15 10.25 104.14 12.39 101.95 13.77C99.7599 15.15 97.5599 15.88 97.2799 18.53Z" fill="#263238"/>
<path d="M75.65 53.6799C72.8593 53.8268 70.1811 54.8273 67.9776 56.5461C65.7741 58.2649 64.1518 60.619 63.33 63.2899C61.55 68.4999 57.14 81.7999 54.46 89.9999C49.79 87.7399 38.46 82.2599 36.2 80.2699C34.0759 78.4033 32.143 76.3297 30.43 74.0799C29.3843 72.7773 28.4605 71.3814 27.67 69.9099C26.7157 68.1075 25.9709 66.2018 25.45 64.2299C24.85 62.4799 22.61 64.3199 22.64 67.4299C22.7078 69.1389 23.0453 70.8264 23.64 72.4299L18.73 71.9999C16.97 71.8599 11.56 71.9999 12.1 74.8199C12.22 75.4599 12.66 76.0499 12.6 76.6999C12.5437 77.009 12.4532 77.3109 12.33 77.5999C12.1582 78.1643 12.1409 78.7644 12.2799 79.3378C12.4188 79.9111 12.7089 80.4368 13.12 80.8599C13.5107 81.214 13.7859 81.6774 13.91 82.1899C13.9681 82.7418 14.1383 83.2761 14.41 83.7599C14.7125 84.0895 15.0475 84.3877 15.41 84.6499C15.8224 85.0699 16.1605 85.5568 16.41 86.0899C16.6565 86.6219 16.9762 87.1167 17.36 87.5599C18.36 88.5599 19.88 88.2999 21.14 88.2899C23.0474 88.2315 24.9566 88.2715 26.86 88.4099C30.18 89.1799 42.18 99.5199 52.55 105.16C56.1 107.09 59 108.05 61.25 106.86C63.15 106.11 64.08 104.03 65.25 101.05C68 94.0499 75.12 75.4999 75.12 75.4999C77.9 67.7399 77.67 57.4299 75.65 53.6799Z" fill="#FFA8A7"/>
<path d="M21.8 73.41C23.47 73.41 24.23 74.25 24.91 76.41C25.32 77.71 26.5 79.97 28.22 80.41C27.5213 80.5645 26.792 80.5017 26.13 80.23C25.24 79.77 25.03 79.76 24.79 80.23C24.6006 80.5791 24.3338 80.8801 24.01 81.11C24.3484 81.306 24.6124 81.6085 24.7607 81.9703C24.9091 82.3321 24.9334 82.7329 24.83 83.11C24.53 84.45 21.51 85.48 18.61 85.03C18.61 85.03 23.05 84.94 23.55 83.35C24.05 81.76 21.39 80.93 19.66 81C19.66 81 23.85 80.63 24.02 79.16C24.19 77.69 22.26 77.26 19.78 77.44C19.78 77.44 23.19 76.95 23.37 75.67C23.6 74.14 22.37 73.7 21.8 73.41Z" fill="#F28F8F"/>
<path d="M77.19 52.9399C73.55 53.4499 70.68 53.6399 67.98 55.5999C65.28 57.5599 63.77 59.0599 60.22 69.8899C56.67 80.7199 54 89.4399 54 89.4399L38.69 81.9999C38.75 85.5799 35.57 92.0899 33.83 93.6599C33.83 93.6599 44.29 101.04 48.71 103.82C53.13 106.6 58.08 109.08 60.4 108.31C62.72 107.54 63.95 105.6 67.62 97.9699C71.0006 91.0505 74.005 83.9535 76.62 76.7099C76.62 76.7099 79.9 62.4399 77.19 52.9399Z" fill="#455A64"/>
<path d="M54 89.44C56.8213 90.9097 59.1996 93.1052 60.89 95.8C60.4941 94.0353 59.7439 92.3693 58.6851 90.9031C57.6262 89.4368 56.2807 88.2008 54.73 87.27L54 89.44Z" fill="#37474F"/>
<path d="M165.14 0.250024L134.14 18.11C133.843 18.3149 133.599 18.586 133.425 18.9019C133.251 19.2178 133.154 19.5698 133.14 19.93V50C133.159 50.3619 133.265 50.714 133.447 51.027C133.63 51.34 133.885 51.605 134.19 51.8L136.65 53.2C136.976 53.3629 137.336 53.4476 137.7 53.4476C138.064 53.4476 138.424 53.3629 138.75 53.2L169.75 35.34C170.047 35.1379 170.292 34.8688 170.466 34.5543C170.64 34.2399 170.737 33.889 170.75 33.53V3.53002C170.732 3.16776 170.628 2.81508 170.445 2.50178C170.262 2.18849 170.007 1.92378 169.7 1.73002L167.24 0.240024C166.913 0.0809605 166.553 -0.00085217 166.189 0.00088148C165.825 0.00261513 165.466 0.0878489 165.14 0.250024Z" fill="#E8505B"/>
<path d="M137.7 52.56V22.56C137.72 22.1956 137.826 21.841 138.008 21.5249C138.191 21.2088 138.445 20.9399 138.75 20.74L169.75 2.87998C170.33 2.54998 170.75 2.81998 170.75 3.48998V33.49C170.737 33.849 170.64 34.1999 170.466 34.5143C170.292 34.8287 170.047 35.0979 169.75 35.3L138.75 53.16C138.17 53.49 137.7 53.22 137.7 52.56Z" fill="#E8505B"/>
<path opacity="0.2" d="M138.75 53.16C138.423 53.3206 138.064 53.4042 137.7 53.4042C137.336 53.4042 136.977 53.3206 136.65 53.16L134.19 51.76C133.883 51.5655 133.627 51.3009 133.443 50.9879C133.258 50.6749 133.151 50.3226 133.13 49.96V19.96C133.149 19.5799 133.266 19.2113 133.47 18.89L138 21.49C137.813 21.7916 137.707 22.1358 137.69 22.49V52.49C137.7 53.17 138.13 53.52 138.75 53.16Z" fill="black"/>
<path opacity="0.5" d="M170.74 3.26006C170.66 2.73006 170.23 2.54006 169.74 2.84006L138.74 20.7001C138.431 20.8967 138.176 21.1684 138 21.4901L133.45 18.8601C133.623 18.5531 133.87 18.2951 134.17 18.1101L165.17 0.250062C165.496 0.0872151 165.855 0.00244141 166.22 0.00244141C166.584 0.00244141 166.944 0.0872151 167.27 0.250062L169.73 1.65006C170.004 1.83047 170.236 2.06757 170.41 2.34533C170.584 2.6231 170.697 2.93504 170.74 3.26006Z" fill="white"/>
<path d="M133.13 30.22L126 37.75C125.904 37.8485 125.831 37.9671 125.786 38.0973C125.741 38.2275 125.726 38.366 125.741 38.5029C125.757 38.6397 125.802 38.7714 125.875 38.8885C125.947 39.0056 126.044 39.1051 126.16 39.18C126.33 39.29 130.7 41.83 130.7 41.83L137.7 32.89L133.13 30.22Z" fill="#E8505B"/>
<path opacity="0.1" d="M133.13 30.22L126 37.75C125.904 37.8485 125.831 37.9671 125.786 38.0973C125.741 38.2275 125.726 38.366 125.741 38.5029C125.757 38.6397 125.802 38.7714 125.875 38.8885C125.947 39.0056 126.044 39.1051 126.16 39.18C126.33 39.29 130.7 41.83 130.7 41.83L137.7 32.89L133.13 30.22Z" fill="black"/>
<path d="M137.7 32.89L130.59 40.42C130.453 40.5571 130.362 40.734 130.332 40.9255C130.301 41.117 130.332 41.3133 130.42 41.4863C130.507 41.6593 130.647 41.8002 130.82 41.8889C130.992 41.9775 131.188 42.0094 131.38 41.98L137.7 41.92C138.52 41.92 138.52 32.89 137.7 32.89Z" fill="#E8505B"/>
<path d="M162.63 18.3701L148.33 26.6201L162.5 14.2601C162.72 14.0439 162.89 13.7826 162.998 13.4942C163.107 13.2059 163.152 12.8974 163.13 12.5901L162.85 10.5901C162.78 10.0301 162.38 9.88007 161.96 10.2501L145.63 24.4801C145.41 24.694 145.24 24.9534 145.131 25.2402C145.022 25.527 144.977 25.8342 145 26.1401L145.29 28.1401C145.3 28.2996 145.363 28.4511 145.47 28.5701C145.317 28.853 145.235 29.1686 145.23 29.4901V42.4901C145.23 43.1001 145.6 43.3801 146.06 43.1201L162.63 33.5601C162.884 33.3769 163.091 33.1368 163.235 32.8589C163.38 32.581 163.457 32.2731 163.46 31.9601V19.0001C163.46 18.3801 163.09 18.1001 162.63 18.3701ZM157.1 17.7301L158.19 14.7301C158.324 14.3851 158.528 14.0718 158.79 13.8101L161 12.0001C161.21 11.8101 161.28 11.9301 161.16 12.2501L160.07 15.2501C159.938 15.5962 159.734 15.91 159.47 16.1701L157.26 18.0001C157.05 18.1701 157 18.0501 157.1 17.7301ZM151.88 22.2801L152.97 19.2801C153.111 18.9394 153.318 18.6301 153.58 18.3701L155.74 16.4801C155.95 16.3001 156.01 16.4101 155.89 16.7401L154.8 19.7401C154.666 20.082 154.461 20.392 154.2 20.6501L152 22.5401C151.83 22.7201 151.76 22.6101 151.88 22.2801ZM146.67 26.8401L147.75 23.8401C147.889 23.4952 148.096 23.1822 148.36 22.9201L150.52 21.0301C150.73 20.8501 150.8 20.9701 150.67 21.2901L149.59 24.2901C149.449 24.6337 149.242 24.9463 148.98 25.2101L146.82 27.0901C146.61 27.2801 146.54 27.1601 146.67 26.8401ZM150.82 27.0401L149.64 29.3001C149.488 29.6218 149.257 29.9003 148.97 30.1101L146.77 31.3801C146.55 31.5001 146.5 31.3801 146.66 31.0201L147.83 28.7601C147.982 28.4413 148.213 28.1661 148.5 27.9601L150.7 26.6801C150.92 26.5601 151 26.7201 150.82 27.0001V27.0401ZM156.15 24.0001L155 26.2301C154.848 26.5464 154.622 26.821 154.34 27.0301L152.1 28.3001C151.88 28.4301 151.83 28.3001 151.99 27.9501L153.17 25.6801C153.316 25.36 153.543 25.0841 153.83 24.8801L156 23.6101C156.25 23.4801 156.3 23.6401 156.15 24.0001ZM161.48 20.9201L160.3 23.1901C160.151 23.5082 159.924 23.7834 159.64 23.9901L157.43 25.2601C157.22 25.3901 157.17 25.2601 157.32 24.9101L158.5 22.6501C158.652 22.331 158.878 22.0532 159.16 21.8401L161.37 20.5701C161.58 20.4001 161.63 20.5601 161.48 20.8801V20.9201Z" fill="#455A64"/>
<path d="M212.9 264.4C212.67 264.4 212.52 263.89 212.55 263.4L222.55 101.6L227.55 102.13L213.35 263.58C213.36 264.07 213.13 264.45 212.9 264.4Z" fill="#37474F"/>
<path d="M259.87 236.57C259.98 237.08 259.87 237.49 259.65 237.5C259.43 237.51 259.15 237.09 259.02 236.58L227.8 104.58L233.57 103.41L259.87 236.57Z" fill="#37474F"/>
<path d="M195.6 226.56L215.68 99.13L220.97 102.75L196.48 226.6C196.35 227.11 196.05 227.51 195.82 227.5C195.59 227.49 195.49 227.08 195.6 226.56Z" fill="#37474F"/>
<path d="M177.58 62.34C177.023 62.0801 176.407 61.9736 175.795 62.0316C175.183 62.0897 174.598 62.31 174.1 62.67C172.654 63.5998 171.447 64.8578 170.578 66.3417C169.709 67.8256 169.203 69.4936 169.1 71.21C169.04 71.8119 169.136 72.4191 169.38 72.9727C169.623 73.5264 170.006 74.0077 170.49 74.37C170.78 74.55 174.26 76.37 174.54 76.49C175.099 76.7498 175.716 76.8561 176.33 76.7981C176.943 76.7401 177.53 76.5199 178.03 76.16C179.477 75.2314 180.685 73.9737 181.554 72.4895C182.423 71.0054 182.929 69.3368 183.03 67.62C183.092 67.0146 182.994 66.4035 182.747 65.8474C182.499 65.2913 182.111 64.8096 181.62 64.45C181.33 64.28 177.86 62.5 177.58 62.34Z" fill="#455A64"/>
<path d="M169.72 73.54L169.8 73.67L169.71 73.54H169.72Z" fill="#455A64"/>
<path d="M173.14 73.3C173.14 76.45 175.34 77.73 178.07 76.16C179.517 75.2313 180.725 73.9736 181.594 72.4895C182.463 71.0053 182.969 69.3368 183.07 67.62C183.07 64.47 180.87 63.19 178.14 64.76C176.692 65.6886 175.485 66.9463 174.616 68.4305C173.747 69.9146 173.241 71.5832 173.14 73.3Z" fill="#263238"/>
<path opacity="0.15" d="M174.46 76.4201H174.41H174.33H174.26L174.12 76.3401L173.78 76.1601C173.39 75.9401 171.4 74.9601 171.06 74.7801L170.79 74.6201L170.57 74.5001C170.463 74.4291 170.359 74.3523 170.26 74.2701C170.214 74.2293 170.171 74.1859 170.13 74.1401C170.052 74.0708 169.982 73.9938 169.92 73.9101L169.84 73.8001L169.76 73.6701C169.358 72.9613 169.164 72.1539 169.2 71.3401C169.219 70.2212 169.446 69.1156 169.87 68.0801L170.05 67.6701C170.05 67.5701 170.13 67.4701 170.18 67.3701L170.33 67.0701L174.33 69.2101C173.644 70.5177 173.265 71.9642 173.22 73.4401C173.188 74.246 173.378 75.0452 173.77 75.7501C173.954 76.0161 174.189 76.2437 174.46 76.4201Z" fill="black"/>
<path d="M199.6 78.88C199.537 80.0431 199.199 81.1749 198.615 82.1828C198.031 83.1908 197.218 84.0465 196.24 84.68C195.788 84.9606 195.271 85.1192 194.74 85.14C194.438 85.1436 194.14 85.064 193.88 84.91L176.59 75.13H176.54L176.28 74.93C176.03 74.6647 175.839 74.3491 175.72 74.0043C175.601 73.6594 175.556 73.2932 175.59 72.93C175.655 71.7672 175.993 70.6361 176.577 69.6283C177.16 68.6206 177.974 67.7647 178.95 67.13C179.241 66.936 179.568 66.8032 179.912 66.7396C180.256 66.676 180.609 66.6829 180.95 66.76C181.047 66.7896 181.141 66.8298 181.23 66.88L181.33 66.94L198.58 76.7C198.931 76.9377 199.211 77.2657 199.39 77.6495C199.57 78.0332 199.642 78.4584 199.6 78.88Z" fill="#37474F"/>
<path opacity="0.15" d="M192.48 80.0501C192.175 80.7933 192.013 81.587 192 82.3901C191.971 82.9735 192.11 83.553 192.4 84.0601L190.17 82.7701L177.92 75.8901H177.86L176.67 75.2001C176.33 74.9581 176.059 74.6316 175.883 74.2528C175.708 73.874 175.634 73.456 175.67 73.0401C175.691 72.2819 175.847 71.5335 176.13 70.8301L192.48 80.0501Z" fill="black"/>
<path d="M252.72 58.79C252.708 58.6478 252.659 58.5114 252.576 58.3952C252.493 58.279 252.381 58.1873 252.25 58.13L211.94 34.86C211.589 34.6777 211.2 34.5825 210.805 34.5825C210.41 34.5825 210.02 34.6777 209.67 34.86L184.26 49.53C184.131 49.5865 184.019 49.6766 183.936 49.7909C183.854 49.9052 183.803 50.0396 183.79 50.18V60C183.805 60.1398 183.856 60.2733 183.939 60.3873C184.021 60.5012 184.132 60.5918 184.26 60.65L224.57 84C224.922 84.1776 225.311 84.2701 225.705 84.2701C226.099 84.2701 226.488 84.1776 226.84 84L252.25 69.33C252.38 69.2718 252.492 69.1799 252.575 69.0639C252.657 68.9479 252.707 68.8119 252.72 68.67V64.09L252.9 63.98C252.784 63.7791 252.722 63.5518 252.72 63.32V58.79Z" fill="#37474F"/>
<path d="M184.26 50.84L224.57 74.11C224.922 74.2876 225.311 74.3801 225.705 74.3801C226.099 74.3801 226.488 74.2876 226.84 74.11L252.25 59.44C252.388 59.3944 252.507 59.3066 252.592 59.189C252.677 59.0714 252.723 58.93 252.723 58.785C252.723 58.64 252.677 58.4986 252.592 58.381C252.507 58.2634 252.388 58.1756 252.25 58.13L211.94 34.86C211.589 34.6777 211.2 34.5825 210.805 34.5825C210.41 34.5825 210.021 34.6777 209.67 34.86L184.26 49.53C183.63 49.89 183.63 50.47 184.26 50.84Z" fill="#455A64"/>
<path d="M224.58 74.1101L184.26 50.8401C184.131 50.781 184.019 50.6889 183.936 50.573C183.854 50.4572 183.803 50.3216 183.79 50.1801V60.0001C183.805 60.1399 183.856 60.2733 183.939 60.3873C184.021 60.5013 184.132 60.5918 184.26 60.6501L224.58 83.9201C224.925 84.1132 225.315 84.2099 225.71 84.2001V74.3801C225.316 74.3882 224.927 74.2953 224.58 74.1101Z" fill="#263238"/>
<path d="M261.24 70.31V97.2C261.223 97.5989 261.111 97.988 260.915 98.3356C260.719 98.6832 260.443 98.9794 260.11 99.2L235.36 113.48C235.009 113.66 234.62 113.754 234.225 113.754C233.83 113.754 233.441 113.66 233.09 113.48L232.4 113.08L230.88 112.2V111.85L229.06 110.85L228.76 111.02L227.25 110.15L226.94 109.98H226.87C226.618 109.834 226.4 109.636 226.23 109.4C226.066 109.19 225.941 108.953 225.86 108.7C225.86 108.7 225.86 108.6 225.81 108.55C225.755 108.379 225.728 108.2 225.73 108.02V79.68L225.91 79.58L252.91 63.98C253.022 64.1818 253.188 64.3482 253.39 64.46L260.12 68.35C260.447 68.5665 260.718 68.8566 260.913 69.197C261.107 69.5373 261.219 69.9185 261.24 70.31Z" fill="#455A64"/>
<path d="M189.6 87.11C189.266 86.8906 188.989 86.5947 188.793 86.2469C188.596 85.899 188.486 85.5093 188.47 85.11V75.39L227.84 98.12V109.19L189.6 87.11Z" fill="#263238"/>
<path d="M260.11 69.6601L235.36 83.9401C235.027 84.16 234.75 84.4561 234.554 84.8038C234.357 85.1516 234.246 85.541 234.23 85.9401V112.82C234.23 113.54 234.73 113.82 235.36 113.48L260.11 99.1901C260.443 98.9701 260.72 98.674 260.916 98.3263C261.113 97.9786 261.224 97.5891 261.24 97.1901V70.3101C261.24 69.5901 260.73 69.2901 260.11 69.6601Z" fill="#37474F"/>
<path d="M188.45 61.86C188.133 62.0735 187.871 62.3585 187.686 62.6921C187.5 63.0257 187.395 63.3984 187.38 63.78V78.37C187.396 78.7703 187.508 79.161 187.706 79.5091C187.904 79.8571 188.184 80.1524 188.52 80.37L222.44 99.96C222.779 100.14 223.157 100.233 223.54 100.233C223.923 100.233 224.301 100.14 224.64 99.96C224.959 99.7302 225.221 99.4305 225.407 99.0839C225.592 98.7373 225.696 98.3529 225.71 97.96V83.4C225.694 82.9997 225.582 82.6091 225.384 82.261C225.186 81.9129 224.906 81.6177 224.57 81.4L190.65 61.9C190.312 61.7215 189.937 61.6249 189.555 61.618C189.173 61.611 188.794 61.6939 188.45 61.86Z" fill="#E8505B"/>
<path opacity="0.2" d="M188.45 61.86C188.133 62.0735 187.871 62.3585 187.686 62.6921C187.5 63.0257 187.395 63.3984 187.38 63.78V78.37C187.396 78.7703 187.508 79.161 187.706 79.5091C187.904 79.8571 188.184 80.1524 188.52 80.37L222.44 99.96C222.779 100.14 223.157 100.233 223.54 100.233C223.923 100.233 224.301 100.14 224.64 99.96C224.959 99.7302 225.221 99.4305 225.407 99.0839C225.592 98.7373 225.696 98.3529 225.71 97.96V83.4C225.694 82.9997 225.582 82.6091 225.384 82.261C225.186 81.9129 224.906 81.6177 224.57 81.4L190.65 61.9C190.312 61.7215 189.937 61.6249 189.555 61.618C189.173 61.611 188.794 61.6939 188.45 61.86Z" fill="black"/>
<path d="M188.52 63.13L222.45 82.72C222.784 82.9394 223.061 83.2353 223.257 83.5832C223.454 83.931 223.564 84.3208 223.58 84.72V99.27C223.58 99.99 223.07 100.27 222.44 99.93L188.52 80.34C188.184 80.1224 187.904 79.8271 187.706 79.4791C187.508 79.131 187.396 78.7404 187.38 78.34V63.78C187.38 63.06 187.89 62.77 188.52 63.13Z" fill="#E8505B"/>
<path opacity="0.4" d="M188.52 63.13L222.45 82.72C222.784 82.9394 223.061 83.2353 223.257 83.5832C223.454 83.931 223.564 84.3208 223.58 84.72V99.27C223.58 99.99 223.07 100.27 222.44 99.93L188.52 80.34C188.184 80.1224 187.904 79.8271 187.706 79.4791C187.508 79.131 187.396 78.7404 187.38 78.34V63.78C187.38 63.06 187.89 62.77 188.52 63.13Z" fill="black"/>
<path opacity="0.15" d="M225.71 83.4001V97.9301C225.696 98.3229 225.592 98.7073 225.406 99.054C225.221 99.4006 224.959 99.7003 224.64 99.9301C224.335 100.094 223.997 100.188 223.651 100.205C223.305 100.222 222.96 100.162 222.64 100.03C223.19 100.25 223.64 99.9501 223.64 99.2901V84.6801C223.626 84.2866 223.509 83.9038 223.3 83.5701L225.45 82.3301C225.62 82.661 225.71 83.0278 225.71 83.4001Z" fill="black"/>
<path d="M200.84 72.7L210.12 78.06C210.318 78.1896 210.482 78.364 210.601 78.569C210.719 78.7739 210.787 79.0038 210.8 79.24V80.12C210.8 80.55 210.5 80.73 210.12 80.51L200.85 75.16C200.652 75.0303 200.487 74.856 200.369 74.651C200.251 74.446 200.183 74.2162 200.17 73.98V73.09C200.16 72.66 200.46 72.48 200.84 72.7Z" fill="#E6E6E6"/>
<path d="M200.16 88.94C200.151 88.74 200.095 88.545 199.996 88.3711C199.897 88.1972 199.758 88.0494 199.59 87.94L197.54 86.75C197.478 86.714 197.407 86.6951 197.335 86.6951C197.263 86.6951 197.192 86.714 197.13 86.75L196.07 87.37C196.013 87.4106 195.968 87.465 195.938 87.528C195.909 87.591 195.895 87.6605 195.9 87.73V88.88C195.912 89.0793 195.969 89.2731 196.068 89.4465C196.167 89.6199 196.305 89.7683 196.47 89.88L198.52 91C198.582 91.036 198.653 91.0549 198.725 91.0549C198.797 91.0549 198.868 91.036 198.93 91L199.99 90.39C200.048 90.3485 200.094 90.2925 200.124 90.2276C200.154 90.1627 200.166 90.0911 200.16 90.02V88.94Z" fill="#E8505B"/>
<path d="M196.47 87.3901L198.52 88.5701C198.689 88.6783 198.829 88.8258 198.928 88.9999C199.027 89.1741 199.083 89.3697 199.09 89.5701V90.7001C199.09 91.0701 198.84 91.2101 198.52 91.0301L196.47 89.8501C196.305 89.7384 196.167 89.59 196.068 89.4166C195.969 89.2432 195.912 89.0493 195.9 88.8501V87.7101C195.9 87.3501 196.16 87.2101 196.47 87.3901Z" fill="#E8505B"/>
<path opacity="0.15" d="M200.15 88.94V90.09C200.157 90.1602 200.147 90.2312 200.119 90.296C200.091 90.3609 200.046 90.4173 199.99 90.46L198.99 91.05C199.035 91.0044 199.071 90.9495 199.093 90.8891C199.115 90.8288 199.125 90.7643 199.12 90.7V89.55C199.112 89.3564 199.057 89.1676 198.96 89L200.02 88.39C200.11 88.5592 200.154 88.7486 200.15 88.94Z" fill="black"/>
<path opacity="0.25" d="M200 88.39L198.94 89C198.844 88.8227 198.703 88.6742 198.53 88.57L196.48 87.39C196.425 87.3532 196.362 87.3287 196.297 87.3184C196.231 87.308 196.164 87.312 196.1 87.33L197.1 86.73C197.159 86.6948 197.226 86.6761 197.295 86.6761C197.364 86.6761 197.431 86.6948 197.49 86.73L199.59 88C199.758 88.0924 199.899 88.2268 200 88.39Z" fill="black"/>
<path d="M206.54 92.6301C206.533 92.4308 206.479 92.2361 206.381 92.0621C206.284 91.8882 206.146 91.74 205.98 91.6301L203.92 90.4401C203.858 90.4068 203.79 90.3894 203.72 90.3894C203.65 90.3894 203.581 90.4068 203.52 90.4401L202.45 91.0601C202.394 91.1028 202.349 91.1592 202.321 91.2241C202.293 91.2889 202.282 91.3599 202.29 91.4301V92.5701C202.297 92.7704 202.353 92.9661 202.452 93.1402C202.551 93.3144 202.691 93.4619 202.86 93.5701L204.86 94.7501C204.921 94.7852 204.99 94.8037 205.06 94.8037C205.13 94.8037 205.199 94.7852 205.26 94.7501L206.33 94.1401C206.386 94.0974 206.43 94.0409 206.459 93.9761C206.487 93.9113 206.497 93.8403 206.49 93.7701L206.54 92.6301Z" fill="#E8505B"/>
<path d="M202.86 91.0801L204.86 92.2601C205.026 92.3707 205.165 92.5187 205.264 92.6924C205.363 92.866 205.42 93.0605 205.43 93.2601V94.4001C205.43 94.7701 205.17 94.9101 204.86 94.7301L202.86 93.5501C202.691 93.4419 202.551 93.2944 202.452 93.1202C202.353 92.9461 202.297 92.7504 202.29 92.5501V91.4101C202.29 91.0001 202.54 90.9001 202.86 91.0801Z" fill="#E8505B"/>
<path opacity="0.15" d="M206.54 92.6301V93.7801C206.548 93.8514 206.537 93.9237 206.507 93.989C206.477 94.0543 206.43 94.11 206.37 94.1501L205.37 94.7401C205.416 94.6948 205.451 94.64 205.474 94.5796C205.496 94.5191 205.505 94.4544 205.5 94.3901V93.2501C205.494 93.053 205.439 92.8606 205.34 92.6901L206.4 92.0801C206.491 92.249 206.54 92.438 206.54 92.6301Z" fill="black"/>
<path opacity="0.25" d="M206.38 92.0801L205.32 92.6901C205.228 92.5122 205.086 92.3659 204.91 92.2701L202.91 91.0801C202.855 91.0432 202.792 91.0188 202.726 91.0084C202.661 90.9981 202.594 91.002 202.53 91.0201L203.53 90.4301C203.59 90.3917 203.659 90.3713 203.73 90.3713C203.801 90.3713 203.87 90.3917 203.93 90.4301L206 91.6501C206.16 91.7602 206.29 91.9079 206.38 92.0801Z" fill="black"/>
<path d="M212.93 96.32C212.923 96.1197 212.867 95.924 212.768 95.7499C212.669 95.5757 212.529 95.4282 212.36 95.32L210.31 94.14C210.249 94.1049 210.18 94.0864 210.11 94.0864C210.04 94.0864 209.971 94.1049 209.91 94.14L208.84 94.75C208.784 94.7927 208.739 94.8492 208.711 94.914C208.683 94.9788 208.672 95.0498 208.68 95.12V96.27C208.687 96.4704 208.743 96.666 208.842 96.8402C208.941 97.0143 209.081 97.1618 209.25 97.27L211.3 98.45C211.361 98.4851 211.43 98.5036 211.5 98.5036C211.57 98.5036 211.639 98.4851 211.7 98.45L212.76 97.84C212.82 97.8 212.867 97.7443 212.897 97.679C212.927 97.6137 212.938 97.5414 212.93 97.47V96.32Z" fill="#E8505B"/>
<path d="M209.25 94.77L211.3 96C211.468 96.1094 211.607 96.2572 211.706 96.4311C211.805 96.605 211.861 96.8 211.87 97V98.15C211.87 98.51 211.61 98.66 211.3 98.47L209.25 97.29C209.081 97.1818 208.941 97.0343 208.842 96.8601C208.743 96.686 208.687 96.4903 208.68 96.29V95.1C208.68 94.74 208.93 94.59 209.25 94.77Z" fill="#E8505B"/>
<path opacity="0.15" d="M212.93 96.32V97.47C212.938 97.5414 212.927 97.6137 212.897 97.679C212.867 97.7443 212.82 97.8 212.76 97.84L211.76 98.43C211.809 98.3887 211.847 98.3362 211.871 98.2771C211.896 98.2179 211.906 98.1538 211.9 98.09V96.94C211.89 96.7423 211.832 96.55 211.73 96.38L212.8 95.77C212.887 95.9403 212.931 96.1289 212.93 96.32Z" fill="black"/>
<path opacity="0.25" d="M212.77 95.7701L211.7 96.3801C211.607 96.2062 211.469 96.061 211.3 95.9601L209.25 94.7701C209.191 94.7402 209.126 94.7246 209.06 94.7246C208.994 94.7246 208.929 94.7402 208.87 94.7701L209.87 94.1701C209.93 94.1339 210 94.1149 210.07 94.1149C210.14 94.1149 210.21 94.1339 210.27 94.1701L212.32 95.3601C212.502 95.4561 212.657 95.5973 212.77 95.7701Z" fill="black"/>
<path d="M232.4 94.69V113.05L230.88 112.17V111.82L229.06 110.82L228.76 110.99L227.25 110.12V91.71C227.25 90.98 227.76 90.71 228.38 91.05L231.27 92.72C231.599 92.9376 231.872 93.229 232.068 93.5711C232.265 93.9131 232.378 94.2963 232.4 94.69Z" fill="#455A64"/>
<path d="M230.88 105.34V111.82L229.06 110.82L228.76 110.99V104.16C228.76 103.92 228.89 103.8 229.08 103.84C229.127 103.85 229.172 103.87 229.21 103.9L230.44 104.6C230.564 104.683 230.668 104.792 230.744 104.92C230.82 105.048 230.866 105.192 230.88 105.34Z" fill="#263238"/>
<path d="M230.88 105.34V111.82L229.06 110.82V103.99C229.055 103.94 229.055 103.89 229.06 103.84C229.107 103.85 229.152 103.87 229.19 103.9L230.42 104.6C230.548 104.681 230.655 104.789 230.735 104.917C230.815 105.046 230.864 105.19 230.88 105.34Z" fill="#37474F"/>
<path d="M229.68 105.13L229.44 105.27C229.406 105.32 229.389 105.38 229.39 105.44C229.398 105.565 229.436 105.687 229.5 105.795C229.564 105.903 229.653 105.994 229.76 106.06C229.812 106.076 229.868 106.076 229.92 106.06L230.15 105.93C230.189 105.904 230.22 105.868 230.239 105.826C230.259 105.783 230.266 105.736 230.26 105.69C230.252 105.565 230.214 105.443 230.15 105.335C230.086 105.227 229.996 105.137 229.89 105.07C229.853 105.063 229.814 105.064 229.778 105.075C229.741 105.085 229.708 105.104 229.68 105.13Z" fill="#E8505B"/>
<path opacity="0.15" d="M229.68 105.13L229.44 105.27C229.406 105.32 229.389 105.38 229.39 105.44C229.398 105.565 229.436 105.687 229.5 105.795C229.564 105.903 229.653 105.994 229.76 106.06C229.812 106.076 229.868 106.076 229.92 106.06L230.15 105.93C230.189 105.904 230.22 105.868 230.239 105.826C230.259 105.783 230.266 105.736 230.26 105.69C230.252 105.565 230.214 105.443 230.15 105.335C230.086 105.227 229.996 105.137 229.89 105.07C229.853 105.063 229.814 105.064 229.778 105.075C229.741 105.085 229.708 105.104 229.68 105.13Z" fill="black"/>
<path d="M230.06 105.92C230.06 106.15 229.9 106.24 229.7 106.13C229.595 106.06 229.508 105.967 229.445 105.858C229.383 105.748 229.347 105.626 229.34 105.5C229.34 105.27 229.5 105.18 229.7 105.29C229.805 105.36 229.892 105.453 229.954 105.562C230.017 105.672 230.053 105.794 230.06 105.92Z" fill="#E8505B"/>
<path d="M229.51 94.4901L229 94.7901C228.94 94.9041 228.909 95.0312 228.91 95.1601C228.926 95.4367 229.007 95.7056 229.146 95.9453C229.285 96.185 229.478 96.3887 229.71 96.5401C229.821 96.6102 229.949 96.6483 230.08 96.6501L230.6 96.3501C230.68 96.2927 230.743 96.2154 230.783 96.1258C230.824 96.0363 230.84 95.9378 230.83 95.8401C230.813 95.5647 230.734 95.2969 230.597 95.0575C230.46 94.8181 230.269 94.6137 230.04 94.4601C229.956 94.4217 229.864 94.4044 229.771 94.4096C229.679 94.4148 229.589 94.4424 229.51 94.4901Z" fill="#E8505B"/>
<path opacity="0.15" d="M229.51 94.4901L229 94.7901C228.94 94.9041 228.909 95.0312 228.91 95.1601C228.926 95.4367 229.007 95.7056 229.146 95.9453C229.285 96.185 229.478 96.3887 229.71 96.5401C229.821 96.6102 229.949 96.6483 230.08 96.6501L230.6 96.3501C230.68 96.2927 230.743 96.2154 230.783 96.1258C230.824 96.0363 230.84 95.9378 230.83 95.8401C230.813 95.5647 230.734 95.2969 230.597 95.0575C230.46 94.8181 230.269 94.6137 230.04 94.4601C229.956 94.4217 229.864 94.4044 229.771 94.4096C229.679 94.4148 229.589 94.4424 229.51 94.4901Z" fill="black"/>
<path d="M230.35 96.2201C230.35 96.7201 230 96.93 229.56 96.67C229.329 96.5209 229.137 96.3189 228.999 96.0806C228.862 95.8423 228.783 95.5748 228.77 95.3001C228.77 94.7901 229.12 94.59 229.56 94.84C229.791 94.9913 229.983 95.1953 230.121 95.4351C230.258 95.675 230.337 95.944 230.35 96.2201Z" fill="#E8505B"/>
<path d="M229.68 107.62L229.44 107.75C229.406 107.8 229.389 107.86 229.39 107.92C229.399 108.046 229.437 108.169 229.501 108.279C229.565 108.388 229.654 108.481 229.76 108.55C229.809 108.579 229.864 108.596 229.92 108.6L230.15 108.46C230.187 108.435 230.217 108.401 230.237 108.36C230.256 108.32 230.264 108.275 230.26 108.23C230.251 108.104 230.213 107.981 230.149 107.872C230.085 107.762 229.996 107.669 229.89 107.6C229.856 107.586 229.819 107.581 229.783 107.585C229.746 107.588 229.711 107.6 229.68 107.62Z" fill="#E8505B"/>
<path opacity="0.15" d="M229.68 107.62L229.44 107.75C229.406 107.8 229.389 107.86 229.39 107.92C229.399 108.046 229.437 108.169 229.501 108.279C229.565 108.388 229.654 108.481 229.76 108.55C229.809 108.579 229.864 108.596 229.92 108.6L230.15 108.46C230.187 108.435 230.217 108.401 230.237 108.36C230.256 108.32 230.264 108.275 230.26 108.23C230.251 108.104 230.213 107.981 230.149 107.872C230.085 107.762 229.996 107.669 229.89 107.6C229.856 107.586 229.819 107.581 229.783 107.585C229.746 107.588 229.711 107.6 229.68 107.62Z" fill="black"/>
<path d="M230.06 108.4C230.06 108.63 229.9 108.73 229.7 108.61C229.595 108.543 229.507 108.452 229.445 108.344C229.382 108.236 229.346 108.115 229.34 107.99C229.34 107.76 229.5 107.66 229.7 107.78C229.805 107.847 229.893 107.938 229.955 108.046C230.018 108.154 230.054 108.275 230.06 108.4Z" fill="#E8505B"/>
<path d="M229.63 98.16L229.31 98.34C229.267 98.4086 229.246 98.489 229.25 98.57C229.26 98.74 229.31 98.9052 229.395 99.0527C229.48 99.2002 229.598 99.3259 229.74 99.42C229.808 99.4648 229.888 99.489 229.97 99.49L230.28 99.31C230.332 99.2756 230.373 99.2275 230.4 99.1711C230.426 99.1146 230.437 99.052 230.43 98.99C230.42 98.8201 230.37 98.6549 230.285 98.5074C230.2 98.3599 230.082 98.2341 229.94 98.14C229.891 98.1177 229.837 98.1078 229.782 98.1113C229.728 98.1148 229.676 98.1315 229.63 98.16Z" fill="#263238"/>
<path d="M230.15 99.22C230.15 99.54 229.93 99.67 229.66 99.51C229.518 99.4159 229.4 99.2901 229.315 99.1426C229.23 98.9951 229.18 98.8299 229.17 98.66C229.17 98.34 229.39 98.22 229.66 98.37C229.802 98.4641 229.92 98.5898 230.005 98.7373C230.09 98.8848 230.14 99.0501 230.15 99.22Z" fill="#37474F"/>
<path d="M229.63 100.84L229.31 101.03C229.267 101.102 229.246 101.186 229.25 101.27C229.26 101.44 229.31 101.605 229.395 101.753C229.48 101.9 229.598 102.026 229.74 102.12C229.811 102.157 229.89 102.178 229.97 102.18L230.28 102C230.33 101.963 230.369 101.915 230.396 101.859C230.422 101.803 230.434 101.742 230.43 101.68C230.422 101.509 230.373 101.343 230.288 101.196C230.203 101.048 230.084 100.922 229.94 100.83C229.891 100.808 229.838 100.797 229.784 100.799C229.73 100.801 229.677 100.815 229.63 100.84Z" fill="#263238"/>
<path d="M230.15 101.91C230.15 102.23 229.93 102.35 229.66 102.2C229.517 102.105 229.398 101.978 229.313 101.828C229.228 101.679 229.179 101.512 229.17 101.34C229.17 101.03 229.39 100.9 229.66 101.06C229.802 101.154 229.92 101.28 230.005 101.427C230.09 101.575 230.14 101.74 230.15 101.91Z" fill="#37474F"/>
<path d="M239 79C238.993 78.8924 238.961 78.7881 238.905 78.6958C238.849 78.6035 238.772 78.5261 238.68 78.47L235.68 76.74C235.582 76.6857 235.472 76.6572 235.36 76.6572C235.248 76.6572 235.138 76.6857 235.04 76.74L230.88 79.12C230.788 79.1782 230.712 79.2577 230.658 79.3518C230.604 79.4459 230.574 79.5516 230.57 79.66C230.582 79.7688 230.617 79.8737 230.674 79.967C230.731 80.0604 230.808 80.14 230.9 80.2L233.9 81.93C233.999 81.9793 234.109 82.005 234.22 82.005C234.331 82.005 234.44 81.9793 234.54 81.93L238.69 79.53C238.78 79.4728 238.855 79.3948 238.909 79.3026C238.963 79.2104 238.994 79.1066 239 79Z" fill="#E8505B"/>
<path opacity="0.2" d="M239 79C238.993 78.8924 238.961 78.7881 238.905 78.6958C238.849 78.6035 238.772 78.5261 238.68 78.47L235.68 76.74C235.582 76.6857 235.472 76.6572 235.36 76.6572C235.248 76.6572 235.138 76.6857 235.04 76.74L230.88 79.12C230.788 79.1782 230.712 79.2577 230.658 79.3518C230.604 79.4459 230.574 79.5516 230.57 79.66C230.582 79.7688 230.617 79.8737 230.674 79.967C230.731 80.0604 230.808 80.14 230.9 80.2L233.9 81.93C233.999 81.9793 234.109 82.005 234.22 82.005C234.331 82.005 234.44 81.9793 234.54 81.93L238.69 79.53C238.78 79.4728 238.855 79.3948 238.909 79.3026C238.963 79.2104 238.994 79.1066 239 79Z" fill="white"/>
<path d="M238.69 78.87L234.53 81.26C234.431 81.3094 234.321 81.335 234.21 81.335C234.099 81.335 233.989 81.3094 233.89 81.26L230.89 79.52C230.71 79.42 230.71 79.26 230.89 79.15L235 76.77C235.098 76.7157 235.208 76.6873 235.32 76.6873C235.432 76.6873 235.542 76.7157 235.64 76.77L238.64 78.5C238.684 78.5024 238.726 78.5201 238.759 78.55C238.791 78.58 238.812 78.6205 238.818 78.6643C238.824 78.7082 238.815 78.7527 238.791 78.7903C238.768 78.8278 238.732 78.856 238.69 78.87Z" fill="#E8505B"/>
<path opacity="0.5" d="M238.69 78.87L234.53 81.26C234.431 81.3094 234.321 81.335 234.21 81.335C234.099 81.335 233.989 81.3094 233.89 81.26L230.89 79.52C230.71 79.42 230.71 79.26 230.89 79.15L235 76.77C235.098 76.7157 235.208 76.6873 235.32 76.6873C235.432 76.6873 235.542 76.7157 235.64 76.77L238.64 78.5C238.684 78.5024 238.726 78.5201 238.759 78.55C238.791 78.58 238.812 78.6205 238.818 78.6643C238.824 78.7082 238.815 78.7527 238.791 78.7903C238.768 78.8278 238.732 78.856 238.69 78.87Z" fill="white"/>
<path opacity="0.15" d="M233.9 82L230.9 80.27C230.808 80.21 230.731 80.1304 230.674 80.037C230.617 79.9437 230.582 79.8388 230.57 79.73C230.574 79.6326 230.599 79.5373 230.644 79.4508C230.689 79.3644 230.752 79.289 230.83 79.23C230.7 79.33 230.72 79.47 230.83 79.56L233.83 81.3C233.928 81.3536 234.039 81.3779 234.15 81.37V82C234.067 82.0164 233.982 82.0164 233.9 82Z" fill="black"/>
<path d="M237.63 77.6601V78.4301C237.626 78.5088 237.603 78.5853 237.563 78.6532C237.523 78.7211 237.467 78.7783 237.4 78.8201L234.31 80.6101C234.238 80.6446 234.16 80.6626 234.08 80.6626C234 80.6626 233.922 80.6446 233.85 80.6101L232.18 79.6101C232.114 79.5722 232.059 79.5186 232.018 79.454C231.978 79.3895 231.955 79.3159 231.95 79.2401C231.956 79.1644 231.979 79.0912 232.02 79.0268C232.06 78.9624 232.115 78.9086 232.18 78.8701L233.85 77.8701C234 77.7825 234.135 77.6711 234.25 77.5401L235.33 76.3001C235.38 76.2455 235.446 76.2098 235.519 76.1989C235.592 76.1879 235.667 76.2025 235.73 76.2401L237.4 77.2401C237.471 77.2845 237.529 77.3465 237.57 77.4201C237.61 77.4936 237.631 77.5762 237.63 77.6601Z" fill="#E8505B"/>
<path opacity="0.3" d="M237.63 77.6601V78.4301C237.626 78.5088 237.603 78.5853 237.563 78.6532C237.523 78.7211 237.467 78.7783 237.4 78.8201L234.31 80.6101C234.238 80.6446 234.16 80.6626 234.08 80.6626C234 80.6626 233.922 80.6446 233.85 80.6101L232.18 79.6101C232.114 79.5722 232.059 79.5186 232.018 79.454C231.978 79.3895 231.955 79.3159 231.95 79.2401C231.956 79.1644 231.979 79.0912 232.02 79.0268C232.06 78.9624 232.115 78.9086 232.18 78.8701L233.85 77.8701C234 77.7825 234.135 77.6711 234.25 77.5401L235.33 76.3001C235.38 76.2455 235.446 76.2098 235.519 76.1989C235.592 76.1879 235.667 76.2025 235.73 76.2401L237.4 77.2401C237.471 77.2845 237.529 77.3465 237.57 77.4201C237.61 77.4936 237.631 77.5762 237.63 77.6601Z" fill="black"/>
<path d="M234.31 80.1301L235.98 79.1301C236.128 79.0399 236.263 78.9288 236.38 78.8001L237.46 77.5601C237.482 77.5361 237.498 77.5075 237.507 77.4762C237.516 77.445 237.518 77.4121 237.512 77.3801C237.506 77.3481 237.493 77.3179 237.474 77.2919C237.454 77.2658 237.429 77.2447 237.4 77.2301L235.73 76.2301C235.667 76.1925 235.592 76.1779 235.519 76.1888C235.446 76.1998 235.379 76.2355 235.33 76.2901L234.25 77.5301C234.135 77.6611 234 77.7725 233.85 77.8601L232.18 78.8601C232.05 78.9301 232.05 79.0501 232.18 79.1201L233.85 80.1201C233.921 80.1562 233.999 80.1758 234.079 80.1776C234.158 80.1793 234.237 80.1631 234.31 80.1301Z" fill="#E8505B"/>
<path opacity="0.15" d="M237.4 77.2601L235.73 76.2601C235.667 76.2225 235.592 76.2079 235.519 76.2189C235.446 76.2298 235.38 76.2656 235.33 76.3201L234.25 77.5601L234.06 77.7501L236.18 79.0001C236.254 78.9445 236.321 78.8807 236.38 78.8101L237.46 77.5701C237.478 77.5465 237.491 77.5192 237.498 77.4901C237.505 77.4611 237.506 77.4308 237.5 77.4015C237.494 77.3721 237.483 77.3444 237.465 77.32C237.448 77.2956 237.426 77.2752 237.4 77.2601Z" fill="black"/>
<path opacity="0.15" d="M234.06 80.1801V80.6601C233.992 80.681 233.918 80.681 233.85 80.6601L232.18 79.6601C232.115 79.6187 232.06 79.5629 232.02 79.497C231.981 79.4311 231.956 79.3569 231.95 79.2801C231.953 79.214 231.972 79.1497 232.005 79.0923C232.038 79.035 232.085 78.9862 232.14 78.9501C232.05 79.0101 232.07 79.1101 232.14 79.1701L233.81 80.1701C233.891 80.1964 233.977 80.1999 234.06 80.1801Z" fill="black"/>
<path opacity="0.05" d="M236.18 79L234.06 77.77C233.993 77.8213 233.923 77.868 233.85 77.91L232.18 78.91C232.05 78.98 232.05 79.1 232.18 79.17L233.85 80.17C233.922 80.2046 234 80.2225 234.08 80.2225C234.16 80.2225 234.238 80.2046 234.31 80.17L235.98 79.17C236.05 79.1181 236.117 79.0613 236.18 79Z" fill="black"/>
<path d="M222.87 67.66V67.12H223C223.166 66.8352 223.408 66.603 223.7 66.45C224.32 66.1378 225.005 65.9752 225.7 65.9752C226.395 65.9752 227.08 66.1378 227.7 66.45C227.992 66.603 228.234 66.8352 228.4 67.12H228.53V67.66C228.506 67.9094 228.417 68.148 228.271 68.3518C228.125 68.5555 227.928 68.717 227.7 68.82C227.08 69.1322 226.395 69.2947 225.7 69.2947C225.005 69.2947 224.32 69.1322 223.7 68.82C223.472 68.717 223.275 68.5555 223.129 68.3518C222.983 68.148 222.894 67.9094 222.87 67.66Z" fill="#263238"/>
<path d="M227.72 68.28C227.965 68.2002 228.178 68.0451 228.329 67.8367C228.481 67.6284 228.562 67.3775 228.562 67.12C228.562 66.8625 228.481 66.6116 228.329 66.4033C228.178 66.1949 227.965 66.0397 227.72 65.96C227.099 65.6478 226.415 65.4852 225.72 65.4852C225.025 65.4852 224.34 65.6478 223.72 65.96C223.475 66.0397 223.262 66.1949 223.111 66.4033C222.959 66.6116 222.878 66.8625 222.878 67.12C222.878 67.3775 222.959 67.6284 223.111 67.8367C223.262 68.0451 223.475 68.2002 223.72 68.28C224.34 68.5922 225.025 68.7548 225.72 68.7548C226.415 68.7548 227.099 68.5922 227.72 68.28Z" fill="#37474F"/>
<path d="M223.51 66.91V66H223.61C223.738 65.7795 223.925 65.5993 224.15 65.48C224.633 65.2333 225.168 65.1047 225.71 65.1047C226.252 65.1047 226.787 65.2333 227.27 65.48C227.495 65.5993 227.682 65.7795 227.81 66H227.91V66.94C227.89 67.1325 227.821 67.3166 227.709 67.4744C227.596 67.6321 227.445 67.7581 227.27 67.84C226.786 68.0821 226.252 68.2081 225.71 68.2081C225.169 68.2081 224.634 68.0821 224.15 67.84C223.969 67.7573 223.814 67.6271 223.702 67.4634C223.589 67.2996 223.523 67.1084 223.51 66.91Z" fill="#E8505B"/>
<path opacity="0.15" d="M223.51 66.91V66H223.61C223.738 65.7795 223.925 65.5993 224.15 65.48C224.633 65.2333 225.168 65.1047 225.71 65.1047C226.252 65.1047 226.787 65.2333 227.27 65.48C227.495 65.5993 227.682 65.7795 227.81 66H227.91V66.94C227.89 67.1325 227.821 67.3166 227.709 67.4744C227.596 67.6321 227.445 67.7581 227.27 67.84C226.786 68.0821 226.252 68.2081 225.71 68.2081C225.169 68.2081 224.634 68.0821 224.15 67.84C223.969 67.7573 223.814 67.6271 223.702 67.4634C223.589 67.2996 223.523 67.1084 223.51 66.91Z" fill="black"/>
<path d="M227.27 66.8701C227.439 66.7882 227.582 66.6604 227.681 66.5012C227.781 66.342 227.834 66.1579 227.834 65.9701C227.834 65.7822 227.781 65.5982 227.681 65.439C227.582 65.2798 227.439 65.152 227.27 65.0701C226.786 64.828 226.251 64.702 225.71 64.702C225.168 64.702 224.634 64.828 224.15 65.0701C223.981 65.152 223.838 65.2798 223.738 65.439C223.639 65.5982 223.586 65.7822 223.586 65.9701C223.586 66.1579 223.639 66.342 223.738 66.5012C223.838 66.6604 223.981 66.7882 224.15 66.8701C224.633 67.1168 225.168 67.2454 225.71 67.2454C226.252 67.2454 226.787 67.1168 227.27 66.8701Z" fill="#E8505B"/>
<path d="M234 64.45L231.67 65.79C231.537 65.8524 231.392 65.8848 231.245 65.8848C231.098 65.8848 230.953 65.8524 230.82 65.79L228.5 64.45C228.27 64.31 228.27 64.09 228.5 63.96L230.82 62.62C230.951 62.5508 231.097 62.5146 231.245 62.5146C231.393 62.5146 231.539 62.5508 231.67 62.62L234 64C234.21 64.09 234.21 64.31 234 64.45Z" fill="#263238"/>
<path d="M234 64.45L231.67 65.79C231.537 65.8524 231.392 65.8848 231.245 65.8848C231.098 65.8848 230.953 65.8524 230.82 65.79L228.5 64.45L230.82 63.11C230.951 63.0408 231.097 63.0046 231.245 63.0046C231.393 63.0046 231.539 63.0408 231.67 63.11L234 64.45Z" fill="#37474F"/>
<path d="M230.22 64.42V64C230.28 63.8985 230.366 63.8155 230.47 63.76C230.693 63.6467 230.94 63.5876 231.19 63.5876C231.44 63.5876 231.687 63.6467 231.91 63.76C232.014 63.8155 232.1 63.8985 232.16 64V64.43C232.152 64.5179 232.121 64.6021 232.07 64.6741C232.019 64.7461 231.95 64.8033 231.87 64.84C231.647 64.9533 231.4 65.0124 231.15 65.0124C230.9 65.0124 230.653 64.9533 230.43 64.84C230.363 64.7925 230.309 64.7294 230.273 64.6562C230.236 64.583 230.218 64.5019 230.22 64.42Z" fill="#E8505B"/>
<path opacity="0.15" d="M230.22 64.42V64C230.28 63.8985 230.366 63.8155 230.47 63.76C230.693 63.6467 230.94 63.5876 231.19 63.5876C231.44 63.5876 231.687 63.6467 231.91 63.76C232.014 63.8155 232.1 63.8985 232.16 64V64.43C232.152 64.5179 232.121 64.6021 232.07 64.6741C232.019 64.7461 231.95 64.8033 231.87 64.84C231.647 64.9533 231.4 65.0124 231.15 65.0124C230.9 65.0124 230.653 64.9533 230.43 64.84C230.363 64.7925 230.309 64.7294 230.273 64.6562C230.236 64.583 230.218 64.5019 230.22 64.42Z" fill="black"/>
<path d="M232 64.4C232.086 64.3698 232.16 64.3136 232.213 64.2393C232.265 64.1649 232.294 64.0761 232.294 63.985C232.294 63.894 232.265 63.8051 232.213 63.7308C232.16 63.6565 232.086 63.6003 232 63.57C231.775 63.4612 231.529 63.4047 231.28 63.4047C231.03 63.4047 230.784 63.4612 230.56 63.57C230.474 63.6003 230.4 63.6565 230.347 63.7308C230.294 63.8051 230.266 63.894 230.266 63.985C230.266 64.0761 230.294 64.1649 230.347 64.2393C230.4 64.3136 230.474 64.3698 230.56 64.4C230.783 64.5134 231.03 64.5724 231.28 64.5724C231.53 64.5724 231.777 64.5134 232 64.4Z" fill="#E8505B"/>
<path d="M238.56 61.8101L236.23 63.1501C236.097 63.2125 235.952 63.2449 235.805 63.2449C235.658 63.2449 235.513 63.2125 235.38 63.1501L233.06 61.8101C232.83 61.6701 232.83 61.4501 233.06 61.3201L235.38 60.0001C235.513 59.9376 235.658 59.9053 235.805 59.9053C235.952 59.9053 236.097 59.9376 236.23 60.0001L238.56 61.3501C238.79 61.4501 238.79 61.6701 238.56 61.8101Z" fill="#263238"/>
<path d="M238.56 61.81L236.23 63.15C236.097 63.2125 235.952 63.2449 235.805 63.2449C235.658 63.2449 235.513 63.2125 235.38 63.15L233.06 61.81L235.38 60.46C235.513 60.3976 235.658 60.3652 235.805 60.3652C235.952 60.3652 236.097 60.3976 236.23 60.46L238.56 61.81Z" fill="#37474F"/>
<path d="M234.79 61.78V61.34H234.84C234.902 61.2408 234.988 61.1585 235.09 61.1C235.313 60.9913 235.557 60.9348 235.805 60.9348C236.053 60.9348 236.297 60.9913 236.52 61.1C236.626 61.1557 236.716 61.2385 236.78 61.34V61.78C236.77 61.8686 236.737 61.9531 236.685 62.025C236.632 62.097 236.561 62.1538 236.48 62.19C236.259 62.3032 236.014 62.3623 235.765 62.3623C235.516 62.3623 235.271 62.3032 235.05 62.19C234.976 62.1487 234.913 62.0895 234.868 62.0179C234.823 61.9463 234.796 61.8646 234.79 61.78Z" fill="#E8505B"/>
<path opacity="0.15" d="M234.79 61.78V61.34H234.84C234.902 61.2408 234.988 61.1585 235.09 61.1C235.313 60.9913 235.557 60.9348 235.805 60.9348C236.053 60.9348 236.297 60.9913 236.52 61.1C236.626 61.1557 236.716 61.2385 236.78 61.34V61.78C236.77 61.8686 236.737 61.9531 236.685 62.025C236.632 62.097 236.561 62.1538 236.48 62.19C236.259 62.3032 236.014 62.3623 235.765 62.3623C235.516 62.3623 235.271 62.3032 235.05 62.19C234.976 62.1487 234.913 62.0895 234.868 62.0179C234.823 61.9463 234.796 61.8646 234.79 61.78Z" fill="black"/>
<path d="M236.52 61.7601C236.606 61.7298 236.68 61.6736 236.733 61.5993C236.785 61.525 236.814 61.4361 236.814 61.3451C236.814 61.254 236.785 61.1652 236.733 61.0908C236.68 61.0165 236.606 60.9603 236.52 60.9301C236.299 60.8169 236.054 60.7578 235.805 60.7578C235.556 60.7578 235.311 60.8169 235.09 60.9301C235.004 60.9603 234.93 61.0165 234.877 61.0908C234.824 61.1652 234.796 61.254 234.796 61.3451C234.796 61.4361 234.824 61.525 234.877 61.5993C234.93 61.6736 235.004 61.7298 235.09 61.7601C235.311 61.8733 235.556 61.9323 235.805 61.9323C236.054 61.9323 236.299 61.8733 236.52 61.7601Z" fill="#E8505B"/>
<path d="M258.11 82.6L257.84 82.45C256.25 81.61 254.09 81.77 251.71 83.14C246.8 85.96 242.82 92.84 242.81 98.5C242.792 99.4441 242.92 100.385 243.19 101.29C243.468 102.268 244.02 103.146 244.78 103.82C244.952 103.968 245.136 104.101 245.33 104.22L245.48 104.3L251.48 107.75C251.234 107.599 251.003 107.425 250.79 107.23C250.141 106.537 249.643 105.717 249.326 104.822C249.009 103.928 248.881 102.977 248.95 102.03C248.95 96.37 252.95 89.49 257.86 86.67C258.646 86.1387 259.533 85.7757 260.465 85.6036C261.398 85.4315 262.356 85.4541 263.28 85.67C263.528 85.7492 263.769 85.8496 264 85.97L258.11 82.6Z" fill="#E8505B"/>
<path opacity="0.25" d="M258.11 82.6L257.84 82.45C256.25 81.61 254.09 81.77 251.71 83.14C246.8 85.96 242.82 92.84 242.81 98.5C242.792 99.4441 242.92 100.385 243.19 101.29C243.468 102.268 244.02 103.146 244.78 103.82C244.952 103.968 245.136 104.101 245.33 104.22L245.48 104.3L251.48 107.75C251.234 107.599 251.003 107.425 250.79 107.23C250.141 106.537 249.643 105.717 249.326 104.822C249.009 103.928 248.881 102.977 248.95 102.03C248.95 96.37 252.95 89.49 257.86 86.67C258.646 86.1387 259.533 85.7757 260.465 85.6036C261.398 85.4315 262.356 85.4541 263.28 85.67C263.528 85.7492 263.769 85.8496 264 85.97L258.11 82.6Z" fill="black"/>
<path d="M244.78 103.82C244.952 103.968 245.136 104.101 245.33 104.22L242.18 102.39C240.6 101.45 239.63 99.4701 239.63 96.6601C239.63 91.0001 243.63 84.1201 248.54 81.3001C249.745 80.5556 251.124 80.1417 252.54 80.1001C253.35 80.0905 254.147 80.2976 254.85 80.7L257.92 82.4801C256.33 81.6401 254.17 81.8 251.79 83.17C246.88 85.99 242.9 92.8701 242.89 98.5301C242.872 99.4741 243 100.415 243.27 101.32C243.527 102.279 244.05 103.146 244.78 103.82Z" fill="#455A64"/>
<path d="M276.45 97.4701C276.45 103.14 272.45 110.01 267.54 112.83C266.335 113.575 264.956 113.993 263.54 114.04C262.734 114.052 261.94 113.848 261.24 113.45L251.63 107.87L251.5 107.8C251.254 107.65 251.022 107.475 250.81 107.28C250.161 106.587 249.663 105.767 249.346 104.873C249.029 103.978 248.901 103.027 248.97 102.08C248.97 96.4201 252.97 89.5401 257.88 86.7201C258.666 86.1888 259.553 85.8257 260.485 85.6536C261.418 85.4815 262.376 85.5042 263.3 85.7201C263.548 85.7993 263.789 85.8996 264.02 86.0201L264.27 86.1701L273.79 91.6801C275.46 92.6401 276.45 94.6401 276.45 97.4701Z" fill="#37474F"/>
<path d="M248.44 105.29C248.397 105.299 248.353 105.299 248.31 105.29L245 103.32C244.939 103.286 244.894 103.228 244.875 103.161C244.857 103.093 244.865 103.021 244.9 102.96C244.934 102.899 244.992 102.854 245.059 102.835C245.127 102.817 245.199 102.826 245.26 102.86L248.63 104.79C248.691 104.827 248.735 104.886 248.753 104.955C248.772 105.024 248.763 105.097 248.73 105.16C248.7 105.209 248.657 105.247 248.605 105.27C248.553 105.293 248.496 105.3 248.44 105.29Z" fill="#37474F"/>
<path d="M247.78 102.91C247.734 102.923 247.686 102.923 247.64 102.91L244.28 100.98C244.249 100.962 244.222 100.939 244.2 100.91C244.179 100.882 244.163 100.85 244.153 100.816C244.144 100.781 244.142 100.746 244.146 100.71C244.151 100.675 244.162 100.641 244.18 100.61C244.198 100.579 244.221 100.552 244.249 100.53C244.278 100.509 244.31 100.493 244.344 100.483C244.379 100.474 244.414 100.472 244.45 100.476C244.485 100.481 244.519 100.492 244.55 100.51L247.91 102.45C247.941 102.467 247.968 102.489 247.989 102.517C248.011 102.544 248.027 102.575 248.036 102.609C248.046 102.642 248.048 102.678 248.044 102.712C248.039 102.747 248.028 102.78 248.01 102.81C247.983 102.844 247.947 102.871 247.907 102.888C247.867 102.906 247.824 102.913 247.78 102.91Z" fill="#37474F"/>
<path d="M247.54 100.64C247.494 100.655 247.445 100.655 247.4 100.64L244 98.67C243.969 98.6533 243.942 98.6307 243.921 98.6034C243.899 98.5761 243.883 98.5448 243.874 98.5112C243.864 98.4776 243.862 98.4425 243.866 98.4079C243.871 98.3733 243.882 98.34 243.9 98.31C243.918 98.279 243.941 98.2518 243.969 98.23C243.997 98.2082 244.03 98.1922 244.064 98.1829C244.098 98.1736 244.134 98.1712 244.17 98.1759C244.205 98.1805 244.239 98.1921 244.27 98.21L247.63 100.14C247.661 100.158 247.688 100.181 247.71 100.209C247.732 100.238 247.748 100.27 247.757 100.304C247.766 100.339 247.769 100.374 247.764 100.41C247.759 100.445 247.748 100.479 247.73 100.51C247.709 100.544 247.682 100.573 247.649 100.595C247.616 100.618 247.579 100.633 247.54 100.64Z" fill="#37474F"/>
<path d="M247.67 98.58C247.624 98.5903 247.576 98.5903 247.53 98.58L244.17 96.64C244.134 96.6257 244.101 96.6038 244.074 96.5756C244.047 96.5475 244.026 96.5138 244.013 96.4769C244.001 96.44 243.996 96.4008 244 96.362C244.004 96.3232 244.016 96.2856 244.036 96.252C244.056 96.2183 244.082 96.1894 244.114 96.1671C244.146 96.1448 244.183 96.1297 244.221 96.1228C244.26 96.116 244.299 96.1176 244.337 96.1274C244.375 96.1373 244.41 96.1552 244.44 96.18L247.8 98.11C247.849 98.1402 247.888 98.1855 247.909 98.2392C247.931 98.2929 247.935 98.3521 247.92 98.4081C247.906 98.4642 247.873 98.514 247.828 98.5504C247.783 98.5867 247.728 98.6076 247.67 98.61V98.58Z" fill="#37474F"/>
<path d="M248.24 96.61C248.194 96.6246 248.145 96.6246 248.1 96.61L244.74 94.68C244.709 94.6624 244.682 94.6388 244.66 94.6106C244.638 94.5824 244.622 94.5502 244.613 94.5158C244.604 94.4814 244.601 94.4455 244.606 94.4102C244.61 94.3749 244.622 94.3408 244.64 94.31C244.677 94.2492 244.737 94.2055 244.806 94.1887C244.876 94.1718 244.949 94.1831 245.01 94.22L248.37 96.15C248.419 96.1803 248.458 96.2256 248.479 96.2792C248.501 96.3329 248.505 96.3922 248.49 96.4482C248.476 96.5042 248.443 96.5541 248.398 96.5904C248.353 96.6267 248.298 96.6476 248.24 96.65V96.61Z" fill="#37474F"/>
<path d="M249 94.66C248.958 94.6731 248.912 94.6731 248.87 94.66L245.51 92.73C245.479 92.7124 245.452 92.6888 245.43 92.6606C245.408 92.6324 245.392 92.6002 245.383 92.5658C245.374 92.5314 245.371 92.4955 245.376 92.4602C245.38 92.4249 245.392 92.3908 245.41 92.36C245.426 92.3291 245.449 92.302 245.477 92.2805C245.504 92.259 245.536 92.2435 245.57 92.235C245.604 92.2265 245.639 92.2253 245.674 92.2313C245.708 92.2373 245.741 92.2505 245.77 92.27L249.14 94.2C249.171 94.2166 249.197 94.2393 249.219 94.2666C249.241 94.2938 249.257 94.3252 249.266 94.3588C249.276 94.3924 249.278 94.4275 249.273 94.4621C249.269 94.4966 249.258 94.5299 249.24 94.56C249.212 94.5955 249.175 94.6233 249.133 94.6408C249.091 94.6583 249.045 94.6649 249 94.66Z" fill="#37474F"/>
<path d="M250 92.77C249.958 92.7845 249.912 92.7845 249.87 92.77L246.5 90.84C246.464 90.8258 246.431 90.8038 246.404 90.7757C246.377 90.7475 246.356 90.7139 246.343 90.677C246.331 90.6401 246.326 90.6009 246.33 90.5621C246.334 90.5232 246.346 90.4857 246.366 90.452C246.386 90.4184 246.412 90.3894 246.444 90.3671C246.476 90.3448 246.513 90.3298 246.551 90.3229C246.59 90.3161 246.629 90.3176 246.667 90.3275C246.705 90.3374 246.74 90.3553 246.77 90.38L250.13 92.31C250.161 92.3277 250.188 92.3513 250.21 92.3794C250.232 92.4076 250.248 92.4398 250.257 92.4742C250.266 92.5086 250.269 92.5445 250.264 92.5798C250.259 92.6152 250.248 92.6492 250.23 92.68C250.201 92.7116 250.165 92.7362 250.125 92.7518C250.086 92.7674 250.043 92.7736 250 92.77Z" fill="#37474F"/>
<path d="M251.17 91C251.124 91.0094 251.076 91.0094 251.03 91L247.67 89C247.639 88.9834 247.612 88.9607 247.591 88.9334C247.569 88.9061 247.553 88.8748 247.544 88.8412C247.534 88.8076 247.532 88.7725 247.536 88.7379C247.541 88.7034 247.552 88.6701 247.57 88.64C247.607 88.5794 247.666 88.5354 247.735 88.5168C247.804 88.4982 247.877 88.5065 247.94 88.54L251.3 90.47C251.361 90.5074 251.405 90.5665 251.423 90.6352C251.442 90.704 251.433 90.7772 251.4 90.84C251.381 90.8859 251.349 90.9253 251.308 90.9536C251.268 90.982 251.22 90.9981 251.17 91Z" fill="#37474F"/>
<path d="M252.48 89.3401C252.434 89.3534 252.386 89.3534 252.34 89.3401L249 87.3701C248.964 87.3558 248.931 87.3339 248.904 87.3057C248.877 87.2776 248.856 87.2439 248.843 87.207C248.831 87.1701 248.826 87.1309 248.83 87.0921C248.834 87.0533 248.846 87.0157 248.866 86.9821C248.886 86.9484 248.912 86.9195 248.944 86.8972C248.976 86.8749 249.013 86.8598 249.051 86.8529C249.09 86.8461 249.129 86.8477 249.167 86.8575C249.205 86.8674 249.24 86.8853 249.27 86.9101L252.63 88.8401C252.661 88.8577 252.688 88.8813 252.71 88.9095C252.732 88.9377 252.748 88.9699 252.757 89.0043C252.766 89.0387 252.769 89.0745 252.764 89.1099C252.759 89.1452 252.748 89.1793 252.73 89.2101C252.703 89.2519 252.666 89.286 252.622 89.3088C252.579 89.3317 252.529 89.3424 252.48 89.3401Z" fill="#37474F"/>
<path d="M253.91 87.88C253.868 87.8931 253.822 87.8931 253.78 87.88L250.42 85.95C250.389 85.9323 250.362 85.9088 250.34 85.8806C250.318 85.8524 250.302 85.8202 250.293 85.7858C250.284 85.7514 250.281 85.7155 250.286 85.6802C250.291 85.6449 250.302 85.6108 250.32 85.58C250.337 85.5494 250.359 85.5224 250.387 85.5007C250.414 85.479 250.445 85.463 250.479 85.4537C250.512 85.4444 250.547 85.4419 250.582 85.4464C250.617 85.4509 250.65 85.4623 250.68 85.48L254.05 87.42C254.081 87.4364 254.108 87.4592 254.129 87.4867C254.151 87.5143 254.166 87.5461 254.175 87.58C254.183 87.6139 254.185 87.6492 254.179 87.6837C254.173 87.7181 254.159 87.7509 254.14 87.78C254.115 87.8162 254.08 87.8448 254.039 87.8624C253.998 87.8801 253.954 87.8861 253.91 87.88Z" fill="#37474F"/>
<path d="M255.45 86.6401C255.408 86.6532 255.362 86.6532 255.32 86.6401L252 84.6701C251.939 84.6328 251.895 84.573 251.879 84.5036C251.862 84.4343 251.873 84.3611 251.91 84.3001C251.927 84.2695 251.949 84.2425 251.977 84.2208C252.004 84.1991 252.035 84.1831 252.069 84.1738C252.102 84.1645 252.137 84.162 252.172 84.1665C252.207 84.171 252.24 84.1824 252.27 84.2001L255.64 86.1401C255.67 86.1576 255.696 86.1808 255.716 86.2085C255.737 86.2362 255.752 86.2677 255.76 86.3012C255.769 86.3347 255.77 86.3696 255.765 86.4037C255.76 86.4379 255.748 86.4706 255.73 86.5001C255.704 86.5496 255.663 86.5897 255.612 86.6148C255.562 86.6399 255.505 86.6487 255.45 86.6401Z" fill="#37474F"/>
<path d="M257.29 85.55C257.244 85.5604 257.196 85.5604 257.15 85.55L253.79 83.61C253.759 83.5934 253.732 83.5707 253.711 83.5435C253.689 83.5162 253.673 83.4848 253.664 83.4512C253.654 83.4176 253.652 83.3825 253.656 83.348C253.661 83.3134 253.672 83.2801 253.69 83.25C253.708 83.2191 253.731 83.1919 253.759 83.1701C253.788 83.1483 253.82 83.1323 253.854 83.123C253.889 83.1137 253.924 83.1113 253.96 83.1159C253.995 83.1206 254.029 83.1322 254.06 83.15L257.42 85.08C257.481 85.1174 257.525 85.1765 257.543 85.2452C257.562 85.314 257.553 85.3872 257.52 85.45C257.493 85.4847 257.458 85.5121 257.418 85.5296C257.378 85.5471 257.334 85.5541 257.29 85.55Z" fill="#37474F"/>
<path d="M259.43 84.83C259.384 84.8395 259.336 84.8395 259.29 84.83L255.93 82.89C255.899 82.8734 255.872 82.8507 255.851 82.8234C255.829 82.7962 255.813 82.7648 255.804 82.7312C255.794 82.6976 255.792 82.6625 255.796 82.6279C255.801 82.5934 255.812 82.5601 255.83 82.53C255.867 82.4694 255.926 82.4254 255.995 82.4068C256.064 82.3882 256.137 82.3965 256.2 82.43L259.56 84.36C259.621 84.3974 259.665 84.4565 259.683 84.5252C259.702 84.594 259.693 84.6672 259.66 84.73C259.633 84.7647 259.598 84.7921 259.558 84.8096C259.518 84.8271 259.474 84.8341 259.43 84.83Z" fill="#37474F"/>
<path opacity="0.15" d="M257.79 100.68C256.978 102.645 256.541 104.744 256.5 106.87C256.435 108.421 256.806 109.959 257.57 111.31L251.65 107.88L251.52 107.8L245.57 104.35L245.42 104.27L242.27 102.44C240.69 101.5 239.72 99.52 239.72 96.71C239.768 94.7096 240.178 92.7344 240.93 90.88L257.79 100.68Z" fill="black"/>
<path d="M273.13 88.2801C271.21 87.1601 268.56 87.2801 265.61 89.0001C259.72 92.3801 254.94 100.63 254.93 107.42C254.93 110.75 256.06 113.1 257.93 114.24C258.56 114.62 262.74 116.89 263.33 117.24C265.26 118.36 267.92 118.24 270.86 116.52C276.75 113.14 281.53 104.89 281.55 98.1001C281.55 94.7501 280.39 92.3901 278.55 91.2601C277.88 90.8901 273.73 88.6301 273.13 88.2801Z" fill="#455A64"/>
<path d="M256.16 112.46C256.22 112.55 256.28 112.65 256.35 112.74C256.28 112.64 256.21 112.55 256.15 112.45L256.16 112.46Z" fill="#455A64"/>
<path d="M260.22 110.36C260.22 117.15 264.97 119.91 270.85 116.52C276.73 113.13 281.52 104.89 281.54 98.1C281.56 91.31 276.79 88.55 270.9 91.93C265.01 95.31 260.23 103.57 260.22 110.36Z" fill="#37474F"/>
<path d="M266.1 115.35C263.1 115.35 262.84 111.86 262.84 110.35C262.84 104.51 267.14 97.11 272.21 94.2C273.244 93.5462 274.428 93.1676 275.65 93.1C278.65 93.1 278.92 96.59 278.92 98.1C278.92 103.94 274.61 111.34 269.55 114.25C268.512 114.904 267.325 115.282 266.1 115.35Z" fill="#263238"/>
<path d="M275.43 94.6C275.431 94.1116 275.398 93.6237 275.33 93.14C274.223 93.2588 273.157 93.6244 272.21 94.21C267.14 97.12 262.85 104.52 262.84 110.36C262.839 110.848 262.872 111.336 262.94 111.82C264.046 111.695 265.11 111.33 266.06 110.75C271.13 107.84 275.42 100.44 275.43 94.6Z" fill="#E8505B"/>
<path opacity="0.3" d="M275.43 94.6C275.431 94.1116 275.398 93.6237 275.33 93.14C274.223 93.2588 273.157 93.6244 272.21 94.21C267.14 97.12 262.85 104.52 262.84 110.36C262.839 110.848 262.872 111.336 262.94 111.82C264.046 111.695 265.11 111.33 266.06 110.75C271.13 107.84 275.42 100.44 275.43 94.6Z" fill="black"/>
<path d="M269.46 97.49C271.46 95.07 274.04 94.27 274.46 95.17C274.88 96.07 273.58 104.79 265.15 109.91C267.951 107.402 270.252 104.385 271.93 101.02C273.22 98.12 272 95.74 269.46 97.49Z" fill="#E0E0E0"/>
<path opacity="0.15" d="M263.07 117.09C263.044 117.062 263.02 117.032 263 117H262.92L262.74 116.9L262.6 116.82L262.28 116.65L261.56 116.25L259.01 114.85L258.42 114.51L257.96 114.25C257.724 114.101 257.5 113.934 257.29 113.75C257.19 113.67 257.1 113.57 257 113.48C256.84 113.322 256.693 113.151 256.56 112.97C256.498 112.901 256.441 112.828 256.39 112.75C256.32 112.66 256.26 112.56 256.2 112.47C255.338 110.949 254.915 109.218 254.98 107.47C255.027 105.066 255.522 102.692 256.44 100.47C256.56 100.16 256.68 99.87 256.81 99.57C256.94 99.27 257 99.14 257.11 98.92C257.22 98.7 257.32 98.49 257.43 98.27L262.67 101.27C261.185 104.091 260.365 107.214 260.27 110.4C260.197 112.143 260.605 113.873 261.45 115.4C261.862 116.073 262.415 116.649 263.07 117.09Z" fill="black"/>
<path d="M215.37 45.64V44.89H215.55C215.787 44.4875 216.134 44.1612 216.55 43.95C217.418 43.5115 218.377 43.283 219.35 43.283C220.323 43.283 221.282 43.5115 222.15 43.95C222.563 44.1657 222.909 44.4909 223.15 44.89H223.32V45.64C223.286 45.9868 223.162 46.3188 222.96 46.6029C222.759 46.8871 222.486 47.1136 222.17 47.26C221.302 47.6986 220.343 47.9271 219.37 47.9271C218.397 47.9271 217.438 47.6986 216.57 47.26C216.244 47.1205 215.962 46.8969 215.751 46.6123C215.54 46.3277 215.409 45.9921 215.37 45.64Z" fill="#263238"/>
<path d="M222.12 46.5001C223.66 45.6101 223.66 44.1701 222.12 43.2701C221.252 42.8315 220.293 42.603 219.32 42.603C218.347 42.603 217.388 42.8315 216.52 43.2701C214.98 44.1701 214.98 45.6101 216.52 46.5001C217.388 46.9387 218.347 47.1672 219.32 47.1672C220.293 47.1672 221.252 46.9387 222.12 46.5001Z" fill="#37474F"/>
<path d="M241.07 43.24L223 32.81C222.533 32.5418 222.004 32.4009 221.466 32.4016C220.928 32.4023 220.399 32.5445 219.933 32.814C219.467 33.0834 219.08 33.4707 218.811 33.9368C218.542 34.403 218.4 34.9318 218.4 35.47V44.55C218.412 44.6275 218.443 44.7009 218.49 44.7636C218.537 44.8264 218.599 44.8767 218.67 44.91C218.872 45.009 219.095 45.0604 219.32 45.0604C219.545 45.0604 219.768 45.009 219.97 44.91C220.041 44.8767 220.103 44.8264 220.15 44.7636C220.197 44.7009 220.228 44.6275 220.24 44.55V35.47C220.238 35.2536 220.293 35.0404 220.4 34.8524C220.507 34.6644 220.662 34.5082 220.85 34.4C221.039 34.2922 221.252 34.2354 221.47 34.2354C221.687 34.2354 221.901 34.2922 222.09 34.4L240.15 44.83C240.255 44.8989 240.372 44.9456 240.495 44.9674C240.619 44.9892 240.745 44.9855 240.867 44.9567C240.989 44.9279 241.104 44.8745 241.204 44.7998C241.305 44.725 241.389 44.6306 241.452 44.5222C241.515 44.4138 241.554 44.2937 241.569 44.1693C241.584 44.0449 241.573 43.9188 241.537 43.7988C241.501 43.6787 241.442 43.5673 241.361 43.4712C241.281 43.3751 241.182 43.2965 241.07 43.24Z" fill="#263238"/>
<path d="M265.77 56.3301C264.64 54.3801 243.92 41.0401 238.54 37.9201C238.194 37.7438 237.806 37.6672 237.419 37.699C237.033 37.7308 236.662 37.8697 236.35 38.1001C235.475 38.6735 234.748 39.4448 234.226 40.3517C233.705 41.2586 233.405 42.2755 233.35 43.3201C233.303 43.7081 233.366 44.1015 233.532 44.4552C233.699 44.809 233.961 45.1087 234.29 45.3201C239.71 48.4401 261.12 59.8401 264.04 59.7101C264.605 59.7101 265.147 59.4857 265.546 59.0862C265.946 58.6868 266.17 58.145 266.17 57.5801C266.169 57.1321 266.029 56.6955 265.77 56.3301Z" fill="#E8505B"/>
<path opacity="0.1" d="M266.07 58.16C265.46 59.01 264.39 59.45 261.07 57.99C257.96 56.64 239.87 46.08 233.46 42.36C233.395 42.6894 233.362 43.0242 233.36 43.36C233.313 43.748 233.376 44.1414 233.542 44.4951C233.709 44.8489 233.971 45.1486 234.3 45.36C239.72 48.48 261.13 59.88 264.05 59.75C264.514 59.7412 264.962 59.5811 265.327 59.2941C265.691 59.0071 265.952 58.6089 266.07 58.16Z" fill="black"/>
<path d="M214.22 64.6901C214.227 64.5825 214.259 64.4781 214.315 64.3859C214.371 64.2936 214.448 64.2161 214.54 64.1601L217.54 62.4301C217.638 62.3758 217.748 62.3473 217.86 62.3473C217.972 62.3473 218.082 62.3758 218.18 62.4301L220.34 63.6701C220.43 63.7288 220.505 63.8087 220.557 63.9028C220.609 63.9969 220.638 64.1024 220.64 64.2101C220.63 64.3193 220.595 64.4247 220.537 64.5183C220.48 64.6118 220.402 64.6911 220.31 64.7501L217.31 66.4701C217.211 66.5194 217.101 66.5451 216.99 66.5451C216.879 66.5451 216.769 66.5194 216.67 66.4701L214.53 65.2201C214.44 65.1628 214.365 65.0848 214.311 64.9927C214.257 64.9005 214.226 64.7967 214.22 64.6901Z" fill="#E8505B"/>
<path opacity="0.2" d="M214.22 64.6901C214.227 64.5825 214.259 64.4781 214.315 64.3859C214.371 64.2936 214.448 64.2161 214.54 64.1601L217.54 62.4301C217.638 62.3758 217.748 62.3473 217.86 62.3473C217.972 62.3473 218.082 62.3758 218.18 62.4301L220.34 63.6701C220.43 63.7288 220.505 63.8087 220.557 63.9028C220.609 63.9969 220.638 64.1024 220.64 64.2101C220.63 64.3193 220.595 64.4247 220.537 64.5183C220.48 64.6118 220.402 64.6911 220.31 64.7501L217.31 66.4701C217.211 66.5194 217.101 66.5451 216.99 66.5451C216.879 66.5451 216.769 66.5194 216.67 66.4701L214.53 65.2201C214.44 65.1628 214.365 65.0848 214.311 64.9927C214.257 64.9005 214.226 64.7967 214.22 64.6901Z" fill="white"/>
<path d="M214.54 64.5301L216.69 65.7701C216.789 65.8194 216.899 65.8451 217.01 65.8451C217.121 65.8451 217.23 65.8194 217.33 65.7701L220.33 64.0401C220.367 64.025 220.398 63.9994 220.42 63.9664C220.442 63.9335 220.454 63.8947 220.454 63.8551C220.454 63.8154 220.442 63.7766 220.42 63.7437C220.398 63.7108 220.367 63.6851 220.33 63.6701L218.17 62.4301C218.072 62.3758 217.962 62.3473 217.85 62.3473C217.738 62.3473 217.628 62.3758 217.53 62.4301L214.53 64.1601C214.488 64.1709 214.452 64.1955 214.426 64.2298C214.4 64.2641 214.387 64.3061 214.388 64.349C214.389 64.3919 214.405 64.4332 214.432 64.466C214.46 64.4989 214.498 64.5215 214.54 64.5301Z" fill="#E8505B"/>
<path opacity="0.5" d="M214.54 64.5301L216.69 65.7701C216.789 65.8194 216.899 65.8451 217.01 65.8451C217.121 65.8451 217.23 65.8194 217.33 65.7701L220.33 64.0401C220.367 64.025 220.398 63.9994 220.42 63.9664C220.442 63.9335 220.454 63.8947 220.454 63.8551C220.454 63.8154 220.442 63.7766 220.42 63.7437C220.398 63.7108 220.367 63.6851 220.33 63.6701L218.17 62.4301C218.072 62.3758 217.962 62.3473 217.85 62.3473C217.738 62.3473 217.628 62.3758 217.53 62.4301L214.53 64.1601C214.488 64.1709 214.452 64.1955 214.426 64.2298C214.4 64.2641 214.387 64.3061 214.388 64.349C214.389 64.3919 214.405 64.4332 214.432 64.466C214.46 64.4989 214.498 64.5215 214.54 64.5301Z" fill="white"/>
<path opacity="0.15" d="M217.32 66.4701L220.32 64.7501C220.411 64.6896 220.488 64.6099 220.545 64.5166C220.602 64.4233 220.638 64.3187 220.65 64.2101C220.65 64.1106 220.626 64.0125 220.581 63.9238C220.536 63.8352 220.47 63.7585 220.39 63.7001C220.52 63.8001 220.51 63.9501 220.39 64.0401L217.39 65.7701C217.292 65.8234 217.182 65.8509 217.07 65.8501V66.5501C217.158 66.5407 217.243 66.5135 217.32 66.4701Z" fill="black"/>
<path d="M195 53.6501C195.008 53.5429 195.042 53.4392 195.097 53.3472C195.153 53.2552 195.229 53.1774 195.32 53.1201L198.32 51.3901C198.419 51.3407 198.529 51.3151 198.64 51.3151C198.751 51.3151 198.861 51.3407 198.96 51.3901L201.11 52.6301C201.202 52.6876 201.279 52.767 201.333 52.8612C201.387 52.9554 201.417 53.0615 201.42 53.1701C201.408 53.2789 201.373 53.3838 201.316 53.4771C201.259 53.5705 201.182 53.6501 201.09 53.7101L198.09 55.4401C197.991 55.4894 197.881 55.5151 197.77 55.5151C197.659 55.5151 197.549 55.4894 197.45 55.4401L195.31 54.1901C195.22 54.1307 195.144 54.0508 195.091 53.957C195.037 53.8632 195.006 53.7581 195 53.6501Z" fill="#E8505B"/>
<path opacity="0.2" d="M195 53.6501C195.008 53.5429 195.042 53.4392 195.097 53.3472C195.153 53.2552 195.229 53.1774 195.32 53.1201L198.32 51.3901C198.419 51.3407 198.529 51.3151 198.64 51.3151C198.751 51.3151 198.861 51.3407 198.96 51.3901L201.11 52.6301C201.202 52.6876 201.279 52.767 201.333 52.8612C201.387 52.9554 201.417 53.0615 201.42 53.1701C201.408 53.2789 201.373 53.3838 201.316 53.4771C201.259 53.5705 201.182 53.6501 201.09 53.7101L198.09 55.4401C197.991 55.4894 197.881 55.5151 197.77 55.5151C197.659 55.5151 197.549 55.4894 197.45 55.4401L195.31 54.1901C195.22 54.1307 195.144 54.0508 195.091 53.957C195.037 53.8632 195.006 53.7581 195 53.6501Z" fill="white"/>
<path d="M195.33 53.4901L197.48 54.7401C197.579 54.7894 197.689 54.8151 197.8 54.8151C197.911 54.8151 198.02 54.7894 198.12 54.7401L201.12 53.0001C201.162 52.9903 201.199 52.9667 201.226 52.9331C201.252 52.8996 201.267 52.8579 201.267 52.8151C201.267 52.7722 201.252 52.7306 201.226 52.697C201.199 52.6634 201.162 52.6399 201.12 52.6301L199 51.3901C198.9 51.3407 198.791 51.3151 198.68 51.3151C198.569 51.3151 198.459 51.3407 198.36 51.3901L195.36 53.1201C195.15 53.2301 195.15 53.3901 195.33 53.4901Z" fill="#E8505B"/>
<path opacity="0.5" d="M195.33 53.4901L197.48 54.7401C197.579 54.7894 197.689 54.8151 197.8 54.8151C197.911 54.8151 198.02 54.7894 198.12 54.7401L201.12 53.0001C201.162 52.9903 201.199 52.9667 201.226 52.9331C201.252 52.8996 201.267 52.8579 201.267 52.8151C201.267 52.7722 201.252 52.7306 201.226 52.697C201.199 52.6634 201.162 52.6399 201.12 52.6301L199 51.3901C198.9 51.3407 198.791 51.3151 198.68 51.3151C198.569 51.3151 198.459 51.3407 198.36 51.3901L195.36 53.1201C195.15 53.2301 195.15 53.3901 195.33 53.4901Z" fill="white"/>
<path opacity="0.15" d="M198.11 55.44L201.11 53.71C201.201 53.65 201.279 53.5705 201.336 53.4771C201.393 53.3837 201.428 53.2788 201.44 53.17C201.437 53.0711 201.412 52.9741 201.367 52.8859C201.322 52.7977 201.258 52.7206 201.18 52.66C201.31 52.77 201.29 52.91 201.13 53L198.13 54.74C198.031 54.7891 197.921 54.8131 197.81 54.81V55.51C197.914 55.5069 198.016 55.4831 198.11 55.44Z" fill="black"/>
<path d="M199.94 47.8801V52.7601L198 53.8701V47.3801C198 47.0501 198.23 46.9201 198.52 47.0801L199.94 47.8801Z" fill="black"/>
<path d="M219 56.0001V63.9001L217.18 64.9601L216 64.2201V57.7401C215.988 57.5577 215.934 57.3806 215.842 57.2227C215.75 57.0647 215.623 56.9303 215.47 56.8301L200.47 48.2001L198.54 47.0801C198.25 46.9201 198.02 47.0801 198.02 47.3801V53.8701L196.79 53.1601V45.2601C196.785 45.2236 196.785 45.1866 196.79 45.1501C196.816 44.9877 196.875 44.8325 196.965 44.6946C197.054 44.5568 197.172 44.4394 197.31 44.3501L198.08 43.9001C198.242 43.8159 198.422 43.772 198.605 43.772C198.788 43.772 198.968 43.8159 199.13 43.9001L218.47 55.0701C218.627 55.1705 218.757 55.3076 218.85 55.4696C218.942 55.6316 218.994 55.8137 219 56.0001Z" fill="#37474F"/>
<path d="M217.19 57.0001V64.9001L216 64.2201V57.7401C215.988 57.5577 215.934 57.3806 215.842 57.2226C215.75 57.0647 215.623 56.9303 215.47 56.8301L200.47 48.2001L198.54 47.0801C198.25 46.9201 198.02 47.0801 198.02 47.3801V53.8701L196.79 53.1601V45.2601C196.785 45.2236 196.785 45.1866 196.79 45.1501C196.79 44.9001 197.05 44.8101 197.31 44.9601L216.65 56.1201C216.801 56.2157 216.929 56.3447 217.022 56.4973C217.116 56.6498 217.173 56.8218 217.19 57.0001Z" fill="#263238"/>
</g>
<defs>
<clipPath id="clip0">
<rect width="321" height="307.36" fill="white"/>
</clipPath>
</defs>
</svg>
