<svg id="Layer_1" data-name="Layer 1" xmlns="http://www.w3.org/2000/svg" viewBox="0 0 1093.32 290.83"><defs><style>.cls-1{fill:#45b5aa;}.cls-2{fill:#374a59;}</style></defs><title>Infinite Frontier_LOGO</title><polygon class="cls-1" points="58.03 173.42 58.03 56.01 234.47 56.01 234.47 232.79 116.09 232.79 116.09 290.83 288.47 290.83 288.47 0 0 0 0 173.42 58.03 173.42"/><rect class="cls-1" x="116.01" y="118.22" width="55.12" height="55.2"/><rect class="cls-1" x="60.89" y="173.42" width="55.12" height="55.2"/><path class="cls-2" d="M567.07,806.5V688.87h22V806.5Z" transform="translate(-204.01 -646.79)"/><path class="cls-2" d="M700.82,768V688.87H723V806.5H705l-62.51-78.31V806.5H620.33V688.87h18Z" transform="translate(-204.01 -646.79)"/><path class="cls-2" d="M754.25,806.5V689h84.52v21.34H776.43v32.1h59V763h-59V806.5Z" transform="translate(-204.01 -646.79)"/><path class="cls-2" d="M863,806.5V688.87h22V806.5Z" transform="translate(-204.01 -646.79)"/><path class="cls-2" d="M996.72,768V688.87h22.18V806.5h-18l-62.51-78.31V806.5H916.23V688.87h18Z" transform="translate(-204.01 -646.79)"/><path class="cls-2" d="M1050.15,806.5V688.87h22V806.5Z" transform="translate(-204.01 -646.79)"/><path class="cls-2" d="M1129.63,709h-37.3V688.87h96.78V709h-37.3V806.5h-22.18Z" transform="translate(-204.01 -646.79)"/><path class="cls-2" d="M1297.32,806.5h-88V688.87h88v21.51h-66v27.06H1295V758.1h-63.68v26.56h66Z" transform="translate(-204.01 -646.79)"/><path class="cls-2" d="M816.4,847.78v5.55H789.71v16.32h25.55v5.41H789.71v19.6h-5.82V847.78Z" transform="translate(-204.01 -646.79)"/><path class="cls-2" d="M868.37,877.74H857v16.85h-5.81V847.78h21.26c10.57,0,15.85,7.36,15.85,15,.07,7.09-3.81,13.71-13.44,14.51l15.45,17.32H883Zm14.11-14.84a9.63,9.63,0,0,0-10-9.9H857v19.53h15.19C879.21,872.53,882.48,868.18,882.48,862.9Z" transform="translate(-204.01 -646.79)"/><path class="cls-2" d="M968.83,871.32c-.06,12.24-7.68,24.21-23.74,24.21s-23.8-11.91-23.8-24.21c0-13.57,9.09-24.34,23.87-24.34C961,847,968.9,859,968.83,871.32Zm-23.67-19c-11.9,0-18.06,8.76-18.06,19,0,9.5,5.76,18.73,18.06,18.73S963,880.55,963,871.32C963.08,861.83,957.4,852.46,945.16,852.33Z" transform="translate(-204.01 -646.79)"/><path class="cls-2" d="M1007.84,847.78l28.69,35.84V847.78h5.75v46.81h-4l-28.75-35.71v35.71h-5.75V847.78Z" transform="translate(-204.01 -646.79)"/><path class="cls-2" d="M1075.06,853v-5.22h37.72V853h-16v41.59h-5.75V853Z" transform="translate(-204.01 -646.79)"/><path class="cls-2" d="M1145.56,847.78h5.82v46.81h-5.82Z" transform="translate(-204.01 -646.79)"/><path class="cls-2" d="M1189.24,847.78h32.9v5.36H1195v14.64h26v5.41h-26V889h28.22v5.55h-34Z" transform="translate(-204.01 -646.79)"/><path class="cls-2" d="M1275.39,877.74H1264v16.85h-5.82V847.78h21.27c10.57,0,15.85,7.36,15.85,15,.06,7.09-3.82,13.71-13.44,14.51l15.44,17.32H1290Zm14.11-14.84a9.64,9.64,0,0,0-10-9.9H1264v19.53h15.18C1286.22,872.53,1289.5,868.18,1289.5,862.9Z" transform="translate(-204.01 -646.79)"/></svg>