<svg xmlns="http://www.w3.org/2000/svg" xmlns:xlink="http://www.w3.org/1999/xlink" viewBox="0 0 628.002 628.002">
  <defs>
    <style>
      .cls-1 {
        fill: none;
      }

      .cls-2, .cls-3 {
        stroke: none;
      }

      .cls-3 {
        fill: #75d0af;
      }

      .cls-4 {
        filter: url(#Polygon_2_copy_9);
      }
    </style>
    <filter id="Polygon_2_copy_9" x="0" y="0" width="628.002" height="628.002" filterUnits="userSpaceOnUse">
      <feOffset dy="33" input="SourceAlpha"/>
      <feGaussianBlur stdDeviation="24.5" result="blur"/>
      <feFlood flood-color="#0e60bf" flood-opacity="0.059"/>
      <feComposite operator="in" in2="blur"/>
      <feComposite in="SourceGraphic"/>
    </filter>
  </defs>
  <g class="cls-4" transform="matrix(1, 0, 0, 1, 0, 0)">
    <g id="Polygon_2_copy_9-2" data-name="Polygon 2 copy 9" class="cls-1" transform="translate(-1798.5 -2044.52)">
      <path class="cls-2" d="M2234.538,2521.558a390.565,390.565,0,0,0-129.7,34.752q-61.841,28.611-101.092-27.087a390.5,390.5,0,0,0-94.947-94.946q-55.7-39.254-27.088-101.093a390.548,390.548,0,0,0,34.753-129.7q6.144-67.858,74-74a390.527,390.527,0,0,0,129.7-34.754q61.841-28.608,101.092,27.089a390.509,390.509,0,0,0,94.947,94.947q55.7,39.25,27.088,101.093a390.529,390.529,0,0,0-34.753,129.7Q2302.4,2515.413,2234.538,2521.558Z"/>
      <path class="cls-3" d="M 2065.467041015625 2553.259521484375 C 2075.802001953125 2553.259521484375 2087.245849609375 2550.389404296875 2099.48046875 2544.7294921875 C 2141.84716796875 2525.130859375 2186.89990234375 2513.059326171875 2233.387939453125 2508.849853515625 C 2272.454345703125 2505.313232421875 2292.297119140625 2485.47021484375 2295.834716796875 2446.402587890625 C 2300.0439453125 2399.915283203125 2312.115966796875 2354.862060546875 2331.715087890625 2312.49560546875 C 2348.18603515625 2276.89404296875 2340.9228515625 2249.787841796875 2308.858642578125 2227.19091796875 C 2270.704833984375 2200.304443359375 2237.7236328125 2167.32373046875 2210.831298828125 2129.164306640625 C 2195.947509765625 2108.04443359375 2179.16943359375 2097.77783203125 2159.538330078125 2097.77783203125 C 2149.202392578125 2097.77783203125 2137.759521484375 2100.647216796875 2125.52685546875 2106.306396484375 C 2083.16455078125 2125.9052734375 2038.111328125 2137.9775390625 1991.61865234375 2142.18798828125 C 1952.552124023438 2145.724365234375 1932.70947265625 2165.567138671875 1929.172485351563 2204.634765625 C 1924.963256835938 2251.121337890625 1912.890991210938 2296.174072265625 1893.291748046875 2338.542236328125 C 1876.822143554688 2374.142822265625 1884.085205078125 2401.24951171875 1916.148681640625 2423.84716796875 C 1954.30322265625 2450.734375 1987.284423828125 2483.71484375 2014.176391601563 2521.872802734375 C 2029.059814453125 2542.992919921875 2045.837158203125 2553.259521484375 2065.467041015625 2553.259521484375 M 2065.46728515625 2566.01953125 C 2041.607055664063 2566.01953125 2021.033203125 2553.75390625 2003.745971679688 2529.223388671875 C 1977.5791015625 2492.09375 1945.929443359375 2460.443359375 1908.798706054688 2434.277587890625 C 1871.66748046875 2408.108154296875 1862.638671875 2374.410888671875 1881.7109375 2333.184326171875 C 1900.783325195313 2291.9560546875 1912.367919921875 2248.724853515625 1916.464477539063 2203.484130859375 C 1920.560180664063 2158.2451171875 1945.228637695313 2133.5751953125 1990.46826171875 2129.479736328125 C 2035.708618164063 2125.3828125 2078.942626953125 2113.799072265625 2120.1689453125 2094.7255859375 C 2134.1572265625 2088.254638671875 2147.28369140625 2085.017822265625 2159.5380859375 2085.017822265625 C 2183.4013671875 2085.017822265625 2203.972412109375 2097.281494140625 2221.261474609375 2121.81396484375 C 2247.4287109375 2158.9443359375 2279.077392578125 2190.5947265625 2316.208740234375 2216.760498046875 C 2353.33935546875 2242.927978515625 2362.369140625 2276.626708984375 2343.2958984375 2317.853271484375 C 2324.223388671875 2359.081298828125 2312.63916015625 2402.31298828125 2308.54296875 2447.55322265625 C 2304.4462890625 2492.793212890625 2279.778564453125 2517.46240234375 2234.538330078125 2521.557861328125 C 2189.29833984375 2525.654541015625 2146.064697265625 2537.239013671875 2104.837890625 2556.310302734375 C 2090.847412109375 2562.782958984375 2077.7236328125 2566.01953125 2065.46728515625 2566.01953125 Z"/>
    </g>
  </g>
</svg>
