<svg xmlns="http://www.w3.org/2000/svg" xmlns:xlink="http://www.w3.org/1999/xlink" viewBox="0 0 438 376.001">
  <defs>
    <style>
      .cls-1 {
        fill: #4f78eb;
        opacity: 0.129;
      }

      .cls-2 {
        fill: none;
      }

      .cls-3, .cls-4 {
        stroke: none;
      }

      .cls-4 {
        fill: #54bbba;
      }

      .cls-5 {
        filter: url(#Polygon_2_copy_8);
      }

      .cls-6 {
        filter: url(#Polygon_2_copy_7);
      }
    </style>
    <filter id="Polygon_2_copy_7" x="0" y="0" width="376.001" height="376.001" filterUnits="userSpaceOnUse">
      <feOffset dy="33" input="SourceAlpha"/>
      <feGaussianBlur stdDeviation="24.5" result="blur"/>
      <feFlood flood-color="#0e60bf" flood-opacity="0.059"/>
      <feComposite operator="in" in2="blur"/>
      <feComposite in="SourceGraphic"/>
    </filter>
    <filter id="Polygon_2_copy_8" x="165.999" y="40.996" width="272" height="272.001" filterUnits="userSpaceOnUse">
      <feOffset dy="33" input="SourceAlpha"/>
      <feGaussianBlur stdDeviation="24.5" result="blur-2"/>
      <feFlood flood-color="#0e60bf" flood-opacity="0.059"/>
      <feComposite operator="in" in2="blur-2"/>
      <feComposite in="SourceGraphic"/>
    </filter>
  </defs>
  <g id="Group_2" data-name="Group 2" transform="translate(137.498 -1849.508)">
    <g class="cls-6" transform="matrix(1, 0, 0, 1, -137.5, 1849.51)">
      <path id="Polygon_2_copy_7-2" data-name="Polygon 2 copy 7" class="cls-1" d="M108.6,2097.842a185.934,185.934,0,0,0-61.749,16.545q-29.442,13.62-48.129-12.9a185.928,185.928,0,0,0-45.2-45.2Q-73,2037.6-59.376,2008.159a185.93,185.93,0,0,0,16.546-61.75q2.925-32.308,35.233-35.233a185.927,185.927,0,0,0,61.749-16.546q29.442-13.621,48.129,12.9a185.916,185.916,0,0,0,45.2,45.2q26.516,18.687,12.9,48.129a185.925,185.925,0,0,0-16.546,61.75Q140.909,2094.916,108.6,2097.842Z" transform="translate(137.5 -1849.51)"/>
    </g>
    <g class="cls-5" transform="matrix(1, 0, 0, 1, -137.5, 1849.51)">
      <g id="Polygon_2_copy_8-2" data-name="Polygon 2 copy 8" class="cls-2" transform="translate(137.5 -1849.51)">
        <path class="cls-3" d="M196.215,2044.45a101.493,101.493,0,0,0-33.706,9.032q-16.071,7.434-26.271-7.04a101.481,101.481,0,0,0-24.674-24.674q-14.474-10.2-7.039-26.272a101.488,101.488,0,0,0,9.032-33.706q1.6-17.635,19.232-19.232a101.5,101.5,0,0,0,33.706-9.032q16.071-7.434,26.271,7.04a101.486,101.486,0,0,0,24.674,24.674q14.474,10.2,7.039,26.271a101.488,101.488,0,0,0-9.031,33.706Q213.85,2042.853,196.215,2044.45Z"/>
        <path class="cls-4" d="M 152.2776184082031 2043.2451171875 C 153.5656127929688 2043.2451171875 155.2512817382813 2042.780395507813 157.1512756347656 2041.9013671875 C 169.1442718505859 2036.352783203125 181.8999481201172 2032.934814453125 195.0646057128906 2031.742431640625 C 200.6546173095703 2031.236450195313 202.2326202392578 2029.658447265625 202.7386169433594 2024.068115234375 C 203.9306182861328 2010.905395507813 207.3486175537109 1998.149780273438 212.8976135253906 1986.15478515625 C 215.2546081542969 1981.06005859375 214.6769409179688 1978.90478515625 210.0889434814453 1975.67138671875 C 199.2859497070313 1968.058715820313 189.9479522705078 1958.721435546875 182.3339385986328 1947.91748046875 C 179.4072723388672 1943.764404296875 177.4579467773438 1943.764404296875 176.7242736816406 1943.764404296875 C 175.436279296875 1943.764404296875 173.7506103515625 1944.229125976563 171.8502807617188 1945.108154296875 C 159.8566131591797 1950.65673828125 147.1009521484375 1954.07470703125 133.9369506835938 1955.26708984375 C 128.3472747802734 1955.773071289063 126.7692794799805 1957.350708007813 126.2632827758789 1962.94140625 C 125.0716094970703 1976.103149414063 121.6536102294922 1988.858764648438 116.1042785644531 2000.854125976563 C 113.7476119995117 2005.94873046875 114.3252792358398 2008.104370117188 118.9129486083984 2011.337768554688 C 129.7156066894531 2018.950073242188 139.0536193847656 2028.287719726563 146.6679534912109 2039.092041015625 C 149.5946197509766 2043.2451171875 151.5439453125 2043.2451171875 152.2776184082031 2043.2451171875 M 152.2775421142578 2056.005126953125 C 146.0761413574219 2056.005126953125 140.7306365966797 2052.818115234375 136.2376098632813 2046.4423828125 C 129.4372863769531 2036.793090820313 121.2126159667969 2028.568115234375 111.5629425048828 2021.768432617188 C 101.9136123657227 2014.9677734375 99.56727600097656 2006.21044921875 104.5236129760742 1995.496704101563 C 109.4799423217773 1984.78271484375 112.4906158447266 1973.548095703125 113.5552825927734 1961.790771484375 C 114.6196136474609 1950.034057617188 121.0302810668945 1943.623046875 132.7869415283203 1942.55908203125 C 144.5439453125 1941.494140625 155.7792816162109 1938.483764648438 166.4929504394531 1933.527465820313 C 170.1281433105469 1931.845825195313 173.5396423339844 1931.004516601563 176.7242736816406 1931.004516601563 C 182.9256744384766 1931.004516601563 188.2712554931641 1934.19140625 192.7642822265625 1940.5673828125 C 199.5646057128906 1950.216430664063 207.7892761230469 1958.441040039063 217.4389495849609 1965.241088867188 C 227.0882720947266 1972.041137695313 229.4346160888672 1980.799072265625 224.4782867431641 1991.512451171875 C 219.5216064453125 2002.226806640625 216.5112762451172 2013.46142578125 215.4466094970703 2025.21875 C 214.3822784423828 2036.97509765625 207.9716186523438 2043.386108398438 196.2149505615234 2044.450439453125 C 184.4579467773438 2045.515380859375 173.2226104736328 2048.525390625 162.5089416503906 2053.482177734375 C 158.8737487792969 2055.163818359375 155.4621734619141 2056.005126953125 152.2775421142578 2056.005126953125 Z"/>
      </g>
    </g>
  </g>
</svg>
