<svg xmlns="http://www.w3.org/2000/svg" xmlns:xlink="http://www.w3.org/1999/xlink" viewBox="0 0 3504.356 1064.243">
  <defs>
    <style>
      .cls-1 {
        fill: #f2f2fb;
      }

      .cls-2 {
        clip-path: url(#clip-path);
      }

      .cls-3, .cls-4 {
        fill: #7771d5;
      }

      .cls-3 {
        opacity: 0.059;
      }

      .cls-4 {
        opacity: 0.051;
      }
    </style>
    <clipPath id="clip-path">
      <path id="Shape_1_copy_4" data-name="Shape 1 copy 4" class="cls-1" d="M2259.815,3231.256s-257.149-328.337-659.836-256.418-466.762,238.426-898.9,108.613S81.331,2845.262-248.414,2927.119-971.008,2789.01-971.008,2789.01-913.361,3386.577-560,3536s404.682,485.048,804,216c427.037-287.724,1421.508,78.458,1813-224,432.4-334.064,525.688-216.257,455-309.29Z"/>
    </clipPath>
  </defs>
  <g id="Shape_1_copy_4-2" data-name="Shape 1 copy 4" transform="translate(971.008 -2789.01)">
    <path id="Shape_1_copy_4-3" data-name="Shape 1 copy 4" class="cls-1" d="M2259.815,3231.256s-257.149-328.337-659.836-256.418-466.762,238.426-898.9,108.613S81.331,2845.262-248.414,2927.119-971.008,2789.01-971.008,2789.01-913.361,3386.577-560,3536s404.682,485.048,804,216c427.037-287.724,1421.508,78.458,1813-224,432.4-334.064,525.688-216.257,455-309.29Z"/>
    <g id="Clip" class="cls-2">
      <path id="Shape_1_copy_5" data-name="Shape 1 copy 5" class="cls-3" d="M1974.3,2947.138s-285.458-394.166-680.851-275.7-444.649,331.975-887.2,199.27-639.25-255.618-961-129.778-733.039-122.788-733.039-122.788,108.126,414.15,473.808,576.986,481.583-146.124,912.282,143.494c477.038,320.778,1312.744,18.639,1587.4-178.553s539.079-246.339,539.079-246.339Z"/>
      <path id="Shape_1_copy_6" data-name="Shape 1 copy 6" class="cls-4" d="M2184.436,2773.533s-315.944-370.179-700.646-220.595-416.8,366.334-868.507,269.3S-42.294,2618.34-353,2769.406s-740.489-64.016-740.489-64.016,140.767,404.223,518.256,537.418,468.416-184.015,920.812,70.381c501.07,281.767,1310.058-85.971,1568.132-304.411s517.747-288.49,517.747-288.49Z"/>
    </g>
  </g>
</svg>
