<svg id="Layer_1" data-name="Layer 1" xmlns="http://www.w3.org/2000/svg" xmlns:xlink="http://www.w3.org/1999/xlink" viewBox="0 0 781.43 512.26"><defs><style>.cls-1{fill:none;}.cls-2{clip-path:url(#clip-path);}.cls-3{fill:#bea8b2;}.cls-4{fill:#8883d7;}.cls-5{fill:#bb8ba5;}.cls-6{fill:#f6e5eb;}.cls-7{fill:#f74545;}.cls-8{fill:#feab70;}.cls-9{fill:#cfacc0;}.cls-10{fill:#d0adc1;}.cls-11{fill:#eddfe7;}.cls-12{fill:#fff;}.cls-13{fill:#e2ccd6;}.cls-14{fill:#6c3a6f;}.cls-15{fill:#502155;}.cls-16{fill:#dacdd3;}.cls-17{opacity:0.4;}.cls-18{fill:#f88a37;}.cls-19{fill:#f2838c;}.cls-20{fill:#fae9ef;}.cls-21{fill:#ee8088;}.cls-22{fill:#a66a8c;}.cls-23{fill:#9191e2;}.cls-24{fill:#fec6a2;}</style><clipPath id="clip-path" transform="translate(-119.23 -65.89)"><rect class="cls-1" width="1000" height="600"/></clipPath></defs><title>watchingreading</title><g class="cls-2"><rect class="cls-3" x="175.92" y="492.87" width="82.44" height="11.89" rx="3.02"/><rect class="cls-3" x="671.31" y="468.72" width="56.27" height="11.89" rx="3.02"/><rect class="cls-3" x="628.25" y="500.37" width="56.27" height="11.89" rx="3.02"/><path class="cls-3" d="M163,524.17a9,9,0,1,1-9-9A9,9,0,0,1,163,524.17Z" transform="translate(-119.23 -65.89)"/><path class="cls-3" d="M840.46,473H224.81a10.39,10.39,0,0,0,0,20.78h167.9a10.39,10.39,0,1,1,0,20.77s-73.81-.06-81.93-.12c-.7,0-.59,0-.52,0a10.43,10.43,0,0,0,0,20.85h81.44a10.39,10.39,0,1,0,0,20.78H673.57a10.39,10.39,0,0,0,0-20.78H755a10.39,10.39,0,0,0,0-20.77H650.61a10.42,10.42,0,0,1-10.39-10.39h0a10.42,10.42,0,0,1,10.39-10.38H840.46a10.39,10.39,0,0,0,0-20.78Zm-355,50.43A10.43,10.43,0,0,1,475,533.84H458.28a10.43,10.43,0,0,1-10.39-10.39h0a10.43,10.43,0,0,1,10.39-10.39H475a10.43,10.43,0,0,1,10.39,10.39Zm125.2-10.39h-51a10.39,10.39,0,0,1,0-20.77h51a10.39,10.39,0,0,1,0,20.77Z" transform="translate(-119.23 -65.89)"/><path class="cls-4" d="M824,419.3c-22.27,3.29-50.42,11.95-76.22,39.16-13.4,14.12-18.41,33.23-20.26,46.78a126.32,126.32,0,0,0-.88,25.52c0,.38.48.59,1,.47h0c.49-.12.87-.51.84-.88-.45-5.7-2.74-46.53,20.68-71.23,25.38-26.76,52.86-35.19,74.76-38.42a1.06,1.06,0,0,0,1-.82C824.91,419.49,824.53,419.23,824,419.3Z" transform="translate(-119.23 -65.89)"/><path class="cls-4" d="M718.58,489.67c-7.27-.07-13.81,2-14.62,4.61s4.42,4.78,11.69,4.84,13.81-2,14.62-4.61S725.85,489.73,718.58,489.67Z" transform="translate(-119.23 -65.89)"/><path class="cls-4" d="M730.5,493.94c-1.29,1.75,1.23,4.3,5.64,5.7s9,1.12,10.33-.63-1.23-4.3-5.64-5.69S731.8,492.2,730.5,493.94Z" transform="translate(-119.23 -65.89)"/><path class="cls-4" d="M724,474.61c-7-.78-13.63.7-14.83,3.29s3.52,5.31,10.51,6.08,13.64-.7,14.83-3.29S731,475.38,724,474.61Z" transform="translate(-119.23 -65.89)"/><path class="cls-4" d="M735.05,481.33c-1.93,1.88.31,5.51,5,8.13s10.06,3.21,12,1.33-.31-5.51-5-8.12S737,479.46,735.05,481.33Z" transform="translate(-119.23 -65.89)"/><path class="cls-4" d="M719.59,461.73c-2,2.22.76,6.09,6.26,8.62s11.62,2.8,13.66.58-.75-6.08-6.26-8.62S721.64,459.51,719.59,461.73Z" transform="translate(-119.23 -65.89)"/><path class="cls-4" d="M740.46,470.14c-2.09,1.67-.62,5.42,3.27,8.38s8.75,4,10.83,2.34.62-5.43-3.27-8.39S742.55,468.47,740.46,470.14Z" transform="translate(-119.23 -65.89)"/><path class="cls-4" d="M732.54,448.72c-2.45,1.82-1.39,5.93,2.37,9.18s8.81,4.41,11.27,2.59,1.4-5.93-2.37-9.18S735,446.9,732.54,448.72Z" transform="translate(-119.23 -65.89)"/><path class="cls-4" d="M747.81,460.26c-2.45,1.82-1.4,5.93,2.37,9.18s8.81,4.41,11.27,2.59,1.39-5.93-2.37-9.18S750.27,458.44,747.81,460.26Z" transform="translate(-119.23 -65.89)"/><path class="cls-4" d="M748.7,438.47c-2.45,1-3.21,4.86-1.69,8.65s4.74,6.08,7.19,5.09,3.21-4.85,1.69-8.64S751.15,437.49,748.7,438.47Z" transform="translate(-119.23 -65.89)"/><path class="cls-4" d="M755.88,451.93c-1.89,1.65-.41,5,3.32,7.44s8.26,3.12,10.15,1.46.41-5-3.31-7.44S757.77,450.28,755.88,451.93Z" transform="translate(-119.23 -65.89)"/><path class="cls-4" d="M760.06,432.26c-2.11.84-2.78,4.13-1.5,7.33s4,5.12,6.15,4.28,2.79-4.14,1.5-7.34S762.18,431.41,760.06,432.26Z" transform="translate(-119.23 -65.89)"/><path class="cls-4" d="M764.73,444.66c-1.52,1.48,0,4.2,3.33,6.08s7.33,2.19,8.86.7,0-4.21-3.32-6.08S766.26,443.17,764.73,444.66Z" transform="translate(-119.23 -65.89)"/><path class="cls-4" d="M770.58,427.79c-1.9.75-2.6,3.46-1.57,6s3.41,4.05,5.3,3.29,2.6-3.46,1.57-6S772.48,427,770.58,427.79Z" transform="translate(-119.23 -65.89)"/><path class="cls-4" d="M774.79,437.71c-1.6,1.18-1.09,3.69,1.13,5.61s5.31,2.51,6.9,1.33,1.09-3.69-1.13-5.6S776.38,436.54,774.79,437.71Z" transform="translate(-119.23 -65.89)"/><path class="cls-4" d="M781.86,422.87c-2,.51-3.27,3-2.92,5.66s2.23,4.32,4.2,3.81,3.27-3,2.92-5.66S783.83,422.36,781.86,422.87Z" transform="translate(-119.23 -65.89)"/><path class="cls-4" d="M783.86,432.66c-1.6,1.18-1.21,3.6.87,5.39s5.06,2.3,6.66,1.12,1.2-3.6-.88-5.4S785.45,431.48,783.86,432.66Z" transform="translate(-119.23 -65.89)"/><path class="cls-4" d="M791.94,419.42c-1.65.43-2.74,2.65-2.43,5s1.9,3.83,3.55,3.4,2.74-2.65,2.43-5S793.59,419,791.94,419.42Z" transform="translate(-119.23 -65.89)"/><path class="cls-4" d="M793.61,428.27c-1.39,1-1.13,3.08.57,4.75s4.22,2.27,5.61,1.33,1.13-3.08-.57-4.76S795,427.32,793.61,428.27Z" transform="translate(-119.23 -65.89)"/><path class="cls-4" d="M801.81,417.29c-1.3.34-2.15,2.17-1.89,4.08s1.52,3.19,2.83,2.85,2.14-2.16,1.89-4.07S803.12,417,801.81,417.29Z" transform="translate(-119.23 -65.89)"/><path class="cls-4" d="M802.57,425.31c-1.17.65-1.21,2.45-.07,4s3,2.29,4.18,1.64,1.21-2.45.07-4S803.75,424.65,802.57,425.31Z" transform="translate(-119.23 -65.89)"/><path class="cls-4" d="M809.84,416.34c-1.06.28-1.76,1.78-1.55,3.34s1.25,2.61,2.32,2.33,1.76-1.77,1.55-3.33S810.91,416.07,809.84,416.34Z" transform="translate(-119.23 -65.89)"/><path class="cls-4" d="M810.49,423.09c-1,.53-1,2-.06,3.28s2.46,1.88,3.42,1.35,1-2,.06-3.29S811.45,422.55,810.49,423.09Z" transform="translate(-119.23 -65.89)"/><path class="cls-4" d="M816.14,415.66c-.83.17-1.46,1.5-1.41,3s.78,2.51,1.62,2.34,1.46-1.5,1.41-3S817,415.49,816.14,415.66Z" transform="translate(-119.23 -65.89)"/><path class="cls-4" d="M816.29,421.75c-.72.45-.53,1.7.44,2.8s2.34,1.63,3.06,1.17.53-1.71-.44-2.8S817,421.29,816.29,421.75Z" transform="translate(-119.23 -65.89)"/><path class="cls-4" d="M820.89,415.62c-.71.14-1.24,1.28-1.19,2.55s.66,2.17,1.37,2,1.23-1.28,1.18-2.55S821.59,415.47,820.89,415.62Z" transform="translate(-119.23 -65.89)"/><path class="cls-4" d="M820.73,420.73c-.6.38-.42,1.46.42,2.41s2,1.41,2.61,1,.43-1.46-.41-2.41S821.34,420.35,820.73,420.73Z" transform="translate(-119.23 -65.89)"/><path class="cls-4" d="M827,418.47c-1.67.34-3,1-3,1.59s1.39.68,3.06.34,3-1,3-1.59S828.7,418.13,827,418.47Z" transform="translate(-119.23 -65.89)"/><path class="cls-5" d="M235.27,309.08c11.4,22.1,42.85,72.76,42.85,72.76s-17.8-56.21-29.2-78.31S228.59,267.07,221.28,270,223.87,287,235.27,309.08Z" transform="translate(-119.23 -65.89)"/><path class="cls-6" d="M277.46,382.17c-.32-.51-31.59-50.94-42.87-72.81h0c-2.34-4.52-4.64-8.77-6.68-12.52-6.77-12.48-11.24-20.72-9.51-25a4.41,4.41,0,0,1,2.56-2.42c7.74-3.15,16.37,10,28.65,33.81,11.29,21.89,29.06,77.85,29.23,78.41l1.78,5.6ZM219.82,272.32c-1.52,3.73,3.08,12.2,9.45,23.94,2,3.75,4.35,8,6.69,12.54h0c9.09,17.63,31.22,53.88,39.57,67.45-4.87-14.93-18.2-54.82-27.29-72.44s-19.38-36.12-26.65-33.16l-.44.21A2.86,2.86,0,0,0,219.82,272.32Z" transform="translate(-119.23 -65.89)"/><path class="cls-5" d="M199.07,319.76c26.41,30.25,97.83,96,97.83,96S252.76,331.28,226.36,301s-46.69-48.89-61.31-38.85S172.67,289.52,199.07,319.76Z" transform="translate(-119.23 -65.89)"/><path class="cls-6" d="M296.36,416.27c-.72-.66-71.76-66.17-97.88-96.1l.59-.41-.59.41c-5.41-6.19-10.72-11.93-15.41-17-14.15-15.29-24.37-26.34-23.32-34.47.35-2.75,1.93-5.06,4.84-7.05,7.17-4.92,16-3.51,27.17,4.32,9,6.36,19.55,16.73,35.2,34.65,26.15,30,70.19,114.06,70.63,114.9l1.89,3.62ZM165.51,262.7c-2.56,1.76-4,3.77-4.26,6.14-1,7.58,9.08,18.44,23,33.48,4.69,5.08,10,10.83,15.43,17,22.9,26.24,80.44,79.92,94.6,93-8.83-16.61-45.6-84.71-68.51-111-15.57-17.83-26-28.13-34.95-34.42-9.92-7-17.59-8.66-23.95-5.15A15.78,15.78,0,0,0,165.51,262.7Z" transform="translate(-119.23 -65.89)"/><path class="cls-5" d="M250.05,296.89c7.7,31.16,35.44,103.27,35.44,103.27s1.74-77.89-6-109-15.59-51.61-31.39-48.51S242.35,265.73,250.05,296.89Z" transform="translate(-119.23 -65.89)"/><path class="cls-6" d="M284.77,400.37c-.27-.72-27.83-72.5-35.46-103.34h0c-1.57-6.37-3.27-12.38-4.77-17.68C240.05,263.45,236.8,252,241,246c1.47-2.11,3.77-3.44,7-4.08,16-3.14,24.23,16.43,32.29,49,7.63,30.88,6,108.43,6,109.21l-.08,3.8ZM242.25,246.72c-3.83,5.47-.65,16.72,3.76,32.3,1.5,5.31,3.2,11.33,4.78,17.73h0c6.61,26.73,28.27,84.39,34,99.5.22-16.15.6-78.25-6-105-7.85-31.78-15.69-50.9-30.49-48a12.09,12.09,0,0,0-3.5,1.21A7.26,7.26,0,0,0,242.25,246.72Z" transform="translate(-119.23 -65.89)"/><path class="cls-5" d="M270.72,377.94c3.79,18.08,59.71,85.32,59.71,85.32s-20.2-76.19-24-94.27-9.08-29.79-25-27.14S266.92,359.87,270.72,377.94Z" transform="translate(-119.23 -65.89)"/><path class="cls-6" d="M329.82,463.66c-2.29-2.75-56.06-67.58-59.84-85.59h0c-3.59-17.1-5.68-34,11.35-36.87,7.77-1.3,13.59.68,17.78,6.07,3.39,4.36,5.81,10.81,8.07,21.6,3.75,17.85,23.78,93.47,24,94.24l.85,3.18Zm-58.36-85.84c3.29,15.68,47,69.72,57.38,82.38C325,445.5,309,384.88,305.7,369.12c-2.23-10.59-4.57-16.9-7.83-21.09-3.87-5-9-6.73-16.27-5.52a17.58,17.58,0,0,0-5.59,1.84C267.52,349,267.9,360.87,271.46,377.82Z" transform="translate(-119.23 -65.89)"/><path class="cls-5" d="M311.1,414.14c4.29,20.45,30,71.13,30,71.13s1-68-3.33-88.49S327.87,363,312,365.67,306.8,393.7,311.1,414.14Z" transform="translate(-119.23 -65.89)"/><path class="cls-6" d="M340.41,485.54c-.26-.5-25.8-51-30.06-71.27-.84-4-2-8.35-3-12.51-3.54-13.65-6.89-26.55-2.15-33a10,10,0,0,1,6.67-3.77c7.79-1.3,13.69,1.05,18,7.19,3.51,5,6.1,12.27,8.66,24.44,4.25,20.28,3.34,87.94,3.33,88.62l0,3Zm-34-116c-4.39,5.93-1,19.15,2.35,31.93,1.08,4.18,2.2,8.49,3.06,12.56h0c3.64,17.37,23.1,57.22,28.53,68.15.13-13.52.37-67.61-3.34-85.27-2.52-12-5-19.17-8.45-24-4-5.7-9.26-7.79-16.47-6.59a10.25,10.25,0,0,0-3.26,1.08A7.37,7.37,0,0,0,306.43,369.53Z" transform="translate(-119.23 -65.89)"/><path class="cls-5" d="M268.34,386.48c20.6,12.06,73.11,93.8,73.11,93.8s-78.1-60.54-94.27-72S221.85,387.09,232,375.9,252.31,377.09,268.34,386.48Z" transform="translate(-119.23 -65.89)"/><path class="cls-6" d="M341,480.79c-.78-.61-78.27-60.67-94.24-72-17.08-12.14-25.59-21.94-15.31-33.28,8.25-9.12,16.64-3.38,27.26,3.88,3.18,2.18,6.46,4.42,10.1,6.55,20.51,12,71.2,90.69,73.35,94l2.21,3.45ZM232.57,376.32c-9.53,10.53-1.69,19.49,15.08,31.4,14.06,10,75.63,57.6,90.88,69.41-10.29-15.73-52.82-79.68-70.61-90.09h0c-3.68-2.16-7-4.42-10.18-6.61-9-6.12-15.37-10.5-21.49-7.13A14.62,14.62,0,0,0,232.57,376.32Z" transform="translate(-119.23 -65.89)"/><polygon class="cls-6" points="218.1 407.61 201.3 312.03 199.8 312.24 215.89 403.7 121.93 319 120.86 319.94 218.1 407.61"/><polygon class="cls-6" points="198.39 377.84 166.88 288.94 165.44 289.34 196.95 378.25 198.39 377.84"/><polygon class="cls-6" points="156.42 278.16 134.3 186.61 132.83 186.89 154.94 278.44 156.42 278.16"/><polygon class="cls-6" points="151.4 314.3 152.58 313.47 52.62 201.13 51.43 201.97 151.4 314.3"/><polygon class="cls-6" points="149.73 293.18 109.3 214.87 107.93 215.43 148.36 293.74 149.73 293.18"/><path class="cls-5" d="M781.43,308.8c-11.4,22.09-42.84,72.76-42.84,72.76s17.79-56.22,29.19-78.32,20.33-36.46,27.65-33.48S792.83,286.7,781.43,308.8Z" transform="translate(-119.23 -65.89)"/><path class="cls-6" d="M736.09,387l1.77-5.59c.18-.57,17.94-56.53,29.23-78.42,12.29-23.8,20.91-37,28.65-33.81a4.39,4.39,0,0,1,2.56,2.43c1.74,4.25-2.74,12.5-9.51,25-2,3.75-4.34,8-6.67,12.53h0c-11.29,21.86-42.56,72.29-42.87,72.8Zm59.46-116.4-.44-.21c-7.27-3-17.56,15.57-26.64,33.16S746,361,741.18,376c8.34-13.56,30.47-49.82,39.56-67.44h0c2.34-4.54,4.65-8.79,6.69-12.55,6.37-11.73,11-20.21,9.45-23.94A2.86,2.86,0,0,0,795.55,270.57Z" transform="translate(-119.23 -65.89)"/><path class="cls-5" d="M817.63,319.48c-26.4,30.24-97.83,96-97.83,96S763.94,331,790.34,300.75s46.69-48.9,61.31-38.86S844,289.23,817.63,319.48Z" transform="translate(-119.23 -65.89)"/><path class="cls-6" d="M717.22,418.86l1.9-3.63c.44-.84,44.47-84.93,70.63-114.89,15.65-17.93,26.17-28.29,35.2-34.65,11.11-7.84,20-9.25,27.17-4.33,2.9,2,4.48,4.3,4.84,7.05,1,8.13-9.18,19.18-23.33,34.48-4.69,5.06-10,10.81-15.4,17l-.6-.41.6.41c-26.13,29.93-97.17,95.43-97.88,96.09ZM849.85,261.58c-6.37-3.5-14-1.84-24,5.15-8.93,6.29-19.38,16.59-34.95,34.43-22.91,26.24-59.67,94.34-68.5,111,14.15-13.13,71.69-66.81,94.59-93,5.42-6.21,10.74-12,15.43-17,13.92-15,24-25.91,23-33.48-.31-2.38-1.7-4.38-4.27-6.14C850.75,262.11,850.3,261.84,849.85,261.58Z" transform="translate(-119.23 -65.89)"/><path class="cls-5" d="M766.65,296.6c-7.7,31.16-35.44,103.27-35.44,103.27s-1.74-77.89,6-109,15.6-51.61,31.39-48.51S774.35,265.44,766.65,296.6Z" transform="translate(-119.23 -65.89)"/><path class="cls-6" d="M730.54,403.68l-.08-3.8c0-.78-1.66-78.33,6-109.2,8.06-32.6,16.27-52.16,32.3-49,3.25.63,5.54,2,7,4.07,4.16,6,.91,17.44-3.58,33.33-1.5,5.3-3.19,11.31-4.77,17.69h0c-7.62,30.83-35.18,102.61-35.46,103.33ZM771.9,244.17a12.09,12.09,0,0,0-3.5-1.21c-14.79-2.9-22.63,16.22-30.49,48-6.61,26.74-6.23,88.85-6,105,5.74-15.12,27.4-72.78,34-99.51h0c1.58-6.4,3.28-12.42,4.78-17.73,4.4-15.57,7.58-26.83,3.76-32.3A7.38,7.38,0,0,0,771.9,244.17Z" transform="translate(-119.23 -65.89)"/><path class="cls-5" d="M746,377.65C742.19,395.73,686.27,463,686.27,463s20.2-76.19,24-94.26,9.08-29.8,25-27.15S749.78,359.58,746,377.65Z" transform="translate(-119.23 -65.89)"/><path class="cls-6" d="M684.7,466l.84-3.18c.2-.76,20.23-76.38,24-94.24,2.27-10.78,4.68-17.24,8.07-21.6,4.19-5.38,10-7.37,17.79-6.07,17,2.84,14.94,19.77,11.35,36.87h0c-3.79,18-57.56,82.84-59.85,85.59Zm56-121.94a17.5,17.5,0,0,0-5.59-1.84c-7.23-1.2-12.4.55-16.27,5.52-3.26,4.19-5.6,10.5-7.82,21.09-3.31,15.76-19.27,76.39-23.15,91.08,10.37-12.66,54.09-66.69,57.38-82.38C748.8,360.58,749.19,348.74,740.69,344.06Z" transform="translate(-119.23 -65.89)"/><path class="cls-5" d="M705.61,413.86c-4.29,20.44-30,71.12-30,71.12s-1-68.05,3.32-88.49,9.9-33.76,25.8-31.1S709.9,393.41,705.61,413.86Z" transform="translate(-119.23 -65.89)"/><path class="cls-6" d="M674.89,488l0-3c0-.69-.92-68.35,3.34-88.62,2.55-12.18,5.14-19.49,8.65-24.45,4.34-6.14,10.24-8.49,18-7.19a9.94,9.94,0,0,1,6.67,3.78c4.74,6.41,1.39,19.31-2.15,33-1.08,4.16-2.19,8.46-3,12.5-4.26,20.29-29.8,70.77-30.06,71.27Zm33-120.89A10.19,10.19,0,0,0,704.6,366c-7.22-1.2-12.45.89-16.48,6.59-3.4,4.81-5.93,12-8.45,24-3.71,17.67-3.46,71.75-3.34,85.27,5.43-10.93,24.89-50.78,28.53-68.15h0c.86-4.07,2-8.38,3.06-12.56,3.32-12.78,6.74-26,2.36-31.93A7.52,7.52,0,0,0,707.85,367.12Z" transform="translate(-119.23 -65.89)"/><path class="cls-5" d="M748.36,386.19c-20.59,12.06-73.11,93.8-73.11,93.8s78.1-60.54,94.27-72,25.33-21.15,15.2-32.34S764.4,376.81,748.36,386.19Z" transform="translate(-119.23 -65.89)"/><path class="cls-6" d="M672.38,483.11l2.22-3.45c2.14-3.34,52.83-82,73.35-94,3.63-2.13,6.92-4.37,10.09-6.54,10.62-7.27,19-13,27.27-3.89,10.27,11.35,1.76,21.15-15.31,33.28-16,11.35-93.47,71.41-94.25,72ZM780.46,373c-6.13-3.37-12.55,1-21.49,7.14-3.2,2.18-6.51,4.44-10.19,6.6h0c-17.79,10.42-60.31,74.36-70.6,90.09C693.42,465,755,417.43,769.05,407.43c16.77-11.91,24.61-20.87,15.08-31.4A14.59,14.59,0,0,0,780.46,373Z" transform="translate(-119.23 -65.89)"/><polygon class="cls-6" points="560.14 407.32 576.95 311.74 578.44 311.95 562.36 403.41 656.31 318.72 657.39 319.66 560.14 407.32"/><polygon class="cls-6" points="579.85 377.56 611.36 288.65 612.8 289.05 581.29 377.96 579.85 377.56"/><polygon class="cls-6" points="621.82 277.87 643.94 186.32 645.41 186.6 623.3 278.16 621.82 277.87"/><polygon class="cls-6" points="626.85 314.01 625.66 313.18 725.62 200.85 726.81 201.68 626.85 314.01"/><polygon class="cls-6" points="628.51 292.89 668.94 214.58 670.32 215.14 629.88 293.45 628.51 292.89"/><path class="cls-7" d="M271,469c6.32-.46,10.28,1.19,13.16,3.18-4.91-6-10.36-12-15.87-17.71-1.4,2.41-3.7,4.25-8.52,4.84-5.4.65-8.64-.9-10.54-3.34,1-2.79,3.6-5,9-5.7a12.64,12.64,0,0,1,6.75.83c-3.91-3.93-7.8-7.63-11.49-11-1.36,1.82-3.45,3.16-7.5,3.45-4.75.35-7.53-1.08-9.07-3.2,1-2.31,3.39-4.12,8.14-4.46a12.75,12.75,0,0,1,4,.28c-2.92-2.52-5.64-4.74-8.07-6.58l.09-.12c-2.33.19-5-.45-8.78-3.23-4.27-3.14-5.78-5.92-5.81-8.24,2.26-.65,5.38,0,9.65,3.11,3.92,2.88,5.1,5.51,5.67,7.67,3,2.26,6.38,5.08,10,8.31a10.41,10.41,0,0,1-1-6.5c.59-4.62,2.55-6.85,5-7.72,2.1,1.61,3.43,4.38,2.84,9-.53,4.22-2.18,6.19-4.34,7.4,3.79,3.42,7.79,7.23,11.81,11.27a11.71,11.71,0,0,1-.59-6.8c.93-5.21,3.36-7.63,6.27-8.47,2.41,2,3.84,5.2,2.91,10.41-.84,4.7-2.85,6.85-5.41,8.1,5.63,5.81,11.21,12,16.22,18.14-1.43-3.19-2.35-7.28,0-13,2.72-6.73,6.59-9.37,10.62-9.79,2.58,3.2,3.51,7.86.8,14.59-2.63,6.51-6.17,8.77-10.21,9.7q2,2.46,3.8,4.89l4.47,7.05-1,.58-4.44-7c-1.11-1.49-2.28-3-3.48-4.5-2.31,3.38-5.89,5.92-13.56,6.48-8.09.59-12.78-1.6-15.37-4.9C258.8,472.37,262.88,469.54,271,469Z" transform="translate(-119.23 -65.89)"/><path class="cls-8" d="M857.72,356.86a2.42,2.42,0,1,0,.9-1.5l-8-4.81,8.9.56a1.88,1.88,0,0,0,3.25.23,1.89,1.89,0,1,0-3.12-2.12s-.05.09-.08.14l-9.65-.6,6.59-4a2.52,2.52,0,0,0,.25.21,2.45,2.45,0,1,0-.66-3.4,2.37,2.37,0,0,0-.39,1.64l-7.17,4.34,2.06-7.21a2,2,0,1,0-1.71-3.16,2,2,0,0,0,.11,2.41l-2.61,9.11A182,182,0,0,0,820,357.15c2.92-3.95,8.67-12.39,8.25-17.21l8.63-3.46a2.22,2.22,0,0,0,.39.36,1.9,1.9,0,1,0-.5-2.64,1.88,1.88,0,0,0-.32,1.2l-8.39,3.36c-.14-.68-.31-1.37-.49-2.05l5.18-7.63a2.23,2.23,0,1,0-1-.65l-4.63,6.81a68.35,68.35,0,0,0-2.4-6.71,2.59,2.59,0,0,0,.39-.42,2.11,2.11,0,1,0-1.47.88,60.74,60.74,0,0,1,3.12,9.46l-7.55-4.13a1.7,1.7,0,1,0-.21,1.48,1.06,1.06,0,0,0,.11-.21l7.93,4.34c.61,5.07-7.28,15.62-9.2,18.09-2.91,1.21-5.93,2.55-9,4,.18-.33.36-.68.55-1.06a18.45,18.45,0,0,0,1.21-10.73,18.48,18.48,0,0,0-7.67,7.6c-2.19,4.53-1.65,6.36-.23,7.31-1.43.76-2.87,1.55-4.3,2.38,1.07-5.43,3.91-22.68-1.34-32.35l5.74-4.14a1.3,1.3,0,0,0,.18.15,2.36,2.36,0,1,0-.87-1.08l-5.15,3.7.48-7.35a2.24,2.24,0,0,0,.77-.7,2.28,2.28,0,1,0-3.16.61,2.24,2.24,0,0,0,1.2.38l-.45,7L789.65,328a2.3,2.3,0,1,0-.73.9l5.78,5.4-8.06-.66a1.86,1.86,0,0,0-.8-1.17,1.93,1.93,0,1,0,.52,2.69,2.09,2.09,0,0,0,.19-.36l9.41.78c3.62,6.47,3.3,17,2.43,24.45L788,353l-.3-3.82a2.41,2.41,0,0,0,.81-.75,2.5,2.5,0,1,0-3.47.67,2.54,2.54,0,0,0,1.52.42l.23,3-5.89-2.06a2.26,2.26,0,0,0-4.09-1.73,2.26,2.26,0,0,0,3.55,2.78l5.95,2.06-3.64,3.25a1.85,1.85,0,1,0,.61,2.65,1.88,1.88,0,0,0,.17-1.79l4-3.6,10.77,7.31c-.43,3.31-.93,5.88-1.17,7a138.28,138.28,0,0,0-13,8.65l-1.22.95a19.21,19.21,0,0,0,.57-3.18,18.44,18.44,0,0,0-2.55-10.49,18.36,18.36,0,0,0-4.59,9.77c-.56,5.58.91,6.84,2.87,7a175.77,175.77,0,0,0-13.81,14.26l.28-25,5.75-2.53.2.17a2,2,0,1,0-.81-1.18l-5.12,2.26,0-5.26a2.14,2.14,0,0,0,1.47-.94,2.22,2.22,0,1,0-3.09.6,2.82,2.82,0,0,0,.46.23l-.06,5.08-6-4.67a1.91,1.91,0,1,0-2.87,1,1.89,1.89,0,0,0,2.17,0l6.67,5.21-.3,26.47c-6.12,7.05-12.5,15.05-18.72,23.24a30.24,30.24,0,0,0-.47-4.58,29.46,29.46,0,0,0-5.74-12.77,29.52,29.52,0,0,0-1.33,13.94c1,6,2.38,7.89,3.92,8.22-4.71,6.3-9.28,12.62-13.51,18.61a63.89,63.89,0,0,0-1.68-9.42l3.64-4.91a2.09,2.09,0,1,0-1-.67l-3,4.11c-.55-2.24-1.09-4.22-1.44-5.46a2.16,2.16,0,1,0-1.93-.25,2.24,2.24,0,0,0,.75.32c.52,1.85,1.06,3.9,1.56,6L720,431.77a2.26,2.26,0,0,0-1-2.06,2.21,2.21,0,1,0,.52,3.15l5.92,1.45c1.11,4.72,1.92,9.16,1.66,10.66-5.81,8.24-10.94,15.79-14.9,21.7a36.2,36.2,0,0,0-.59-9.33,46.39,46.39,0,0,0-8.23-19.25A46.38,46.38,0,0,0,701.67,459c1.79,11.07,4.37,12.86,7.13,12.42l.37-.08c-3.26,4.92-5.2,7.93-5.29,8.09l1.46.94,2.14-3.29c0,.14,0,.27.07.41.61,2.73,3.23,4.47,14.18,2a46.34,46.34,0,0,0,18.73-9.34,46.41,46.41,0,0,0-20.92-.55,34.7,34.7,0,0,0-9.17,3.06c2.46-3.72,5.71-8.58,9.53-14.17a2.64,2.64,0,0,0,.23.61c.89,1.77,3.18,2.41,11.22-1.67a41.19,41.19,0,0,0,12.93-10.59A41.12,41.12,0,0,0,728.1,451a42.15,42.15,0,0,0-5.13,3c4-5.74,8.4-12,13.08-18.52,3.7-1,21.62-5.73,32.76-6.92l3.19,6.91a1.68,1.68,0,0,0-.3.35,1.93,1.93,0,1,0,2.69-.52,1.89,1.89,0,0,0-1.33-.31l-3-6.55c3-.26,5.47-.21,6.77.33l.17,0a2.29,2.29,0,1,0,.39-1.34,2.39,2.39,0,0,0-.12.22h-.06c-1.39-.55-3.83-.62-6.86-.39l3.48-5.13a2.09,2.09,0,1,0-1-.65l-4,5.92c-10.34,1.05-26,5.06-31.69,6.57,6.34-8.72,13.11-17.69,19.79-26,4.75-1.42,32.79-9.51,44.84-5.06l.85.7.69,7.63a2.15,2.15,0,0,0-.73.65,2.09,2.09,0,1,0,2.9-.56,2,2,0,0,0-1-.34l-.57-6.34,5.59,4.61a2.1,2.1,0,1,0,.71-.92l-5.58-4.6,7.32-.81a1.89,1.89,0,0,0,.6.69,1.91,1.91,0,1,0,2.15-3.16,1.9,1.9,0,0,0-2.65.5,1.87,1.87,0,0,0-.31.83l-7.28.8,4.47-6.07a2.25,2.25,0,1,0-.7-3.18,2.28,2.28,0,0,0-.12,2.32l-5,6.82-.64-.53-.08-.06-.09,0c-4-1.49-9.51-1.68-15.4-1.21l6.49-7.52,5.72,1.71a2.83,2.83,0,0,0,.4.37,2.1,2.1,0,1,0-.55-2.91,2.13,2.13,0,0,0-.37,1.17l-4.36-1.3c2.51-2.9,4.76-5.46,5.33-6h0l0,0a1.7,1.7,0,1,0-.68-1l-.16.15c-.57.57-2.68,3-5.07,5.72l-.35-3.06a2,2,0,0,0,1-.75,2,2,0,1,0-2.13.8l.49,4.2c-3.21,3.7-6.6,7.65-7.4,8.59a163.82,163.82,0,0,0-27,5.57q3-3.63,5.88-7c0,.06,0,.12,0,.18.63,1.88,2.17,3.06,7.51,1.28a18.49,18.49,0,0,0,8.54-6.62,18.5,18.5,0,0,0-10.8-.19l-.89.32c6-6.69,11.68-12.28,16.59-16a138.38,138.38,0,0,1,18.53-11.73c3.08-.29,13.63-.36,27.12,9.52l-1.34,8.87a2.16,2.16,0,1,0,1.15.18c.34-2.22.86-5.68,1.16-7.68l5.07,8.06a2.2,2.2,0,0,0-.78.68,2.18,2.18,0,1,0,2-.92l-5.29-8.4,7.47,2.45a2.14,2.14,0,1,0,.48-1.07l-7.5-2.46,8-2.86a2.57,2.57,0,0,0,.39.34,2.07,2.07,0,1,0-.88-1.4l-9.18,3.3c-11.26-8.26-20.45-9.78-25.29-9.88a3.05,3.05,0,0,0,.32-.22c3.8-1.93,7.54-3.64,11.11-5.16v0c-.58,1.44-.25,2.94,3.87,4.59a14.55,14.55,0,0,0,8.5.35,14.52,14.52,0,0,0-6.4-5.6,13.76,13.76,0,0,0-2.51-.78,179.69,179.69,0,0,1,25.41-8.12l4,10.9a2,2,0,1,0,1.44-1.13l-3.23-8.77Z" transform="translate(-119.23 -65.89)"/><path class="cls-8" d="M184.36,361.74a2.44,2.44,0,1,1-.9-1.49l8-4.82-8.91.56a1.88,1.88,0,1,1-.12-1.89s.05.1.07.14l9.65-.6-6.58-4a2.46,2.46,0,1,1,.8-1.56l7.17,4.34-2.07-7.2a2,2,0,1,1,1.6-.75l2.62,9.11A180.36,180.36,0,0,1,222.09,362c-2.93-3.94-8.67-12.39-8.26-17.21l-8.63-3.46a1.63,1.63,0,0,1-.38.36,1.9,1.9,0,1,1,.82-1.44l8.39,3.36c.14-.68.31-1.37.48-2.05L209.34,334a2.22,2.22,0,1,1,1-.65l4.63,6.82a69.65,69.65,0,0,1,2.4-6.72,2.23,2.23,0,0,1-.39-.42,2.09,2.09,0,1,1,1.46.88,62.32,62.32,0,0,0-3.11,9.46l7.55-4.13a1.69,1.69,0,1,1,.2,1.48l-.11-.21L215,344.81c-.61,5.07,7.28,15.62,9.2,18.09q4.36,1.83,9,4c-.18-.33-.36-.67-.55-1.06a18.49,18.49,0,0,1-1.22-10.73,18.48,18.48,0,0,1,7.68,7.6c2.19,4.53,1.65,6.36.23,7.31,1.43.76,2.87,1.56,4.3,2.38-1.08-5.42-3.91-22.68,1.34-32.35L239.26,336l-.18.15A2.37,2.37,0,1,1,240,335l5.14,3.7-.47-7.35a2.24,2.24,0,0,1-.77-.7,2.28,2.28,0,0,1,3.77-2.56,2.29,2.29,0,0,1-.61,3.17,2.34,2.34,0,0,1-1.21.39l.46,7,6.16-5.79a2.32,2.32,0,1,1,.74.9l-5.79,5.41,8.07-.67a1.88,1.88,0,0,1,.79-1.17,1.94,1.94,0,1,1-.51,2.69,2.09,2.09,0,0,1-.19-.36l-9.42.78c-3.61,6.47-3.29,17-2.42,24.46l10.42-7.08.3-3.82a2.41,2.41,0,0,1-.82-.74,2.5,2.5,0,1,1,3.48.66,2.56,2.56,0,0,1-1.52.42l-.23,3,5.89-2.07a2.28,2.28,0,1,1,.54,1l-6,2.06,3.65,3.25a1.86,1.86,0,1,1-.78.87l-4-3.61-10.77,7.31c.43,3.32.93,5.89,1.16,7a135.35,135.35,0,0,1,13,8.66c.4.3.81.62,1.22.95a17.12,17.12,0,0,1,2-13.68,18.5,18.5,0,0,1,4.59,9.78c.56,5.57-.91,6.83-2.87,7a177.43,177.43,0,0,1,13.81,14.26l-.28-25-5.75-2.53a1.73,1.73,0,0,1-.21.17,2,2,0,1,1,.53-2.76,2,2,0,0,1,.28,1.58l5.13,2.26-.06-5.25a2.26,2.26,0,0,1-1.47-.94,2.23,2.23,0,1,1,3.1.59,2.47,2.47,0,0,1-.46.23l.05,5.09,6-4.68a1.88,1.88,0,0,1,.73-2.2,1.91,1.91,0,1,1,0,3.13l-6.67,5.21.3,26.47c6.12,7.05,12.5,15.06,18.72,23.24a30,30,0,0,1,.46-4.58,29.51,29.51,0,0,1,5.74-12.76,29.39,29.39,0,0,1,1.34,13.93c-1,6-2.38,7.89-3.92,8.22,4.71,6.3,9.27,12.62,13.51,18.61a62.6,62.6,0,0,1,1.68-9.42l-3.64-4.91a2.07,2.07,0,1,1,.95-.66l3,4.1c.56-2.24,1.1-4.22,1.44-5.46a2.13,2.13,0,0,1-1.08-.83,2.17,2.17,0,1,1,3,.58,2.11,2.11,0,0,1-.74.32c-.52,1.85-1.06,3.91-1.56,6l5.19-1.27a2.21,2.21,0,0,1,4-1.47,2.21,2.21,0,0,1-3.59,2.56l-5.92,1.45c-1.11,4.72-1.93,9.17-1.66,10.66,5.8,8.25,10.94,15.79,14.9,21.7a35.77,35.77,0,0,1,.59-9.33A46.25,46.25,0,0,1,338.64,443a46.33,46.33,0,0,1,1.76,20.86c-1.78,11.07-4.36,12.87-7.13,12.42l-.36-.08c3.26,4.93,5.19,7.94,5.29,8.09l-1.47.94-2.13-3.29c0,.14-.05.28-.08.41-.6,2.73-3.22,4.47-14.17,2A46.34,46.34,0,0,1,301.62,475a46.33,46.33,0,0,1,20.92-.54,34.4,34.4,0,0,1,9.17,3c-2.46-3.71-5.71-8.58-9.53-14.16a2.82,2.82,0,0,1-.23.61c-.89,1.76-3.18,2.4-11.22-1.68a41,41,0,0,1-12.93-10.59,41.6,41.6,0,0,1,21.31,7.19c-4-5.73-8.4-12-13.09-18.51-3.69-1-21.61-5.73-32.75-6.92l-3.19,6.91a2,2,0,0,1,.3.34,2,2,0,1,1-1.36-.83l3-6.54c-3.05-.27-5.47-.21-6.77.33l-.17,0a2.29,2.29,0,1,1-.39-1.35,2.39,2.39,0,0,1,.12.22h.06c1.39-.55,3.83-.63,6.86-.4l-3.49-5.13a2.08,2.08,0,1,1,1-.65l4,5.92c10.34,1.06,26.05,5.07,31.7,6.57-6.34-8.72-13.11-17.68-19.79-26-4.75-1.43-32.79-9.52-44.84-5.07l-.86.7-.68,7.63a2.13,2.13,0,0,1,.72.65,2.09,2.09,0,1,1-2.9-.55,2,2,0,0,1,1-.35l.57-6.33-5.59,4.61a2.1,2.1,0,0,1-3.69,1.94,2.1,2.1,0,0,1,3-2.87l5.57-4.59-7.31-.82a1.83,1.83,0,0,1-.61.69,1.91,1.91,0,1,1,.82-1.83l7.28.8-4.47-6.07a2.24,2.24,0,0,1-2.43-3.77,2.24,2.24,0,0,1,3.24,2.91l5,6.82.64-.53.08-.06.09,0c4-1.5,9.51-1.69,15.4-1.21l-6.49-7.53L243,399.78a2,2,0,0,1-.4.37,2.1,2.1,0,1,1,.91-1.74l4.37-1.3c-2.51-2.89-4.76-5.46-5.33-6h0a1.69,1.69,0,1,1,.68-1l.16.16c.57.56,2.67,3,5.07,5.71l.35-3.06a1.94,1.94,0,0,1-1-.74,2,2,0,1,1,2.76.52,2,2,0,0,1-.62.28l-.49,4.2c3.21,3.69,6.6,7.64,7.4,8.58a164.49,164.49,0,0,1,27,5.57c-2-2.41-3.93-4.77-5.87-7,0,.06,0,.12-.05.18-.63,1.88-2.17,3.06-7.51,1.28a18.49,18.49,0,0,1-8.54-6.62,18.44,18.44,0,0,1,10.8-.18c.32.1.61.21.89.31-6-6.69-11.68-12.28-16.59-16a139.39,139.39,0,0,0-18.53-11.73c-3.08-.29-13.63-.36-27.12,9.52.2,1.32.91,6.08,1.34,8.88a2,2,0,0,1,1.45.88,2.08,2.08,0,1,1-2.89-.55,2.69,2.69,0,0,1,.29-.16c-.34-2.22-.86-5.68-1.16-7.67l-5.07,8.05a2.12,2.12,0,0,1,.77.69,2.15,2.15,0,1,1-3-.58,2.23,2.23,0,0,1,1-.35l5.28-8.4-7.47,2.45a2.1,2.1,0,0,1-.9,2,2.13,2.13,0,1,1,.43-3.11l7.5-2.46-8-2.86a1.54,1.54,0,0,1-.38.34,2.07,2.07,0,1,1,.55-2.87,2.1,2.1,0,0,1,.33,1.47l9.17,3.3c11.27-8.26,20.46-9.77,25.3-9.87l-.33-.23c-3.8-1.93-7.53-3.64-11.11-5.15h0c.58,1.45.25,2.94-3.87,4.59a14.55,14.55,0,0,1-8.5.35,14.58,14.58,0,0,1,6.4-5.6,15.18,15.18,0,0,1,2.5-.78,179.31,179.31,0,0,0-25.4-8.12l-4,10.9a2,2,0,0,1-.69,2.57,2,2,0,1,1-.75-3.7l3.24-8.76Z" transform="translate(-119.23 -65.89)"/><path class="cls-6" d="M435.22,118.11a16.56,16.56,0,1,1,17.52-15.55A16.56,16.56,0,0,1,435.22,118.11Z" transform="translate(-119.23 -65.89)"/><path class="cls-9" d="M428.6,109.26l4.54-3.87a6.93,6.93,0,0,0,4.4,1.91A7,7,0,1,0,432,104l-4.57,3.9a.92.92,0,0,0-.11,1.29A.92.92,0,0,0,428.6,109.26Zm14.53-8.65a5.18,5.18,0,1,1-4.86-5.48A5.19,5.19,0,0,1,443.13,100.61Z" transform="translate(-119.23 -65.89)"/><path class="cls-6" d="M305.75,146.66a14.83,14.83,0,1,1,3.05-20.75A14.83,14.83,0,0,1,305.75,146.66Z" transform="translate(-119.23 -65.89)"/><path class="cls-9" d="M304.29,138a8.55,8.55,0,0,1-2.59,3.4,7,7,0,0,1-10.14-1c-3.1-3.69-3.22-9,.76-12.38a6.52,6.52,0,0,1,9.58.79c2.26,2.69,2.08,5.54.39,7a1.73,1.73,0,0,1-2.65-.47l-.08.06a3.67,3.67,0,0,1-1.2,3.71,2.65,2.65,0,0,1-3.83-.64,5.52,5.52,0,0,1,.68-7.82,6,6,0,0,1,2.23-1.23l2.12,3.75c.88,1.59,1.62,2,2.22,1.56.93-.75.93-2.83-.82-4.91-2.18-2.6-5.31-3.15-8.09-.82s-3.44,6.84-.38,10.48c2.52,3,6,3.2,8.68,1a7.37,7.37,0,0,0,2.18-2.91Zm-7.5-6.91a4,4,0,0,0-1,.62,4,4,0,0,0-.14,5.63,1.55,1.55,0,0,0,2.33.37c1-.88.87-3,.14-4.28Z" transform="translate(-119.23 -65.89)"/><path class="cls-10" d="M812.19,104.86c-19.31,0-32.88,15.59-32.88,34.91s13,34.94,32.29,34.94,37.66-15.63,37.66-34.94S831.51,104.86,812.19,104.86Z" transform="translate(-119.23 -65.89)"/><circle class="cls-11" cx="810.1" cy="139.77" r="34.97" transform="translate(-129.84 121.12) rotate(-13.08)"/><circle class="cls-12" cx="690.87" cy="73.88" r="27.54"/><circle class="cls-13" cx="690.18" cy="53.01" r="3.55"/><path class="cls-13" d="M809.41,156.52a3.56,3.56,0,1,0,3.56,3.55A3.55,3.55,0,0,0,809.41,156.52Z" transform="translate(-119.23 -65.89)"/><path class="cls-13" d="M788.5,136.09a3.56,3.56,0,1,0,3.55,3.56A3.56,3.56,0,0,0,788.5,136.09Z" transform="translate(-119.23 -65.89)"/><path class="cls-13" d="M829.84,136.09a3.56,3.56,0,1,0,3.56,3.56A3.55,3.55,0,0,0,829.84,136.09Z" transform="translate(-119.23 -65.89)"/><path class="cls-13" d="M817,137.75h-3.85a1.58,1.58,0,0,0-.78.23,3.58,3.58,0,0,0-1.57-1.65,2.15,2.15,0,0,0,.78-1.67v-6.35a2.2,2.2,0,0,0-2.2-2.21h-.13a2.21,2.21,0,0,0-2.21,2.21v6.35a2.22,2.22,0,0,0,.68,1.59,3.55,3.55,0,1,0,4.74,4.63,1.61,1.61,0,0,0,.69.18H817a1.56,1.56,0,0,0,1.56-1.57v-.18A1.56,1.56,0,0,0,817,137.75Z" transform="translate(-119.23 -65.89)"/><path class="cls-14" d="M172.51,118.2H610a19.8,19.8,0,0,1,19.8,19.8V403.44a0,0,0,0,1,0,0H152.71a0,0,0,0,1,0,0V138A19.8,19.8,0,0,1,172.51,118.2Z"/><path class="cls-11" d="M192.84,135.67H589.69a20,20,0,0,1,20,20V403.44a0,0,0,0,1,0,0H172.84a0,0,0,0,1,0,0V155.67A20,20,0,0,1,192.84,135.67Z"/><rect class="cls-14" x="116.92" y="403.44" width="548.69" height="14.72"/><path class="cls-15" d="M775.43,501.41H245.56a2.89,2.89,0,0,1-2.65-1.74L236.15,484H784.84l-6.77,15.63A2.88,2.88,0,0,1,775.43,501.41Z" transform="translate(-119.23 -65.89)"/><path class="cls-9" d="M345.11,403.44h92.31a0,0,0,0,1,0,0v3.37a7,7,0,0,1-7,7H352.11a7,7,0,0,1-7-7v-3.37A0,0,0,0,1,345.11,403.44Z"/><rect class="cls-16" x="198.17" y="159.35" width="144.69" height="213.25"/><rect class="cls-4" x="198.17" y="159.35" width="144.69" height="21.78"/><path class="cls-12" d="M449.91,236.39a5.19,5.19,0,1,1-5.19-5.19A5.19,5.19,0,0,1,449.91,236.39Z" transform="translate(-119.23 -65.89)"/><path class="cls-12" d="M433.83,236.39a5.19,5.19,0,1,1-5.19-5.19A5.18,5.18,0,0,1,433.83,236.39Z" transform="translate(-119.23 -65.89)"/><path class="cls-12" d="M417.75,236.39a5.19,5.19,0,1,1-5.18-5.19A5.18,5.18,0,0,1,417.75,236.39Z" transform="translate(-119.23 -65.89)"/><polygon class="cls-7" points="209.23 181.13 209.23 215.1 220.9 207.84 232.57 215.1 232.57 181.13 209.23 181.13"/><rect class="cls-9" x="242.23" y="198.63" width="53.68" height="4.93"/><rect class="cls-9" x="208.39" y="228.84" width="45.38" height="4.93"/><rect class="cls-9" x="242.23" y="212.38" width="45.38" height="4.93"/><rect class="cls-9" x="262.98" y="228.84" width="69.67" height="4.93"/><rect class="cls-9" x="208.39" y="256.07" width="36.3" height="4.93"/><rect class="cls-9" x="253.77" y="256.07" width="55.92" height="4.93"/><rect class="cls-9" x="406.49" y="308.34" width="45.38" height="4.93" transform="translate(739.14 555.73) rotate(180)"/><rect class="cls-9" x="327.62" y="308.34" width="69.67" height="4.93" transform="translate(605.68 555.73) rotate(180)"/><rect class="cls-9" x="406.49" y="335.57" width="45.38" height="4.93" transform="translate(739.14 610.18) rotate(180)"/><rect class="cls-9" x="327.62" y="335.57" width="69.67" height="4.93" transform="translate(605.68 610.18) rotate(180)"/><rect class="cls-9" x="327.62" y="362.8" width="69.67" height="4.93" transform="translate(605.68 664.64) rotate(180)"/><rect class="cls-9" x="359.26" y="349.18" width="45.38" height="4.93" transform="translate(644.66 637.41) rotate(180)"/><rect class="cls-9" x="327.62" y="349.18" width="25.76" height="4.93" transform="translate(561.77 637.41) rotate(180)"/><rect class="cls-9" x="426.11" y="349.18" width="25.76" height="4.93" transform="translate(758.76 637.41) rotate(180)"/><rect class="cls-9" x="405.05" y="386.91" width="45.38" height="4.93" transform="translate(736.24 712.87) rotate(180)"/><rect class="cls-9" x="326.17" y="386.91" width="69.67" height="4.93" transform="translate(602.78 712.87) rotate(180)"/><rect class="cls-9" x="326.17" y="414.14" width="69.67" height="4.93" transform="translate(602.78 767.32) rotate(180)"/><rect class="cls-9" x="357.81" y="400.53" width="45.38" height="4.93" transform="translate(641.77 740.1) rotate(180)"/><rect class="cls-9" x="326.17" y="400.53" width="25.76" height="4.93" transform="translate(558.87 740.1) rotate(180)"/><rect class="cls-9" x="424.67" y="400.53" width="25.76" height="4.93" transform="translate(755.86 740.1) rotate(180)"/><g class="cls-17"><path class="cls-7" d="M697.13,436H529V342.73H697.13Zm-166.37-1.76H695.37V344.5H530.76Z" transform="translate(-119.23 -65.89)"/></g><polygon class="cls-18" points="545.26 186.26 543.41 184.05 495.28 224.44 467.48 201.12 466.39 199.81 466.16 200 465.93 199.81 464.83 201.12 416.81 241.41 418.67 243.61 466.16 203.76 495.78 228.62 497.63 226.41 497.52 226.32 545.26 186.26"/><path class="cls-9" d="M697.13,318.48H529V225.19H697.13Zm-166.37-1.76H695.37V227H530.76Z" transform="translate(-119.23 -65.89)"/><path class="cls-7" d="M634.13,387.26a21.06,21.06,0,1,1-21.06-21.06A21.06,21.06,0,0,1,634.13,387.26Z" transform="translate(-119.23 -65.89)"/><polygon class="cls-12" points="485.58 309.38 485.58 333.37 506.15 321.38 485.58 309.38"/><path class="cls-7" d="M790.41,552.13l-4.48-21.72a4.35,4.35,0,0,0-.1-.52l-5.25-25.45c0-.09,0-.17,0-.26a3.3,3.3,0,0,0-.41-1.59l-5.14-25s0-.07,0-.11a3.4,3.4,0,0,0-.34-1.46l-5.34-25.89h0l-15.24-73.88a3.44,3.44,0,0,0-6.73,1.38l3.08,14.93H704.73l-3.37-16.31a3.44,3.44,0,0,0-6.73,1.38L698.41,396v0a3.43,3.43,0,0,0,.3,1.39l5,24.4a3.8,3.8,0,0,0-.06.59,3.4,3.4,0,0,0,.57,1.89l5.62,27.25h0l21,102a3.43,3.43,0,0,0,3.36,2.74,3.23,3.23,0,0,0,.69-.07,3.43,3.43,0,0,0,2.67-4.06L734,534.28h45.77l4,19.24a3.45,3.45,0,0,0,3.36,2.74,3.26,3.26,0,0,0,.7-.07A3.43,3.43,0,0,0,790.41,552.13ZM761.8,447.42H716l-4.46-21.59h45.77Zm1.42,6.87,4.08,19.79H721.54l-4.09-19.79ZM723,481h45.77l4.08,19.8H727Zm29-81.49,4,19.5H710.17l-4-19.5Zm-19.38,128-4.08-19.79h45.77l4.08,19.79Z" transform="translate(-119.23 -65.89)"/><path class="cls-18" d="M740.66,427.36H688.51a3.44,3.44,0,0,1,0-6.87h52.15a3.44,3.44,0,0,1,0,6.87Z" transform="translate(-119.23 -65.89)"/><path class="cls-18" d="M746.14,400.69h-52a3.44,3.44,0,0,1,0-6.87h52a3.44,3.44,0,1,1,0,6.87Z" transform="translate(-119.23 -65.89)"/><path class="cls-18" d="M754.14,377.66a3.44,3.44,0,0,0-6.73-1.38l-14.67,71.14H687l14.39-69.76a3.44,3.44,0,0,0-6.73-1.38L679.4,450.16h0l-5.34,25.89a3.4,3.4,0,0,0-.33,1.46s0,.07,0,.11l-5.15,25a3.41,3.41,0,0,0-.41,1.59,2.3,2.3,0,0,0,0,.26L663,529.89a4.36,4.36,0,0,0-.11.52l-4.48,21.72a3.44,3.44,0,0,0,2.67,4.06,3.39,3.39,0,0,0,.7.07,3.43,3.43,0,0,0,3.36-2.74l4-19.24h45.77l-3.69,17.85a3.44,3.44,0,0,0,2.67,4.06,3.39,3.39,0,0,0,.7.07,3.43,3.43,0,0,0,3.36-2.74l21-102h0Zm-22.82,76.63-4.08,19.79H681.48l4.08-19.79Zm-9.58,46.46H676l4.08-19.8h45.76Zm-51.26,26.66,4.08-19.79h45.77l-4.09,19.79Z" transform="translate(-119.23 -65.89)"/><path class="cls-19" d="M653,280.22s-3,1.25-1.46,3.68,8.51,11.58,8.51,11.58l5.26-3.37-2.89-4.29s-.8-1.55-1.53-3.38a11.08,11.08,0,0,0-2.72-4.32c-1.53-1.68-1.67,2.5-2.46,1.13S653,280.22,653,280.22Z" transform="translate(-119.23 -65.89)"/><path class="cls-12" d="M663.73,289.73c.51.15,13.15,14.35,13.15,14.35s19.6,4.4,23,4.27,3.89,4.45,3.89,4.45l-6.17,7-15-3.61a53.72,53.72,0,0,1-8.29-3.1c-4.23-1.89-14.83-18.28-14.83-18.28Z" transform="translate(-119.23 -65.89)"/><path class="cls-20" d="M674.28,313.13a53.72,53.72,0,0,0,8.29,3.1l15,3.61,1-1.15a9.23,9.23,0,0,0-.09-1.18,2.22,2.22,0,0,0-.2-.71,2.18,2.18,0,0,0-.73-.65c-2-1.23-4.42-1.67-6.73-2.25a106.17,106.17,0,0,1-10.29-3.3,29.43,29.43,0,0,1-6.86-3.14,28.86,28.86,0,0,1-5.51-5.42,62.68,62.68,0,0,1-5.78-7.53,12.59,12.59,0,0,0-1.08-1.9l-1.79,2.14c0,.08,0,.16,0,.25C660.59,296.6,670.28,311.34,674.28,313.13Z" transform="translate(-119.23 -65.89)"/><path class="cls-15" d="M727.5,450.31s4.18,5.46,8.56,3.83,6.44-1.77,6.09-4.5c-.55-4.32-2.87-3.17-4.2-6a55.73,55.73,0,0,0-3.86-6.49l-8.49,2.47a1,1,0,0,0-.68,1.21Z" transform="translate(-119.23 -65.89)"/><path class="cls-12" d="M727.24,449.36s3.76,4.18,8,2.67,6.09-1.69,6-4-2.12-2.34-3.29-4.66-3.09-5.54-3.09-5.54l-10.07,2.65Z" transform="translate(-119.23 -65.89)"/><path class="cls-15" d="M698.13,450.75s-3.77,5.75-8.26,4.45-6.55-1.29-6.41-4c.23-4.36,2.63-3.38,3.75-6.32a55.44,55.44,0,0,1,3.36-6.76l8.66,1.83a1,1,0,0,1,.76,1.16Z" transform="translate(-119.23 -65.89)"/><path class="cls-12" d="M698.31,449.77s-3.43,4.46-7.8,3.27-6.2-1.23-6.28-3.52,1.94-2.48,2.93-4.89,2.66-5.76,2.66-5.76l10.25,1.91Z" transform="translate(-119.23 -65.89)"/><path class="cls-4" d="M698.45,355.56,689.53,439a8.52,8.52,0,0,0,6,4.17c4.08.51,4.28-.16,4.28-.16l11-62.65,13.28,59.91s9.14,6.91,11.87-.22l-5.83-85.67Z" transform="translate(-119.23 -65.89)"/><path class="cls-14" d="M710.87,380.36s0-1.86.08-3.78c.06-1.09,2.2-3.78,2.18-4.62a53.8,53.8,0,0,0,1.64,11.56,141.88,141.88,0,0,0,4.76,14.4c5.18,14.12,10.69,30,14.91,44.43-.29.22-1.08,2.06-6,.26a19.49,19.49,0,0,1-4.26-2.34Z" transform="translate(-119.23 -65.89)"/><path class="cls-14" d="M689.53,439l8.92-83.44,5.31-.2c-.21.53-.43,1.06-.58,1.56-1.43,4.76-1.65,9.76-2.28,14.65-.87,6.76-1.69,13.27-2.44,20.06-2,18.35-1.75,33.71-5.9,50.48A9.11,9.11,0,0,1,689.53,439Z" transform="translate(-119.23 -65.89)"/><path class="cls-19" d="M708.44,306.69l-1-5.52a12.47,12.47,0,0,1-5-9.81c-.24-6.55,4-12,9.5-12.22s10.14,4.93,10.39,11.48a12.5,12.5,0,0,1-4.24,10.15l.21,5.55c5.75.86,9.91,3.43,10,6.63.16,4.13-6.49,7.73-14.83,8s-14.55-2.76-14.7-6.89C698.67,310.9,702.78,308,708.44,306.69Z" transform="translate(-119.23 -65.89)"/><path class="cls-15" d="M704.36,268.27c3,.11,4.33-.28,6.44.81,0-1.19,8.81-.56,11.73,2.93a13.16,13.16,0,0,1,1.91,3,7.4,7.4,0,0,1,6.89,7.38c.5,13.44-5.55,17-8.87,15-4.18-2.46-5-10.29-5.18-14.52,0-.07-6.13,2.54-10.81,2.71-7,.26-10.1-1.79-10.2-4.54,0-.56-.62-2-.21-2.56-3.87-1.78-3.63-4.66-2.33-6.8C695.67,268.55,697.94,268,704.36,268.27Z" transform="translate(-119.23 -65.89)"/><path class="cls-12" d="M696.83,358.16l35.8-1.33s-2.6-33.52-1.32-35.54S729,303.93,714.8,304.94s-19.28,8.78-19.35,16S696.83,358.16,696.83,358.16Z" transform="translate(-119.23 -65.89)"/><path class="cls-19" d="M707.18,308.27c.41,1.4,3.28,1.81,6.39.92s5.66-3.07,4.67-4.16c-.82-.91-3.07-1.79-6.19-.9S706.76,306.87,707.18,308.27Z" transform="translate(-119.23 -65.89)"/><path class="cls-12" d="M708.31,306s-2.24,2.29.73,2.87,8.2-.55,9.2-3.83c0,0,2.46-.24,2.3.65-.31,1.86-1.79,6.28-5.14,7.54-4.32,1.63-5.1-3.46-5.91-3.56a4.67,4.67,0,0,1-1.29-.33s-.19,3.51-2.4,2.93-2.51-4.24-1.14-5.87C705.11,305.84,707.32,305.89,708.31,306Z" transform="translate(-119.23 -65.89)"/><path class="cls-20" d="M731.85,321c-.06-1.89-1.51-10.83-9-14.58a14.6,14.6,0,0,1,.9,1.53,34.57,34.57,0,0,1,2.6,6.87,26.2,26.2,0,0,1,.68,11.61c-.64,3.14-2.22,6-3,9.16a3.35,3.35,0,0,0-.11,1.47,4.71,4.71,0,0,0,1.58,2.12c1.27,1.28,2.17,3.2,1.41,4.81a8.84,8.84,0,0,1-1.17,1.58,9,9,0,0,0-1.58,8.22,2.84,2.84,0,0,0,.38.83,7,7,0,0,0,.62.6,3.63,3.63,0,0,1,1,1.86l6.46-.24S731.88,321.85,731.85,321Z" transform="translate(-119.23 -65.89)"/><rect class="cls-4" x="608.47" y="278.83" width="75.82" height="13.46" transform="translate(726.38 897.66) rotate(-130.21)"/><path class="cls-18" d="M675.2,319.66a6.73,6.73,0,1,1-.8,9.48A6.71,6.71,0,0,1,675.2,319.66Z" transform="translate(-119.23 -65.89)"/><rect class="cls-12" x="668.51" y="312.83" width="13.23" height="13.46" transform="translate(747.68 975.57) rotate(-130.21)"/><rect class="cls-8" x="608.47" y="283.32" width="75.82" height="4.49" transform="translate(726.38 897.66) rotate(-130.21)"/><polygon class="cls-12" points="507.81 186.38 489.79 175.49 497.53 195.07 507.81 186.38"/><polygon class="cls-18" points="497.89 180.39 489.79 175.49 493.27 184.3 497.89 180.39"/><path class="cls-19" d="M676.47,324.46s1-3.22,3.64-1.92,12.49,7.27,12.49,7.27l-3,5.73L685,333.11s-1.64-.62-3.57-1.14a10.75,10.75,0,0,1-4.62-2.26c-1.84-1.35,2.42-2,1-2.62S676.47,324.46,676.47,324.46Z" transform="translate(-119.23 -65.89)"/><rect class="cls-4" x="686.34" y="331.03" width="6.53" height="1.66" transform="translate(-44.35 721.83) rotate(-62.26)"/><path class="cls-20" d="M692.61,328.76l-3.78,7.2c9.31,7.42,21.62,7.84,23.61,7.83,3,0,5.16-4.26,4.36-7-.34-1.15-2.75-2.62-3.33-3C707.8,330.26,692.61,328.76,692.61,328.76Z" transform="translate(-119.23 -65.89)"/><path class="cls-20" d="M708.2,332.94l5.2,10.87c9.49-9.25,15.7-24.3,16-26.79.47-3.81-4.56-10.46-7.62-10.33-1.29.05-4.6,3.3-5.13,5.68C715,319.71,708.2,332.94,708.2,332.94Z" transform="translate(-119.23 -65.89)"/><path class="cls-20" d="M692.64,135a13.75,13.75,0,0,0-5.77.09,31.35,31.35,0,0,1-4,.65,2,2,0,0,1-2-1,1.66,1.66,0,0,1-.09-1.47,2.32,2.32,0,0,1,1.14-1.18,6,6,0,0,1,4.46-.35c1.69.45,2.72.7,3.09.74a2.3,2.3,0,0,0,2.27-1.61,2.53,2.53,0,0,0-.28-1.85,6.52,6.52,0,0,0-3.1-2.75c-1.4-.68-2.44-.84-3.1-.5a4.54,4.54,0,0,0-1,.87,2.14,2.14,0,0,1-.45.38,3.24,3.24,0,0,1-.57.18c-.61.11-1,.19-1.21.24a5.27,5.27,0,0,1-1.4.34q-.23,0-.54-.63l-.47-.9a1.68,1.68,0,0,0-.76-.87,1.66,1.66,0,0,0-1.1.27l-1.58.82a1.65,1.65,0,0,0-.86.76,1.61,1.61,0,0,0,.27,1.12l.46.88a1.38,1.38,0,0,1,.24.74c0,.12-.22.33-.58.61a9.41,9.41,0,0,0-3,4.28,7.47,7.47,0,0,0,.29,6.24q2.67,5.1,10.72,4c2.26-.3,3.54-.46,3.84-.45a1.91,1.91,0,0,1,1.83.9,1.48,1.48,0,0,1-.17,1.56,4.44,4.44,0,0,1-1.76,1.5,7.2,7.2,0,0,1-3.13.83,5.39,5.39,0,0,1-2.89-.69c-1.29-.73-2-1.13-2.27-1.23a2.3,2.3,0,0,0-1.91-.09,1.33,1.33,0,0,0-.72,1,2.17,2.17,0,0,0,.29,1.43,11.47,11.47,0,0,0,2.28,2.94,5.87,5.87,0,0,0,2.51,1.64,7.82,7.82,0,0,0,2.67-.17,21.61,21.61,0,0,0,3.59-1,.62.62,0,0,1,.54,0,1.6,1.6,0,0,1,.46.61l.45.87c.26.49.51.78.76.86a1.62,1.62,0,0,0,1.12-.27l1.57-.83c.49-.25.77-.5.85-.75a1.69,1.69,0,0,0-.28-1.12l-.45-.86a1.27,1.27,0,0,1-.23-.76c0-.15.21-.32.54-.52a9.75,9.75,0,0,0,2.51-2.41,12.06,12.06,0,0,0,1.77-3.31,7.26,7.26,0,0,0-.46-6A6.78,6.78,0,0,0,692.64,135Z" transform="translate(-119.23 -65.89)"/><path class="cls-20" d="M192.62,414.52a16,16,0,0,0-6.59,1.06,38.06,38.06,0,0,1-4.51,1.43,2.37,2.37,0,0,1-2.42-.84,2,2,0,0,1-.34-1.66,2.65,2.65,0,0,1,1.1-1.54,6.91,6.91,0,0,1,5-1.15,36.25,36.25,0,0,0,3.65.32,2.62,2.62,0,0,0,2.33-2.21,2.92,2.92,0,0,0-.63-2.08,7.52,7.52,0,0,0-4-2.61q-2.58-.83-3.63-.06a5.14,5.14,0,0,0-1,1.15,2,2,0,0,1-.45.51,2.38,2.38,0,0,1-.62.3c-.68.23-1.13.39-1.34.49a6.23,6.23,0,0,1-1.54.62c-.18,0-.43-.21-.73-.64l-.69-.95c-.38-.52-.72-.81-1-.86a1.86,1.86,0,0,0-1.22.49l-1.66,1.2c-.53.38-.81.72-.86,1a1.88,1.88,0,0,0,.5,1.23l.67.93a1.6,1.6,0,0,1,.4.8c0,.15-.2.42-.57.8a10.82,10.82,0,0,0-2.69,5.39,8.64,8.64,0,0,0,1.36,7.09q3.91,5.4,12.93,2.75c2.53-.72,4-1.11,4.32-1.16a2.24,2.24,0,0,1,2.24.73,1.73,1.73,0,0,1,.07,1.81,5.11,5.11,0,0,1-1.77,2,8,8,0,0,1-3.43,1.48,6.36,6.36,0,0,1-3.43-.3c-1.59-.62-2.52-1-2.79-1a2.69,2.69,0,0,0-2.2.21,1.5,1.5,0,0,0-.67,1.22,2.58,2.58,0,0,0,.56,1.6,13.6,13.6,0,0,0,3.1,3,6.78,6.78,0,0,0,3.15,1.45,8.54,8.54,0,0,0,3-.63,24.48,24.48,0,0,0,3.95-1.73.78.78,0,0,1,.62-.13,1.79,1.79,0,0,1,.61.63l.66.9q.57.8,1,.87a1.89,1.89,0,0,0,1.23-.51l1.66-1.2c.52-.37.8-.7.85-1a1.89,1.89,0,0,0-.51-1.23l-.65-.91a1.59,1.59,0,0,1-.4-.83c0-.18.2-.41.53-.69a11.09,11.09,0,0,0,2.47-3.17,13.37,13.37,0,0,0,1.47-4.08,8.43,8.43,0,0,0-1.53-6.82A7.87,7.87,0,0,0,192.62,414.52Z" transform="translate(-119.23 -65.89)"/><path class="cls-20" d="M878.5,411.46a18.17,18.17,0,0,0-5.25-5.54,43.19,43.19,0,0,1-4.26-3.35,2.69,2.69,0,0,1-.77-2.83,2.26,2.26,0,0,1,1.35-1.4,3.07,3.07,0,0,1,2.17.05,8,8,0,0,1,4.34,4c1.08,2.05,1.77,3.28,2,3.66a2.72,2.72,0,0,0,1.33.91,2.68,2.68,0,0,0,2.27-.13,3.37,3.37,0,0,0,1.56-1.94,8.64,8.64,0,0,0-.11-5.47c-.6-2-1.36-3.13-2.29-3.47a6,6,0,0,0-1.72-.17,2.2,2.2,0,0,1-.77-.1,3.26,3.26,0,0,1-.69-.39c-.65-.5-1.09-.81-1.32-.95a7.41,7.41,0,0,1-1.58-1.06c-.11-.17-.07-.54.13-1.1l.45-1.26a2.1,2.1,0,0,0,.16-1.52,2.06,2.06,0,0,0-1.24-.83l-2.21-.8a2.22,2.22,0,0,0-1.52-.16,2.16,2.16,0,0,0-.84,1.27l-.45,1.24c-.18.51-.34.81-.49.89a2.17,2.17,0,0,1-1.13,0,12.31,12.31,0,0,0-6.83.93,9.9,9.9,0,0,0-5.83,5.87q-2.58,7.17,5.75,14c2.32,1.93,3.61,3,3.88,3.33a2.56,2.56,0,0,1,.76,2.59,2,2,0,0,1-1.67,1.24,5.89,5.89,0,0,1-3-.38,9.38,9.38,0,0,1-3.62-2.29,7.19,7.19,0,0,1-1.92-3.44c-.45-1.91-.73-3-.84-3.3a3.06,3.06,0,0,0-1.61-1.95,1.75,1.75,0,0,0-1.59.16,2.85,2.85,0,0,0-1.14,1.56,15.19,15.19,0,0,0-.81,4.85,7.77,7.77,0,0,0,.66,3.92,10.13,10.13,0,0,0,2.55,2.44,27.29,27.29,0,0,0,4.18,2.62c.3.15.48.32.52.5a2.15,2.15,0,0,1-.19,1l-.44,1.21a2.19,2.19,0,0,0-.16,1.51,2.21,2.21,0,0,0,1.27.85l2.21.79a2.06,2.06,0,0,0,1.49.15c.31-.14.59-.57.85-1.27l.43-1.21a1.72,1.72,0,0,1,.54-.91,1.55,1.55,0,0,1,1,.06,12.86,12.86,0,0,0,4.6.29,16.14,16.14,0,0,0,4.81-1.24,9.69,9.69,0,0,0,5.46-5.85A9,9,0,0,0,878.5,411.46Z" transform="translate(-119.23 -65.89)"/><path class="cls-1" d="M231,509.45a7.43,7.43,0,0,0,7.42,7.42h80.06V502H238.41A7.42,7.42,0,0,0,231,509.45Z" transform="translate(-119.23 -65.89)"/><path class="cls-12" d="M117.82,435h79.82a0,0,0,0,1,0,0v16.93a0,0,0,0,1,0,0h-80a5.83,5.83,0,0,1-5.83-5.83v-5A6.06,6.06,0,0,1,117.82,435Z"/><rect class="cls-14" x="112.93" y="437.61" width="84.95" height="0.51"/><rect class="cls-14" x="111.76" y="439.95" width="86.12" height="0.51"/><rect class="cls-14" x="110.56" y="442.3" width="87.33" height="0.51"/><rect class="cls-14" x="110.8" y="444.64" width="87.08" height="0.51"/><rect class="cls-14" x="111.15" y="446.99" width="86.73" height="0.51"/><rect class="cls-14" x="112.93" y="449.33" width="84.95" height="0.51"/><path class="cls-7" d="M270.68,516.87a7.42,7.42,0,1,1,0-14.83h47.79v-2.49H238.41a9.91,9.91,0,1,0,0,19.81h80.06v-2.49Z" transform="translate(-119.23 -65.89)"/><path class="cls-1" d="M233.15,489.65a7.43,7.43,0,0,0,7.42,7.42h80.06V482.23H240.57A7.43,7.43,0,0,0,233.15,489.65Z" transform="translate(-119.23 -65.89)"/><path class="cls-12" d="M319,498H241.55a8.4,8.4,0,0,1-8.4-8.39h0a8.54,8.54,0,0,1,8.54-8.54H319Z" transform="translate(-119.23 -65.89)"/><rect class="cls-14" x="115.09" y="417.8" width="84.95" height="0.51"/><rect class="cls-14" x="113.92" y="420.15" width="86.12" height="0.51"/><rect class="cls-14" x="112.72" y="422.49" width="87.33" height="0.51"/><rect class="cls-14" x="112.96" y="424.84" width="87.09" height="0.51"/><rect class="cls-14" x="113.31" y="427.18" width="86.73" height="0.51"/><rect class="cls-14" x="115.09" y="429.53" width="84.95" height="0.51"/><path class="cls-18" d="M270.68,497a7.42,7.42,0,0,1,0-14.84l49.95.1v-2.49H240.57a9.91,9.91,0,0,0,0,19.82h80.06v-2.49Z" transform="translate(-119.23 -65.89)"/><path class="cls-1" d="M222.77,530.63a8.63,8.63,0,0,0,8.62,8.62h93V522h-93A8.63,8.63,0,0,0,222.77,530.63Z" transform="translate(-119.23 -65.89)"/><path class="cls-12" d="M322.5,540.35h-90a9.76,9.76,0,0,1-9.75-9.75h0a9.91,9.91,0,0,1,9.91-9.91H322.5Z" transform="translate(-119.23 -65.89)"/><rect class="cls-14" x="104.9" y="457.87" width="98.65" height="0.51"/><rect class="cls-14" x="103.54" y="460.59" width="100.01" height="0.51"/><rect class="cls-14" x="102.14" y="463.31" width="101.41" height="0.51"/><rect class="cls-14" x="102.42" y="466.04" width="101.13" height="0.51"/><rect class="cls-14" x="102.83" y="469.38" width="100.72" height="0.51"/><rect class="cls-14" x="104.9" y="472.1" width="98.65" height="0.51"/><path class="cls-4" d="M264.91,539.25a8.62,8.62,0,0,1,0-17.23h59.44v-2.89h-93a11.51,11.51,0,1,0,0,23h93v-2.89Z" transform="translate(-119.23 -65.89)"/><path class="cls-21" d="M426.71,375.39c0,7.15-2.42,15.14-9.69,12.95a13,13,0,0,1-9.69-12.95c0-7.16,4.34-13,9.69-13C426.71,362.43,426.71,368.23,426.71,375.39Z" transform="translate(-119.23 -65.89)"/><path class="cls-14" d="M424.68,428.46l3-1.32a197.5,197.5,0,0,0,14.06,25.67l1.46,1.33-4.48,4.24s-7.33-3.88-9.48-7.63S424.68,428.46,424.68,428.46Z" transform="translate(-119.23 -65.89)"/><path class="cls-21" d="M440.06,454.86a21.28,21.28,0,0,1,6.42,1.46c2.54,1.21,3.63,1.69,4.36,3s-.85,1.69-5.39,1.57-7.57-5-7.57-5Z" transform="translate(-119.23 -65.89)"/><path class="cls-21" d="M404,477.15a21.21,21.21,0,0,1-4.82-1.36c-1.91-.91-3.72-2.36-6.72-.64s-14.53,7.27-14.53,7.72S376,485,380.35,484.6,404,483.15,404,483.15Z" transform="translate(-119.23 -65.89)"/><path class="cls-7" d="M411.45,441.18h17.8s1.33,7.54,4.69,10,14,10.63,27.89,12.72,14.35,3.36,14.63,9.72S467.46,482,458,483s-55.69.91-55.69.91v-9.26l12.19.27s-6.1-6.44-6.74-13.94S411.49,449.17,411.45,441.18Z" transform="translate(-119.23 -65.89)"/><polygon class="cls-15" points="343.81 397.35 364.54 369.47 361.73 367.38 342.74 392.92 310.02 392.92 310.02 398.19 343.01 398.19 343.12 398.27 343.19 398.19 343.81 398.19 343.81 397.35"/><path class="cls-6" d="M399.88,477.42v-4.63s-5.72-4.45-11,0a129.11,129.11,0,0,1-12,8.72s-3.91,3.18,0,3.91,4.82-2.85,10.62-5.69C393,477.06,393,477.06,399.88,477.42Z" transform="translate(-119.23 -65.89)"/><path class="cls-21" d="M417,384.22s-.43,9.34.26,14.41-8.8,2.23-8.8,2.23l.36-7.23,2.7-11.22Z" transform="translate(-119.23 -65.89)"/><path class="cls-15" d="M423.32,364.48s-1.36,10.91,3.45,11.09,1.73-8.48-1.81-13.14-12.27-5.58-18.53-2.12-14,15.53-13,32.24,4.26,23,9.53,24.71,12.18,2.82,13.27-3.45-7.18-6.09-8.63-10.54.66-4.54,3.69-6.54,6.21-8.9,3.21-12.81-5.72-10.35-.82-8.35C417.14,377.2,423.32,364.48,423.32,364.48Z" transform="translate(-119.23 -65.89)"/><path class="cls-22" d="M401.36,400.61s4.13-.49,6.54-1a2.14,2.14,0,0,0,.66-.2,15.44,15.44,0,0,0,5.15,1.24c2.94-.15,3.52-2.25,3.52-2.25l1.45.37,11.87,14.59s4.3,4.06,0,11.57l-1.3,1.09s-1.06,0-.76,2.06,2.24,12,4.79,15.78S411,445.54,411,445.54s1.58-10.69-.24-15.11-6.9-4.76-9.39-12.14S396.7,403,401.36,400.61Z" transform="translate(-119.23 -65.89)"/><path class="cls-21" d="M426.74,436.7l28.61-14.49a5.33,5.33,0,0,0,4.33-3.32c1.09-3,3.76-5.57,2.79-2.78s-2,5.33.2,3.27,3.66-2.09,5.84-2.73,2.92.79.38,3a18.29,18.29,0,0,1-8.51,4.71c-3.85,1.11-26,14.74-32.82,18.93a2.84,2.84,0,0,1-3.7-.67l.82-1.17Z" transform="translate(-119.23 -65.89)"/><path class="cls-14" d="M419.23,421.07c10.29,12.36,12.55,21.84,7.26,22.65-6.29,1-10.05-5.33-18.45-17.12-7.33-10.3-9.93-20.8-7.2-24.37C405.41,396.26,414.52,407.75,419.23,421.07Z" transform="translate(-119.23 -65.89)"/><rect class="cls-12" x="313.09" y="505.61" width="22.53" height="37.67" rx="4.4" transform="translate(-250.17 42.67) rotate(-15.85)"/><rect class="cls-14" x="317.83" y="506.75" width="5.08" height="37.67" transform="translate(-250.63 41.63) rotate(-15.85)"/><path class="cls-12" d="M314,511,315,514.8a2.19,2.19,0,1,0,4.21-1.2l-1.08-3.8A2.19,2.19,0,1,0,314,511Z" transform="translate(-119.23 -65.89)"/><rect class="cls-14" x="330.1" y="515.41" width="0.73" height="25.09" transform="translate(-250.89 44.48) rotate(-15.85)"/><rect class="cls-14" x="327.85" y="516.04" width="0.73" height="25.09" transform="translate(-251.15 43.88) rotate(-15.85)"/><rect class="cls-14" x="325.72" y="516.65" width="0.73" height="25.09" transform="translate(-251.39 43.32) rotate(-15.85)"/><path class="cls-8" d="M511,83.26c0,.56-.74,19.55-5.54,22.06l16-1Z" transform="translate(-119.23 -65.89)"/><path class="cls-8" d="M483.52,241.88a4.27,4.27,0,0,0-1.65,2.65c-.34,2.7-.92,7.08.49,10.66s3.87,9,7.69-.86-.18-12.61-1.38-13S483.52,241.88,483.52,241.88Z" transform="translate(-119.23 -65.89)"/><path class="cls-8" d="M503.36,245.21a4.3,4.3,0,0,0-1.05,2.94c.23,2.72.58,7.12,2.71,10.33s5.67,7.94,7.34-2.46-2.83-12.29-4.07-12.37S503.36,245.21,503.36,245.21Z" transform="translate(-119.23 -65.89)"/><path class="cls-21" d="M479.43,194.54s2.21,34.07,2.77,39.89,1.38,11.08,1.38,11.08-.37,8,1.94,8.13,3.7-6.93,3.6-8,.47-6.64,0-8.21,1.29-17.46,2.12-21.8,1.2-14.86,0-19.3S479.43,194.54,479.43,194.54Z" transform="translate(-119.23 -65.89)"/><path class="cls-21" d="M492.78,198.61s7.45,33.32,8.9,39,3.08,10.73,3.08,10.73.88,8,3.17,7.73,2.58-7.41,2.32-8.5-.56-6.64-1.27-8.12-1.42-17.44-1.27-21.85-1.11-14.88-3-19.07S492.78,198.61,492.78,198.61Z" transform="translate(-119.23 -65.89)"/><path class="cls-23" d="M512.46,169.19l-24,6.79s-8.87,2.77-9.94,12.19-.38,10.25.66,10.39,8.7-.25,10.85,0a51.72,51.72,0,0,1,6.25.93,10.52,10.52,0,0,0,11.16-3.8c2.9-3.71,1.66-2.5,14.27-3.6s20.49-2.08,25.9-7.9,3.85-15,3.85-15Z" transform="translate(-119.23 -65.89)"/><path class="cls-21" d="M537.61,102.63a7.49,7.49,0,0,0-.87-.83,18.08,18.08,0,0,0,4.6-12.33c0-9.14-6.17-16.55-13.78-16.55s-13.78,7.41-13.78,16.55c0,7.56,4.22,13.92,10,15.91L521,117l7.55,6.37,10.05-4.92,8-8.52A32.4,32.4,0,0,1,537.61,102.63Z" transform="translate(-119.23 -65.89)"/><path class="cls-12" d="M509.63,113.92s1.68-8.46,7.66-8.59,6.32.7,6.32.7-1.14,13.35,3.95,14.36,14.49-13.48,14.49-13.48,6.64-.93,9.78,1.56,5.72,2.68,9.88,19.72,4.71,21.61-1.25,29.92A124.61,124.61,0,0,1,548,172.79l-5-6.37s11.36-13.71,11.91-14.41,2.49-2.21,1.38-6.92S551,133.18,551,133.18s-1.94,10.38-3.46,12.6-1.94,3.6-1,6.1,6.37,8.86,6,18.14l-41.74.28s5.3-11.22,6.27-16.21a35.86,35.86,0,0,0,.7-7.62c.14-1,.14-8.17-2.08-8.86a2.45,2.45,0,0,0-3.05,1.45s-2.17,2.84-1.84,10.18-10.76,3.19-10.76,3.19S508.52,121.4,509.63,113.92Z" transform="translate(-119.23 -65.89)"/><path class="cls-8" d="M519,68.21c-.82.3-11.63,7.2-10.8,18.29s21,6.37,21,6.37V86.22l3.18,7.64s-.89-6.12,1.95-5.43,2.08,4.49,1.38,5.43a4.66,4.66,0,0,0-.06,4.89c1.1,1.94.71,7.28.71,7.28L556,104.29s-7.55-9.48-8-18.42S542.78,59.62,519,68.21Z" transform="translate(-119.23 -65.89)"/><polygon class="cls-20" points="408.14 111.2 366.58 111.2 359.26 83.86 400.81 83.86 408.14 111.2"/><path class="cls-20" d="M516.53,137.52s11.06,6.3,21.4,3,8.68-18.74,8.68-18.74,2.49,8.25,3.94,10.79c2.25,3.91-5.08,15.61-4.42,17.61,1.4,4.2,1.88,3.5,3.77,7.81,3.21,3.21,2.67,12.06,2.67,12.06l-19.9.13s12.83-4.35,10.34-9.71-7.21-7.76-12.93-8.5S518.9,145.77,516.53,137.52Z" transform="translate(-119.23 -65.89)"/><path class="cls-21" d="M547,166.22a76.06,76.06,0,0,1-6.1,5s-10.66,1.11-12.6,4.85S540.64,178,540.64,178l9-8.28Z" transform="translate(-119.23 -65.89)"/><path class="cls-12" d="M551.83,108.34c3.14,2.5,5.72,2.68,9.88,19.72s4.71,21.61-1.25,29.92A124.61,124.61,0,0,1,548,172.66l-5-6.37s11.36-13.71,11.91-14.41,2.49-2.21,1.38-6.92S551,133.05,551,133.05,548.69,105.85,551.83,108.34Z" transform="translate(-119.23 -65.89)"/><polygon class="cls-22" points="406.83 111.2 365.28 111.2 357.96 83.86 399.51 83.86 406.83 111.2"/><rect class="cls-22" x="365.28" y="111.2" width="63.06" height="2.68"/><path class="cls-4" d="M638.68,432.12a.67.67,0,0,1,.67.68.71.71,0,0,1-.57.77c-15,1.44-33.42,7.78-48.2,33.35-13.63,23.6-7.3,66.22-6.32,72.17a.74.74,0,0,1-.49.84h0a.63.63,0,0,1-.74-.57,196.22,196.22,0,0,1-2.34-26.43c-.26-13.91,1.06-33.31,8.86-46.81C604.56,440.12,623.38,433.59,638.68,432.12Z" transform="translate(-119.23 -65.89)"/><path class="cls-4" d="M572.58,496c5.12.7,9.06,3.41,8.79,6s-4.64,4.22-9.76,3.51-9.06-3.41-8.8-6S567.45,495.27,572.58,496Z" transform="translate(-119.23 -65.89)"/><path class="cls-4" d="M588.67,501.71c3.26,1.84,5.33,4.71,4.62,6.41s-3.93,1.58-7.2-.26-5.33-4.71-4.62-6.41S585.4,499.87,588.67,501.71Z" transform="translate(-119.23 -65.89)"/><path class="cls-4" d="M574.62,480.8c5,1.41,8.64,4.65,8.1,7.23s-5,3.54-10.05,2.13-8.64-4.65-8.1-7.24S569.61,479.39,574.62,480.8Z" transform="translate(-119.23 -65.89)"/><path class="cls-4" d="M591.81,491.2c3.6,3.12,5.6,7.09,4.46,8.87s-5,.69-8.6-2.44-5.6-7.09-4.46-8.87S588.2,488.07,591.81,491.2Z" transform="translate(-119.23 -65.89)"/><path class="cls-4" d="M579.74,468.84c4.17,3.12,6.59,7.37,5.41,9.5s-5.52,1.33-9.69-1.79-6.58-7.37-5.4-9.5S575.58,465.72,579.74,468.84Z" transform="translate(-119.23 -65.89)"/><path class="cls-4" d="M593.62,481c3.08,3.41,4.55,7.44,3.27,9s-4.81,0-7.89-3.37-4.55-7.44-3.28-9S590.53,477.56,593.62,481Z" transform="translate(-119.23 -65.89)"/><path class="cls-4" d="M585.91,458.34c3,3.71,4.24,8.07,2.72,9.74s-5.2,0-8.23-3.67-4.25-8.07-2.73-9.74S582.88,454.64,585.91,458.34Z" transform="translate(-119.23 -65.89)"/><path class="cls-4" d="M598,471.67c3,3.7,4.25,8.06,2.73,9.74s-5.21,0-8.23-3.68-4.25-8.06-2.73-9.74S595,468,598,471.67Z" transform="translate(-119.23 -65.89)"/><path class="cls-4" d="M587.86,445.44c1.62-.81,4.15,1.84,5.66,5.92s1.42,8-.19,8.83-4.15-1.84-5.66-5.92S586.25,446.25,587.86,445.44Z" transform="translate(-119.23 -65.89)"/><path class="cls-4" d="M601.8,462.45c2.9,2.88,4.33,6.47,3.19,8s-4.42.47-7.32-2.41-4.33-6.47-3.19-8S598.89,459.57,601.8,462.45Z" transform="translate(-119.23 -65.89)"/><path class="cls-4" d="M595.14,440c1.39-.7,3.55,1.53,4.83,5s1.18,6.8-.21,7.49-3.55-1.53-4.83-5S593.75,440.67,595.14,440Z" transform="translate(-119.23 -65.89)"/><path class="cls-4" d="M606.19,454.77c2.58,2.24,3.95,5.2,3,6.61s-3.73.73-6.32-1.51-3.95-5.2-3-6.61S603.6,452.53,606.19,454.77Z" transform="translate(-119.23 -65.89)"/><path class="cls-4" d="M602,436.25c1.25-.62,3.09,1.12,4.11,3.88s.85,5.51-.4,6.14-3.09-1.12-4.11-3.88S600.78,436.88,602,436.25Z" transform="translate(-119.23 -65.89)"/><path class="cls-4" d="M611.15,448.92c1.79,2.19,2.43,4.84,1.45,5.92s-3.23.2-5-2-2.43-4.83-1.45-5.92S609.37,446.74,611.15,448.92Z" transform="translate(-119.23 -65.89)"/><path class="cls-4" d="M609.41,432.14c1.32-.36,2.84,1.57,3.39,4.32s-.07,5.27-1.4,5.62-2.85-1.57-3.4-4.32S608.08,432.49,609.41,432.14Z" transform="translate(-119.23 -65.89)"/><path class="cls-4" d="M616.76,444.22c1.67,2,2.23,4.59,1.24,5.67s-3.15.31-4.82-1.73-2.22-4.59-1.24-5.68S615.09,442.17,616.76,444.22Z" transform="translate(-119.23 -65.89)"/><path class="cls-4" d="M616.1,429.43c1.12-.3,2.41,1.43,2.9,3.85s0,4.64-1.14,4.94-2.41-1.42-2.9-3.85S615,429.74,616.1,429.43Z" transform="translate(-119.23 -65.89)"/><path class="cls-4" d="M622.4,440.63c1.4,1.9,1.82,4.13,1,5s-2.7,0-4.09-1.86-1.83-4.12-1-5S621,438.74,622.4,440.63Z" transform="translate(-119.23 -65.89)"/><path class="cls-4" d="M622.81,428.09c.88-.23,1.91,1.2,2.32,3.21s0,3.83-.86,4.07-1.92-1.2-2.32-3.21S621.93,428.33,622.81,428.09Z" transform="translate(-119.23 -65.89)"/><path class="cls-4" d="M627.4,438.55c1,1.72,1.17,3.58.41,4.16s-2.15-.35-3.13-2.07-1.16-3.58-.41-4.16S626.43,436.83,627.4,438.55Z" transform="translate(-119.23 -65.89)"/><path class="cls-4" d="M628.35,427.81c.72-.19,1.57,1,1.9,2.63s0,3.13-.71,3.32-1.56-1-1.89-2.62S627.63,428,628.35,427.81Z" transform="translate(-119.23 -65.89)"/><path class="cls-4" d="M632.15,436.56c.8,1.41,1,2.94.34,3.41s-1.77-.29-2.57-1.7-.95-2.93-.33-3.4S631.35,435.15,632.15,436.56Z" transform="translate(-119.23 -65.89)"/><path class="cls-4" d="M632.71,427.65c.56-.11,1.2,1,1.41,2.57s-.09,2.84-.65,2.95-1.2-1-1.41-2.57S632.14,427.75,632.71,427.65Z" transform="translate(-119.23 -65.89)"/><path class="cls-4" d="M635.81,435.46c.8,1.23,1.09,2.55.63,3s-1.48-.26-2.29-1.48-1.09-2.55-.64-3S635,434.24,635.81,435.46Z" transform="translate(-119.23 -65.89)"/><path class="cls-4" d="M636,428c.48-.09,1,.9,1.2,2.22s-.06,2.46-.54,2.55-1-.91-1.2-2.23S635.56,428.11,636,428Z" transform="translate(-119.23 -65.89)"/><path class="cls-4" d="M638.49,434.61c.7,1.06,1,2.2.57,2.54s-1.27-.24-2-1.3-1-2.19-.57-2.53S637.79,433.55,638.49,434.61Z" transform="translate(-119.23 -65.89)"/><path class="cls-4" d="M640.7,431.52c1.13-.21,2.12.07,2.19.62s-.78,1.18-1.91,1.39-2.12-.07-2.2-.62S639.57,431.73,640.7,431.52Z" transform="translate(-119.23 -65.89)"/><path class="cls-15" d="M545,454.45c-4.14-10.62.83-9.51,6.2-23.45S561,402.33,561,402.33s3.26,14.74,11,26.06,6.07,8.82,10.28,15,1.58,9.57,0,18-11.39,11.39-10.56,22.15,7.17,11.59,10.21,24-14.35,13.79-14.35,13.79-15.45,0-15.44-3.86-8.28-13.52-10.62-23.17,4.82-17.11,7-23.67S549.09,465.08,545,454.45Z" transform="translate(-119.23 -65.89)"/><path class="cls-24" d="M562.39,457.87c.39-1.95.87-3.8,1.34-5.58,1.71-6.49,3.18-12.09-.34-19.61-4.56-9.74-2.46-29.22-2.39-30.35,0,0-1.39,20.46,3.09,30,3.63,7.76,2,13.77.39,20.12-.47,1.78-1,3.62-1.34,5.54a72.41,72.41,0,0,1-3.54,11.24c-1.79,4.77-3.49,9.28-3.82,14.05-.44,6.49,3.18,11.94,7.76,18.83,1.33,2,2.71,4.08,4.09,6.32,6.17,10.1-2.62,17.53-2.71,17.6l-.49-.59a14.88,14.88,0,0,0,3.5-4.72c1.8-3.89,1.48-7.89-1-11.89-1.37-2.23-2.74-4.3-4.07-6.3-4.48-6.73-8.34-12.55-7.88-19.3.33-4.89,2.05-9.45,3.86-14.27A70.84,70.84,0,0,0,562.39,457.87Z" transform="translate(-119.23 -65.89)"/><path class="cls-24" d="M573.09,459.91c3.52-1.91,3.43-6,3.35-9.24,0-.88,0-1.72,0-2.44a.12.12,0,0,1,.13-.12.12.12,0,0,1,.12.14c-.05.71,0,1.54,0,2.42.07,3.33.17,7.48-3.49,9.46-4.49,2.43-12.7,6.23-12.78,6.26l0,0a.13.13,0,0,1-.12-.08.13.13,0,0,1,.06-.17C560.41,466.12,568.61,462.33,573.09,459.91Z" transform="translate(-119.23 -65.89)"/><path class="cls-24" d="M553.59,432.19l.25-.05a16.17,16.17,0,0,1-.21,6.86,12.75,12.75,0,0,0,0,8.47c.66,2.2,2.17,2.56,4.08,3a16,16,0,0,1,2.59.77c3,1.25,3.54,2.82,3.56,2.88l-.24.08s-.5-1.53-3.42-2.73a17.34,17.34,0,0,0-2.55-.76c-1.91-.45-3.57-.84-4.27-3.18a13,13,0,0,1,0-8.63A15.75,15.75,0,0,0,553.59,432.19Z" transform="translate(-119.23 -65.89)"/><path class="cls-24" d="M564.14,491.73c-.07-.45-.18-1-.31-1.65a27.49,27.49,0,0,1-.61-10.1c.79-5.07,5.13-9.52,5.17-9.57l.19.18c-.05,0-4.33,4.45-5.11,9.43a27.48,27.48,0,0,0,.61,10c.13.65.24,1.21.31,1.66.32,2.23-4.69,4.08-4.9,4.15l-.09-.24C559.45,495.58,564.42,493.75,564.14,491.73Z" transform="translate(-119.23 -65.89)"/><path class="cls-24" d="M546.55,493.29a12.36,12.36,0,0,0,2.14,5.22,17.69,17.69,0,0,1,1,1.78c.83,1.74,3.31,2.74,7.57,3a42,42,0,0,0,6.45,0l0,.25a29.25,29.25,0,0,1-3.13.13c-1,0-2.1,0-3.36-.13-4.42-.32-6.89-1.34-7.78-3.19a18.47,18.47,0,0,0-1-1.76,12.6,12.6,0,0,1-2.17-5.32c-.5-3.4-1.07-7-1.08-7.07l.26,0S546.05,489.88,546.55,493.29Z" transform="translate(-119.23 -65.89)"/><path class="cls-24" d="M475.57,472.51c14.24-4.78,33.35-7,55.51,7.33,11.52,7.44,19.17,22,23.56,32.84a143.32,143.32,0,0,1,6.71,21.38.62.62,0,0,1-.48.73h0a.61.61,0,0,1-.72-.46c-1.11-5-9.61-40.45-29.73-53.46C508.62,466.77,490,469,476,473.66a.61.61,0,1,1-.39-1.15Z" transform="translate(-119.23 -65.89)"/><path class="cls-24" d="M556.29,496.41c4.38-2.53,8.83-3,10-1.06s-1.52,5.56-5.9,8.09-8.83,3-10,1.06S551.92,498.93,556.29,496.41Z" transform="translate(-119.23 -65.89)"/><path class="cls-24" d="M550.13,504.09c1.2,1,.29,4.07-2,6.76s-5.19,4-6.39,3-.3-4.07,2-6.76S548.92,503.05,550.13,504.09Z" transform="translate(-119.23 -65.89)"/><path class="cls-24" d="M549.4,485.45c4-3,8.41-4,9.75-2.25s-.83,5.71-4.87,8.74-8.41,4-9.76,2.24S545.36,488.48,549.4,485.45Z" transform="translate(-119.23 -65.89)"/><path class="cls-24" d="M544.33,494.93c1.62.94,1.14,4.79-1.06,8.6s-5.3,6.15-6.92,5.22-1.14-4.79,1.06-8.61S542.71,494,544.33,494.93Z" transform="translate(-119.23 -65.89)"/><path class="cls-24" d="M548.93,473c1.77,1.19,1,5.42-1.7,9.45s-6.34,6.32-8.11,5.13-1-5.42,1.69-9.45S547.15,471.83,548.93,473Z" transform="translate(-119.23 -65.89)"/><path class="cls-24" d="M538.35,487.26c1.67.71,1.69,4.4,0,8.24s-4.31,6.37-6,5.66-1.69-4.39,0-8.23S536.69,486.55,538.35,487.26Z" transform="translate(-119.23 -65.89)"/><path class="cls-24" d="M538,466.38c1.93.71,2.28,4.56.79,8.6s-4.25,6.74-6.18,6-2.28-4.56-.79-8.6S536,465.67,538,466.38Z" transform="translate(-119.23 -65.89)"/><path class="cls-24" d="M531.52,481.38c1.93.7,2.28,4.55.79,8.6s-4.25,6.74-6.18,6-2.28-4.56-.79-8.6S529.6,480.67,531.52,481.38Z" transform="translate(-119.23 -65.89)"/><path class="cls-24" d="M525.71,463.17c1.72,0,3.12,3,3.12,6.77s-1.4,6.77-3.12,6.77-3.11-3-3.11-6.77S524,463.17,525.71,463.17Z" transform="translate(-119.23 -65.89)"/><path class="cls-24" d="M524.63,477c1.54.76,1.45,4.1-.2,7.45s-4.24,5.46-5.78,4.7-1.46-4.1.19-7.45S523.09,476.28,524.63,477Z" transform="translate(-119.23 -65.89)"/><path class="cls-24" d="M517.35,461.76c1.48,0,2.68,2.56,2.68,5.72s-1.2,5.72-2.68,5.72-2.69-2.56-2.69-5.72S515.86,461.76,517.35,461.76Z" transform="translate(-119.23 -65.89)"/><path class="cls-24" d="M517.52,473.88c1.29.74,1.05,3.55-.53,6.29s-3.9,4.35-5.19,3.61-1-3.56.54-6.29S516.24,473.13,517.52,473.88Z" transform="translate(-119.23 -65.89)"/><path class="cls-24" d="M509.91,461.54c1.33,0,2.41,2,2.41,4.59s-1.08,4.6-2.41,4.6-2.41-2.06-2.41-4.6S508.58,461.54,509.91,461.54Z" transform="translate(-119.23 -65.89)"/><path class="cls-24" d="M509.77,471.4c1.25.46,1.55,2.76.67,5.14s-2.6,3.94-3.85,3.48-1.54-2.76-.67-5.14S508.52,470.94,509.77,471.4Z" transform="translate(-119.23 -65.89)"/><path class="cls-24" d="M501.9,461.2c1.31-.24,2.72,1.47,3.14,3.81s-.3,4.43-1.62,4.67-2.71-1.48-3.13-3.82S500.59,461.43,501.9,461.2Z" transform="translate(-119.23 -65.89)"/><path class="cls-24" d="M503.07,470.19c1.25.46,1.6,2.65.77,4.88s-2.5,3.67-3.75,3.21-1.6-2.65-.77-4.88S501.82,469.73,503.07,470.19Z" transform="translate(-119.23 -65.89)"/><path class="cls-24" d="M495,461.69c1.1-.19,2.3,1.32,2.67,3.39s-.22,3.9-1.32,4.1-2.3-1.32-2.67-3.39S493.88,461.89,495,461.69Z" transform="translate(-119.23 -65.89)"/><path class="cls-24" d="M496.11,469.78c1.07.33,1.43,2.23.81,4.23s-2,3.36-3.07,3-1.43-2.23-.8-4.23S495,469.45,496.11,469.78Z" transform="translate(-119.23 -65.89)"/><path class="cls-24" d="M488.5,463.25c.87-.16,1.82,1.1,2.13,2.82s-.15,3.22-1,3.38-1.83-1.11-2.13-2.82S487.63,463.4,488.5,463.25Z" transform="translate(-119.23 -65.89)"/><path class="cls-24" d="M490,470.31c.87.16,1.33,1.67,1,3.38s-1.26,3-2.13,2.82-1.32-1.67-1-3.38S489.11,470.16,490,470.31Z" transform="translate(-119.23 -65.89)"/><path class="cls-24" d="M483.42,465.17c.71-.13,1.49.91,1.75,2.31s-.13,2.64-.84,2.77-1.49-.91-1.74-2.31S482.71,465.3,483.42,465.17Z" transform="translate(-119.23 -65.89)"/><path class="cls-24" d="M484.66,471.12c.71.12,1.09,1.36.84,2.77s-1,2.43-1.75,2.3-1.08-1.37-.83-2.77S484,471,484.66,471.12Z" transform="translate(-119.23 -65.89)"/><path class="cls-24" d="M479.45,466.73c.55-.14,1.25.77,1.57,2s.13,2.4-.41,2.53-1.25-.77-1.57-2S478.91,466.87,479.45,466.73Z" transform="translate(-119.23 -65.89)"/><path class="cls-24" d="M480.83,472c.55.14.73,1.27.42,2.54s-1,2.17-1.57,2-.73-1.27-.41-2.53S480.29,471.81,480.83,472Z" transform="translate(-119.23 -65.89)"/><path class="cls-24" d="M476.57,468.31c.46-.12,1.06.67,1.34,1.76s.12,2.07-.34,2.19-1.05-.68-1.33-1.77S476.11,468.42,476.57,468.31Z" transform="translate(-119.23 -65.89)"/><path class="cls-24" d="M477.9,472.6c.46.12.61,1.09.34,2.18s-.88,1.88-1.34,1.77-.61-1.1-.33-2.19S477.44,472.48,477.9,472.6Z" transform="translate(-119.23 -65.89)"/><path class="cls-24" d="M473.55,472.82c1.09-.28,2.07-.12,2.19.34s-.68,1-1.77,1.33-2.07.12-2.18-.34S472.46,473.1,473.55,472.82Z" transform="translate(-119.23 -65.89)"/><polygon class="cls-7" points="468.72 486.04 423.52 486.04 414.84 447.89 477.41 447.89 468.72 486.04"/><circle class="cls-6" cx="146.05" cy="189.03" r="26.82" transform="translate(-189.58 224.29) rotate(-77.36)"/><path class="cls-9" d="M160.88,177.71,131.4,188.36a.72.72,0,0,0-.17,1.26l4.41,3,20-10.55-16.94,12.64v5.12a.45.45,0,0,0,.69.37l3.73-2.48,3.67,2.51a.71.71,0,0,0,1-.22l13.34-22A.22.22,0,0,0,160.88,177.71Z" transform="translate(-119.23 -65.89)"/><path class="cls-6" d="M899.71,249.19A16.63,16.63,0,1,1,889.58,228,16.64,16.64,0,0,1,899.71,249.19Z" transform="translate(-119.23 -65.89)"/><path class="cls-9" d="M892.85,241.64l-1.08-.39.39-1.12a.54.54,0,0,0-.26-.66,8.13,8.13,0,0,0-2.39-.77,5.67,5.67,0,0,0-4,.68,5.63,5.63,0,0,0-2.65-3,8.49,8.49,0,0,0-2.35-.91.55.55,0,0,0-.62.35l-.39,1.13-1.09-.39a.55.55,0,0,0-.7.34l-3.45,9.76a.55.55,0,0,0,.51.73c.05,0,4.4,0,6.83,2.4a.56.56,0,0,0,.43.15c3.35-.3,6.77,2.4,6.81,2.43a.51.51,0,0,0,.16.09.53.53,0,0,0,.33,0,.56.56,0,0,0,.37-.35l3.45-9.76A.55.55,0,0,0,892.85,241.64Zm-17.28,4.67,3-8.55.57.2-2.44,6.9a.57.57,0,0,0,0,.46.53.53,0,0,0,.37.26,6.72,6.72,0,0,1,3.64,2.21A13.46,13.46,0,0,0,875.57,246.31ZM882,247.7a6,6,0,0,0-2.34-2.29,8.11,8.11,0,0,0-1.39-.63,3.3,3.3,0,0,0-.34-.11l2.84-8h0c1,.3,3.4,1.27,3.86,3.62Zm3.66-7.07c1.83-1.53,4.3-.78,5.28-.38l-2.84,8a8.83,8.83,0,0,0-1.82-.5,5.85,5.85,0,0,0-3.25.31l2.63-7.44ZM884,248.92a6.64,6.64,0,0,1,4.21.57.53.53,0,0,0,.46,0,.58.58,0,0,0,.32-.33l2.44-6.9.56.2-3,8.55A13.5,13.5,0,0,0,884,248.92Z" transform="translate(-119.23 -65.89)"/></g></svg>