<svg id="Layer_1" data-name="Layer 1" xmlns="http://www.w3.org/2000/svg" xmlns:xlink="http://www.w3.org/1999/xlink" viewBox="0 0 827.81 453.62"><defs><style>.cls-1{fill:none;}.cls-2{fill:#bda7b1;}.cls-3{fill:#8883d7;}.cls-4{fill:#f6e5eb;}.cls-5{fill:#502155;}.cls-6{fill:#f74545;}.cls-7{fill:#feab70;}.cls-8{fill:#f88a37;}.cls-9{fill:#fff;}.cls-10{fill:#fae9ef;}.cls-11{fill:#f2838c;}.cls-12{clip-path:url(#clip-path);}.cls-13{fill:#a66a8c;}.cls-14{clip-path:url(#clip-path-2);}.cls-15{fill:#6c3a6f;}.cls-16{fill:#ee8088;}.cls-17{fill:#f64545;}.cls-18{fill:#f78937;}.cls-19{fill:#ceabbf;}.cls-20{fill:#fec6a2;}.cls-21{fill:#9191e2;}.cls-22{fill:#cfacc0;}.cls-23{fill:#f5e4ea;}</style><clipPath id="clip-path" transform="translate(-81.99 -125.42)"><rect class="cls-1" x="366.43" y="213.5" width="347.61" height="219.6" rx="15.61"/></clipPath><clipPath id="clip-path-2" transform="translate(-81.99 -125.42)"><rect class="cls-1" x="381.24" y="192.24" width="178.23" height="125.89"/></clipPath></defs><title>lovevideo</title><rect class="cls-2" x="184.35" y="435.38" width="77.58" height="11.19" rx="3.02"/><rect class="cls-2" x="650.5" y="412.65" width="52.95" height="11.19" rx="3.02"/><rect class="cls-2" x="609.98" y="442.43" width="52.95" height="11.19" rx="3.02"/><path class="cls-2" d="M209.24,527.66a8.44,8.44,0,1,1-8.44-8.44A8.44,8.44,0,0,1,209.24,527.66Z" transform="translate(-81.99 -125.42)"/><path class="cls-2" d="M779.46,480.13H200.15a9.77,9.77,0,1,0,0,19.54h158a9.78,9.78,0,0,1,0,19.55s-69.45-.06-77.09-.11l-.5,0a9.82,9.82,0,0,0,0,19.63H357.2a9.77,9.77,0,1,0,0,19.54H622.42a9.77,9.77,0,1,0,0-19.54h76.63a9.78,9.78,0,0,0,0-19.55H600.81a9.8,9.8,0,0,1-9.77-9.77h0a9.81,9.81,0,0,1,9.77-9.78H779.46a9.77,9.77,0,0,0,0-19.54ZM445.38,527.58a9.8,9.8,0,0,1-9.77,9.77H419.84a9.81,9.81,0,0,1-9.78-9.77h0a9.81,9.81,0,0,1,9.78-9.78h15.77a9.81,9.81,0,0,1,9.77,9.78Zm117.81-9.78H515.25a9.77,9.77,0,1,1,0-19.54h47.94a9.77,9.77,0,0,1,0,19.54Z" transform="translate(-81.99 -125.42)"/><path class="cls-3" d="M173.06,303.92c14,23.18,52.5,76.13,52.5,76.13s-22.27-59.46-36.29-82.64-25-38.2-33.64-34.71S159,280.73,173.06,303.92Z" transform="translate(-81.99 -125.42)"/><path class="cls-4" d="M228.65,385.74l-2.22-5.92c-.23-.59-22.45-59.77-36.34-82.74-15.1-25-25.65-38.71-34.84-35a5.17,5.17,0,0,0-3,2.71c-2,4.63,3.49,13.27,11.81,26.34,2.5,3.93,5.33,8.39,8.2,13.14h0c13.87,22.94,52.15,75.64,52.54,76.17ZM155.49,263.58a4.27,4.27,0,0,1,.53-.24c8.64-3.47,21.27,15.93,32.44,34.39s27.82,60.65,33.91,76.43c-10.22-14.17-37.32-52.08-48.5-70.57h0c-2.87-4.76-5.71-9.22-8.22-13.16-7.82-12.3-13.47-21.18-11.72-25.24A3.33,3.33,0,0,1,155.49,263.58Z" transform="translate(-81.99 -125.42)"/><path class="cls-3" d="M130,316.85c32.1,31.29,118.65,98.78,118.65,98.78s-54.27-88.67-86.36-120-56.68-50.42-74-39.07S97.87,285.56,130,316.85Z" transform="translate(-81.99 -125.42)"/><path class="cls-4" d="M251.76,419.1l-2.33-3.8c-.54-.89-54.67-89.1-86.47-120.1-19-18.54-31.79-29.2-42.69-35.64-13.42-7.92-24.07-9.07-32.55-3.5-3.44,2.25-5.29,4.79-5.66,7.74C81,272.56,93.36,284,110.55,299.75c5.69,5.23,12.15,11.16,18.71,17.57l.71-.47-.71.47c31.77,31,117.85,98.15,118.72,98.83ZM90.43,256.2c7.55-4,16.74-2.55,28.73,4.53,10.78,6.36,23.46,16.95,42.39,35.4,27.85,27.15,73,98.54,83.86,116-17.16-13.47-86.89-68.56-114.73-95.7-6.59-6.42-13.05-12.36-18.75-17.6C95,283.27,82.82,272.05,83.85,263.9c.32-2.55,2-4.76,5-6.75C89.36,256.81,89.89,256.49,90.43,256.2Z" transform="translate(-81.99 -125.42)"/><path class="cls-3" d="M190.5,290.25c9.76,33,44.2,109.1,44.2,109.1s.7-83.47-9.06-116.51-19.55-54.61-38.38-50.64S180.74,257.21,190.5,290.25Z" transform="translate(-81.99 -125.42)"/><path class="cls-4" d="M235.57,403.4l0-4.07c0-.84.59-83.93-9.08-116.68-10.21-34.56-20.37-55.17-39.47-51.14-3.87.81-6.59,2.33-8.31,4.65-4.87,6.54-.78,18.7,4.87,35.54,1.88,5.61,4,12,6,18.73h0c9.66,32.71,43.88,108.42,44.23,109.18ZM183.3,234.33a15.59,15.59,0,0,1,4.16-1.44c17.63-3.72,27.35,16.43,37.3,50.13,8.38,28.36,9,94.88,9,112.18-7.13-15.95-34-76.78-42.42-105.14h0c-2-6.78-4.14-13.15-6-18.77-5.54-16.5-9.54-28.42-5.06-34.44A8.84,8.84,0,0,1,183.3,234.33Z" transform="translate(-81.99 -125.42)"/><path class="cls-3" d="M216.65,376.17c4.85,19.2,72.89,88.88,72.89,88.88s-25.49-80.74-30.35-99.94-11.38-31.52-30.33-28S211.79,357,216.65,376.17Z" transform="translate(-81.99 -125.42)"/><path class="cls-4" d="M291.48,468.23l-1.06-3.38c-.26-.8-25.55-80.94-30.34-99.9-2.9-11.45-5.9-18.27-10-22.79-5.11-5.6-12.1-7.48-21.37-5.77-20.3,3.74-17.51,21.79-12.92,39.95h0c4.84,19.13,70.28,86.31,73.06,89.16ZM222.38,340a22.68,22.68,0,0,1,6.65-2.2c8.62-1.59,14.83.07,19.54,5.23,4,4.36,6.89,11,9.74,22.26,4.23,16.73,24.38,81,29.28,96.56C275,448.71,221.75,392.67,217.53,376,213,358,212.31,345.35,222.38,340Z" transform="translate(-81.99 -125.42)"/><path class="cls-3" d="M265.56,413.26c5.49,21.71,37.12,74.91,37.12,74.91s-.05-72.9-5.54-94.61-12.44-35.73-31.4-32.23S260.06,391.55,265.56,413.26Z" transform="translate(-81.99 -125.42)"/><path class="cls-4" d="M303.59,491.39v-3.24c0-.73-.11-73.22-5.55-94.75-3.27-12.93-6.5-20.65-10.78-25.82-5.3-6.39-12.39-8.66-21.69-6.95a12.58,12.58,0,0,0-7.9,4.32c-5.55,7.07-1.32,20.74,3.15,35.22,1.37,4.4,2.78,9,3.86,13.26,5.45,21.54,36.88,74.53,37.19,75.06ZM262,363.32a13.11,13.11,0,0,1,3.88-1.29c8.6-1.59,14.89.44,19.81,6.37,4.15,5,7.3,12.58,10.53,25.33,4.74,18.75,5.41,76.67,5.5,91.16-6.69-11.49-30.65-53.35-35.32-71.79h0c-1.09-4.32-2.5-8.9-3.87-13.32-4.19-13.55-8.53-27.56-3.38-34.1A8.77,8.77,0,0,1,262,363.32Z" transform="translate(-81.99 -125.42)"/><path class="cls-3" d="M214,385.41C238.79,397.47,303,482.82,303,482.82s-94.43-61.59-114-73.23-30.65-21.59-18.74-34S194.63,376,214,385.41Z" transform="translate(-81.99 -125.42)"/><path class="cls-4" d="M306.5,486l-2.7-3.6c-2.63-3.49-64.62-85.64-89.36-97.64-4.38-2.13-8.35-4.4-12.18-6.59-12.83-7.34-22.95-13.13-32.66-3-12.09,12.58-1.73,22.72,18.89,35,19.3,11.5,113,72.59,113.94,73.21ZM175.36,372.63c7.26-3.86,15,.57,25.81,6.75,3.86,2.21,7.86,4.49,12.3,6.65h0c21.45,10.41,73.42,77.12,86,93.53C281,467.55,206.59,419.13,189.6,409,169.35,397,159.81,387.69,171,376A17.49,17.49,0,0,1,175.36,372.63Z" transform="translate(-81.99 -125.42)"/><polygon class="cls-4" points="215.99 350.3 194.2 248.66 192.42 248.95 213.27 346.21 99.45 259.42 98.18 260.47 215.99 350.3"/><polygon class="cls-4" points="191.9 319.25 152.65 225.37 150.94 225.86 190.18 319.74 191.9 319.25"/><polygon class="cls-4" points="139.96 214.26 111.89 117.15 110.13 117.52 138.2 214.62 139.96 214.26"/><polygon class="cls-4" points="134.59 253.16 136 252.22 14.51 136.09 13.1 137.03 134.59 253.16"/><polygon class="cls-4" points="132.23 230.62 82.5 148.44 80.87 149.1 130.6 231.27 132.23 230.62"/><path class="cls-5" d="M272.69,352.86a1.73,1.73,0,1,1,.27-1.22l6.51,1.46L274.6,349a1.29,1.29,0,0,1-.68.07,1.34,1.34,0,1,1,1.54-1.1l0,.11,5.27,4.41-1.45-5.28H279a1.77,1.77,0,1,1,1.4-.4l1.57,5.75,2.46-4.73a1.45,1.45,0,1,1,1.2.4l-3.11,6A130.29,130.29,0,0,1,292,371.47c.42-3.47,1.59-10.64,4.16-12.92l-2.76-6a1.15,1.15,0,0,1-.37,0,1.33,1.33,0,0,1-1.11-1.55,1.35,1.35,0,0,1,2.66.44,1.36,1.36,0,0,1-.42.77l2.68,5.84c.41-.28.83-.56,1.25-.82l1.07-6.47a1.58,1.58,0,1,1,.81.13l-1,5.79a46,46,0,0,1,4.53-2.29,1.87,1.87,0,0,1,0-.41,1.5,1.5,0,1,1,.33,1.17,43.43,43.43,0,0,0-6.24,3.36l5.92,1.56a1.27,1.27,0,0,1,.77-.14,1.21,1.21,0,1,1-1.39,1c0-.05,0-.1,0-.16l-6.21-1.64c-2.79,2.32-3.88,11.62-4.1,13.83.9,2.05,1.8,4.22,2.67,6.5.07-.26.14-.53.23-.82a13.17,13.17,0,0,1,4.63-6.13,13.16,13.16,0,0,1,.23,7.68c-1.08,3.41-2.25,4.08-3.45,3.88.36,1.09.72,2.2,1.05,3.33,2.1-3.32,9.08-13.61,16.52-16l-.93-4.94h-.17a1.69,1.69,0,1,1,1-.14l.84,4.43,3.35-4a1.53,1.53,0,0,1-.05-.74,1.62,1.62,0,1,1,1.33,1.86,1.58,1.58,0,0,1-.81-.39l-3.2,3.84,6,0a1.64,1.64,0,1,1-.06.83l-5.63-.05,4.49,3.61a1.35,1.35,0,0,1,1-.22,1.38,1.38,0,0,1-.44,2.72,1.36,1.36,0,0,1-1.06-1.86L315,372.1c-5,1.57-10,7.14-13.22,11.43l8.84,1.45,2-1.82a1.75,1.75,0,0,1,0-.79,1.78,1.78,0,1,1,1.47,2,1.68,1.68,0,0,1-1-.52l-1.58,1.42,4,1.82a1.63,1.63,0,0,1,1.63-.74,1.61,1.61,0,1,1-1.86,1.55l-4.08-1.85.29,3.46a1.3,1.3,0,1,1-.83.06l-.32-3.83-9.13-1.5c-1.4,1.92-2.4,3.49-2.82,4.18a97.11,97.11,0,0,1,2.47,10.83c.06.35.12.71.17,1.08a12.61,12.61,0,0,1,1.26-1.92,13.16,13.16,0,0,1,6.45-4.17,13.11,13.11,0,0,1-2.42,7.29c-2.44,3.15-3.81,3.08-4.92,2.23a124.75,124.75,0,0,1,.14,14.12l12.1-13.05-1.73-4.12h-.19a1.41,1.41,0,0,1,.46-2.79,1.41,1.41,0,0,1,.54,2.58l1.54,3.68,2.54-2.74a1.58,1.58,0,0,1,1.52-2.51,1.58,1.58,0,1,1-.52,3.12,2,2,0,0,1-.35-.1L315,404.63l5.38.51a1.35,1.35,0,1,1-.1.82l-6-.57-12.8,13.8c-.29,6.63-.92,13.88-1.72,21.15a21.68,21.68,0,0,1,2.48-2.14,20.91,20.91,0,0,1,9.21-3.77,20.93,20.93,0,0,1-6.13,7.84c-3.45,2.61-5.09,2.9-6,2.32-.66,5.55-1.39,11-2.14,16.2a45.31,45.31,0,0,1,5.47-4l.53-4.31a1.48,1.48,0,1,1,.82.12l-.44,3.61c1.38-.89,2.63-1.65,3.41-2.12a1.48,1.48,0,0,1-.15-1,1.54,1.54,0,1,1,1.27,1.78,1.4,1.4,0,0,1-.54-.2c-1.17.7-2.46,1.5-3.72,2.31l3.3,1.89a1.54,1.54,0,0,1,1.49-.6,1.57,1.57,0,1,1-1.81,1.37L303,457.5c-2.88,1.89-5.48,3.78-6.07,4.69-1,7.09-2.08,13.49-2.93,18.48a25.67,25.67,0,0,1,4.87-4.53,32.92,32.92,0,0,1,13.66-5.9,33,33,0,0,1-9.29,11.62c-6.34,4.84-8.55,4.5-9.76,2.92a1.07,1.07,0,0,1-.15-.22c-.73,4.14-1.2,6.64-1.23,6.76l-1.22-.23c0-.08.2-1,.51-2.74l-.24.18c-1.64,1.11-3.85.72-8.31-5.89a32.91,32.91,0,0,1-5.09-14,32.85,32.85,0,0,1,11.06,10,24.29,24.29,0,0,1,3.24,6.06c.55-3.12,1.25-7.22,2-12a2.22,2.22,0,0,1-.41.2c-1.33.47-2.82-.32-5-6.36a29.17,29.17,0,0,1-1.49-11.78,29.26,29.26,0,0,1,6.29,10.08,28.7,28.7,0,0,1,1.18,4c.76-4.9,1.56-10.32,2.31-15.95-1.42-2.32-8.34-13.53-13.51-19.6l-5,2a1.16,1.16,0,0,1,0,.32,1.39,1.39,0,1,1-.3-1.09l4.76-1.9a12.1,12.1,0,0,0-3.65-3.14l-.1-.07a1.66,1.66,0,0,1-1.43.47,1.64,1.64,0,1,1,1.88-1.35,1.09,1.09,0,0,1-.05.17l0,0A12.52,12.52,0,0,1,283.3,432l.71-4.35a1.49,1.49,0,1,1,2.11-1.1,1.47,1.47,0,0,1-1.29,1.23l-.83,5c4.82,5.6,11,15.36,13.13,18.9,1-7.6,1.9-15.54,2.5-23.08-1.75-3.06-12.26-20.95-20.65-24.55l-.78-.06-4.09,3.6a1.46,1.46,0,0,1,.06.69,1.48,1.48,0,1,1-1.23-1.7,1.41,1.41,0,0,1,.7.32l3.4-3-5.14-.35a1.51,1.51,0,1,1,.08-.83l5.13.36-3.38-4a1.29,1.29,0,0,1-.65.06,1.36,1.36,0,1,1,1.57-1.12,1.4,1.4,0,0,1-.25.57l3.36,4,.67-5.32a1.59,1.59,0,1,1,1.91-1.3,1.61,1.61,0,0,1-1.07,1.26l-.75,6,.59,0h.07l.06,0c2.78,1.17,5.73,3.79,8.53,6.91.08-1.48.22-4.32.34-7.05l-3.78-1.92a1.35,1.35,0,0,1-.4,0,1.49,1.49,0,1,1,1.71-1.22,1.41,1.41,0,0,1-.38.77l2.89,1.47c.12-2.72.21-5.14.2-5.72h0a1.19,1.19,0,0,1-1-1.37,1.2,1.2,0,0,1,1.37-1,1.19,1.19,0,0,1,.45,2.18.92.92,0,0,0,0,.16c0,.57-.07,2.84-.19,5.43l1.68-1.41a1.41,1.41,0,1,1,1,.76,1.15,1.15,0,0,1-.45-.16L288.94,403c-.15,3.47-.34,7.17-.38,8.05a116,116,0,0,1,11.18,16.07c.17-2.21.31-4.39.42-6.5l-.12.06c-1.24.67-2.62.52-4.5-3a13.14,13.14,0,0,1-1.16-7.59,13.15,13.15,0,0,1,5.66,5.19q.16.3.3.6a89.7,89.7,0,0,0-.73-16.37,99.21,99.21,0,0,0-3.82-15.12c-1.45-1.65-6.85-6.85-18.65-8.35l-3.65,5.23a1.44,1.44,0,0,1,.32,1.16,1.48,1.48,0,1,1-1.22-1.7l.22.07,3.16-4.53-6.56,1.67a1.5,1.5,0,0,1,.07.73,1.53,1.53,0,1,1-1.26-1.75,1.45,1.45,0,0,1,.68.3l6.84-1.74-5.05-2.4a1.51,1.51,0,1,1,.28-.78l5.07,2.4-2.71-5.37a1.54,1.54,0,0,1-.37,0,1.49,1.49,0,1,1,1.14-.3l3.12,6.19c9.85,1.26,15.34,5,17.88,7.29l-.06-.28c-1-2.85-2.1-5.56-3.21-8.09h0c-.41,1-1.31,1.64-4.24.47a10.35,10.35,0,0,1-4.56-4,10.3,10.3,0,0,1,6,.25,9.62,9.62,0,0,1,1.67.82,126.59,126.59,0,0,0-9.13-16.62l-7.4,3.66a1.45,1.45,0,1,1-.19-1.29l6-2.94Z" transform="translate(-81.99 -125.42)"/><path class="cls-6" d="M212.63,424.57c16.71,1,38.29,5.35,59.91,22.52C283.77,456,289.31,468.81,292,478a81.56,81.56,0,0,1,3.11,17.43c0,.26-.29.43-.68.37h0c-.37,0-.68-.3-.7-.55-.22-3.93-2.47-32-22.1-47.61-21.27-16.89-42.33-21.12-58.77-22.1a.83.83,0,0,1-.78-.5C212,424.75,212.25,424.55,212.63,424.57Z" transform="translate(-81.99 -125.42)"/><path class="cls-6" d="M297.08,466.81c5.35-.45,10.37.59,11.22,2.34s-2.8,3.52-8.15,4-10.37-.59-11.21-2.33S291.73,467.27,297.08,466.81Z" transform="translate(-81.99 -125.42)"/><path class="cls-6" d="M288.71,470.41c1.12,1.12-.49,3-3.6,4.22s-6.55,1.27-7.67.15.49-3,3.6-4.22S287.59,469.29,288.71,470.41Z" transform="translate(-81.99 -125.42)"/><path class="cls-6" d="M291.67,456.8c5.08-.92,10.11-.28,11.24,1.42s-2.08,3.84-7.16,4.76-10.11.28-11.24-1.42S286.59,457.72,291.67,456.8Z" transform="translate(-81.99 -125.42)"/><path class="cls-6" d="M284.15,462c1.6,1.18.3,3.8-2.91,5.85s-7.1,2.76-8.7,1.59-.3-3.79,2.9-5.84S282.54,460.86,284.15,462Z" transform="translate(-81.99 -125.42)"/><path class="cls-6" d="M293.65,447.74c1.72,1.41,0,4.21-3.78,6.26s-8.29,2.57-10,1.16,0-4.21,3.78-6.26S291.93,446.33,293.65,447.74Z" transform="translate(-81.99 -125.42)"/><path class="cls-6" d="M279.08,454.67c1.7,1,1,3.68-1.6,5.93s-6.06,3.23-7.75,2.21-1-3.68,1.6-5.93S277.39,453.65,279.08,454.67Z" transform="translate(-81.99 -125.42)"/><path class="cls-6" d="M282.85,439.56c2,1.11,1.6,4-.86,6.42s-6.06,3.51-8.05,2.41-1.6-4,.86-6.42S280.87,438.45,282.85,439.56Z" transform="translate(-81.99 -125.42)"/><path class="cls-6" d="M272.72,448.32c2,1.11,1.6,4-.86,6.42s-6.07,3.52-8.06,2.41-1.6-4,.86-6.42S270.73,447.22,272.72,448.32Z" transform="translate(-81.99 -125.42)"/><path class="cls-6" d="M270,433.46c1.91.53,2.84,3.14,2.08,5.82s-2.91,4.43-4.81,3.89-2.83-3.14-2.07-5.82S268.06,432.92,270,433.46Z" transform="translate(-81.99 -125.42)"/><path class="cls-6" d="M266,443.07c1.55,1,.78,3.39-1.73,5.29s-5.79,2.6-7.34,1.57-.78-3.39,1.72-5.28S264.42,442.05,266,443.07Z" transform="translate(-81.99 -125.42)"/><path class="cls-6" d="M261,429.84c1.63.46,2.45,2.67,1.81,4.94s-2.48,3.73-4.12,3.27-2.45-2.67-1.82-4.94S259.36,429.38,261,429.84Z" transform="translate(-81.99 -125.42)"/><path class="cls-6" d="M258.75,438.59c1.27.93.43,2.88-1.87,4.35s-5.19,1.92-6.46,1-.43-2.87,1.87-4.35S257.48,437.66,258.75,438.59Z" transform="translate(-81.99 -125.42)"/><path class="cls-6" d="M252.82,427.37c1.47.41,2.24,2.22,1.73,4.05s-2.12,3-3.59,2.55-2.24-2.23-1.73-4.05S251.35,427,252.82,427.37Z" transform="translate(-81.99 -125.42)"/><path class="cls-6" d="M250.67,434.41c1.29.71,1.16,2.46-.29,3.9s-3.67,2-5,1.3-1.15-2.47.3-3.9S249.39,433.69,250.67,434.41Z" transform="translate(-81.99 -125.42)"/><path class="cls-6" d="M244,424.64a3.66,3.66,0,0,1,2.7,3.71c0,1.81-1.23,3.08-2.73,2.85a3.67,3.67,0,0,1-2.7-3.71C241.31,425.67,242.53,424.4,244,424.64Z" transform="translate(-81.99 -125.42)"/><path class="cls-6" d="M243.5,431.46c1.29.72,1.24,2.39-.12,3.74s-3.51,1.85-4.8,1.13-1.23-2.39.13-3.74S242.21,430.74,243.5,431.46Z" transform="translate(-81.99 -125.42)"/><path class="cls-6" d="M236.27,422.84a3.19,3.19,0,0,1,2.27,3.26c0,1.6-1,2.73-2.29,2.53a3.19,3.19,0,0,1-2.27-3.25C234,423.78,235,422.64,236.27,422.84Z" transform="translate(-81.99 -125.42)"/><path class="cls-6" d="M235.89,429c1.12.57,1.14,2,0,3.29s-2.89,1.79-4,1.22-1.13-2.05,0-3.29S234.78,428.43,235.89,429Z" transform="translate(-81.99 -125.42)"/><path class="cls-6" d="M228.8,422a2.58,2.58,0,0,1,1.78,2.68c0,1.32-.81,2.27-1.8,2.11a2.59,2.59,0,0,1-1.79-2.68C227,422.73,227.8,421.79,228.8,422Z" transform="translate(-81.99 -125.42)"/><path class="cls-6" d="M229,427.47c.93.39,1.12,1.61.44,2.75a2.61,2.61,0,0,1-2.92,1.36c-.93-.38-1.13-1.61-.45-2.75A2.62,2.62,0,0,1,229,427.47Z" transform="translate(-81.99 -125.42)"/><path class="cls-6" d="M222.79,421.75a2.13,2.13,0,0,1,1.46,2.2c0,1.08-.67,1.85-1.48,1.72a2.12,2.12,0,0,1-1.46-2.19C221.31,422.39,222,421.62,222.79,421.75Z" transform="translate(-81.99 -125.42)"/><path class="cls-6" d="M223,426.4c.76.31.92,1.32.36,2.25a2.14,2.14,0,0,1-2.39,1.11c-.76-.31-.92-1.32-.36-2.25A2.14,2.14,0,0,1,223,426.4Z" transform="translate(-81.99 -125.42)"/><path class="cls-6" d="M218.08,421.63c.63.07,1.23.95,1.33,1.95s-.34,1.76-1,1.69-1.22-.94-1.32-1.94S217.45,421.56,218.08,421.63Z" transform="translate(-81.99 -125.42)"/><path class="cls-6" d="M218.56,425.81c.58.27.55,1.14-.06,1.95s-1.56,1.24-2.14,1-.55-1.14.06-2S218,425.54,218.56,425.81Z" transform="translate(-81.99 -125.42)"/><path class="cls-6" d="M214.58,421.87c.53.06,1,.81,1.12,1.68s-.28,1.52-.81,1.46-1-.81-1.12-1.68S214.05,421.81,214.58,421.87Z" transform="translate(-81.99 -125.42)"/><path class="cls-6" d="M215.19,425.36c.48.23.45,1-.08,1.68s-1.34,1.07-1.82.85-.46-1,.07-1.68S214.7,425.14,215.19,425.36Z" transform="translate(-81.99 -125.42)"/><path class="cls-6" d="M210.33,424.17c1.26.14,2.31.55,2.35.92s-1,.55-2.22.41-2.31-.55-2.35-.92S209.07,424,210.33,424.17Z" transform="translate(-81.99 -125.42)"/><path class="cls-7" d="M277.49,485.15h28.82a8.15,8.15,0,0,1,8.15,8.15v16.8a0,0,0,0,1,0,0H269.34a0,0,0,0,1,0,0V493.3A8.15,8.15,0,0,1,277.49,485.15Z" transform="translate(501.81 869.82) rotate(180)"/><rect class="cls-8" x="264.95" y="477.14" width="53.89" height="8" rx="2.79" transform="translate(501.81 836.87) rotate(180)"/><path class="cls-3" d="M818.73,326.52c-14,23.18-52.51,76.13-52.51,76.13s22.27-59.46,36.29-82.64,25-38.2,33.64-34.71S832.75,303.33,818.73,326.52Z" transform="translate(-81.99 -125.42)"/><path class="cls-4" d="M763.14,408.34l2.22-5.92c.22-.59,22.44-59.77,36.33-82.74,15.11-25,25.65-38.71,34.85-35a5.18,5.18,0,0,1,3,2.71c2,4.63-3.49,13.27-11.8,26.34-2.5,3.94-5.34,8.39-8.21,13.14h0C805.67,349.79,767.39,402.49,767,403Zm73.15-122.16a3.69,3.69,0,0,0-.53-.24c-8.63-3.47-21.27,15.93-32.43,34.39S775.5,381,769.42,396.77c10.21-14.18,37.31-52.09,48.49-70.58h0c2.88-4.76,5.71-9.22,8.22-13.15,7.82-12.3,13.47-21.19,11.72-25.25A3.33,3.33,0,0,0,836.29,286.18Z" transform="translate(-81.99 -125.42)"/><path class="cls-3" d="M861.81,339.46c-32.1,31.29-118.65,98.77-118.65,98.77s54.27-88.67,86.37-120,56.68-50.42,74-39.06S893.91,308.16,861.81,339.46Z" transform="translate(-81.99 -125.42)"/><path class="cls-4" d="M740,441.7l2.33-3.8c.54-.89,54.68-89.1,86.47-120.09,19-18.55,31.79-29.21,42.69-35.65,13.43-7.92,24.07-9.07,32.56-3.5,3.43,2.25,5.28,4.79,5.66,7.75,1.1,8.75-11.31,20.16-28.5,35.94-5.69,5.23-12.14,11.16-18.71,17.57l-.71-.47.71.47c-31.76,31-117.85,98.15-118.72,98.83ZM901.35,278.81c-7.55-4-16.74-2.56-28.73,4.52-10.78,6.36-23.46,16.95-42.39,35.4-27.85,27.15-73,98.54-83.86,116,17.16-13.47,86.89-68.56,114.73-95.7,6.59-6.42,13-12.36,18.75-17.59,16.9-15.53,29.11-26.75,28.08-34.9-.32-2.55-1.95-4.76-5-6.75A18.4,18.4,0,0,0,901.35,278.81Z" transform="translate(-81.99 -125.42)"/><path class="cls-3" d="M801.28,312.85c-9.76,33-44.2,109.1-44.2,109.1s-.7-83.47,9.06-116.51,19.56-54.61,38.39-50.64S811,279.81,801.28,312.85Z" transform="translate(-81.99 -125.42)"/><path class="cls-4" d="M756.22,426l0-4.08c0-.84-.59-83.93,9.08-116.68,10.21-34.56,20.37-55.17,39.47-51.14,3.88.82,6.6,2.34,8.31,4.65,4.87,6.54.79,18.71-4.86,35.54-1.89,5.61-4,12-6,18.74h0c-9.66,32.7-43.88,108.41-44.22,109.17Zm52.26-169.08a15.59,15.59,0,0,0-4.16-1.44c-17.63-3.72-27.35,16.43-37.3,50.13-8.38,28.37-9,94.88-9,112.18,7.13-15.94,34-76.78,42.42-105.13h0c2-6.79,4.14-13.16,6-18.78,5.54-16.5,9.54-28.42,5.07-34.43A8.88,8.88,0,0,0,808.48,256.93Z" transform="translate(-81.99 -125.42)"/><path class="cls-3" d="M775.13,398.78c-4.85,19.19-72.89,88.87-72.89,88.87s25.49-80.74,30.35-99.94,11.38-31.52,30.34-28S780,379.58,775.13,398.78Z" transform="translate(-81.99 -125.42)"/><path class="cls-4" d="M700.3,490.83l1.07-3.37c.25-.81,25.54-80.95,30.34-99.91,2.89-11.45,5.89-18.27,10-22.79,5.11-5.59,12.1-7.48,21.37-5.77,20.3,3.75,17.51,21.79,12.92,39.95h0c-4.84,19.14-70.27,86.31-73.06,89.16Zm69.1-128.24a22.87,22.87,0,0,0-6.65-2.2c-8.62-1.59-14.83.07-19.54,5.24-4,4.35-6.89,11-9.73,22.25-4.24,16.74-24.39,81-29.29,96.56,12.63-13.13,65.84-69.17,70.06-85.83C778.8,380.61,779.48,368,769.4,362.59Z" transform="translate(-81.99 -125.42)"/><path class="cls-3" d="M726.22,435.86c-5.49,21.71-37.12,74.91-37.12,74.91s0-72.89,5.54-94.61,12.44-35.73,31.4-32.23S731.72,414.15,726.22,435.86Z" transform="translate(-81.99 -125.42)"/><path class="cls-4" d="M688.2,514v-3.24c0-.73.11-73.22,5.56-94.75,3.27-12.93,6.49-20.65,10.77-25.81,5.3-6.4,12.4-8.67,21.69-7a12.56,12.56,0,0,1,7.9,4.32c5.55,7.07,1.33,20.74-3.15,35.22-1.36,4.41-2.77,9-3.86,13.26-5.45,21.54-36.87,74.53-37.19,75.06Zm41.54-128.07a13.4,13.4,0,0,0-3.88-1.29c-8.59-1.59-14.89.44-19.81,6.37-4.15,5-7.3,12.58-10.52,25.33-4.75,18.75-5.42,76.67-5.51,91.16,6.69-11.49,30.65-53.35,35.32-71.79h0c1.09-4.32,2.51-8.9,3.87-13.32,4.2-13.55,8.53-27.56,3.39-34.1A8.94,8.94,0,0,0,729.74,385.92Z" transform="translate(-81.99 -125.42)"/><path class="cls-3" d="M777.83,408c-24.84,12.06-89.06,97.41-89.06,97.41s94.43-61.59,114-73.22,30.66-21.6,18.74-34S797.16,398.63,777.83,408Z" transform="translate(-81.99 -125.42)"/><path class="cls-4" d="M685.28,508.64,688,505c2.62-3.49,64.61-85.63,89.35-97.64,4.38-2.13,8.35-4.4,12.18-6.59,12.83-7.34,23-13.13,32.66-3,12.09,12.58,1.73,22.72-18.89,35-19.3,11.5-113,72.6-113.94,73.21Zm131.14-113.4c-7.26-3.87-15,.56-25.81,6.74-3.86,2.21-7.85,4.49-12.29,6.65h0c-21.46,10.41-73.42,77.12-86,93.53,18.43-12,92.87-60.43,109.86-70.54,20.25-12.07,29.79-21.33,18.58-33A17.2,17.2,0,0,0,816.42,395.24Z" transform="translate(-81.99 -125.42)"/><polygon class="cls-4" points="611.82 372.91 633.61 271.26 635.39 271.55 614.54 368.81 728.36 282.02 729.63 283.07 611.82 372.91"/><polygon class="cls-4" points="635.91 341.85 675.16 247.97 676.87 248.46 637.63 342.34 635.91 341.85"/><polygon class="cls-4" points="687.85 236.86 715.91 139.75 717.67 140.12 689.61 237.22 687.85 236.86"/><polygon class="cls-4" points="693.22 275.76 691.81 274.82 813.3 158.69 814.7 159.63 693.22 275.76"/><polygon class="cls-4" points="695.58 253.22 745.3 171.04 746.94 171.7 697.21 253.87 695.58 253.22"/><path class="cls-5" d="M719.09,375.46a1.73,1.73,0,1,0-.27-1.21l-6.5,1.45,4.86-4.07a1.29,1.29,0,0,0,.68.07,1.34,1.34,0,1,0-1.54-1.1l0,.11-5.27,4.41,1.45-5.28h.22a1.74,1.74,0,1,0-2-1.44,1.71,1.71,0,0,0,.6,1l-1.57,5.75-2.46-4.73a1.45,1.45,0,1,0-1.19.4l3.11,6a126.69,126.69,0,0,0-9.46,17.24c-.43-3.47-1.6-10.63-4.17-12.92l2.76-6a1.15,1.15,0,0,0,.37,0,1.35,1.35,0,1,0-1.55-1.11,1.32,1.32,0,0,0,.43.77l-2.69,5.84c-.4-.28-.83-.55-1.25-.82l-1.06-6.47a1.58,1.58,0,1,0-.82.14l1,5.78a48.34,48.34,0,0,0-4.53-2.29,1.41,1.41,0,0,0,0-.41,1.47,1.47,0,1,0-1.22,1.69,1.4,1.4,0,0,0,.89-.52,43.43,43.43,0,0,1,6.24,3.36l-5.92,1.56a1.19,1.19,0,0,0-.77-.13,1.21,1.21,0,1,0,1.39,1s0-.1,0-.16l6.21-1.64c2.79,2.32,3.88,11.62,4.11,13.84-.91,2-1.81,4.21-2.68,6.49-.06-.26-.14-.53-.23-.82a13.11,13.11,0,0,0-4.63-6.13,13.18,13.18,0,0,0-.23,7.68c1.08,3.41,2.26,4.08,3.45,3.88q-.54,1.65-1,3.33c-2.1-3.32-9.08-13.61-16.52-16l.94-4.94h.17a1.68,1.68,0,1,0-1.94-1.38,1.71,1.71,0,0,0,1,1.25l-.84,4.42-3.35-4a1.66,1.66,0,0,0,.06-.74,1.62,1.62,0,1,0-1.34,1.86,1.58,1.58,0,0,0,.81-.39l3.2,3.84-6,0a1.64,1.64,0,1,0,.06.83l5.63,0-4.49,3.61a1.33,1.33,0,0,0-1-.22,1.38,1.38,0,0,0-1.14,1.58,1.39,1.39,0,0,0,1.59,1.14,1.38,1.38,0,0,0,1.13-1.58.9.9,0,0,0-.08-.28l5.24-4.21c5,1.57,10,7.14,13.22,11.43l-8.84,1.45-2-1.82a1.74,1.74,0,0,0,0-.79,1.78,1.78,0,0,0-3.51.58,1.79,1.79,0,0,0,2,1.47,1.81,1.81,0,0,0,1-.53l1.58,1.43-4.05,1.82a1.61,1.61,0,1,0-1.11,2.43,1.6,1.6,0,0,0,1.34-1.63l4.08-1.85-.29,3.46a1.32,1.32,0,0,0,.52,2.58,1.33,1.33,0,0,0,1.1-1.52,1.35,1.35,0,0,0-.79-1l.32-3.83,9.13-1.5c1.4,1.92,2.4,3.49,2.82,4.18A97.11,97.11,0,0,0,691,421.89c-.06.35-.11.71-.17,1.08a12.61,12.61,0,0,0-1.26-1.92,13.16,13.16,0,0,0-6.45-4.17,13.11,13.11,0,0,0,2.42,7.29c2.44,3.16,3.82,3.09,4.93,2.23a124.56,124.56,0,0,0-.15,14.12l-12.1-13,1.73-4.11.19,0a1.41,1.41,0,1,0-.46-2.79,1.43,1.43,0,0,0-1.17,1.63,1.4,1.4,0,0,0,.64.95l-1.54,3.68L675,424.07a1.58,1.58,0,1,0-1,.61,2,2,0,0,0,.35-.1l2.46,2.65-5.38.51a1.36,1.36,0,1,0-1,1.91,1.38,1.38,0,0,0,1.11-1.08l6-.58,12.8,13.8c.29,6.63.91,13.88,1.71,21.15a21.68,21.68,0,0,0-2.48-2.14,20.91,20.91,0,0,0-9.21-3.77,21.06,21.06,0,0,0,6.13,7.84c3.45,2.61,5.09,2.9,6,2.32.66,5.55,1.4,11,2.14,16.21a44.24,44.24,0,0,0-5.47-4l-.52-4.31a1.48,1.48,0,1,0-.82.12l.44,3.61c-1.39-.89-2.63-1.65-3.42-2.12a1.53,1.53,0,0,0,.16-1,1.55,1.55,0,1,0-1.28,1.77,1.4,1.4,0,0,0,.54-.2c1.17.7,2.46,1.5,3.72,2.31l-3.3,1.89a1.56,1.56,0,0,0-1.49-.6,1.57,1.57,0,1,0,1.81,1.37l3.76-2.15c2.88,1.89,5.48,3.78,6.07,4.69,1,7.09,2.08,13.49,2.93,18.48a25.36,25.36,0,0,0-4.87-4.53,33,33,0,0,0-13.66-5.9,32.91,32.91,0,0,0,9.3,11.62c6.34,4.84,8.55,4.5,9.75,2.92a1.77,1.77,0,0,0,.16-.22c.72,4.14,1.2,6.64,1.22,6.77l1.22-.24c0-.08-.2-1.05-.51-2.74l.24.18c1.65,1.11,3.85.72,8.31-5.89a32.91,32.91,0,0,0,5.09-14,33,33,0,0,0-11.06,10,24.17,24.17,0,0,0-3.23,6.06c-.55-3.12-1.25-7.22-2-12a2,2,0,0,0,.42.2c1.32.48,2.82-.32,5-6.35a29.32,29.32,0,0,0,1.48-11.79,29.26,29.26,0,0,0-6.29,10.08,28.7,28.7,0,0,0-1.18,4.05c-.76-4.89-1.56-10.31-2.31-15.95,1.42-2.32,8.34-13.53,13.51-19.59l5,2a1.72,1.72,0,0,0,0,.32,1.38,1.38,0,0,0,1.58,1.14,1.37,1.37,0,0,0,1.13-1.58,1.38,1.38,0,0,0-1.58-1.14,1.42,1.42,0,0,0-.84.49l-4.76-1.9a12.11,12.11,0,0,1,3.66-3.14l.1-.07a1.6,1.6,0,0,0,1.42.47,1.64,1.64,0,1,0-1.88-1.35,1.09,1.09,0,0,0,0,.17l0,0a12.39,12.39,0,0,0-3.72,3.15l-.72-4.35a1.49,1.49,0,0,0-.88-2.81,1.49,1.49,0,0,0-1.23,1.71,1.47,1.47,0,0,0,1.3,1.23l.82,5c-4.82,5.61-10.95,15.36-13.13,18.9-1-7.6-1.9-15.54-2.5-23.08,1.75-3.06,12.26-20.95,20.65-24.55l.78-.05,4.09,3.59a1.47,1.47,0,0,0-.06.69,1.5,1.5,0,0,0,1.71,1.23,1.48,1.48,0,0,0-.48-2.93,1.41,1.41,0,0,0-.7.32l-3.39-3,5.14-.36a1.49,1.49,0,1,0-.09-.83l-5.13.36,3.38-4a1.29,1.29,0,0,0,.65.06,1.36,1.36,0,1,0-1.56-1.12,1.22,1.22,0,0,0,.24.57l-3.36,4-.66-5.31a1.61,1.61,0,1,0-.85,0l.75,6-.59,0h-.07l-.06,0c-2.78,1.17-5.73,3.79-8.53,6.91-.08-1.48-.21-4.32-.34-7.05l3.79-1.92a1.29,1.29,0,0,0,.39,0,1.48,1.48,0,1,0-1.71-1.22,1.55,1.55,0,0,0,.38.78l-2.89,1.46c-.12-2.72-.21-5.14-.2-5.72h0a1.19,1.19,0,1,0-1.37-1,1.16,1.16,0,0,0,.53.8V419c0,.57.07,2.84.18,5.43l-1.68-1.41a1.38,1.38,0,0,0,.13-.86,1.41,1.41,0,1,0-1.16,1.62,1.2,1.2,0,0,0,.46-.16l2.3,1.93c.16,3.48.34,7.17.38,8.05A117.53,117.53,0,0,0,692,449.71c-.17-2.21-.31-4.39-.41-6.5l.11.07c1.25.66,2.62.51,4.5-3a13,13,0,0,0,1.16-7.59,13.15,13.15,0,0,0-5.66,5.19c-.11.21-.21.4-.3.6a91.53,91.53,0,0,1,.73-16.37A100.4,100.4,0,0,1,696,407c1.45-1.65,6.86-6.85,18.65-8.35l3.65,5.23A1.47,1.47,0,0,0,718,405a1.49,1.49,0,0,0,1.7,1.22,1.48,1.48,0,1,0-.48-2.92.9.9,0,0,0-.22.06l-3.16-4.53,6.56,1.68a1.48,1.48,0,0,0-.07.73,1.53,1.53,0,1,0,1.26-1.76,1.5,1.5,0,0,0-.68.3L716,398.06l5.05-2.4a1.51,1.51,0,1,0-.28-.78l-5.07,2.4,2.71-5.37a1.53,1.53,0,0,0,.37,0,1.47,1.47,0,1,0-1.69-1.21,1.44,1.44,0,0,0,.55.91l-3.12,6.19c-9.85,1.26-15.33,5-17.88,7.29a1.27,1.27,0,0,0,.06-.28c1-2.85,2.11-5.56,3.21-8.09h0c.41,1,1.31,1.64,4.24.47a10.29,10.29,0,0,0,4.56-4,10.25,10.25,0,0,0-6,.24,9.62,9.62,0,0,0-1.67.82,127.33,127.33,0,0,1,9.13-16.62l7.41,3.66a1.45,1.45,0,0,0,2.81-.69,1.46,1.46,0,0,0-1.67-1.2,1.4,1.4,0,0,0-1,.6l-6-2.94Z" transform="translate(-81.99 -125.42)"/><path class="cls-6" d="M779.16,447.17c-16.72,1-38.3,5.35-59.92,22.52-11.23,8.92-16.77,21.72-19.43,30.89a81.37,81.37,0,0,0-3.1,17.43c0,.26.29.43.67.37h0c.38,0,.69-.3.7-.55.22-3.93,2.47-32,22.1-47.61,21.27-16.89,42.33-21.11,58.78-22.09a.84.84,0,0,0,.77-.51C779.79,447.35,779.54,447.15,779.16,447.17Z" transform="translate(-81.99 -125.42)"/><path class="cls-6" d="M694.7,489.41c-5.35-.45-10.37.59-11.22,2.34s2.8,3.52,8.15,4,10.37-.59,11.22-2.33S700.05,489.87,694.7,489.41Z" transform="translate(-81.99 -125.42)"/><path class="cls-6" d="M703.07,493c-1.12,1.12.49,3,3.61,4.22s6.54,1.28,7.66.15-.49-3-3.6-4.21S704.19,491.89,703.07,493Z" transform="translate(-81.99 -125.42)"/><path class="cls-6" d="M700.11,479.4c-5.08-.92-10.11-.28-11.24,1.42s2.08,3.84,7.16,4.76,10.11.28,11.24-1.42S705.19,480.32,700.11,479.4Z" transform="translate(-81.99 -125.42)"/><path class="cls-6" d="M707.64,484.63c-1.61,1.18-.31,3.8,2.9,5.85s7.1,2.77,8.7,1.59.31-3.79-2.9-5.84S709.24,483.46,707.64,484.63Z" transform="translate(-81.99 -125.42)"/><path class="cls-6" d="M698.13,470.34c-1.72,1.41,0,4.21,3.78,6.26s8.29,2.57,10,1.16,0-4.21-3.78-6.26S699.85,468.93,698.13,470.34Z" transform="translate(-81.99 -125.42)"/><path class="cls-6" d="M712.7,477.27c-1.7,1-1,3.68,1.6,5.93s6.06,3.24,7.76,2.21,1-3.68-1.61-5.93S714.4,476.25,712.7,477.27Z" transform="translate(-81.99 -125.42)"/><path class="cls-6" d="M708.93,462.16c-2,1.11-1.6,4,.86,6.42s6.06,3.52,8.05,2.41,1.6-4-.86-6.42S710.92,461.05,708.93,462.16Z" transform="translate(-81.99 -125.42)"/><path class="cls-6" d="M719.07,470.93c-2,1.1-1.61,4,.86,6.41s6.06,3.52,8.05,2.41,1.6-4-.86-6.42S721.05,469.82,719.07,470.93Z" transform="translate(-81.99 -125.42)"/><path class="cls-6" d="M721.82,456.06c-1.9.53-2.83,3.14-2.08,5.82s2.91,4.43,4.81,3.9,2.83-3.15,2.08-5.83S723.72,455.52,721.82,456.06Z" transform="translate(-81.99 -125.42)"/><path class="cls-6" d="M725.81,465.67c-1.55,1-.78,3.39,1.73,5.29s5.79,2.6,7.34,1.57.78-3.39-1.72-5.28S727.37,464.65,725.81,465.67Z" transform="translate(-81.99 -125.42)"/><path class="cls-6" d="M730.79,452.44c-1.64.46-2.45,2.67-1.82,4.94s2.49,3.73,4.12,3.27,2.45-2.67,1.82-4.94S732.43,452,730.79,452.44Z" transform="translate(-81.99 -125.42)"/><path class="cls-6" d="M733,461.19c-1.27.93-.44,2.88,1.86,4.35s5.19,1.92,6.46,1,.43-2.88-1.86-4.36S734.3,460.26,733,461.19Z" transform="translate(-81.99 -125.42)"/><path class="cls-6" d="M739,450c-1.47.41-2.25,2.23-1.74,4s2.12,3,3.59,2.55,2.25-2.23,1.73-4.05S740.44,449.56,739,450Z" transform="translate(-81.99 -125.42)"/><path class="cls-6" d="M741.11,457c-1.29.71-1.16,2.46.29,3.9s3.67,2,5,1.3,1.15-2.46-.3-3.9S742.4,456.29,741.11,457Z" transform="translate(-81.99 -125.42)"/><path class="cls-6" d="M747.75,447.24a3.67,3.67,0,0,0-2.7,3.71c0,1.81,1.23,3.09,2.73,2.85a3.66,3.66,0,0,0,2.7-3.71C750.47,448.28,749.25,447,747.75,447.24Z" transform="translate(-81.99 -125.42)"/><path class="cls-6" d="M748.28,454.06c-1.29.72-1.24,2.39.12,3.74s3.51,1.85,4.8,1.14,1.24-2.4-.12-3.74S749.57,453.34,748.28,454.06Z" transform="translate(-81.99 -125.42)"/><path class="cls-6" d="M755.51,445.45a3.17,3.17,0,0,0-2.27,3.25c0,1.6,1,2.74,2.29,2.54A3.2,3.2,0,0,0,757.8,448C757.79,446.38,756.77,445.25,755.51,445.45Z" transform="translate(-81.99 -125.42)"/><path class="cls-6" d="M755.89,451.6c-1.12.57-1.13,2,0,3.29s2.89,1.79,4,1.22,1.13-2,0-3.29S757,451,755.89,451.6Z" transform="translate(-81.99 -125.42)"/><path class="cls-6" d="M763,444.55a2.61,2.61,0,0,0-1.79,2.68c0,1.32.81,2.27,1.81,2.11a2.6,2.6,0,0,0,1.78-2.68C764.79,445.33,764,444.39,763,444.55Z" transform="translate(-81.99 -125.42)"/><path class="cls-6" d="M762.78,450.08c-.93.38-1.13,1.61-.45,2.74a2.62,2.62,0,0,0,2.92,1.36c.93-.38,1.13-1.61.45-2.74A2.59,2.59,0,0,0,762.78,450.08Z" transform="translate(-81.99 -125.42)"/><path class="cls-6" d="M769,444.35a2.14,2.14,0,0,0-1.46,2.2c0,1.08.67,1.85,1.48,1.72a2.11,2.11,0,0,0,1.46-2.19C770.47,445,769.81,444.22,769,444.35Z" transform="translate(-81.99 -125.42)"/><path class="cls-6" d="M768.82,449c-.76.31-.92,1.32-.36,2.25a2.13,2.13,0,0,0,2.39,1.11c.76-.31.92-1.32.36-2.24A2.13,2.13,0,0,0,768.82,449Z" transform="translate(-81.99 -125.42)"/><path class="cls-6" d="M773.7,444.23c-.63.07-1.22.95-1.32,1.95s.33,1.77,1,1.7,1.23-.95,1.33-1.95S774.33,444.16,773.7,444.23Z" transform="translate(-81.99 -125.42)"/><path class="cls-6" d="M773.22,448.41c-.57.27-.55,1.14.06,1.95s1.57,1.24,2.14,1,.55-1.14,0-1.95S773.8,448.14,773.22,448.41Z" transform="translate(-81.99 -125.42)"/><path class="cls-6" d="M777.2,444.47c-.53.06-1,.81-1.12,1.68s.28,1.53.81,1.47,1-.82,1.12-1.68S777.73,444.41,777.2,444.47Z" transform="translate(-81.99 -125.42)"/><path class="cls-6" d="M776.6,448c-.49.23-.46,1,.07,1.68s1.34,1.07,1.83.85.45-1-.07-1.67S777.08,447.74,776.6,448Z" transform="translate(-81.99 -125.42)"/><path class="cls-6" d="M781.45,446.77c-1.26.14-2.31.55-2.35.92s1,.55,2.22.41,2.32-.55,2.35-.92S782.71,446.63,781.45,446.77Z" transform="translate(-81.99 -125.42)"/><path class="cls-7" d="M595.33,382.33h45.13a0,0,0,0,1,0,0v16.8a8.15,8.15,0,0,1-8.15,8.15H603.49a8.15,8.15,0,0,1-8.15-8.15v-16.8A0,0,0,0,1,595.33,382.33Z"/><rect class="cls-8" x="590.95" y="374.32" width="53.89" height="8" rx="2.79"/><path class="cls-9" d="M681.3,229.85S692.18,203,693,200s3.35-13.2,12.64-11.28S729,193.51,732.38,196s-.23,20.64-2.53,25.16-7.25,18.73-7.22,19.93c0,.74-16.69.49-28.73-3A28.93,28.93,0,0,1,681.3,229.85Z" transform="translate(-81.99 -125.42)"/><path class="cls-10" d="M722.63,241.08c0-1.2,4.91-15.41,7.22-19.93s5.92-22.68,2.53-25.16a18.29,18.29,0,0,0-4.6-2,15.21,15.21,0,0,0-3.7,1.3,30,30,0,0,0-3,1.85,23.13,23.13,0,0,0-3.44,2.62,21.29,21.29,0,0,0-4.19,6.79c-.84,1.88-1.63,3.79-2.31,5.73a45.58,45.58,0,0,1-2.84,7.28c-2.76,4.92-7.86,8-12.79,10.77a23.7,23.7,0,0,0-4.84,3.25,9.59,9.59,0,0,0-1.81,2.34,24.6,24.6,0,0,0,5,2.15C705.94,241.57,722.65,241.82,722.63,241.08Z" transform="translate(-81.99 -125.42)"/><path class="cls-11" d="M706.15,180.05c.07.62,5.1,5.33,5.82,9.72a4,4,0,0,0-1.18,4.46c0,1.61,5.72,4.07,8.58,2.34s4.76-4,4.23-6.06.41-3.11.94-5.46a17.34,17.34,0,0,1,2.14-4.81l-1.41-13.3-18.51-.13Z" transform="translate(-81.99 -125.42)"/><path class="cls-11" d="M726,174.1c0,7.55-5.1,13.65-11.28,13.61s-11.17-6.2-11.12-13.75,5.1-13.66,11.29-13.62S726.09,166.54,726,174.1Z" transform="translate(-81.99 -125.42)"/><path class="cls-11" d="M727.82,179.59c-.58,1.73-1.84,2.87-2.83,2.54s-1.31-2-.73-3.74,1.84-2.87,2.83-2.54S728.4,177.85,727.82,179.59Z" transform="translate(-81.99 -125.42)"/><path class="cls-5" d="M731.55,164.94c-1.57-4-5.06-6.75-8.41-6.72C720.69,156,716,155.4,711.31,157c-6,2-9.81,6.88-8.48,10.8s7.29,5.46,13.3,3.42c.55-.19,4.39-.6,4.9-.83-.93,4.54.09,9.36,5.16,9.18C730.13,179.44,733.37,169.57,731.55,164.94Z" transform="translate(-81.99 -125.42)"/><path class="cls-10" d="M712,189.77s-2.83,5.15.56,5.89,9.69-1.31,11-5.45l.8.22a1.23,1.23,0,0,1,.89,1.38c-.38,2.36-1.66,7.79-5.57,9.37-5,2-5.68-4.62-6.61-4.75a4.58,4.58,0,0,1-1.46-.43s-.41,4.67-2.93,3.93-2.43-5.15-1-7.4S710.84,189.64,712,189.77Z" transform="translate(-81.99 -125.42)"/><path class="cls-11" d="M691.33,201.79s-7.35.84-10.12-.15-4.17-2.37-4-3.62a5.83,5.83,0,0,1,5.21-5.2,27.9,27.9,0,0,0,6.78-1.64Z" transform="translate(-81.99 -125.42)"/><path class="cls-9" d="M688.32,190.64c-.05.31-1.56,10.22,1.6,11.83,0,0,18.31-1.9,16.43-9.93S688.32,190.64,688.32,190.64Z" transform="translate(-81.99 -125.42)"/><path class="cls-11" d="M660.62,177.87c.34.16,3.91,3,4.18,3.21A190.22,190.22,0,0,0,681,192.51c1.79.89,3,4.69,3,4.69l-.69,3.8c-.41.65-1.2,1.35-2,1.17-3-.71-8.6-4.75-13.22-10.36-6.09-7.42-7.05-9.21-9.32-10s-2.87-.45-4.92-.93-4.73-2.9-3.51-5.14,6.06-1.67,7.35-.37A14.3,14.3,0,0,0,660.62,177.87Z" transform="translate(-81.99 -125.42)"/><path class="cls-3" d="M665.2,187.34l-26.56,7.22a6.29,6.29,0,0,1-7.7-4.41l-5.12-18.87a6.26,6.26,0,0,1,4.4-7.69l26.57-7.22a6.27,6.27,0,0,1,7.69,4.41l5.13,18.87A6.28,6.28,0,0,1,665.2,187.34Z" transform="translate(-81.99 -125.42)"/><path class="cls-5" d="M644.91,165.14A10.7,10.7,0,1,0,658,172.66,10.7,10.7,0,0,0,644.91,165.14ZM641,174.52a1.78,1.78,0,1,1,2.19,1.25A1.79,1.79,0,0,1,641,174.52Zm13,4.7a7.18,7.18,0,0,1-9.81,2.67.88.88,0,0,1-.33-1.21.89.89,0,0,1,1.21-.34,5.41,5.41,0,0,0,7.39-2,.89.89,0,0,1,1.54.88Zm-2.22-5.78a1.79,1.79,0,1,1,1.25-2.19A1.8,1.8,0,0,1,651.78,173.44Z" transform="translate(-81.99 -125.42)"/><polygon class="cls-5" points="480.99 312.3 435.51 312.3 435.51 352.76 422.31 376.27 494.19 376.27 480.99 352.76 480.99 312.3"/><rect class="cls-5" x="274.71" y="78.57" width="367.07" height="238.74" rx="15.61"/><rect class="cls-4" x="284.44" y="88.08" width="347.61" height="219.6" rx="15.61"/><rect class="cls-5" x="403.23" y="376.27" width="110.03" height="11.56"/><g class="cls-12"><rect class="cls-9" x="491.6" y="114.08" width="71.56" height="42.65"/><circle class="cls-6" cx="609.37" cy="260.83" r="12.61" transform="translate(-135.44 129.75) rotate(-22.68)"/><polygon class="cls-9" points="522.44 128.23 522.44 142.58 534.75 135.41 522.44 128.23"/><rect class="cls-9" x="491.6" y="169.05" width="71.56" height="42.65"/><path class="cls-6" d="M622,315.8a12.61,12.61,0,1,1-12.61-12.61A12.61,12.61,0,0,1,622,315.8Z" transform="translate(-81.99 -125.42)"/><polygon class="cls-9" points="522.44 183.2 522.44 197.55 534.75 190.38 522.44 183.2"/><rect class="cls-9" x="491.6" y="224.02" width="71.56" height="42.65"/><circle class="cls-6" cx="609.37" cy="370.77" r="12.61" transform="translate(63.45 787.16) rotate(-80.75)"/><polygon class="cls-9" points="522.44 238.17 522.44 252.52 534.75 245.35 522.44 238.17"/><rect class="cls-9" x="491.6" y="278.99" width="71.56" height="42.65"/><circle class="cls-6" cx="527.38" cy="300.32" r="12.61"/><polygon class="cls-9" points="522.44 293.14 522.44 307.49 534.75 300.32 522.44 293.14"/><rect class="cls-9" x="570.84" y="116.43" width="50.75" height="4.03"/><rect class="cls-9" x="570.84" y="126.22" width="15.08" height="4.03"/><rect class="cls-9" x="593.68" y="126.22" width="31.73" height="4.03"/><rect class="cls-9" x="570.84" y="136.01" width="4.03" height="4.03"/><rect class="cls-9" x="576.96" y="136.01" width="4.03" height="4.03"/><rect class="cls-9" x="583.31" y="136.01" width="4.03" height="4.03"/><rect class="cls-9" x="589.65" y="136.01" width="4.03" height="4.03"/><rect class="cls-9" x="595.99" y="136.01" width="4.03" height="4.03"/><rect class="cls-9" x="602.34" y="136.01" width="4.03" height="4.03"/><rect class="cls-9" x="608.68" y="136.01" width="4.03" height="4.03"/><rect class="cls-9" x="615.02" y="136.01" width="4.03" height="4.03"/><rect class="cls-9" x="621.36" y="136.01" width="4.03" height="4.03"/><rect class="cls-9" x="570.84" y="171.62" width="50.75" height="4.03"/><rect class="cls-9" x="570.84" y="181.41" width="15.08" height="4.03"/><rect class="cls-9" x="593.68" y="181.41" width="31.73" height="4.03"/><rect class="cls-9" x="570.84" y="191.2" width="4.03" height="4.03"/><rect class="cls-9" x="576.96" y="191.2" width="4.03" height="4.03"/><rect class="cls-9" x="583.31" y="191.2" width="4.03" height="4.03"/><rect class="cls-9" x="589.65" y="191.2" width="4.03" height="4.03"/><rect class="cls-9" x="595.99" y="191.2" width="4.03" height="4.03"/><rect class="cls-9" x="602.34" y="191.2" width="4.03" height="4.03"/><rect class="cls-9" x="608.68" y="191.2" width="4.03" height="4.03"/><rect class="cls-9" x="615.02" y="191.2" width="4.03" height="4.03"/><rect class="cls-9" x="621.36" y="191.2" width="4.03" height="4.03"/><rect class="cls-9" x="570.84" y="226.82" width="50.75" height="4.03"/><rect class="cls-9" x="570.84" y="236.61" width="15.08" height="4.03"/><rect class="cls-9" x="593.68" y="236.61" width="31.73" height="4.03"/><rect class="cls-9" x="570.84" y="246.4" width="4.03" height="4.03"/><rect class="cls-9" x="576.96" y="246.4" width="4.03" height="4.03"/><rect class="cls-9" x="583.31" y="246.4" width="4.03" height="4.03"/><rect class="cls-9" x="589.65" y="246.4" width="4.03" height="4.03"/><rect class="cls-9" x="595.99" y="246.4" width="4.03" height="4.03"/><rect class="cls-9" x="602.34" y="246.4" width="4.03" height="4.03"/><rect class="cls-9" x="608.68" y="246.4" width="4.03" height="4.03"/><rect class="cls-9" x="615.02" y="246.4" width="4.03" height="4.03"/><rect class="cls-9" x="621.36" y="246.4" width="4.03" height="4.03"/><rect class="cls-9" x="570.84" y="282.01" width="50.75" height="4.03"/><rect class="cls-9" x="570.84" y="291.8" width="15.08" height="4.03"/><rect class="cls-9" x="593.68" y="291.8" width="31.73" height="4.03"/><rect class="cls-9" x="570.84" y="301.59" width="4.03" height="4.03"/><rect class="cls-9" x="576.96" y="301.59" width="4.03" height="4.03"/><rect class="cls-9" x="583.31" y="301.59" width="4.03" height="4.03"/><rect class="cls-9" x="589.65" y="301.59" width="4.03" height="4.03"/><rect class="cls-9" x="595.99" y="301.59" width="4.03" height="4.03"/><rect class="cls-9" x="602.34" y="301.59" width="4.03" height="4.03"/><rect class="cls-9" x="608.68" y="301.59" width="4.03" height="4.03"/><rect class="cls-9" x="615.02" y="301.59" width="4.03" height="4.03"/><rect class="cls-9" x="621.36" y="301.59" width="4.03" height="4.03"/></g><rect class="cls-13" x="299.26" y="114.32" width="178.23" height="89.77"/><g class="cls-14"><path class="cls-5" d="M486.56,360.34l7.42-2.16a48.76,48.76,0,0,1,3.36,5.68c1.16,2.48,3.19,1.47,3.67,5.25.3,2.38-1.49,2.5-5.31,3.92s-7.48-3.34-7.48-3.34L486,361.4A.85.85,0,0,1,486.56,360.34Z" transform="translate(-81.99 -125.42)"/><path class="cls-9" d="M497.37,363.66c1,2,2.8,2.07,2.87,4.07s-1.52,2.14-5.25,3.46-7-2.33-7-2.33l-2.11-7.72,8.79-2.32S496.34,361.62,497.37,363.66Z" transform="translate(-81.99 -125.42)"/><path class="cls-5" d="M446,364.53a50.65,50.65,0,0,1,2.93-5.91l7.56,1.61a.85.85,0,0,1,.67,1l-1.63,8.43s-3.29,5-7.21,3.89-5.71-1.13-5.59-3.52C442.88,366.24,445,367.09,446,364.53Z" transform="translate(-81.99 -125.42)"/><path class="cls-9" d="M448.24,359.31l8.94,1.66-1.54,7.85s-3,3.89-6.8,2.85-5.41-1.07-5.49-3.07,1.69-2.16,2.56-4.27S448.24,359.31,448.24,359.31Z" transform="translate(-81.99 -125.42)"/><path class="cls-15" d="M490.57,286l5.09,74.77c-2.39,6.22-10.36.19-10.36.19l-11.59-52.29-16.86,54.5s-.18.58-3.73.14a7.47,7.47,0,0,1-5.26-3.64l15-72.64Z" transform="translate(-81.99 -125.42)"/><path class="cls-5" d="M475.68,301.31a47.21,47.21,0,0,0,1.43,10.09A124.94,124.94,0,0,0,481.27,324c4.51,12.32,9.32,26.19,13,38.78-.26.19-.94,1.79-5.26.22a16.56,16.56,0,0,1-3.72-2l-11.59-52.29s0-1.62.07-3.29C473.83,304.39,475.7,302,475.68,301.31Z" transform="translate(-81.99 -125.42)"/><path class="cls-5" d="M467.5,286.82c-.18.46-.38.92-.51,1.36-1.24,4.16-1.43,8.52-2,12.79a156.74,156.74,0,0,1-3.63,17.48q-5.43,21.94-10.87,43.9a8,8,0,0,1-2.65-2.71l15-72.64Z" transform="translate(-81.99 -125.42)"/><polygon class="cls-16" points="344.53 117.83 342.14 118.96 339.08 114.22 341.83 112.87 344.53 117.83"/><path class="cls-9" d="M481.51,243c1.85-1.85,7.26,1.32,9.11,3.17l16,18.66c1.85,1.85,6.06,8.82,4.21,10.67l-1.7.74c-1.85,1.85-4.85-.14-6.7-2L485.8,253.68c-1.85-1.85-8.89-6.17-7-8Z" transform="translate(-81.99 -125.42)"/><path class="cls-9" d="M461.9,245.53a11.38,11.38,0,0,1,4.7-1.6,12.7,12.7,0,0,1,4.58.52l3.09,2.88c1.74,2-1.25,3.95-3,5.55l-18.58,10.61c-1.65,1.46-6.25,1.57-9.73,1.58-.65,0-1.28.09-1.7-.69l-1.38-1.68c-1.74-1.95,1.27-4.28,3.06-5.88Z" transform="translate(-81.99 -125.42)"/><path class="cls-16" d="M482,217.57c4.81.77,7.94,6.11,7,11.92s-5.58,9.9-10.38,9.13-7.94-6.11-7-11.92S477.23,216.8,482,217.57Z" transform="translate(-81.99 -125.42)"/><rect class="cls-16" x="394.45" y="108.37" width="5.97" height="7.54"/><path class="cls-9" d="M463.13,259.66c-.21-6.49-3.55-13.47,5.23-16.08a12.55,12.55,0,0,1,2.11-.44l0-.07s5.29-.63,5.93-4c0,0,3.81,1.54,6,.36,0,0,0,2,2.52,3a3,3,0,0,1,1.78,1.74c1.78,2.6,2.09,8.09,2.09,15.31v18.95c.29,5.79,3.48,12.12,1.72,13.5-4.92,3.87-11.22,2.64-18.32,2.64l-8.27.19c-7.19,0-1.88-11.86-1.88-19.06Z" transform="translate(-81.99 -125.42)"/><path class="cls-9" d="M501.28,281.05c1.19-2.19,2-7.81,7-8.53,3.53-.5,3.93,2.88,1.68,7.75-1,2.13-15.08,14-16.75,13.82s-1.52-2.78-1.52-2.78C492.6,291.15,500.09,283.25,501.28,281.05Z" transform="translate(-81.99 -125.42)"/><path class="cls-9" d="M426.05,241.32c.1,1,8,10.07,10.27,11.58s9.13,4.59,8.61,8.58-2.39,5-8.47,1.29c-2.18-1.33-13.88-18.08-13.52-19.95S426.05,241.32,426.05,241.32Z" transform="translate(-81.99 -125.42)"/><path class="cls-5" d="M472.23,231.25c1.46-.42,7.55.12,8.16,1.89,0,0,6.46-1.89,4.14-8.83s-6.58.42-11.09-3.54-.36-7.37,2.26-7.37,9.63-1.22,14.5,7.31-2.43,16.66-9.38,17.53-9.75-.89-10.18-3.09S470.76,231.68,472.23,231.25Z" transform="translate(-81.99 -125.42)"/><path class="cls-4" d="M488.79,259.44v18.95c.29,5.79,3.48,12.12,1.72,13.5a12.9,12.9,0,0,1-6.39,2.58c-2.27-12.49-1-25,4.66-36.65C488.81,259,488.79,258.14,488.79,259.44Z" transform="translate(-81.99 -125.42)"/><path class="cls-4" d="M463,259.66c-.2-6.49-3.54-13.47,5.23-16.08a12.76,12.76,0,0,1,2.11-.44l0-.07s5.28-.63,5.93-4c0,0,3.8,1.54,6,.36a3.16,3.16,0,0,0,1.44,2.43c-.84,1.89-1.67,3.79-2.41,5.74a99.75,99.75,0,0,0-6.39,31.15c-.22,5.3,0,10.71-1.31,15.85l-1.53,0-8.27.19c-7.2,0-1.89-11.86-1.89-19.06Z" transform="translate(-81.99 -125.42)"/><path class="cls-16" d="M484.69,292.83c1.25-.49,2.62.85,4.3.08s2.73-1.6,3.58-1.26l.77,1.67s-1.26,2.72-2.3,3.28-2-.84-4.82,1.33-5.16-.77-5.09-2.52S483.43,293.32,484.69,292.83Z" transform="translate(-81.99 -125.42)"/><rect class="cls-15" x="417.46" y="222.66" width="7.04" height="24.66" transform="translate(-12.96 -219.94) rotate(13.94)"/><rect class="cls-17" x="422.58" y="207.96" width="12.26" height="17.85" transform="translate(-66.84 -153.07) rotate(3.76)"/><path class="cls-15" d="M390.88,214.4c-.32,4.92-2.66,8.77-5.23,8.6s-4.38-4.29-4.06-9.21,2.67-8.77,5.23-8.6S391.21,209.48,390.88,214.4Z" transform="translate(-81.99 -125.42)"/><path class="cls-17" d="M421.45,225.47a65.54,65.54,0,0,0-37.59,7l2.43-37a64.91,64.91,0,0,0,36.35,11.89Z" transform="translate(-81.99 -125.42)"/><rect class="cls-18" x="419.8" y="204.5" width="4.5" height="23.91" transform="translate(-66.87 -152.65) rotate(3.76)"/><rect class="cls-15" x="425.88" y="209.92" width="7.84" height="0.74" transform="translate(-67.25 -153.18) rotate(3.76)"/><rect class="cls-15" x="425.03" y="222.94" width="7.84" height="0.74" transform="translate(-66.42 -153.07) rotate(3.76)"/><rect class="cls-15" x="425.13" y="221.31" width="7.84" height="0.74" transform="translate(-66.53 -153.08) rotate(3.76)"/><rect class="cls-15" x="425.24" y="219.68" width="7.84" height="0.74" transform="translate(-66.63 -153.1) rotate(3.76)"/><rect class="cls-15" x="425.35" y="218.06" width="7.84" height="0.74" transform="matrix(1, 0.07, -0.07, 1, -66.74, -153.1)"/><rect class="cls-15" x="425.46" y="216.43" width="7.84" height="0.74" transform="translate(-66.84 -153.12) rotate(3.76)"/><rect class="cls-15" x="425.56" y="214.8" width="7.84" height="0.74" transform="translate(-66.95 -153.13) rotate(3.76)"/><rect class="cls-15" x="425.67" y="213.18" width="7.84" height="0.74" transform="translate(-67.04 -153.16) rotate(3.76)"/><rect class="cls-15" x="425.78" y="211.55" width="7.84" height="0.74" transform="translate(-67.15 -153.17) rotate(3.76)"/><path class="cls-16" d="M417.72,240.2a3,3,0,0,0,3.59-1.82,2.85,2.85,0,0,0-1.83-3.59c-1.49-.49-3-1-3.58,1.82C415.58,238.15,414.88,239.75,417.72,240.2Z" transform="translate(-81.99 -125.42)"/></g><rect class="cls-17" x="299.26" y="191.53" width="178.23" height="2.4"/><rect class="cls-5" x="382.69" y="191.53" width="94.79" height="2.4"/><path class="cls-17" d="M467.74,318.13a2.6,2.6,0,1,1-2.6-2.6A2.59,2.59,0,0,1,467.74,318.13Z" transform="translate(-81.99 -125.42)"/><rect class="cls-9" x="306.69" y="196.49" width="0.72" height="4.85"/><polygon class="cls-9" points="308.12 198.92 312.31 196.5 312.31 201.34 308.12 198.92"/><rect class="cls-9" x="412.47" y="321.91" width="0.72" height="4.85" transform="translate(743.67 523.26) rotate(180)"/><polygon class="cls-9" points="329.78 198.92 325.58 196.5 325.58 201.34 329.78 198.92"/><polygon class="cls-9" points="321.61 198.92 317.41 196.5 317.41 201.34 321.61 198.92"/><path class="cls-9" d="M523.2,327.15a.46.46,0,0,1-.33-.13.45.45,0,0,1-.14-.33v-.25l-.2-.08-.17.18a.47.47,0,0,1-.33.14.49.49,0,0,1-.33-.13l-.39-.38a.45.45,0,0,1-.14-.33.47.47,0,0,1,.14-.33l.17-.18a1.19,1.19,0,0,1-.08-.2h-.26a.48.48,0,0,1-.47-.47v-.53a.46.46,0,0,1,.46-.48h.26a1.07,1.07,0,0,1,.07-.19l-.18-.18a.47.47,0,0,1-.14-.33.45.45,0,0,1,.14-.33l.37-.39a.47.47,0,0,1,.66,0l.19.17.19-.08v-.25a.45.45,0,0,1,.46-.47h.54a.47.47,0,0,1,.47.46v.26l.2.08.18-.19a.47.47,0,0,1,.66,0l.38.37a.47.47,0,0,1,.14.33.51.51,0,0,1-.13.34l-.18.18a1.08,1.08,0,0,1,.08.19h.26a.46.46,0,0,1,.33.13.47.47,0,0,1,.14.33v.54a.46.46,0,0,1-.46.47h-.25c0,.07,0,.14-.08.2l.18.18a.44.44,0,0,1,.14.33.51.51,0,0,1-.13.33l-.38.38a.47.47,0,0,1-.33.14.44.44,0,0,1-.33-.13l-.18-.18-.2.08v.26a.48.48,0,0,1-.47.47Zm-.73-1.19.11.06a1.42,1.42,0,0,0,.36.14l.11,0v.49a.13.13,0,0,0,0,.1.14.14,0,0,0,.1,0h.54a.14.14,0,0,0,.14-.14v-.49l.11,0a1.94,1.94,0,0,0,.36-.15l.1-.06.35.35.11,0a.16.16,0,0,0,.1-.05l.37-.38a.13.13,0,0,0,0-.1.12.12,0,0,0,0-.1l-.35-.35.06-.1a1.78,1.78,0,0,0,.14-.36l0-.12h.5a.15.15,0,0,0,.14-.15v-.54a.14.14,0,0,0,0-.1.21.21,0,0,0-.1,0h-.49l0-.12a2.17,2.17,0,0,0-.15-.35l-.06-.11.34-.35a.14.14,0,0,0,0-.1.12.12,0,0,0,0-.1l-.38-.38a.14.14,0,0,0-.2,0l-.35.35-.1-.05-.36-.15-.12,0v-.49a.12.12,0,0,0,0-.1.1.1,0,0,0-.1,0h-.54a.15.15,0,0,0-.14.15v.49l-.12,0a2.75,2.75,0,0,0-.36.15l-.1.06-.35-.34a.15.15,0,0,0-.21,0l-.37.38a.15.15,0,0,0,0,.11.13.13,0,0,0,0,.1l.35.34-.06.11a3,3,0,0,0-.14.36l0,.11h-.49a.12.12,0,0,0-.1,0,.14.14,0,0,0,0,.1v.54a.13.13,0,0,0,.14.14h.5l0,.11a1.94,1.94,0,0,0,.15.36l.06.1-.34.36a.12.12,0,0,0,0,.1.13.13,0,0,0,0,.1l.38.37a.14.14,0,0,0,.1.05.16.16,0,0,0,.11-.05Zm1-.38a1.19,1.19,0,0,1-1.2-1.19,1.18,1.18,0,0,1,.34-.85,1.16,1.16,0,0,1,.84-.36,1.24,1.24,0,0,1,.86.34,1.29,1.29,0,0,1,.36.85,1.21,1.21,0,0,1-1.19,1.21h0Zm0-2.08h0a.88.88,0,0,0-.62.26.91.91,0,0,0-.25.63.88.88,0,0,0,.88.86h0a.88.88,0,0,0,.61-1.5A.88.88,0,0,0,523.45,323.5Z" transform="translate(-81.99 -125.42)"/><path class="cls-9" d="M539.78,327.35h-8.56v-6h8.56Zm-8.16-.39h7.77V321.8h-7.77Z" transform="translate(-81.99 -125.42)"/><polygon class="cls-9" points="465.55 201.93 462.82 201.93 462.82 199.79 463.21 199.79 463.21 201.54 465.55 201.54 465.55 201.93"/><polygon class="cls-9" points="471.38 201.93 468.95 201.93 468.95 201.54 470.99 201.54 470.99 199.91 471.38 199.91 471.38 201.93"/><polygon class="cls-9" points="471.38 198.05 470.99 198.05 470.99 196.38 468.79 196.38 468.79 195.98 471.38 195.98 471.38 198.05"/><polygon class="cls-9" points="463.21 198.14 462.82 198.14 462.82 195.98 465.52 195.98 465.52 196.38 463.21 196.38 463.21 198.14"/><rect class="cls-9" x="299.26" y="213.6" width="107.41" height="3.8"/><rect class="cls-9" x="299.26" y="224.98" width="73.89" height="3.8"/><path class="cls-19" d="M512.55,343.09v-3.37a3,3,0,0,1-1.27.72.41.41,0,0,1-.28-.12.4.4,0,0,1-.12-.29.34.34,0,0,1,.12-.28,3.56,3.56,0,0,1,.42-.22,3.32,3.32,0,0,0,.72-.45,2.57,2.57,0,0,0,.47-.52l.27-.36a.38.38,0,0,1,.24-.06.39.39,0,0,1,.32.15.72.72,0,0,1,.11.42V343c0,.49-.16.74-.5.74a.5.5,0,0,1-.37-.15A.65.65,0,0,1,512.55,343.09Z" transform="translate(-81.99 -125.42)"/><path class="cls-19" d="M516.61,342.72h1.93a.7.7,0,0,1,.44.12.4.4,0,0,1,.15.33.41.41,0,0,1-.12.3.45.45,0,0,1-.36.13h-2.73a.56.56,0,0,1-.43-.16.46.46,0,0,1-.16-.36,1.12,1.12,0,0,1,.1-.35,1.41,1.41,0,0,1,.22-.35c.33-.34.63-.63.89-.87a5.5,5.5,0,0,1,.57-.48,3.17,3.17,0,0,0,.5-.43,1.73,1.73,0,0,0,.31-.45,1,1,0,0,0,.1-.44.77.77,0,0,0-.42-.72.91.91,0,0,0-1.18.32,1.53,1.53,0,0,0-.13.31,1.49,1.49,0,0,1-.19.38.39.39,0,0,1-.32.13.41.41,0,0,1-.31-.12.45.45,0,0,1-.12-.33,1.37,1.37,0,0,1,.11-.54,1.64,1.64,0,0,1,.34-.5,1.78,1.78,0,0,1,.58-.36,2.11,2.11,0,0,1,.82-.14,2.55,2.55,0,0,1,1,.17,1.45,1.45,0,0,1,.45.33,1.52,1.52,0,0,1,.31.48,1.55,1.55,0,0,1,.11.56,1.6,1.6,0,0,1-.23.84,2.75,2.75,0,0,1-.46.59l-.8.67a6.5,6.5,0,0,0-.76.7A2.5,2.5,0,0,0,516.61,342.72Z" transform="translate(-81.99 -125.42)"/><path class="cls-19" d="M522.93,339.08h-1.76l-.21,1.21a2.06,2.06,0,0,1,1-.29,1.67,1.67,0,0,1,.67.14,2,2,0,0,1,.54.36,1.74,1.74,0,0,1,.36.56,1.81,1.81,0,0,1,.14.69,2,2,0,0,1-.24,1,1.75,1.75,0,0,1-.7.7,2.08,2.08,0,0,1-1,.26,2.13,2.13,0,0,1-1.08-.24,1.56,1.56,0,0,1-.58-.56,1.2,1.2,0,0,1-.18-.56.39.39,0,0,1,.12-.27.4.4,0,0,1,.31-.13.5.5,0,0,1,.46.36,1.22,1.22,0,0,0,.4.51.94.94,0,0,0,.56.18.92.92,0,0,0,.5-.14,1,1,0,0,0,.33-.41,1.38,1.38,0,0,0,.12-.59,1.28,1.28,0,0,0-.13-.61.8.8,0,0,0-.33-.37.85.85,0,0,0-.47-.13,1,1,0,0,0-.46.08,3.6,3.6,0,0,0-.39.27.8.8,0,0,1-.43.2.48.48,0,0,1-.32-.13.42.42,0,0,1-.14-.3,2,2,0,0,1,0-.25l.31-1.78a.94.94,0,0,1,.19-.46.62.62,0,0,1,.46-.15h2c.38,0,.58.15.58.45a.41.41,0,0,1-.14.31A.66.66,0,0,1,522.93,339.08Z" transform="translate(-81.99 -125.42)"/><path class="cls-19" d="M502.09,337.42a7.31,7.31,0,0,0-5.78,3.22.47.47,0,0,0,0,.55,6.79,6.79,0,0,0,11.55,0,.44.44,0,0,0,0-.55A7.29,7.29,0,0,0,502.09,337.42Zm.16,6a2.47,2.47,0,1,1,2.3-2.3A2.47,2.47,0,0,1,502.25,343.38Zm-.07-1.14a1.33,1.33,0,1,1,1.24-1.24A1.33,1.33,0,0,1,502.18,342.24Z" transform="translate(-81.99 -125.42)"/><rect class="cls-9" x="318.06" y="245.02" width="74.61" height="2.64"/><rect class="cls-9" x="318.06" y="252.93" width="51.32" height="2.64"/><path class="cls-9" d="M394.53,375.72a6.65,6.65,0,1,1-6.64-6.65A6.64,6.64,0,0,1,394.53,375.72Z" transform="translate(-81.99 -125.42)"/><rect class="cls-9" x="318.06" y="268.16" width="74.61" height="2.64"/><rect class="cls-9" x="318.06" y="276.07" width="51.32" height="2.64"/><path class="cls-9" d="M394.53,398.85a6.65,6.65,0,1,1-6.64-6.64A6.64,6.64,0,0,1,394.53,398.85Z" transform="translate(-81.99 -125.42)"/><rect class="cls-9" x="318.06" y="291.29" width="74.61" height="2.64"/><rect class="cls-9" x="318.06" y="299.2" width="51.32" height="2.64"/><path class="cls-9" d="M394.53,422a6.65,6.65,0,1,1-6.64-6.65A6.64,6.64,0,0,1,394.53,422Z" transform="translate(-81.99 -125.42)"/><path class="cls-13" d="M547.59,355.36c0-.44-.29-.6-.71-.66a6.28,6.28,0,0,0-.7,0h.53a.7.7,0,1,0,0-1.4H544l.17-.81a5.79,5.79,0,0,0,0-1.9c-.08-.53-.56-1.15-1-1.15h-.05c-.42,0-.57.47-.57,1.06,0,2.84-1.39,2.8-1.39,2.8h-.35v-.35h-2.46l0,6.31h2.45v-.35h5.08a.71.71,0,0,0,0-1.41h.53a.69.69,0,0,0,.69-.7.7.7,0,0,0-.7-.7h.53A.7.7,0,0,0,547.59,355.36Zm-8.05,3a.7.7,0,1,1,0-1.4.7.7,0,0,1,0,1.4Z" transform="translate(-81.99 -125.42)"/><path class="cls-19" d="M554.24,356.62c0,.44.28.61.7.67a6.21,6.21,0,0,0,.7,0h-.52a.7.7,0,0,0-.7.71.69.69,0,0,0,.7.69h2.73l-.17.81a5.72,5.72,0,0,0,0,1.89c.08.53.55,1.15,1.05,1.15h0c.42,0,.57-.47.57-1.05,0-2.85,1.4-2.81,1.4-2.81h.35v.35h2.45l0-6.3h-2.45v.35H556a.7.7,0,1,0,0,1.4h-.52a.7.7,0,1,0,0,1.4h-.52A.7.7,0,0,0,554.24,356.62Zm8-3a.69.69,0,0,1,.7.69.7.7,0,1,1-1.4,0A.7.7,0,0,1,562.29,353.63Z" transform="translate(-81.99 -125.42)"/><path class="cls-3" d="M531.85,451.7a.48.48,0,0,1,.48.49.5.5,0,0,1-.41.55c-10.75,1-23.89,5.56-34.44,23.84-9.75,16.87-5.22,47.33-4.53,51.58a.51.51,0,0,1-.35.6h0a.45.45,0,0,1-.53-.41,139.23,139.23,0,0,1-1.66-18.89c-.19-9.94.75-23.81,6.32-33.46C507.47,457.42,520.92,452.75,531.85,451.7Z" transform="translate(-81.99 -125.42)"/><path class="cls-3" d="M484.6,497.34c3.67.5,6.48,2.44,6.29,4.33s-3.32,3-7,2.51-6.48-2.44-6.28-4.33S480.94,496.84,484.6,497.34Z" transform="translate(-81.99 -125.42)"/><path class="cls-3" d="M496.1,501.44c2.34,1.32,3.82,3.37,3.31,4.58s-2.81,1.14-5.14-.18-3.82-3.36-3.31-4.58S493.77,500.13,496.1,501.44Z" transform="translate(-81.99 -125.42)"/><path class="cls-3" d="M486.07,486.5c3.58,1,6.17,3.32,5.79,5.17s-3.61,2.53-7.19,1.52-6.18-3.33-5.79-5.17S482.48,485.49,486.07,486.5Z" transform="translate(-81.99 -125.42)"/><path class="cls-3" d="M498.35,493.93c2.58,2.23,4,5.07,3.19,6.34s-3.57.49-6.15-1.74-4-5.07-3.18-6.34S495.77,491.7,498.35,493.93Z" transform="translate(-81.99 -125.42)"/><path class="cls-3" d="M489.73,478c3,2.23,4.71,5.27,3.86,6.79s-3.94.95-6.92-1.28-4.71-5.27-3.87-6.79S486.75,475.72,489.73,478Z" transform="translate(-81.99 -125.42)"/><path class="cls-3" d="M499.64,486.62c2.21,2.45,3.26,5.32,2.34,6.43s-3.43,0-5.64-2.41-3.25-5.32-2.34-6.43S497.44,484.18,499.64,486.62Z" transform="translate(-81.99 -125.42)"/><path class="cls-3" d="M494.13,470.45c2.16,2.64,3,5.76,1.95,7s-3.72,0-5.88-2.63-3-5.77-1.95-7S492,467.8,494.13,470.45Z" transform="translate(-81.99 -125.42)"/><path class="cls-3" d="M502.77,480c2.16,2.65,3,5.77,2,7s-3.72,0-5.89-2.63-3-5.76-1.94-7S500.61,477.32,502.77,480Z" transform="translate(-81.99 -125.42)"/><path class="cls-3" d="M495.53,461.22c1.15-.57,3,1.32,4,4.23s1,5.74-.13,6.32-3-1.32-4-4.23S494.38,461.8,495.53,461.22Z" transform="translate(-81.99 -125.42)"/><path class="cls-3" d="M505.49,473.38c2.08,2.06,3.1,4.63,2.28,5.73s-3.16.34-5.23-1.72-3.1-4.62-2.28-5.73S503.42,471.32,505.49,473.38Z" transform="translate(-81.99 -125.42)"/><path class="cls-3" d="M500.73,457.32c1-.5,2.54,1.1,3.45,3.56s.85,4.85-.15,5.35-2.53-1.1-3.44-3.56S499.74,457.81,500.73,457.32Z" transform="translate(-81.99 -125.42)"/><path class="cls-3" d="M508.63,467.89c1.85,1.6,2.82,3.72,2.17,4.73s-2.67.52-4.51-1.08-2.83-3.72-2.18-4.72S506.78,466.29,508.63,467.89Z" transform="translate(-81.99 -125.42)"/><path class="cls-3" d="M505.66,454.66c.89-.45,2.21.79,2.94,2.77s.6,3.94-.29,4.38-2.21-.79-2.94-2.77S504.77,455.1,505.66,454.66Z" transform="translate(-81.99 -125.42)"/><path class="cls-3" d="M512.18,463.71c1.27,1.56,1.74,3.46,1,4.23s-2.31.14-3.58-1.42-1.74-3.45-1-4.23S510.9,462.15,512.18,463.71Z" transform="translate(-81.99 -125.42)"/><path class="cls-3" d="M510.93,451.71c.95-.25,2,1.13,2.43,3.1s-.06,3.76-1,4-2-1.13-2.42-3.1S510,452,510.93,451.71Z" transform="translate(-81.99 -125.42)"/><path class="cls-3" d="M516.18,460.35c1.2,1.46,1.6,3.28.89,4.06s-2.25.22-3.44-1.24-1.59-3.28-.89-4.06S515,458.89,516.18,460.35Z" transform="translate(-81.99 -125.42)"/><path class="cls-3" d="M515.71,449.78c.8-.21,1.73,1,2.08,2.75s0,3.32-.82,3.53-1.72-1-2.07-2.75S514.92,450,515.71,449.78Z" transform="translate(-81.99 -125.42)"/><path class="cls-3" d="M520.22,457.79c1,1.35,1.3,2.95.68,3.56s-1.93,0-2.93-1.33-1.3-2.95-.68-3.56S519.22,456.44,520.22,457.79Z" transform="translate(-81.99 -125.42)"/><path class="cls-3" d="M520.51,448.82c.63-.17,1.37.86,1.66,2.3s0,2.73-.62,2.9-1.37-.85-1.66-2.29S519.88,449,520.51,448.82Z" transform="translate(-81.99 -125.42)"/><path class="cls-3" d="M523.79,456.3c.7,1.23.83,2.56.3,3s-1.54-.25-2.24-1.48-.83-2.56-.3-3S523.09,455.07,523.79,456.3Z" transform="translate(-81.99 -125.42)"/><path class="cls-3" d="M524.47,448.62c.52-.14,1.12.7,1.36,1.88s0,2.24-.51,2.38-1.12-.7-1.35-1.88S524,448.76,524.47,448.62Z" transform="translate(-81.99 -125.42)"/><path class="cls-3" d="M527.19,454.88c.57,1,.68,2.09.24,2.43s-1.26-.2-1.84-1.21-.68-2.1-.24-2.43S526.62,453.87,527.19,454.88Z" transform="translate(-81.99 -125.42)"/><path class="cls-3" d="M527.58,448.51c.41-.08.86.74,1,1.83s-.06,2-.46,2.11-.86-.74-1-1.83S527.18,448.58,527.58,448.51Z" transform="translate(-81.99 -125.42)"/><path class="cls-3" d="M529.8,454.09c.58.88.78,1.83.45,2.12s-1-.19-1.63-1.07-.79-1.82-.46-2.11S529.22,453.22,529.8,454.09Z" transform="translate(-81.99 -125.42)"/><path class="cls-3" d="M530,448.77c.34-.06.72.65.85,1.59s0,1.76-.38,1.82-.73-.65-.86-1.59S529.63,448.83,530,448.77Z" transform="translate(-81.99 -125.42)"/><path class="cls-3" d="M531.72,453.48c.5.76.68,1.57.4,1.82s-.9-.17-1.4-.93-.68-1.57-.41-1.81S531.22,452.73,531.72,453.48Z" transform="translate(-81.99 -125.42)"/><path class="cls-3" d="M533.3,451.27c.81-.15,1.51.05,1.56.45s-.56.84-1.36,1-1.52,0-1.57-.45S532.49,451.42,533.3,451.27Z" transform="translate(-81.99 -125.42)"/><path class="cls-13" d="M464.86,467.67c-3-7.6.59-6.81,4.43-16.77s7-20.49,7-20.49S478.66,441,484.18,449s4.34,6.3,7.36,10.71,1.12,6.83,0,12.89-8.15,8.14-7.55,15.83,5.12,8.28,7.29,17.16S481,515.48,481,515.48s-11,0-11-2.76-5.92-9.66-7.59-16.56,3.44-12.23,5-16.92S467.82,475.26,464.86,467.67Z" transform="translate(-81.99 -125.42)"/><path class="cls-20" d="M477.32,470.11c.28-1.39.63-2.72,1-4,1.22-4.64,2.27-8.65-.24-14-3.26-7-1.76-20.89-1.71-21.7,0,0-1,14.62,2.21,21.46,2.59,5.55,1.47,9.84.27,14.38-.33,1.28-.67,2.59-.95,4a52.45,52.45,0,0,1-2.53,8c-1.28,3.41-2.5,6.63-2.73,10-.32,4.64,2.27,8.53,5.54,13.46,1,1.43,1.94,2.91,2.92,4.52,4.42,7.22-1.87,12.53-1.93,12.58l-.35-.42a10.45,10.45,0,0,0,2.5-3.38,8.58,8.58,0,0,0-.68-8.49c-1-1.6-2-3.08-2.91-4.51-3.2-4.81-6-9-5.64-13.8.24-3.49,1.47-6.75,2.77-10.2A50.55,50.55,0,0,0,477.32,470.11Z" transform="translate(-81.99 -125.42)"/><path class="cls-20" d="M485,471.56c2.52-1.36,2.45-4.26,2.4-6.6a16.83,16.83,0,0,1,0-1.75.09.09,0,0,1,.18,0c0,.51,0,1.1,0,1.73.05,2.38.12,5.35-2.49,6.76-3.21,1.74-9.08,4.45-9.14,4.48h0a.1.1,0,0,1-.08,0,.09.09,0,0,1,.05-.12C475.91,476,481.77,473.29,485,471.56Z" transform="translate(-81.99 -125.42)"/><path class="cls-20" d="M471,451.75l.18,0a11.43,11.43,0,0,1-.15,4.9,9.13,9.13,0,0,0,0,6.06c.47,1.57,1.55,1.82,2.92,2.15a12.68,12.68,0,0,1,1.85.55c2.17.89,2.53,2,2.55,2.06l-.18.06s-.36-1.09-2.44-1.95a11.92,11.92,0,0,0-1.82-.54c-1.37-.33-2.55-.61-3.06-2.28a9.39,9.39,0,0,1,0-6.17A11.19,11.19,0,0,0,471,451.75Z" transform="translate(-81.99 -125.42)"/><path class="cls-20" d="M478.57,494.31c-.05-.32-.13-.72-.22-1.18a20,20,0,0,1-.44-7.22c.57-3.62,3.67-6.81,3.71-6.84l.13.13s-3.1,3.18-3.66,6.74a19.83,19.83,0,0,0,.44,7.15c.09.47.18.87.22,1.2.23,1.58-3.35,2.91-3.5,3l-.06-.17S478.78,495.75,478.57,494.31Z" transform="translate(-81.99 -125.42)"/><path class="cls-20" d="M466,495.42a8.81,8.81,0,0,0,1.53,3.74,11.55,11.55,0,0,1,.73,1.27c.59,1.24,2.37,2,5.41,2.18a30.46,30.46,0,0,0,4.61,0l0,.18s-.88.09-2.25.09c-.68,0-1.5,0-2.39-.09-3.16-.23-4.93-1-5.56-2.29a12.29,12.29,0,0,0-.73-1.25,9.09,9.09,0,0,1-1.55-3.8c-.36-2.44-.76-5-.77-5.06l.18,0S465.64,493,466,495.42Z" transform="translate(-81.99 -125.42)"/><path class="cls-20" d="M415.27,480.57c10.18-3.42,23.83-5,39.68,5.24,8.22,5.32,13.69,15.7,16.83,23.48a102.88,102.88,0,0,1,4.8,15.28.44.44,0,0,1-.34.52h0a.44.44,0,0,1-.51-.33c-.79-3.57-6.86-28.91-21.25-38.21-15.58-10.08-28.91-8.51-38.92-5.15a.44.44,0,0,1-.55-.27A.44.44,0,0,1,415.27,480.57Z" transform="translate(-81.99 -125.42)"/><path class="cls-20" d="M473,497.65c3.12-1.8,6.31-2.14,7.11-.75s-1.09,4-4.21,5.78-6.31,2.14-7.12.76S469.84,499.46,473,497.65Z" transform="translate(-81.99 -125.42)"/><path class="cls-20" d="M468.56,503.15c.86.74.21,2.9-1.45,4.82s-3.71,2.88-4.57,2.13-.21-2.9,1.45-4.82S467.7,502.4,468.56,503.15Z" transform="translate(-81.99 -125.42)"/><path class="cls-20" d="M468,489.82c2.89-2.17,6-2.89,7-1.61s-.6,4.08-3.49,6.25-6,2.89-7,1.6S465.15,492,468,489.82Z" transform="translate(-81.99 -125.42)"/><path class="cls-20" d="M464.41,496.6c1.16.67.82,3.42-.75,6.15s-3.79,4.39-5,3.72-.82-3.42.76-6.14S463.25,495.93,464.41,496.6Z" transform="translate(-81.99 -125.42)"/><path class="cls-20" d="M467.7,480.94c1.27.85.72,3.88-1.21,6.76s-4.54,4.52-5.8,3.67-.73-3.88,1.21-6.76S466.43,480.09,467.7,480.94Z" transform="translate(-81.99 -125.42)"/><path class="cls-20" d="M460.14,491.12c1.19.5,1.21,3.14,0,5.88s-3.08,4.56-4.27,4.05-1.21-3.14,0-5.88S459,490.61,460.14,491.12Z" transform="translate(-81.99 -125.42)"/><path class="cls-20" d="M459.86,476.19c1.37.51,1.62,3.26.56,6.15s-3,4.82-4.42,4.31-1.63-3.26-.56-6.15S458.48,475.68,459.86,476.19Z" transform="translate(-81.99 -125.42)"/><path class="cls-20" d="M455.26,486.91c1.37.51,1.63,3.26.56,6.15s-3,4.82-4.41,4.31-1.63-3.26-.57-6.15S453.88,486.4,455.26,486.91Z" transform="translate(-81.99 -125.42)"/><path class="cls-20" d="M451.11,473.9c1.23,0,2.22,2.16,2.22,4.84s-1,4.84-2.22,4.84-2.23-2.17-2.23-4.84S449.88,473.9,451.11,473.9Z" transform="translate(-81.99 -125.42)"/><path class="cls-20" d="M450.33,483.81c1.1.54,1,2.93-.14,5.33s-3,3.9-4.13,3.35-1-2.92.14-5.32S449.23,483.27,450.33,483.81Z" transform="translate(-81.99 -125.42)"/><ellipse class="cls-20" cx="363.14" cy="351.55" rx="1.92" ry="4.09"/><path class="cls-20" d="M445.25,481.55c.92.53.75,2.54-.38,4.5s-2.79,3.11-3.71,2.58-.74-2.54.39-4.5S444.34,481,445.25,481.55Z" transform="translate(-81.99 -125.42)"/><path class="cls-20" d="M439.81,472.73c.95,0,1.72,1.47,1.72,3.28s-.77,3.29-1.72,3.29-1.72-1.47-1.72-3.29S438.86,472.73,439.81,472.73Z" transform="translate(-81.99 -125.42)"/><path class="cls-20" d="M439.71,479.78c.89.33,1.11,2,.48,3.68s-1.86,2.81-2.75,2.48-1.1-2-.48-3.67S438.82,479.45,439.71,479.78Z" transform="translate(-81.99 -125.42)"/><path class="cls-20" d="M434.09,472.49c.94-.17,1.94,1.05,2.24,2.72s-.22,3.17-1.15,3.34-1.95-1.05-2.25-2.73S433.15,472.65,434.09,472.49Z" transform="translate(-81.99 -125.42)"/><path class="cls-20" d="M434.92,478.92c.9.33,1.14,1.89.56,3.48s-1.79,2.62-2.69,2.29-1.14-1.88-.55-3.48S434,478.59,434.92,478.92Z" transform="translate(-81.99 -125.42)"/><path class="cls-20" d="M429.14,472.84c.79-.14,1.64.94,1.91,2.42s-.16,2.79-.95,2.93-1.64-.94-1.9-2.42S428.35,473,429.14,472.84Z" transform="translate(-81.99 -125.42)"/><path class="cls-20" d="M430,478.62c.76.24,1,1.59.57,3s-1.42,2.4-2.19,2.16-1-1.59-.57-3S429.19,478.38,430,478.62Z" transform="translate(-81.99 -125.42)"/><path class="cls-20" d="M424.51,474c.62-.11,1.3.79,1.52,2s-.1,2.3-.72,2.41-1.31-.79-1.53-2S423.89,474.06,424.51,474Z" transform="translate(-81.99 -125.42)"/><path class="cls-20" d="M425.57,479c.62.11.94,1.19.72,2.42s-.9,2.12-1.52,2-.94-1.19-.72-2.42S425,478.89,425.57,479Z" transform="translate(-81.99 -125.42)"/><path class="cls-20" d="M420.88,475.33c.51-.09,1.06.64,1.24,1.65s-.08,1.88-.59,2-1.07-.65-1.25-1.65S420.37,475.42,420.88,475.33Z" transform="translate(-81.99 -125.42)"/><path class="cls-20" d="M421.77,479.58c.5.09.77,1,.59,2s-.74,1.73-1.25,1.64-.77-1-.59-2S421.26,479.49,421.77,479.58Z" transform="translate(-81.99 -125.42)"/><path class="cls-20" d="M418,476.44c.39-.1.89.56,1.12,1.46s.1,1.71-.29,1.81-.89-.55-1.12-1.46S417.65,476.54,418,476.44Z" transform="translate(-81.99 -125.42)"/><path class="cls-20" d="M419,480.17c.39.1.52.91.29,1.81s-.73,1.56-1.12,1.46-.52-.91-.29-1.81S418.64,480.07,419,480.17Z" transform="translate(-81.99 -125.42)"/><path class="cls-20" d="M416,477.57c.33-.08.76.48,1,1.26s.09,1.48-.24,1.56-.76-.48-1-1.26S415.65,477.65,416,477.57Z" transform="translate(-81.99 -125.42)"/><path class="cls-20" d="M416.93,480.64c.33.08.44.78.24,1.56s-.62,1.34-.95,1.26-.44-.78-.24-1.56S416.6,480.55,416.93,480.64Z" transform="translate(-81.99 -125.42)"/><path class="cls-20" d="M413.82,480.79c.78-.19,1.48-.09,1.56.24s-.48.76-1.26,1-1.47.09-1.56-.24S413,481,413.82,480.79Z" transform="translate(-81.99 -125.42)"/><polygon class="cls-6" points="413.61 411.92 381.3 411.92 375.09 384.65 419.81 384.65 413.61 411.92"/><path class="cls-11" d="M727.82,220.39s3.11,9.13,5.84,12,5.14,3.92,6.53,3.19a6.75,6.75,0,0,0,3.25-8.51,36.34,36.34,0,0,1-1.85-8.79Z" transform="translate(-81.99 -125.42)"/><path class="cls-9" d="M727.77,222.52c.38.06,12.65,1.43,14.26-3.57,0,0-4.46-25.38-14.34-24S727.77,222.52,727.77,222.52Z" transform="translate(-81.99 -125.42)"/><path class="cls-10" d="M729.16,221.9c.34,0,11.45,1.26,13-3.59,0,0-3.8-24.55-12.77-23.08S729.16,221.9,729.16,221.9Z" transform="translate(-81.99 -125.42)"/><path class="cls-11" d="M705.33,235.24a4.67,4.67,0,0,1,1.29-.37c3.72-.54,22.19-4.44,24-5.28,2-.92,8.39-.56,8.39-.56l4.85,1c.23.9-1.49,4.93-2.34,5.21-3.17,1.06-12.42,2.73-20.78,2.73-11,0-10.55.29-12.76,1.69s-2.24,2.17-4,3.61-5.79,2-7.21-.62-2-2-1.59-3.46,1.5-.44,3.25,0,2.49-.38,2.25-.91a2.82,2.82,0,0,0-2-1.23c-1-.21-2.14-1.33-.73-1.59s1,.7,3,.51A16.48,16.48,0,0,0,705.33,235.24Z" transform="translate(-81.99 -125.42)"/><path class="cls-5" d="M369.88,526.13H353.57v-25.6h2.37c1.63,0,2.95-1,2.95-2.31v-2.64c0-1.28-1.32-2.31-2.95-2.31h-2.37V463.88h15.65a1.7,1.7,0,1,0,0-3.31H334.66a1.7,1.7,0,1,0,0,3.31h15.65v29.39h-2.37c-1.63,0-2.95,1-2.95,2.31v2.64c0,1.28,1.32,2.31,2.95,2.31h2.37v25.6H334a1.17,1.17,0,1,0,0,2.27h11.72a.68.68,0,0,0,.27.64l2.81,2.2a1.27,1.27,0,0,0,1.51,0v8.83l-16.13,5c-1.06.33-.76,1.57.38,1.57h34.76c1.14,0,1.44-1.24.38-1.57l-16.13-5v-8.83a1.27,1.27,0,0,0,1.51,0l2.81-2.2a.71.71,0,0,0,.27-.64h11.72a1.17,1.17,0,1,0,0-2.27Z" transform="translate(-81.99 -125.42)"/><path class="cls-17" d="M382.47,461.92H321.41a5.47,5.47,0,0,1-5.48-5.47h0a5.48,5.48,0,0,1,5.48-5.48h61.06a5.47,5.47,0,0,1,5.47,5.48h0A5.47,5.47,0,0,1,382.47,461.92Z" transform="translate(-81.99 -125.42)"/><path class="cls-7" d="M369,357.38c0,.5.66,17.56,5,19.81l-14.36-.9Z" transform="translate(-81.99 -125.42)"/><path class="cls-7" d="M393.71,499.81a3.89,3.89,0,0,1,1.48,2.39c.31,2.42.83,6.36-.44,9.57s-3.47,8-6.9-.77.16-11.33,1.24-11.63S393.71,499.81,393.71,499.81Z" transform="translate(-81.99 -125.42)"/><path class="cls-7" d="M375.9,502.81a3.91,3.91,0,0,1,.94,2.64c-.21,2.44-.52,6.39-2.44,9.27s-5.08,7.13-6.59-2.2,2.54-11,3.66-11.11S375.9,502.81,375.9,502.81Z" transform="translate(-81.99 -125.42)"/><path class="cls-16" d="M397.39,457.31s-2,30.6-2.49,35.82-1.25,9.95-1.25,9.95.34,7.21-1.74,7.3-3.31-6.22-3.23-7.22-.42-6,0-7.38-1.15-15.67-1.9-19.57-1.08-13.35,0-17.33S397.39,457.31,397.39,457.31Z" transform="translate(-81.99 -125.42)"/><path class="cls-16" d="M385.4,461s-6.7,29.93-8,35-2.76,9.64-2.76,9.64-.79,7.18-2.85,6.94-2.32-6.66-2.08-7.63.5-6,1.14-7.29S372.12,482,372,478s1-13.35,2.68-17.12S385.4,461,385.4,461Z" transform="translate(-81.99 -125.42)"/><path class="cls-21" d="M367.72,434.54l21.58,6.1s8,2.49,8.93,10.94.34,9.21-.6,9.33-7.81-.22-9.74,0a47.11,47.11,0,0,0-5.61.84,9.45,9.45,0,0,1-10-3.42c-2.61-3.33-1.49-2.24-12.81-3.23s-18.4-1.87-23.26-7.09-3.46-13.44-3.46-13.44Z" transform="translate(-81.99 -125.42)"/><path class="cls-16" d="M345.14,374.78a6.08,6.08,0,0,1,.78-.75A16.28,16.28,0,0,1,341.79,363c0-8.21,5.54-14.86,12.37-14.86s12.38,6.65,12.38,14.86c0,6.79-3.79,12.5-9,14.28l2.5,10.47-6.78,5.72-9-4.41-7.21-7.65A29.3,29.3,0,0,0,345.14,374.78Z" transform="translate(-81.99 -125.42)"/><path class="cls-9" d="M370.27,384.92s-1.51-7.6-6.88-7.72-5.68.62-5.68.62,1,12-3.55,12.9-13-12.1-13-12.1-6-.84-8.78,1.4-5.14,2.41-8.87,17.71-4.23,19.4,1.12,26.86a111.77,111.77,0,0,0,11.19,13.19l4.48-5.72s-10.2-12.32-10.69-12.94-2.24-2-1.25-6.22,4.73-10.7,4.73-10.7,1.74,9.33,3.11,11.32,1.74,3.24.87,5.48-5.72,8-5.35,16.29l37.48.25s-4.77-10.08-5.64-14.55a32.24,32.24,0,0,1-.62-6.84c-.12-.88-.12-7.34,1.87-8a2.19,2.19,0,0,1,2.73,1.3s2,2.56,1.66,9.15,9.66,2.86,9.66,2.86S371.26,391.63,370.27,384.92Z" transform="translate(-81.99 -125.42)"/><path class="cls-7" d="M361.81,343.87c.74.27,10.45,6.47,9.7,16.42s-18.9,5.72-18.9,5.72v-6l-2.86,6.86s.8-5.49-1.75-4.87-1.86,4-1.24,4.87a4.17,4.17,0,0,1,.06,4.39c-1,1.75-.64,6.53-.64,6.53l-17.58-1.55s6.78-8.52,7.15-16.54S340.5,336.16,361.81,343.87Z" transform="translate(-81.99 -125.42)"/><polygon class="cls-10" points="272.35 316.21 309.66 316.21 316.24 291.67 278.93 291.67 272.35 316.21"/><path class="cls-10" d="M364.07,406.11s-9.93,5.65-19.22,2.67-7.79-16.84-7.79-16.84-2.24,7.41-3.54,9.69c-2,3.51,4.57,14,4,15.82-1.26,3.77-1.69,3.13-3.39,7-2.88,2.89-2.39,10.83-2.39,10.83l17.86.12s-11.52-3.91-9.28-8.72,6.47-7,11.61-7.63S361.94,413.51,364.07,406.11Z" transform="translate(-81.99 -125.42)"/><path class="cls-16" d="M336.7,431.88a69.07,69.07,0,0,0,5.47,4.47s9.58,1,11.32,4.36-11.07,1.74-11.07,1.74L334.34,435Z" transform="translate(-81.99 -125.42)"/><path class="cls-9" d="M332.37,379.91c-2.82,2.23-5.14,2.4-8.87,17.7s-4.23,19.4,1.12,26.87a112.15,112.15,0,0,0,11.19,13.18l4.48-5.72S330.09,419.63,329.6,419s-2.24-2-1.25-6.21,4.73-10.7,4.73-10.7S335.19,377.67,332.37,379.91Z" transform="translate(-81.99 -125.42)"/><polygon class="cls-13" points="273.52 316.21 310.83 316.21 317.41 291.67 280.1 291.67 273.52 316.21"/><rect class="cls-13" x="336.19" y="441.63" width="56.63" height="2.41" transform="translate(647.03 760.25) rotate(180)"/><circle class="cls-17" cx="262.4" cy="537.66" r="9.76" transform="translate(-399.56 559.11) rotate(-78.2)"/><path class="cls-9" d="M268.26,538.77l-7.7-7.2a.83.83,0,0,0-1.37.38l-2.66,9.23a.84.84,0,0,0,1,1.05l10.35-2A.84.84,0,0,0,268.26,538.77Z" transform="translate(-81.99 -125.42)"/><path class="cls-17" d="M252,538.38a6.2,6.2,0,1,1-4.24-7.67A6.2,6.2,0,0,1,252,538.38Z" transform="translate(-81.99 -125.42)"/><path class="cls-9" d="M249.78,537.38l-4.89-4.58a.54.54,0,0,0-.88.24l-1.68,5.86a.53.53,0,0,0,.61.67l6.58-1.28A.53.53,0,0,0,249.78,537.38Z" transform="translate(-81.99 -125.42)"/><path class="cls-17" d="M255,530.72A3,3,0,1,1,253,527,3,3,0,0,1,255,530.72Z" transform="translate(-81.99 -125.42)"/><path class="cls-9" d="M253.94,530.23,251.57,528a.25.25,0,0,0-.42.12l-.82,2.84a.26.26,0,0,0,.3.32l3.18-.62A.26.26,0,0,0,253.94,530.23Z" transform="translate(-81.99 -125.42)"/><path class="cls-5" d="M231.22,500.23l6.19,48.6H272l6.18-48.6Zm41.06,12.93h-7.15l.56-8.7h7.7Zm-25,31.43-.28-4.41H262.4l-.28,4.41Zm-.44-6.93-.29-4.47h16.28l-.29,4.47Zm17.83-33.2-.56,8.7H245.29l-.56-8.7Zm-.62,9.7-.55,8.51H245.9l-.55-8.51Zm-.61,9.51-.55,8.52h-16.4l-.55-8.52Zm-18.57-1h-6.54l-1.09-8.51h7.09Zm.07,1,.54,8.52h-5.94l-1.08-8.52Zm-5.27,9.52h5.88l.28,4.47h-5.6Zm24.16,0h5.88l-.57,4.47h-5.6Zm6-1h-5.95l.55-8.52h6.48Zm-5.34-9.52.55-8.51h7.08l-1.08,8.51Zm-20.79-18.21.55,8.7h-7.14l-1.11-8.7Zm-3.15,35.72H246l.28,4.41h-5.16Zm22.54,4.41.28-4.41h5.44l-.56,4.41Z" transform="translate(-81.99 -125.42)"/><path class="cls-15" d="M532.24,532.62c-6,.55-20.31,4.42-20.71,7.65s-.47,6.55,3.87,6.16,18.78-3.32,19.65-3.91,1.13-6.25,1.13-6.25S538.28,532.07,532.24,532.62Z" transform="translate(-81.99 -125.42)"/><path class="cls-15" d="M534.91,542.56c-5.39.45-18.14,3.6-18.49,6.24s-.42,5.34,3.45,5,16.77-2.7,17.55-3.19,1-5.09,1-5.09S540.3,542.11,534.91,542.56Z" transform="translate(-81.99 -125.42)"/><path class="cls-16" d="M530.31,535.54c-4.42.71-11.76,2.68-11.84,5.28s2.21,3.24,5.77,2.69,10.18-1.5,10.18-1.5l1.18-5S534.73,534.83,530.31,535.54Z" transform="translate(-81.99 -125.42)"/><path class="cls-16" d="M531,544.07c-4.15,1.06-11,3.45-10.82,5.52s2.42,2.32,5.76,1.48,9.59-2.33,9.59-2.33l.67-4.07S535.14,543,531,544.07Z" transform="translate(-81.99 -125.42)"/><path class="cls-9" d="M582.63,524.33a13.8,13.8,0,0,0-11.21-.55c-5.84,2.45-11,5.29-11.6,10.89q0,.48-.09,1c-9,.12-17.82,0-17.82,0s-8.47-2.48-8.84,2.52c-.26,3.61.06,5.38,2.41,6.28a2.78,2.78,0,0,0-2,1.4c-1.16,2.21-2.37,5.05,1,5.42s44.33,10.42,50,10.73c4.67.26,10.19.45,12.29-1.14,2.54-.41,3.78-1.44,4.3-3.75.94-4.26,0-13.26,0-13.26Z" transform="translate(-81.99 -125.42)"/><path class="cls-4" d="M538,544.17s34.19,6.62,42.4,7.57,11.57,1.68,13.05,0a111.87,111.87,0,0,1-13.05-1C574.15,549.74,538,544.17,538,544.17Z" transform="translate(-81.99 -125.42)"/><path class="cls-4" d="M560.75,535.54a116.29,116.29,0,0,1,13.46-1,27.86,27.86,0,0,1,8.37,1.73l-1-.73C573.48,531.28,560.75,535.54,560.75,535.54Z" transform="translate(-81.99 -125.42)"/><path class="cls-16" d="M637.67,486.14c-6.4,0-10.85-.41-10.85,6.76,0,.45.37,8.56.41,9,.61,6.53,5.26,9.36,11.25,9.36,6.4,0,14.12-6.41,14.12-18.21C652.6,485.89,644.07,486.14,637.67,486.14Z" transform="translate(-81.99 -125.42)"/><polygon class="cls-3" points="527.38 419.88 534.02 431.39 561.41 431.39 554.76 419.88 527.38 419.88"/><polygon class="cls-4" points="528.95 420.87 534.95 430.4 559.66 430.4 553.67 420.87 528.95 420.87"/><path class="cls-15" d="M655.17,526.87c5.16-3.79,12.1-15.88,10-27.25s-3.58-18.09-10.21-21.36-17.25-5.36-22.62-1.79c-5,3.32-7.68,8.88-8.3,17a10.18,10.18,0,0,0,.55,4.28c.78,2.16,2.24,4.91,4.39,3.63,3.36-2,2.42-4.21.94-4.84s-3.57-3.79-1.15-4.94,3.89,1.36,3.89,2.52-.11,2.34,1.68,2.38,2.21-2.55,2.42-5.2,1.48-4.12,4-4.12,2.41,7.2,8.52,10.73c2.57,5.11-2.7,8.76-4.5,9.7-1.5.79-6,2.83-9.73,2s-5.13,13.67-4.92,19.66,2.83,15.47,8,17.78,12,3.16,16.69,3.27,8.73,0,8.73,0-11.78-4.21-13.05-9.16S650,530.66,655.17,526.87Z" transform="translate(-81.99 -125.42)"/><path class="cls-16" d="M646.28,505.66l-4.63,1.94,4.52,27s-5.83-15.21-6.46-16.47-6.62,3.39-7.67,8,12.57,21.39,14.25,22.86,4.21,2.53,5.9,1.06,3.57-3.79,2.63-8.32S646.28,505.66,646.28,505.66Z" transform="translate(-81.99 -125.42)"/><path class="cls-16" d="M630.13,504.53c-1.33-.21-3.79,2.39-4.49,2.32-2.49-.22-5-4.93-7.5-6.54,0,0-2.95,4.35-3.26,4.56a19.11,19.11,0,0,0-1.79,4.1c-.11.58.89,6.68.68,7s2.69,5.21,2.74,6,3.31,2.25,4,2.93,4.84,1.21,5.1,1.21,4.47-1.84,4.47-1.84,2.71-11.28,2.58-11.45c-.81-1,3.79-4.28,3.79-4.28S633.47,505,630.13,504.53Z" transform="translate(-81.99 -125.42)"/><path class="cls-17" d="M632.66,512.83s-2,13.21-8.84,11.32-5.68-23.84-5.68-23.84c-1.89-1.1-7.73-3.31-12.15-2.63a9.75,9.75,0,0,0-8,6.58c-.79,2.84-1.11,14-5.05,17s-12.47,2.06-12.47,2.06l19.73,23s14.2-6.63,21-9,6-6.63,6-6.63l4.74-2.36s6.63-2.69,8.84-8.21S632.66,512.83,632.66,512.83Z" transform="translate(-81.99 -125.42)"/><path class="cls-16" d="M619.56,533.75c-1.79-1-18.1-1.47-20.73-2s-1.79-1.58-1.79-3,10.21-10.21,10.21-10.21l-8.84-9.57s-13.15,20-13.89,23.15,3.16,6.83,8.21,7.47,22.41-1.48,25.78-.85,2.94,1.27,3.89,3.48,1.05,5.05,3.47,6,2-1.78,2.63-5S621.35,534.7,619.56,533.75Z" transform="translate(-81.99 -125.42)"/><path class="cls-4" d="M830.56,185.64A17.23,17.23,0,1,0,842,207.16,17.23,17.23,0,0,0,830.56,185.64Z" transform="translate(-81.99 -125.42)"/><path class="cls-22" d="M834.72,197l-14-4.26a2.78,2.78,0,0,0-3.46,1.83l-2.61,8.54a2.77,2.77,0,0,0,1.83,3.45l-1.18,3.88,6.75-2.18,8.39,2.57a2.76,2.76,0,0,0,3.45-1.84l2.61-8.53A2.78,2.78,0,0,0,834.72,197Zm-5.54,9.16-8.94-2.74.34-1.12,8.94,2.73Zm.74-2.41L821,201l.35-1.13,8.94,2.74Zm.73-2.4-8.94-2.74.34-1.12,8.94,2.73Z" transform="translate(-81.99 -125.42)"/><path class="cls-23" d="M278.79,259.4a14.63,14.63,0,1,0,12.26,16.67A14.63,14.63,0,0,0,278.79,259.4Z" transform="translate(-81.99 -125.42)"/><polygon class="cls-19" points="193.69 151 193.69 151 193.69 151 193.69 151"/><path class="cls-19" d="M277.84,270.36a3.72,3.72,0,0,0-2.53,7h0a3.72,3.72,0,1,0,2.5-7Zm1.31,4.41a2.72,2.72,0,0,1-3.47,1.65h0a2.71,2.71,0,0,1,1.84-5.1h0a2.73,2.73,0,0,1,1.63,3.46Z" transform="translate(-81.99 -125.42)"/><path class="cls-19" d="M284.1,274.11l-.74-.27a4.73,4.73,0,0,0,0-.65l.71-.34a1.44,1.44,0,0,0,.69-1.93l-.72-1.51a1.44,1.44,0,0,0-1.93-.68l-.71.33c-.15-.15-.32-.3-.48-.44l.26-.74a1.45,1.45,0,0,0-.87-1.84h0l-1.58-.56a1.46,1.46,0,0,0-1.85.88l-.26.75-.66,0-.33-.71a1.46,1.46,0,0,0-1.93-.69l-1.51.72a1.47,1.47,0,0,0-.75.82,1.43,1.43,0,0,0,.06,1.11l.34.71c-.15.16-.3.32-.44.49l-.74-.27a1.52,1.52,0,0,0-1.11.06,1.44,1.44,0,0,0-.74.83l-.56,1.57a1.45,1.45,0,0,0,.87,1.85h0l.74.26q0,.33,0,.66l-.7.33a1.46,1.46,0,0,0-.75.83,1.43,1.43,0,0,0,.06,1.11l.72,1.5a1.44,1.44,0,0,0,.82.75,1.43,1.43,0,0,0,1.11-.06l.71-.34a5,5,0,0,0,.48.44l-.26.74a1.43,1.43,0,0,0,.06,1.11,1.41,1.41,0,0,0,.81.74h0l1.58.56a1.44,1.44,0,0,0,1.85-.88l.26-.74c.22,0,.44,0,.65,0l.34.71a1.45,1.45,0,0,0,1.93.68l1.51-.71a1.44,1.44,0,0,0,.74-.83,1.47,1.47,0,0,0,0-1.11l-.34-.7c.15-.16.3-.32.44-.49l.74.26a1.45,1.45,0,0,0,1.85-.88L285,276a1.43,1.43,0,0,0-.06-1.11A1.36,1.36,0,0,0,284.1,274.11Zm-.07,1.51-.56,1.57a.43.43,0,0,1-.56.27l-1.44-.51-.22.31a6.2,6.2,0,0,1-.81.89l-.28.25.66,1.38a.44.44,0,0,1,0,.34.43.43,0,0,1-.23.25l-1.51.72a.45.45,0,0,1-.34,0,.47.47,0,0,1-.25-.23l-.66-1.37-.37.06a5.9,5.9,0,0,1-1.19.06l-.38,0L275.4,281a.44.44,0,0,1-.57.26l-1.57-.55a.51.51,0,0,1-.25-.23.45.45,0,0,1,0-.34l.51-1.44-.3-.22a5.7,5.7,0,0,1-.89-.8l-.26-.28-1.37.65a.45.45,0,0,1-.34,0,.38.38,0,0,1-.25-.23l-.72-1.5a.45.45,0,0,1,0-.34.45.45,0,0,1,.23-.26l1.38-.65-.06-.37a5.34,5.34,0,0,1-.06-1.2l0-.38-1.44-.51a.42.42,0,0,1-.27-.56l.56-1.58a.45.45,0,0,1,.22-.25.45.45,0,0,1,.34,0l1.44.51.22-.3a5.29,5.29,0,0,1,.81-.89l.28-.25-.66-1.38a.45.45,0,0,1,0-.34.43.43,0,0,1,.23-.25l1.51-.72a.45.45,0,0,1,.59.21l.65,1.38.38-.06a5.9,5.9,0,0,1,1.19-.06l.38,0,.51-1.44a.45.45,0,0,1,.57-.27l1.57.56a.47.47,0,0,1,.25.23.45.45,0,0,1,0,.34l-.51,1.44.3.22a5.7,5.7,0,0,1,.89.8l.25.28,1.38-.66a.45.45,0,0,1,.59.21l.72,1.51a.45.45,0,0,1,0,.34.43.43,0,0,1-.23.25l-1.38.66.06.37a6,6,0,0,1,.06,1.2l0,.37,1.44.51a.47.47,0,0,1,.25.23A.45.45,0,0,1,284,275.62Z" transform="translate(-81.99 -125.42)"/><path class="cls-23" d="M424.17,125.65a19.67,19.67,0,1,0,16.48,22.4A19.66,19.66,0,0,0,424.17,125.65Z" transform="translate(-81.99 -125.42)"/><polygon class="cls-19" points="349.53 19.67 334.06 10.74 334.06 28.61 349.53 19.67"/><path class="cls-23" d="M870.59,403.15l-18.73-12.84a3.36,3.36,0,0,0-4.68.88l-7.9,11.52a3.35,3.35,0,0,0,.88,4.67l18.72,12.84a3.37,3.37,0,0,0,4.68-.87l7.9-11.52A3.37,3.37,0,0,0,870.59,403.15Zm-21.19,5,6.48-9.47,5,10.35Z" transform="translate(-81.99 -125.42)"/><path class="cls-23" d="M286.76,157.6a10.61,10.61,0,1,0,13,7.46A10.61,10.61,0,0,0,286.76,157.6Zm-3.89,9.3a1.77,1.77,0,1,1,2.17,1.25A1.77,1.77,0,0,1,282.87,166.9Zm12.92,4.67a7.16,7.16,0,0,1-9.75,2.65.89.89,0,1,1,.88-1.54,5.38,5.38,0,0,0,7.33-2,.89.89,0,1,1,1.54.88Zm-2.21-5.74a1.77,1.77,0,1,1,1.24-2.18A1.78,1.78,0,0,1,293.58,165.83Z" transform="translate(-81.99 -125.42)"/><path class="cls-23" d="M575,150.59c.39-1-.07-1.58-.94-2.09a13.69,13.69,0,0,0-1.5-.71l1.15.47a1.66,1.66,0,0,0,1.27-3.07l-3.46-1.43-1.15-.47-1.39-.57L570,141.1A13.7,13.7,0,0,0,571.8,137c.3-1.23-.18-3-1.26-3.46l-.1,0c-.92-.38-1.68.51-2.2,1.79-2.57,6.25-5.61,4.89-5.61,4.89l-.77-.32.32-.77-5.38-2.22-5.7,13.84,5.38,2.22.32-.77,5.76,2.37,3.85,1.58,1.53.64a1.67,1.67,0,0,0,1.27-3.08l1.15.48a1.67,1.67,0,0,0,1.27-3.08l1.15.48A1.66,1.66,0,0,0,575,150.59Zm-20.37-.74a1.67,1.67,0,1,1,2.17-.91A1.66,1.66,0,0,1,554.58,149.85Z" transform="translate(-81.99 -125.42)"/><path class="cls-23" d="M197.6,451.5l-5.71-5.94a9.71,9.71,0,1,0-1.87,1.71l5.76,6a1.27,1.27,0,1,0,1.82-1.76Zm-13.14-19.35a7.17,7.17,0,1,1-7.17,7.17A7.18,7.18,0,0,1,184.46,432.15Z" transform="translate(-81.99 -125.42)"/></svg>